<svg width="16" height="16" viewBox="0 0 16 16" fill="none" xmlns="http://www.w3.org/2000/svg">
<path fill-rule="evenodd" clip-rule="evenodd" d="M4.23231 2.89897C4.39171 2.73956 4.60792 2.65001 4.83335 2.65001H12.2833V10.35H4.83335C4.5382 10.35 4.2493 10.4107 3.98335 10.5252V3.50001C3.98335 3.27457 4.0729 3.05837 4.23231 2.89897ZM3.98335 12.5C3.98335 12.7254 4.0729 12.9416 4.23231 13.101C4.39171 13.2605 4.60792 13.35 4.83335 13.35H12.2833V11.65H4.83335C4.60792 11.65 4.39171 11.7396 4.23231 11.899C4.0729 12.0584 3.98335 12.2746 3.98335 12.5ZM13.5833 11V2.00001C13.5833 1.64102 13.2923 1.35001 12.9333 1.35001H4.83335C4.26313 1.35001 3.71627 1.57652 3.31307 1.97973C2.90987 2.38293 2.68335 2.92979 2.68335 3.50001V12.5C2.68335 13.0702 2.90987 13.6171 3.31307 14.0203C3.71627 14.4235 4.26313 14.65 4.83335 14.65H12.9333C13.2923 14.65 13.5833 14.359 13.5833 14V11Z" fill="#117B5B"/>
</svg>
