<svg width="16" height="16" viewBox="0 0 16 16" fill="none" xmlns="http://www.w3.org/2000/svg">
<path d="M2.66711 8.6849C2.84791 8.6849 2.99351 8.5393 2.99351 8.3569V4.4449C2.99351 4.2641 2.84791 4.1185 2.66711 4.1185C2.48631 4.1185 2.34071 4.2657 2.34071 4.4449V8.3553C2.34071 8.5393 2.48631 8.6849 2.66711 8.6849ZM1.98871 12.0993C2.18871 12.2961 2.46391 12.4145 2.75991 12.4145C3.05591 12.4145 3.32951 12.3041 3.52311 12.1073L3.54071 12.0993V12.0961C3.74071 11.9009 3.85911 11.6305 3.85911 11.3313C3.85911 11.0193 3.74071 10.7441 3.54071 10.5425V10.5521V10.5441C3.33911 10.3489 3.06391 10.2241 2.75991 10.2241C2.46391 10.2241 2.18871 10.3473 1.98871 10.5441V10.5537C1.78711 10.7457 1.66551 11.0209 1.66551 11.3329C1.66551 11.6161 1.78071 11.8865 1.97271 12.0849L1.98871 12.0993ZM2.44791 11.0065C2.52631 10.9281 2.63991 10.8785 2.75991 10.8785C2.88791 10.8785 3.00151 10.9249 3.07991 11.0065C3.16311 11.0897 3.20951 11.1969 3.20951 11.3329C3.20951 11.4513 3.16311 11.5601 3.07991 11.6449C3.00151 11.7249 2.88791 11.7713 2.75991 11.7713C2.63991 11.7713 2.52631 11.7249 2.44791 11.6449L2.42551 11.6337C2.35671 11.5489 2.31351 11.4497 2.31351 11.3329C2.31351 11.1969 2.36311 11.0897 2.44791 11.0065ZM11.5807 10.8545C11.5807 11.1617 11.7039 11.4385 11.9007 11.6353C12.1055 11.8257 12.3823 11.9553 12.6815 11.9553C12.9823 11.9553 13.2575 11.8273 13.4559 11.6353C13.6511 11.4401 13.7791 11.1633 13.7791 10.8545C13.7791 10.5665 13.6639 10.2945 13.4719 10.0993L13.4543 10.0753C13.2543 9.8833 12.9791 9.7665 12.6799 9.7665C12.3807 9.7665 12.1039 9.8833 11.8991 10.0753C11.7039 10.2785 11.5807 10.5521 11.5807 10.8545ZM12.3615 10.5377C12.4367 10.4609 12.5567 10.4097 12.6799 10.4097C12.7983 10.4097 12.9135 10.4593 12.9935 10.5377L13.0095 10.5537C13.0831 10.6305 13.1247 10.7377 13.1247 10.8561C13.1247 10.9857 13.0751 11.0897 12.9935 11.1761C12.9135 11.2561 12.7983 11.3057 12.6799 11.3057C12.5567 11.3057 12.4367 11.2561 12.3615 11.1761C12.2799 11.0913 12.2335 10.9873 12.2335 10.8561C12.2335 10.7329 12.2815 10.6209 12.3615 10.5377ZM12.8911 1.8801C12.8143 1.5873 12.5135 1.4193 12.2271 1.4961L9.02071 2.3569C8.92471 2.2065 8.75991 2.1153 8.56631 2.1153H0.703912C0.404712 2.1153 0.159912 2.3489 0.159912 2.6465V13.9793C0.159912 14.2833 0.406312 14.5233 0.703912 14.5233H8.56471C8.86871 14.5233 9.10711 14.2817 9.10711 13.9793V7.1409L10.9775 14.1201C11.0559 14.4065 11.3503 14.5729 11.6431 14.4993L15.4383 13.4849C15.7295 13.4081 15.8991 13.1089 15.8207 12.8225L12.8911 1.8801ZM4.30551 13.4353H1.24311V3.1937H4.30711V13.4353H4.30551ZM8.02391 13.4353H4.95991V3.1937H8.02391V13.4353ZM11.8815 13.3169L9.22711 3.4193L11.9839 2.6817L14.6383 12.5793L11.8815 13.3169ZM6.60471 12.4145C6.90231 12.4145 7.17591 12.2961 7.37431 12.0993C7.57911 11.9089 7.70231 11.6321 7.70231 11.3313C7.70231 11.0305 7.58711 10.7617 7.39351 10.5665L7.37431 10.5441C7.17591 10.3489 6.90231 10.2241 6.60471 10.2241C6.29751 10.2241 6.02711 10.3473 5.82871 10.5441C5.62391 10.7457 5.50551 11.0209 5.50551 11.3329C5.50551 11.6337 5.62391 11.9105 5.82871 12.1009C6.02711 12.2961 6.29751 12.4145 6.60471 12.4145ZM6.28791 11.0065C6.36311 10.9281 6.47351 10.8785 6.60471 10.8785C6.72311 10.8785 6.84151 10.9281 6.91511 11.0065L6.93431 11.0209C7.00311 11.0977 7.04951 11.2065 7.04951 11.3329C7.04951 11.4513 6.99991 11.5601 6.91511 11.6449C6.84151 11.7249 6.72311 11.7713 6.60471 11.7713C6.47351 11.7713 6.36311 11.7249 6.28791 11.6449C6.20471 11.5601 6.15031 11.4513 6.15031 11.3329C6.15031 11.1969 6.20471 11.0897 6.28791 11.0065ZM6.60471 8.6849C6.78071 8.6849 6.92151 8.5393 6.92151 8.3569V4.4449C6.92151 4.2641 6.78071 4.1185 6.60471 4.1185C6.42711 4.1185 6.27831 4.2657 6.27831 4.4449V8.3553C6.27831 8.5393 6.42711 8.6849 6.60471 8.6849ZM10.8511 3.9425C10.6735 3.9921 10.5759 4.1697 10.6223 4.3489L11.6351 8.1281C11.6815 8.2977 11.8591 8.4033 12.0271 8.3505C12.2063 8.3137 12.3055 8.1329 12.2591 7.9553L11.2463 4.1777C11.2047 4.0065 11.0191 3.9009 10.8511 3.9425Z" fill="#38a671" fill-opacity="0.6"/>
</svg>
