<svg width="16" height="16" viewBox="0 0 16 16" fill="none" xmlns="http://www.w3.org/2000/svg">
<path d="M6.10489 13.8476V11.8032C6.10488 11.2831 6.52883 10.8606 7.05409 10.8571H8.97814C9.50591 10.8571 9.93375 11.2807 9.93375 11.8032V11.8032V13.854C9.93363 14.2955 10.2896 14.6564 10.7354 14.6667H12.0181C13.2968 14.6667 14.3334 13.6405 14.3334 12.3746V12.3746V6.5586C14.3266 6.06059 14.0904 5.59294 13.6921 5.28873L9.30523 1.79024C8.5367 1.18108 7.44422 1.18108 6.67569 1.79024L2.3081 5.29508C1.90825 5.59806 1.67167 6.06648 1.66675 6.56495V12.3746C1.66675 13.6405 2.70333 14.6667 3.98202 14.6667H5.26472C5.72165 14.6667 6.09206 14.3 6.09206 13.8476V13.8476" stroke="#3C3C43" stroke-opacity="0.6" stroke-width="1.3" stroke-linecap="round" stroke-linejoin="round"/>
</svg>
