<svg width="16" height="16" viewBox="0 0 16 16" fill="none" xmlns="http://www.w3.org/2000/svg">
<path fill-rule="evenodd" clip-rule="evenodd" d="M2.67594 3.27034C2.65224 3.30895 2.65023 3.32801 2.6501 3.33237C2.6501 3.33269 2.6501 3.33302 2.6501 3.33335V3.33436C2.65024 3.33876 2.65229 3.35782 2.67594 3.39636C2.70553 3.44455 2.76474 3.51526 2.87394 3.60132C3.09615 3.77644 3.45796 3.96257 3.96301 4.13092C4.96629 4.46535 6.39367 4.68335 8.0001 4.68335C9.60653 4.68335 11.0339 4.46535 12.0372 4.13092C12.5422 3.96257 12.904 3.77644 13.1263 3.60132C13.2355 3.51526 13.2947 3.44455 13.3243 3.39636C13.3479 3.35782 13.35 3.33876 13.3501 3.33435L13.3501 3.33338L13.3501 3.33335C13.3501 3.33302 13.3501 3.3327 13.3501 3.33237C13.35 3.32801 13.348 3.30895 13.3243 3.27034C13.2947 3.22215 13.2355 3.15144 13.1263 3.06538C12.904 2.89026 12.5422 2.70413 12.0372 2.53578C11.0339 2.20135 9.60653 1.98335 8.0001 1.98335C6.39367 1.98335 4.96629 2.20135 3.96301 2.53578C3.45796 2.70413 3.09615 2.89026 2.87394 3.06538C2.76474 3.15144 2.70553 3.22215 2.67594 3.27034ZM13.3501 4.99042C13.0773 5.13187 12.7728 5.25604 12.4483 5.36421C11.28 5.75364 9.70737 5.98335 8.0001 5.98335C6.29282 5.98335 4.72019 5.75364 3.55191 5.36421C3.22741 5.25604 2.92285 5.13187 2.6501 4.99042V7.99937V8.00017C2.65016 8.00452 2.65152 8.02421 2.67625 8.06479C2.70563 8.113 2.7643 8.18353 2.87254 8.2693C3.0929 8.44391 3.45243 8.62972 3.95593 8.79782C4.95622 9.13176 6.38333 9.34937 8.0001 9.34937C9.61687 9.34937 11.044 9.13176 12.0443 8.79782C12.5478 8.62972 12.9073 8.44391 13.1277 8.2693C13.2359 8.18353 13.2946 8.113 13.3239 8.06479C13.3488 8.02403 13.3501 8.00435 13.3501 8.00011C13.3501 7.99986 13.3501 7.99966 13.3501 7.99951V7.99937V4.99042ZM14.6501 7.99937V3.33335C14.6501 2.77268 14.3086 2.342 13.9309 2.04434C13.5459 1.74091 13.029 1.49607 12.4483 1.30249C11.28 0.913063 9.70737 0.68335 8.0001 0.68335C6.29282 0.68335 4.72019 0.913063 3.55191 1.30249C2.97116 1.49607 2.4543 1.74091 2.06927 2.04434C1.69158 2.342 1.3501 2.77268 1.3501 3.33335V7.99937V12.6667C1.3501 13.2257 1.68784 13.6565 2.06516 13.9555C2.44896 14.2596 2.96444 14.5047 3.54427 14.6982C4.71064 15.0876 6.28353 15.3167 8.0001 15.3167C9.71666 15.3167 11.2896 15.0876 12.4559 14.6982C13.0358 14.5047 13.5512 14.2596 13.935 13.9555C14.3124 13.6565 14.6501 13.2257 14.6501 12.6667V7.99937ZM13.3501 9.6599C13.0795 9.80028 12.7776 9.92352 12.4559 10.0309C11.2896 10.4203 9.71666 10.6494 8.0001 10.6494C6.28353 10.6494 4.71064 10.4203 3.54427 10.0309C3.22257 9.92352 2.92068 9.80028 2.6501 9.6599V12.6667L2.6501 12.6668C2.65008 12.6694 2.64993 12.6889 2.67625 12.7321C2.70563 12.7803 2.7643 12.8508 2.87254 12.9366C3.0929 13.1112 3.45243 13.297 3.95593 13.4651C4.95622 13.7991 6.38333 14.0167 8.0001 14.0167C9.61687 14.0167 11.044 13.7991 12.0443 13.4651C12.5478 13.297 12.9073 13.1112 13.1277 12.9366C13.2359 12.8508 13.2946 12.7803 13.3239 12.7321C13.3503 12.6889 13.3501 12.6694 13.3501 12.6668V12.6667V9.6599Z" fill="#3C3C43" fill-opacity="0.6"/>
</svg>
