<svg width="32" height="32" viewBox="0 0 32 32" fill="none" xmlns="http://www.w3.org/2000/svg">
<circle cx="16" cy="16" r="16" fill="#FF0707"/>
<path d="M7.07812 12.9961L8.25646 14.1745C8.67646 13.7545 9.13313 13.3828 9.60812 13.042L8.41729 11.8511C7.95063 12.2028 7.49729 12.5761 7.07812 12.9961ZM11.3956 10.217L9.08979 7.91113L7.91146 9.08947L22.9115 24.0895L24.0898 22.9111L19.9131 18.7345L20.7265 17.922C19.7933 16.996 18.6031 16.3723 17.3106 16.132L15.4123 14.2336C17.7365 14.0745 20.1198 14.857 21.8531 16.5895L23.0315 15.4111C20.6165 12.9953 17.1473 12.1311 13.9581 12.7795L12.6873 11.5086C13.7598 11.173 14.8769 11.0016 16.0006 11.0003C18.9481 11.0003 21.6981 12.1278 23.7448 14.1745L24.9231 12.9961C22.5623 10.6345 19.3931 9.33363 16.0006 9.33363C14.424 9.33888 12.8623 9.63846 11.3956 10.217ZM8.96979 15.4111L10.1481 16.5895C10.6589 16.0832 11.2358 15.6484 11.8631 15.297L10.6473 14.0811C10.0498 14.457 9.48479 14.897 8.96979 15.4111ZM11.2748 17.9228L12.4531 19.1011C13.0298 18.5245 13.7323 18.142 14.4773 17.9111L13.1798 16.6136C12.4713 16.9321 11.826 17.3755 11.2748 17.9228ZM17.6581 21.092L15.9081 19.342C15.5872 19.3592 15.2781 19.469 15.0183 19.6581C14.7584 19.8473 14.559 20.1076 14.444 20.4078C14.329 20.7079 14.3034 21.0349 14.3703 21.3492C14.4372 21.6636 14.5938 21.9518 14.821 22.1791C15.0483 22.4063 15.3365 22.5629 15.6509 22.6298C15.9652 22.6967 16.2922 22.6711 16.5923 22.5561C16.8924 22.4411 17.1528 22.2417 17.342 21.9818C17.5311 21.722 17.6409 21.4129 17.6581 21.092Z" fill="white"/>
</svg>
