<svg width="32" height="32" viewBox="0 0 32 32" fill="none" xmlns="http://www.w3.org/2000/svg">
<circle cx="16" cy="16" r="16" fill="#FF0707"/>
<path d="M18.0577 18.567L15.166 16.8337V11.8337H16.416V16.2087L18.9827 17.7337C18.641 17.967 18.3243 18.2503 18.0577 18.567ZM16.8993 22.6003C16.5993 22.642 16.3077 22.667 15.9993 22.667C12.316 22.667 9.33268 19.6837 9.33268 16.0003C9.33268 12.317 12.316 9.33366 15.9993 9.33366C19.6827 9.33366 22.666 12.317 22.666 16.0003C22.666 16.3087 22.641 16.6003 22.5993 16.9003C23.1743 16.9837 23.7077 17.167 24.1994 17.4337C24.2827 16.967 24.3327 16.492 24.3327 16.0003C24.3327 11.417 20.5827 7.66699 15.9993 7.66699C11.416 7.66699 7.66602 11.417 7.66602 16.0003C7.66602 20.5837 11.391 24.3337 15.9993 24.3337C16.491 24.3337 16.966 24.2837 17.4327 24.2003C17.166 23.7087 16.9827 23.1753 16.8993 22.6003ZM23.5993 18.8837L21.8327 20.6587L20.066 18.892L18.891 20.067L20.6577 21.8337L18.891 23.6003L20.066 24.7837L21.8327 23.0087L23.5993 24.7837L24.7827 23.6003L23.0077 21.8337L24.7827 20.067L23.5993 18.8837Z" fill="white"/>
</svg>
