<svg width="32" height="32" viewBox="0 0 32 32" fill="none" xmlns="http://www.w3.org/2000/svg">
<circle cx="16" cy="16" r="16" fill="#FF0707"/>
<path d="M20.6686 15.1667V15.3333C20.6686 17.2833 19.0436 19.8667 15.6686 22.95C12.2936 19.8667 10.6686 17.2917 10.6686 15.3333C10.6686 12.3083 12.877 10.1667 15.6686 10.1667C15.952 10.1667 16.2353 10.1917 16.502 10.2333V8.55C16.227 8.51667 15.952 8.5 15.6686 8.5C12.1686 8.5 9.00195 11.1833 9.00195 15.3333C9.00195 18.1 11.227 21.375 15.6686 25.1667C20.1103 21.375 22.3353 18.1 22.3353 15.3333V15.1667H20.6686Z" fill="white"/>
<path d="M15.6686 16.8333C16.5891 16.8333 17.3353 16.0871 17.3353 15.1667C17.3353 14.2462 16.5891 13.5 15.6686 13.5C14.7481 13.5 14.002 14.2462 14.002 15.1667C14.002 16.0871 14.7481 16.8333 15.6686 16.8333Z" fill="white"/>
<path d="M24.4508 8.40013L23.2674 7.2168L21.5008 8.9918L19.7341 7.2168L18.5508 8.40013L20.3258 10.1668L18.5508 11.9335L19.7341 13.1168L21.5008 11.3418L23.2674 13.1168L24.4508 11.9335L22.6758 10.1668L24.4508 8.40013Z" fill="white"/>
</svg>
