<svg width="40" height="40" viewBox="0 0 40 40" fill="none" xmlns="http://www.w3.org/2000/svg">
<path d="M15.1269 18.6468C19.653 18.6468 23.3223 14.9775 23.3223 10.4513C23.3223 5.92488 19.653 2.25586 15.1269 2.25586C10.6007 2.25586 6.9314 5.92488 6.9314 10.4513C6.93564 14.9757 10.6022 18.6426 15.1269 18.6468ZM15.1269 3.80657C18.7968 3.80657 21.7716 6.7814 21.7716 10.4513C21.7716 14.1213 18.7968 17.0961 15.1269 17.0961C11.4569 17.0961 8.48211 14.1213 8.48211 10.4513C8.48635 6.78322 11.4588 3.81082 15.1269 3.80657Z" fill="black"/>
<path d="M15.119 22.043H15.1423C18.1005 22.0276 20.9484 23.1652 23.0822 25.2141L24.1598 24.0977C21.7362 21.7704 18.5024 20.4772 15.1423 20.4923H15.119C11.5681 20.4999 8.27286 21.8801 5.83048 24.3924C3.34934 26.9278 1.99246 30.3936 2.00003 34.1541C2.00155 34.3597 2.08211 34.5569 2.22507 34.7047C2.37075 34.8504 2.56913 34.9315 2.77539 34.9294L23.4774 34.8907V33.3399L3.57407 33.3787C3.73701 30.3315 4.9155 27.5481 6.939 25.4779C9.08698 23.2682 11.9946 22.0506 15.119 22.043V22.043Z" fill="black"/>
<path d="M32.0838 26.8204L28.3388 29.8676L26.9664 28.2626C26.6881 27.9374 26.1986 27.8989 25.8734 28.1772C25.5478 28.4556 25.5096 28.9453 25.7879 29.2706L27.6488 31.4495C27.7966 31.6209 28.0116 31.7199 28.2382 31.7209C28.4157 31.7224 28.5883 31.6621 28.7264 31.55L33.0609 28.0222C33.2205 27.8919 33.3216 27.7032 33.3419 27.4982C33.3622 27.2931 33.3001 27.0884 33.1693 26.9291C33.0403 26.7698 32.8531 26.6686 32.6493 26.6483C32.4454 26.628 32.2419 26.6898 32.0838 26.8204V26.8204Z" fill="black"/>
<path d="M29.4711 20.6564C24.7608 20.6564 20.9421 24.475 20.9421 29.1853C20.9421 33.8959 24.7608 37.7142 29.4711 37.7142C34.1814 37.7142 38 33.8959 38 29.1853C38.0115 26.9198 37.1168 24.7436 35.5146 23.1417C33.9127 21.5398 31.7366 20.6449 29.4711 20.6564V20.6564ZM29.4711 36.1635C25.617 36.1635 22.4929 33.0394 22.4929 29.1853C22.4929 25.3315 25.617 22.2071 29.4711 22.2071C33.3251 22.2071 36.4493 25.3315 36.4493 29.1853C36.4493 33.0394 33.3251 36.1635 29.4711 36.1635Z" fill="black"/>
</svg>
