<svg width="62" height="62" viewBox="0 0 62 62" fill="none" xmlns="http://www.w3.org/2000/svg">
<circle cx="31" cy="31" r="31" fill="#14B86E" fill-opacity="0.15"/>
<path d="M42.1818 44.8176V41.7267C42.1818 40.0872 41.5305 38.5148 40.3712 37.3555C39.2118 36.1962 37.6395 35.5449 36 35.5449H25.1818C23.5423 35.5449 21.9699 36.1962 20.8106 37.3555C19.6513 38.5148 19 40.0872 19 41.7267V44.8176" stroke="#14B86E" stroke-width="2.5" stroke-linecap="round" stroke-linejoin="round"/>
<path d="M30.591 29.3636C34.0051 29.3636 36.7728 26.5959 36.7728 23.1818C36.7728 19.7677 34.0051 17 30.591 17C27.1769 17 24.4092 19.7677 24.4092 23.1818C24.4092 26.5959 27.1769 29.3636 30.591 29.3636Z" stroke="#14B86E" stroke-width="2.5" stroke-linecap="round" stroke-linejoin="round"/>
<path d="M26.5 43.0909L29.5909 46.1818L35.7727 40" stroke="#14B86E" stroke-width="2.5" stroke-linecap="round" stroke-linejoin="round"/>
</svg>
