<svg width="62" height="62" viewBox="0 0 62 62" fill="none" xmlns="http://www.w3.org/2000/svg">
<circle cx="31" cy="31" r="31" fill="#00695C" fill-opacity="0.15"/>
<path d="M39.5716 38.0017V35.716C39.5716 34.5035 39.0899 33.3408 38.2326 32.4835C37.3753 31.6262 36.2126 31.1445 35.0001 31.1445H27.0001C25.7877 31.1445 24.625 31.6262 23.7677 32.4835C22.9103 33.3408 22.4287 34.5035 22.4287 35.716V38.0017" stroke="#00695C" stroke-width="2.5" stroke-linecap="round" stroke-linejoin="round"/>
<path d="M30.9997 26.5725C33.5244 26.5725 35.5711 24.5258 35.5711 22.0011C35.5711 19.4764 33.5244 17.4297 30.9997 17.4297C28.4749 17.4297 26.4282 19.4764 26.4282 22.0011C26.4282 24.5258 28.4749 26.5725 30.9997 26.5725Z" stroke="#00695C" stroke-width="2.5" stroke-linecap="round" stroke-linejoin="round"/>
<path d="M18.5 33.5013L16.943 33.4297C16.1348 33.4297 15.3596 33.7508 14.7881 34.3223C14.2166 34.8938 13.8955 35.669 13.8955 36.4772V38.001" stroke="#00695C" stroke-width="2.5" stroke-linecap="round" stroke-linejoin="round"/>
<path d="M19.6095 30.3822C21.2926 30.3822 22.6571 29.0177 22.6571 27.3346C22.6571 25.6515 21.2926 24.2871 19.6095 24.2871C17.9264 24.2871 16.562 25.6515 16.562 27.3346C16.562 29.0177 17.9264 30.3822 19.6095 30.3822Z" stroke="#00695C" stroke-width="2.5" stroke-linecap="round" stroke-linejoin="round"/>
<path d="M48.1042 38.001V36.4772C48.1042 35.669 47.7832 34.8938 47.2116 34.3223C46.6401 33.7508 45.865 33.4297 45.0567 33.4297C45.0567 33.4297 44.3083 33.4297 43.5 33.4297" stroke="#00695C" stroke-width="2.5" stroke-linecap="round" stroke-linejoin="round"/>
<path d="M42.3903 30.3822C44.0734 30.3822 45.4378 29.0177 45.4378 27.3346C45.4378 25.6515 44.0734 24.2871 42.3903 24.2871C40.7072 24.2871 39.3428 25.6515 39.3428 27.3346C39.3428 29.0177 40.7072 30.3822 42.3903 30.3822Z" stroke="#00695C" stroke-width="2.5" stroke-linecap="round" stroke-linejoin="round"/>
</svg>
