<svg width="40" height="40" viewBox="0 0 40 40" fill="none" xmlns="http://www.w3.org/2000/svg">
<path d="M33.2695 33.3164H14.0076C13.7326 33.3164 13.5095 33.0932 13.5095 32.8182C13.5095 32.5432 13.7326 32.32 14.0076 32.32H33.2702C34.42 32.32 35.3559 31.3847 35.3559 30.2343V13.1524C35.3559 12.0026 34.4207 11.0667 33.2702 11.0667H6.45248C5.30266 11.0667 4.36673 12.0019 4.36673 13.1524V30.2349C4.36673 31.3847 5.302 32.3207 6.45248 32.3207H9.87668C10.1517 32.3207 10.3749 32.5438 10.3749 32.8188C10.3749 33.0938 10.1517 33.317 9.87668 33.317H6.45248C4.75333 33.317 3.37036 31.9347 3.37036 30.2349V13.1524C3.37036 11.4533 4.75266 10.0703 6.45248 10.0703H33.2702C34.9693 10.0703 36.3523 11.4526 36.3523 13.1524V30.2349C36.3516 31.9341 34.9693 33.3164 33.2695 33.3164Z" fill="black"/>
<path d="M16.2606 29.18H7.38027C7.10527 29.18 6.88208 28.9568 6.88208 28.6818C6.88208 28.4068 7.10527 28.1836 7.38027 28.1836H16.2599C16.5349 28.1836 16.7581 28.4068 16.7581 28.6818C16.7581 28.9568 16.5356 29.18 16.2606 29.18Z" fill="black"/>
<path d="M11.3565 26.8831H7.38027C7.10527 26.8831 6.88208 26.6599 6.88208 26.3849C6.88208 26.1099 7.10527 25.8867 7.38027 25.8867H11.3565C11.6315 25.8867 11.8546 26.1099 11.8546 26.3849C11.8546 26.6599 11.6315 26.8831 11.3565 26.8831Z" fill="black"/>
<path d="M11.0305 18.9091H7.44159C6.86502 18.9091 6.39673 18.4402 6.39673 17.8643V14.2753C6.39673 13.6988 6.86569 13.2305 7.44159 13.2305H11.0305C11.6071 13.2305 12.0754 13.6994 12.0754 14.2753V17.8643C12.0761 18.4408 11.6071 18.9091 11.0305 18.9091ZM7.44159 14.2268C7.41502 14.2268 7.3931 14.2488 7.3931 14.2753V17.8643C7.3931 17.8908 7.41502 17.9128 7.44159 17.9128H11.0305C11.0571 17.9128 11.079 17.8908 11.079 17.8643V14.2753C11.079 14.2488 11.0571 14.2268 11.0305 14.2268H7.44159Z" fill="black"/>
<path d="M29.905 30.2201C28.1985 30.2201 26.8096 28.8318 26.8096 27.1247C26.8096 25.4176 28.1979 24.0293 29.905 24.0293C31.6121 24.0293 33.0004 25.4176 33.0004 27.1247C33.0004 28.8318 31.6114 30.2201 29.905 30.2201ZM29.905 25.0263C28.7479 25.0263 27.8059 25.9676 27.8059 27.1254C27.8059 28.2825 28.7472 29.2244 29.905 29.2244C31.0628 29.2244 32.004 28.2831 32.004 27.1254C32.004 25.9676 31.0621 25.0263 29.905 25.0263Z" fill="black"/>
<path fill-rule="evenodd" clip-rule="evenodd" d="M18.5072 14.9177C18.8399 14.9177 19.1095 14.648 19.1095 14.3153C19.1095 13.9826 18.8399 13.7129 18.5072 13.7129C18.1745 13.7129 17.9048 13.9826 17.9048 14.3153C17.9048 14.648 18.1745 14.9177 18.5072 14.9177ZM20.5285 14.9177C20.8612 14.9177 21.1309 14.648 21.1309 14.3153C21.1309 13.9826 20.8612 13.7129 20.5285 13.7129C20.1958 13.7129 19.9261 13.9826 19.9261 14.3153C19.9261 14.648 20.1958 14.9177 20.5285 14.9177ZM23.1519 14.3153C23.1519 14.648 22.8822 14.9177 22.5496 14.9177C22.2169 14.9177 21.9472 14.648 21.9472 14.3153C21.9472 13.9826 22.2169 13.7129 22.5496 13.7129C22.8822 13.7129 23.1519 13.9826 23.1519 14.3153ZM26.4142 14.9177C26.7469 14.9177 27.0166 14.648 27.0166 14.3153C27.0166 13.9826 26.7469 13.7129 26.4142 13.7129C26.0815 13.7129 25.8118 13.9826 25.8118 14.3153C25.8118 14.648 26.0815 14.9177 26.4142 14.9177ZM29.0379 14.3153C29.0379 14.648 28.7682 14.9177 28.4355 14.9177C28.1028 14.9177 27.8331 14.648 27.8331 14.3153C27.8331 13.9826 28.1028 13.7129 28.4355 13.7129C28.7682 13.7129 29.0379 13.9826 29.0379 14.3153ZM30.4568 14.9177C30.7895 14.9177 31.0592 14.648 31.0592 14.3153C31.0592 13.9826 30.7895 13.7129 30.4568 13.7129C30.1241 13.7129 29.8544 13.9826 29.8544 14.3153C29.8544 14.648 30.1241 14.9177 30.4568 14.9177ZM33.0808 14.3153C33.0808 14.648 32.8111 14.9177 32.4784 14.9177C32.1457 14.9177 31.876 14.648 31.876 14.3153C31.876 13.9826 32.1457 13.7129 32.4784 13.7129C32.8111 13.7129 33.0808 13.9826 33.0808 14.3153Z" fill="black"/>
<path d="M8.39736 10.9349C8.21071 10.9349 8.03136 10.8292 7.94633 10.6492C7.82876 10.4001 7.93504 10.1032 8.18414 9.98631L25.157 1.97281C25.9295 1.60814 26.7971 1.56695 27.6008 1.8579C28.4039 2.14817 29.0455 2.7347 29.4062 3.50922L31.7331 8.50371C31.8493 8.7528 31.7411 9.04972 31.492 9.16596C31.2429 9.28221 30.946 9.17393 30.8297 8.92484L28.5028 3.93035C28.2551 3.39829 27.814 2.99509 27.262 2.79582C26.71 2.59654 26.1135 2.62444 25.5828 2.87486L8.60926 10.887C8.54084 10.9196 8.46843 10.9349 8.39736 10.9349Z" fill="black"/>
<path d="M19.1104 11.0444C18.9251 11.0444 18.7477 10.9408 18.6614 10.7634C18.5418 10.5157 18.6448 10.2181 18.8925 10.0979L29.2967 5.06153C29.5444 4.94196 29.842 5.04492 29.9622 5.29268C30.0818 5.54045 29.9789 5.83803 29.7311 5.95826L19.327 10.9946C19.2572 11.0285 19.1828 11.0444 19.1104 11.0444Z" fill="black"/>
</svg>
