<svg width="62" height="62" viewBox="0 0 62 62" fill="none" xmlns="http://www.w3.org/2000/svg">
<circle cx="31" cy="31" r="31" fill="#3ABCF3" fill-opacity="0.15"/>
<path d="M22.6667 16H19.3333C18.4493 16 17.6014 16.3512 16.9763 16.9763C16.3512 17.6014 16 18.4493 16 19.3333V22.6667" stroke="#3ABCF3" stroke-width="2.5" stroke-linecap="round" stroke-linejoin="round"/>
<path d="M39.3335 16H42.6668C43.5509 16 44.3987 16.3512 45.0239 16.9763C45.649 17.6014 46.0002 18.4493 46.0002 19.3333V22.6667" stroke="#3ABCF3" stroke-width="2.5" stroke-linecap="round" stroke-linejoin="round"/>
<path d="M37.6665 24.334V27.6673" stroke="#3ABCF3" stroke-width="2.5" stroke-linecap="round" stroke-linejoin="round"/>
<path d="M24.3335 24.334V27.6673" stroke="#3ABCF3" stroke-width="2.5" stroke-linecap="round" stroke-linejoin="round"/>
<path d="M26 37.666C26 37.666 27.6667 39.3327 31 39.3327C34.3333 39.3327 36 37.666 36 37.666" stroke="#3ABCF3" stroke-width="2.5" stroke-linecap="round" stroke-linejoin="round"/>
<path d="M31.0002 24.334V32.6673H29.3335" stroke="#3ABCF3" stroke-width="2.5" stroke-linecap="round" stroke-linejoin="round"/>
<path d="M22.6667 46.0007H19.3333C18.4493 46.0007 17.6014 45.6495 16.9763 45.0243C16.3512 44.3992 16 43.5514 16 42.6673V39.334" stroke="#3ABCF3" stroke-width="2.5" stroke-linecap="round" stroke-linejoin="round"/>
<path d="M39.3335 46.0007H42.6668C43.5509 46.0007 44.3987 45.6495 45.0239 45.0243C45.649 44.3992 46.0002 43.5514 46.0002 42.6673V39.334" stroke="#3ABCF3" stroke-width="2.5" stroke-linecap="round" stroke-linejoin="round"/>
</svg>
