<svg width="40" height="40" viewBox="0 0 40 40" fill="none" xmlns="http://www.w3.org/2000/svg">
<path d="M34.4019 28.0098C34.9445 28.0098 35.4619 28.0098 35.9992 28.0098C35.9992 28.0774 35.9992 28.1365 35.9992 28.1952C35.9992 29.716 36.0015 31.237 35.9986 32.7578C35.9956 34.315 34.9852 35.583 33.4684 35.9253C33.2517 35.9742 33.0242 35.9946 32.8017 35.9953C31.2533 36.0012 29.7053 35.9985 28.1569 35.9979C28.1139 35.9979 28.0705 35.9933 28.0144 35.99C28.0144 35.4635 28.0144 34.9432 28.0144 34.402C28.082 34.402 28.1457 34.402 28.2094 34.402C29.7023 34.402 31.1955 34.4023 32.6884 34.402C33.7172 34.4016 34.4019 33.714 34.4019 32.6813C34.4019 31.194 34.4019 29.7068 34.4019 28.2195C34.4019 28.1545 34.4019 28.0899 34.4019 28.0098Z" fill="black"/>
<path d="M35.98 11.9781C35.4486 11.9781 34.9368 11.9781 34.4054 11.9781C34.4054 11.9049 34.4054 11.8408 34.4054 11.7768C34.4054 10.2952 34.4054 8.81347 34.4054 7.33178C34.4054 6.25646 33.7328 5.58651 32.6521 5.58651C31.176 5.58651 29.7001 5.58651 28.224 5.58651C28.159 5.58651 28.0943 5.58651 28.0168 5.58651C28.0168 5.05936 28.0168 4.54369 28.0168 4.01161C28.0832 4.00832 28.1465 4.00274 28.2102 4.00274C29.7195 4.00209 31.2292 3.99618 32.7385 4.00406C34.0531 4.01095 35.0254 4.60507 35.6495 5.7595C35.8845 6.19442 35.9908 6.66709 35.9908 7.16241C35.9912 8.7209 35.9912 10.2794 35.9908 11.8382C35.9908 11.8809 35.9846 11.9236 35.98 11.9781Z" fill="black"/>
<path d="M11.9764 34.4068C11.9764 34.9478 11.9764 35.4598 11.9764 35.9837C11.914 35.987 11.8609 35.9923 11.8077 35.9923C10.2764 35.9926 8.74505 35.9952 7.21374 35.9919C5.66995 35.9886 4.40059 34.9681 4.06971 33.4602C4.02342 33.2488 4.00504 33.0269 4.00438 32.8099C3.99913 31.2679 4.00143 29.7258 4.00176 28.1837C4.00176 28.1305 4.00767 28.0777 4.01128 28.0156C4.53485 28.0156 5.0466 28.0156 5.58461 28.0156C5.58461 28.0803 5.58461 28.143 5.58461 28.206C5.58461 29.731 5.57673 31.2564 5.58855 32.7814C5.5938 33.4651 5.91877 33.9788 6.54672 34.2575C6.76895 34.3563 7.03287 34.3986 7.27841 34.4006C8.77624 34.4134 10.2741 34.4072 11.7719 34.4072C11.8362 34.4068 11.9006 34.4068 11.9764 34.4068Z" fill="black"/>
<path d="M5.58488 11.9798C5.04786 11.9798 4.53611 11.9798 4.01123 11.9798C4.00761 11.9194 4.00203 11.8665 4.00203 11.814C4.00138 10.2719 3.99744 8.72984 4.00269 7.18776C4.00827 5.66832 5.04195 4.39376 6.52796 4.07208C6.72918 4.02842 6.93959 4.00873 7.14574 4.00807C8.7043 4.00249 10.2629 4.00413 11.8214 4.00413C11.8693 4.00413 11.9169 4.01037 11.975 4.01431C11.975 4.53523 11.975 5.04729 11.975 5.58757C11.9143 5.58757 11.8516 5.58757 11.7892 5.58757C10.2589 5.5879 8.72859 5.57871 7.19826 5.5925C6.52172 5.59873 6.01293 5.92501 5.73522 6.54637C5.63806 6.76367 5.59309 7.02134 5.59112 7.26095C5.57865 8.76398 5.58488 10.2673 5.58488 11.7703C5.58488 11.835 5.58488 11.9 5.58488 11.9798Z" fill="black"/>
<path d="M12.4749 13.0059V15.9082" stroke="black" stroke-width="2" stroke-miterlimit="10" stroke-linecap="round"/>
<path d="M27.3596 13.0059V15.9082" stroke="black" stroke-width="2" stroke-miterlimit="10" stroke-linecap="round"/>
<path d="M19.9171 12.9941V21.7389H17.6472" stroke="black" stroke-width="2" stroke-miterlimit="10" stroke-linecap="round" stroke-linejoin="round"/>
<path d="M14.8193 27.0215C14.8193 27.0215 20.1778 30.8169 25.1643 27.0215" stroke="black" stroke-width="2" stroke-miterlimit="10" stroke-linecap="round"/>
</svg>
