<svg width="62" height="62" viewBox="0 0 62 62" fill="none" xmlns="http://www.w3.org/2000/svg">
<circle cx="31" cy="31" r="31" fill="#FF9800" fill-opacity="0.15"/>
<path d="M40.6836 18.4507C40.5502 18.4507 40.4169 18.4173 40.3002 18.3507C37.1002 16.7007 34.3336 16.0007 31.0169 16.0007C27.7169 16.0007 24.5836 16.784 21.7336 18.3507C21.3336 18.5673 20.8336 18.4173 20.6002 18.0173C20.4963 17.8224 20.473 17.5945 20.5353 17.3825C20.5976 17.1706 20.7406 16.9916 20.9336 16.884C24.0336 15.2007 27.4336 14.334 31.0169 14.334C34.5669 14.334 37.6669 15.1173 41.0669 16.8673C41.4836 17.084 41.6336 17.584 41.4169 17.984C41.351 18.1229 41.2472 18.2404 41.1175 18.323C40.9877 18.4055 40.8373 18.4498 40.6836 18.4507V18.4507ZM16.8336 27.2007C16.6799 27.2021 16.5289 27.1609 16.3972 27.0818C16.2656 27.0026 16.1584 26.8885 16.0876 26.7521C16.0169 26.6158 15.9852 26.4625 15.9963 26.3092C16.0073 26.156 16.0606 26.0088 16.1502 25.884C17.8002 23.5507 19.9002 21.7173 22.4002 20.434C27.6336 17.734 34.3336 17.7173 39.5836 20.4173C42.0836 21.7007 44.1836 23.5173 45.8336 25.834C45.8975 25.9236 45.9431 26.0249 45.9676 26.1322C45.9922 26.2394 45.9953 26.3505 45.9767 26.459C45.9581 26.5675 45.9182 26.6712 45.8593 26.7641C45.8004 26.8571 45.7237 26.9375 45.6336 27.0007C45.2502 27.2673 44.7336 27.184 44.4669 26.8007C43.0073 24.7346 41.0686 23.0533 38.8169 21.9007C34.0336 19.4507 27.9169 19.4507 23.1502 21.9173C20.8836 23.084 18.9836 24.7507 17.4836 26.8507C17.3502 27.084 17.1002 27.2007 16.8336 27.2007V27.2007ZM27.2502 47.3173C27.1409 47.3187 27.0326 47.2971 26.9321 47.254C26.8316 47.211 26.7413 47.1474 26.6669 47.0673C25.2169 45.6173 24.4336 44.684 23.3169 42.6673C22.1669 40.6173 21.5669 38.1173 21.5669 35.434C21.5669 30.484 25.8002 26.4507 31.0002 26.4507C36.2002 26.4507 40.4336 30.484 40.4336 35.434C40.4336 35.9007 40.0669 36.2673 39.6002 36.2673C39.1336 36.2673 38.7669 35.9007 38.7669 35.434C38.7669 31.4007 35.2836 28.1173 31.0002 28.1173C26.7169 28.1173 23.2336 31.4007 23.2336 35.434C23.2336 37.834 23.7669 40.0507 24.7836 41.8507C25.8502 43.7673 26.5836 44.584 27.8669 45.884C28.1836 46.2173 28.1836 46.734 27.8669 47.0673C27.6836 47.234 27.4669 47.3173 27.2502 47.3173ZM39.2002 44.234C37.2169 44.234 35.4669 43.734 34.0336 42.7507C31.5502 41.0673 30.0669 38.334 30.0669 35.434C30.0669 34.9673 30.4336 34.6007 30.9002 34.6007C31.3669 34.6007 31.7336 34.9673 31.7336 35.434C31.7336 37.784 32.9336 40.0007 34.9669 41.3673C36.1502 42.1673 37.5336 42.5507 39.2002 42.5507C39.6002 42.5507 40.2669 42.5007 40.9336 42.384C41.3836 42.3007 41.8169 42.6007 41.9002 43.0673C41.9836 43.5173 41.6836 43.9507 41.2169 44.034C40.2669 44.2173 39.4336 44.234 39.2002 44.234V44.234ZM35.8502 47.6673C35.7836 47.6673 35.7002 47.6507 35.6336 47.634C32.9836 46.9007 31.2502 45.9173 29.4336 44.134C28.2824 42.9973 27.3695 41.6423 26.7485 40.1484C26.1275 38.6546 25.8108 37.0518 25.8169 35.434C25.8169 32.734 28.1169 30.534 30.9502 30.534C33.7836 30.534 36.0836 32.734 36.0836 35.434C36.0836 37.2173 37.6336 38.6673 39.5502 38.6673C41.4669 38.6673 43.0169 37.2173 43.0169 35.434C43.0169 29.1507 37.6002 24.0507 30.9336 24.0507C26.2002 24.0507 21.8669 26.684 19.9169 30.7673C19.2669 32.1173 18.9336 33.7007 18.9336 35.434C18.9336 36.734 19.0502 38.784 20.0502 41.4507C20.2169 41.884 20.0002 42.3673 19.5669 42.5173C19.1336 42.684 18.6502 42.4507 18.5002 42.034C17.6971 39.9262 17.2848 37.6896 17.2836 35.434C17.2836 33.434 17.6669 31.6173 18.4169 30.034C20.6336 25.384 25.5502 22.3673 30.9336 22.3673C38.5169 22.3673 44.6836 28.2173 44.6836 35.4173C44.6836 38.1173 42.3836 40.3173 39.5502 40.3173C36.7169 40.3173 34.4169 38.1173 34.4169 35.4173C34.4169 33.634 32.8669 32.184 30.9502 32.184C29.0336 32.184 27.4836 33.634 27.4836 35.4173C27.4836 38.2673 28.5836 40.934 30.6002 42.934C32.1836 44.5007 33.7002 45.3673 36.0502 46.0173C36.5002 46.134 36.7502 46.6007 36.6336 47.034C36.5502 47.4173 36.2002 47.6673 35.8502 47.6673V47.6673Z" fill="#FF9800"/>
</svg>
