<svg width="40" height="40" viewBox="0 0 40 40" fill="none" xmlns="http://www.w3.org/2000/svg">
<path d="M36 20.3788C35.9564 21.7532 35.805 23.105 35.4642 24.4311C35.3635 24.824 35.0799 25.0315 34.7106 25.0249C34.3692 25.019 34.0627 24.7793 33.9948 24.4274C33.9663 24.2801 33.9884 24.1129 34.022 23.9627C34.9521 19.7622 34.3363 15.8331 32.0397 12.211C31.0175 10.5991 29.7131 9.25977 28.1687 8.16898C28.1001 8.1206 28.0301 8.07442 27.9644 8.02164C27.6172 7.74308 27.5386 7.30838 27.7708 6.95285C27.9994 6.60244 28.448 6.48662 28.8066 6.7322C29.2602 7.04301 29.7067 7.36995 30.1245 7.72842C33.2655 10.4283 35.1771 13.8502 35.7914 18.0146C35.9057 18.7961 35.9321 19.5907 36 20.3788Z" fill="black"/>
<path d="M19.5712 11.8161C17.2889 11.8762 15.0966 12.9523 13.4122 15.0965C13.3301 15.2006 13.2572 15.3128 13.1722 15.4147C12.885 15.7585 12.4557 15.8193 12.1221 15.5672C11.7807 15.3091 11.7078 14.8392 11.9707 14.4639C12.6286 13.5256 13.4208 12.7236 14.343 12.0602C18.2254 9.26875 23.6151 9.74963 26.9504 13.1994C27.1261 13.3805 27.2554 13.6693 27.2854 13.9229C27.3211 14.2301 27.1154 14.4793 26.8232 14.5915C26.5232 14.7073 26.2467 14.645 25.9989 14.4185C25.6088 14.0629 25.2288 13.6898 24.8052 13.3797C23.3615 12.3197 21.7385 11.8154 19.5712 11.8161Z" fill="black"/>
<path d="M7.08864 19.3617C7.3608 16.1964 8.55518 13.4313 10.7289 11.1325C12.5841 9.1708 14.8364 7.93487 17.443 7.38068C18.0509 7.25166 18.4852 7.53315 18.5131 8.06388C18.5359 8.50079 18.2802 8.805 17.7909 8.9047C16.1722 9.23384 14.6792 9.87087 13.3498 10.8737C10.5789 12.9651 8.99664 15.7683 8.63447 19.2877C8.61804 19.4446 8.60018 19.6058 8.54875 19.7532C8.43017 20.0933 8.053 20.303 7.71797 20.2363C7.32723 20.1578 7.07221 19.814 7.08864 19.3617Z" fill="black"/>
<path d="M20.1197 4C21.5376 4.01246 23.002 4.21992 24.4364 4.64949C24.7972 4.75725 25.0122 4.99622 25.0379 5.37521C25.0615 5.70948 24.9065 5.99171 24.6043 6.10387C24.4093 6.17644 24.1578 6.17717 23.955 6.12073C22.0755 5.59806 20.174 5.42872 18.2381 5.6743C15.1607 6.06502 12.4841 7.34566 10.1947 9.48545C10.1332 9.54263 10.0754 9.60494 10.0132 9.66065C9.65247 9.98246 9.19458 9.9722 8.89955 9.63719C8.6181 9.31831 8.62525 8.8301 8.97885 8.52955C9.76462 7.86247 10.5347 7.16167 11.3855 6.59282C14.0092 4.83935 16.9152 4.01173 20.1197 4Z" fill="black"/>
<path d="M26.8323 22.9039C26.8673 24.5657 26.678 26.2327 26.543 27.896C26.5073 28.3314 26.2309 28.6202 25.8558 28.6613C25.5079 28.6994 25.1365 28.4648 25.0636 28.1195C25.0222 27.9224 25.0329 27.7061 25.0579 27.503C25.3229 25.3435 25.3901 23.1744 25.3222 21.003C25.2986 20.2421 25.2544 19.4504 25.0322 18.7342C24.4086 16.7264 23.0328 15.5044 21.024 15.0426C20.9662 15.0294 20.9083 15.0147 20.8505 15.0023C20.3233 14.8908 20.0447 14.5206 20.1383 14.0588C20.2276 13.619 20.6326 13.3778 21.1305 13.468C24.4072 14.0603 26.7673 16.8855 26.8302 20.3015C26.8459 21.1672 26.8323 22.033 26.8323 22.8987C26.8652 22.9002 26.7995 22.9024 26.8323 22.9039Z" fill="black"/>
<path d="M15.709 35.3966C16.7319 34.2977 17.4055 33.075 17.902 31.7452C18.5342 30.0511 18.8721 28.2859 19.0585 26.4877C19.265 24.496 19.3178 22.4999 19.2257 20.4987C19.2028 20.0053 19.5043 19.6505 19.94 19.6139C20.35 19.5794 20.7301 19.8976 20.7444 20.3645C20.8658 24.279 20.7251 28.1657 19.4528 31.9153C19.0214 33.1871 18.4342 34.3783 17.6491 35.4647C17.4813 35.6971 17.3277 35.8071 17.0319 35.714C16.6262 35.5886 16.2047 35.5131 15.709 35.3966Z" fill="black"/>
<path d="M23.8281 21.5654C23.8281 22.0529 23.8367 22.5404 23.826 23.0279C23.8145 23.5718 23.4888 23.9229 23.0309 23.909C22.5916 23.8958 22.3037 23.541 22.298 23.0059C22.2887 22.1409 22.2873 21.2751 22.2673 20.4108C22.2351 19.04 21.2229 18.035 19.9135 18.0592C18.6591 18.0827 17.7048 19.1295 17.7069 20.4805C17.7069 20.5904 17.7141 20.7004 17.7062 20.8096C17.6769 21.2253 17.3526 21.5346 16.9526 21.5346C16.5654 21.5346 16.2525 21.2458 16.2047 20.8441C15.9575 18.7901 17.349 16.9024 19.3771 16.541C21.3386 16.1914 23.3131 17.5549 23.6888 19.5656C23.811 20.2188 23.7752 20.8969 23.8288 21.5639C23.8174 21.5632 23.8381 21.5647 23.8281 21.5654Z" fill="black"/>
<path d="M13.0662 25.2585C13.0662 23.7359 13.1577 22.2126 13.1384 20.6901C13.0991 17.5995 14.7685 14.9649 17.488 13.8602C17.9916 13.6557 18.4159 13.803 18.5895 14.2429C18.7624 14.6805 18.5588 15.0844 18.0545 15.3058C15.785 16.302 14.5906 18.3311 14.6592 20.8645C14.7021 22.4457 14.6078 24.0313 14.5585 25.614C14.5421 26.1359 14.192 26.4614 13.7442 26.4321C13.2813 26.402 13.0091 26.0267 13.0505 25.4777C13.0562 25.4051 13.0612 25.3318 13.0662 25.2585C13.0412 25.2585 13.0912 25.2585 13.0662 25.2585Z" fill="black"/>
<path d="M4.00854 20.3567C4.04211 17.0162 4.94861 13.9528 6.7716 11.1782C6.94733 10.9106 7.1502 10.7119 7.48666 10.7149C7.78739 10.7178 8.01598 10.8505 8.15313 11.1225C8.296 11.4047 8.25386 11.6752 8.1017 11.9537C7.60952 12.8547 7.05805 13.7314 6.66374 14.6763C5.48722 17.5 5.24292 20.4359 5.84368 23.4444C5.91511 23.8006 5.90368 24.1283 5.6008 24.3732C5.36935 24.5608 5.07933 24.6503 4.84146 24.4721C4.64001 24.3218 4.42143 24.0719 4.38285 23.8373C4.19712 22.6871 4.03068 21.5788 4.00782 20.3707C4.03711 20.3663 3.97925 20.3611 4.00854 20.3567Z" fill="black"/>
<path d="M11.2154 16.9494C11.7011 16.9398 12.1183 17.3943 11.9747 17.8664C11.559 19.2365 11.6347 20.6366 11.6497 22.0375C11.6718 24.0659 11.5618 26.0803 11.0768 28.061C10.8296 29.0712 10.3646 29.9354 9.63453 30.656C9.33094 30.9551 8.90447 30.9947 8.60302 30.7345C8.28871 30.4625 8.17442 29.9816 8.46087 29.6921C9.87526 28.2626 9.89598 26.3779 10.0496 24.5614C10.1581 23.2786 10.0967 21.9796 10.0931 20.6879C10.0896 19.6331 10.1924 18.5958 10.4875 17.5827C10.6089 17.1642 10.8561 16.9567 11.2154 16.9494Z" fill="black"/>
<path d="M32.1842 16.044C32.1778 16.4816 31.9349 16.7961 31.6077 16.8745C31.2556 16.9588 30.9084 16.7968 30.7477 16.4508C30.6255 16.1877 30.5384 15.9069 30.4184 15.6423C28.7732 12.0327 26.0466 9.80057 22.2656 8.91724C21.7306 8.79262 21.4691 8.44735 21.5556 7.9694C21.637 7.51637 22.0585 7.25614 22.5778 7.39468C23.3 7.58748 24.0343 7.76488 24.7229 8.05223C28.2396 9.51834 30.697 12.0767 32.0899 15.7039C32.1421 15.838 32.1678 15.9824 32.1842 16.044Z" fill="black"/>
<path d="M29.8847 22.5389C29.9004 25.2732 29.6911 27.9884 29.1882 30.6765C29.1789 30.7242 29.1746 30.7733 29.1632 30.8202C29.0475 31.2923 28.6703 31.5474 28.2331 31.4506C27.8274 31.3605 27.611 30.983 27.6767 30.4947C27.8595 29.1452 28.0881 27.7993 28.2096 26.4439C28.4267 24.016 28.4946 21.5801 28.2574 19.147C28.226 18.8223 28.1396 18.502 28.0696 18.1816C27.9538 17.6538 28.171 17.2382 28.6275 17.1282C29.0375 17.0292 29.4497 17.2895 29.534 17.7843C29.679 18.6332 29.8068 19.4886 29.8726 20.3471C29.9283 21.0735 29.8847 21.8073 29.8847 22.5389Z" fill="black"/>
<path d="M30.6106 31.5154C30.787 30.2758 30.9913 29.0399 31.1342 27.7966C31.4564 24.9927 31.5085 22.1785 31.3435 19.3614C31.3114 18.8145 31.5592 18.4326 32.0193 18.3769C32.465 18.3234 32.8429 18.6444 32.8601 19.203C32.9072 20.7622 32.9736 22.3251 32.9186 23.8829C32.8586 25.574 32.6758 27.2608 32.5315 28.9475C32.515 29.1418 32.4386 29.3588 32.3229 29.5105C31.7893 30.2069 31.2314 30.8843 30.682 31.5682C30.6577 31.5499 30.6342 31.5323 30.6106 31.5154Z" fill="black"/>
<path d="M19.2227 35.9925C19.6277 35.1942 20.0506 34.4494 20.3949 33.6673C21.3214 31.5612 21.7843 29.3261 22.0529 27.0427C22.0886 26.7406 22.1 26.435 22.1457 26.1337C22.2122 25.6924 22.5665 25.4094 22.9729 25.449C23.3851 25.4886 23.6944 25.8397 23.6544 26.2803C23.3623 29.5446 22.6972 32.704 21.1628 35.6216C21.0199 35.8936 20.8671 36.016 20.5635 35.9991C20.1184 35.9742 19.672 35.9925 19.2227 35.9925Z" fill="black"/>
<path d="M14.1721 34.841C13.7256 34.624 13.2906 34.4122 12.802 34.1739C12.9906 33.9056 13.1256 33.6425 13.3228 33.4453C14.5521 32.2145 15.1722 30.656 15.5451 28.9898C15.7858 27.9136 15.9022 26.8089 16.073 25.7167C16.0915 25.5965 16.098 25.474 16.1173 25.3545C16.1887 24.9059 16.5259 24.6156 16.9266 24.6537C17.3502 24.6941 17.6688 25.0503 17.6209 25.5122C17.5266 26.4189 17.4202 27.3265 17.2716 28.2252C17.0652 29.4758 16.7259 30.6912 16.213 31.8501C15.8022 32.7775 15.2772 33.6256 14.5736 34.3513C14.44 34.4891 14.3293 34.6482 14.1721 34.841Z" fill="black"/>
<path d="M7.16733 28.8277C6.91445 28.3674 6.67444 27.9363 6.4437 27.5009C6.41585 27.4488 6.41156 27.3528 6.44013 27.3044C6.90731 26.4988 6.9066 25.5839 6.99875 24.6977C7.06804 24.0343 7.05804 23.3613 7.08732 22.6935C7.10733 22.2449 7.40949 21.9546 7.84952 21.9531C8.29598 21.9517 8.61244 22.2346 8.60958 22.6869C8.60029 24.2344 8.49457 25.7701 8.14883 27.2861C8.00311 27.9239 7.55807 28.3175 7.16733 28.8277Z" fill="black"/>
<path d="M11.472 33.3491C11.0891 33.0559 10.7027 32.7597 10.2612 32.421C10.5741 32.0105 10.8784 31.6286 11.1627 31.2313C11.462 30.8135 11.7663 30.3949 12.0228 29.9499C12.2842 29.4962 12.6686 29.299 13.0736 29.4866C13.4879 29.6787 13.6572 30.1691 13.3936 30.6324C13.08 31.1844 12.7078 31.7019 12.3421 32.2209C12.0792 32.594 11.7863 32.9437 11.472 33.3491Z" fill="black"/>
<path d="M22.9021 35.739C23.3278 34.528 23.7293 33.3859 24.1322 32.2438C24.2822 31.8186 24.6658 31.6031 25.0608 31.7182C25.478 31.8399 25.7259 32.2497 25.5887 32.6873C25.338 33.4856 25.0537 34.2729 24.7744 35.0617C24.7458 35.1423 24.6715 35.2428 24.5987 35.264C24.0329 35.4333 23.4629 35.5851 22.9021 35.739Z" fill="black"/>
<path d="M28.3747 33.4403C27.8168 33.7716 27.2796 34.0905 26.7424 34.4094C26.7167 34.3889 26.6903 34.3691 26.6646 34.3486C26.786 34.0018 26.8689 33.6331 27.0382 33.3127C27.3217 32.7769 27.9854 32.8223 28.3747 33.4403Z" fill="black"/>
</svg>
