<svg width="40" height="40" viewBox="0 0 40 40" fill="none" xmlns="http://www.w3.org/2000/svg">
<path d="M4.62422 19.2492C4.75675 19.3487 4.92338 19.3915 5.08747 19.3682C5.25156 19.3449 5.39967 19.2573 5.49922 19.1248C6.31436 18.0381 7.37131 17.156 8.58639 16.5485C9.80146 15.941 11.1413 15.6247 12.4998 15.6247C13.8582 15.6246 15.1981 15.9409 16.4132 16.5483C17.6283 17.1558 18.6853 18.0378 19.5005 19.1245C19.5041 19.1294 19.5086 19.1328 19.5123 19.1375C19.5288 19.1577 19.5466 19.177 19.5655 19.195C19.5778 19.2072 19.5902 19.2192 19.6034 19.2301C19.6108 19.2362 19.6164 19.2434 19.6242 19.2492C19.6384 19.26 19.6539 19.2679 19.6686 19.2773C19.6775 19.2828 19.6861 19.2889 19.6952 19.2939C19.725 19.3107 19.7562 19.325 19.7884 19.3367C19.7914 19.3378 19.7942 19.3394 19.7972 19.3403C19.8337 19.3528 19.8713 19.3619 19.9095 19.3675C19.915 19.3683 19.9205 19.3681 19.9258 19.3687C19.9501 19.3721 19.9746 19.374 19.9992 19.3745C20.0042 19.3745 20.0092 19.3729 20.0142 19.3728C20.0478 19.3717 20.0811 19.3679 20.1141 19.3614C20.1241 19.3595 20.1344 19.3594 20.1444 19.357C20.1882 19.3466 20.2307 19.3315 20.2712 19.312C20.2795 19.3081 20.2869 19.3022 20.295 19.2978C20.3231 19.2835 20.35 19.2672 20.3756 19.2489C20.3795 19.2459 20.3823 19.2422 20.3862 19.239C20.3975 19.2301 20.4073 19.2195 20.4181 19.2097C20.4429 19.1876 20.4659 19.1636 20.4869 19.1378C20.4908 19.1331 20.4956 19.1297 20.4994 19.1248C21.3145 18.0381 22.3715 17.1561 23.5865 16.5486C24.8016 15.9411 26.1414 15.6248 27.4998 15.6248C28.8583 15.6247 30.1981 15.941 31.4132 16.5484C32.6283 17.1559 33.6853 18.0378 34.5005 19.1245C34.5493 19.1914 34.6109 19.248 34.6817 19.2909C34.7526 19.3338 34.8312 19.3622 34.9131 19.3744C34.995 19.3866 35.0786 19.3825 35.1589 19.3621C35.2391 19.3418 35.3146 19.3057 35.3808 19.256C35.447 19.2063 35.5027 19.1439 35.5446 19.0724C35.5865 19.001 35.6138 18.9219 35.6248 18.8398C35.6359 18.7578 35.6306 18.6743 35.6091 18.5943C35.5877 18.5143 35.5505 18.4394 35.4998 18.3739C34.2317 16.6723 32.4521 15.4216 30.4216 14.8048C31.4704 14.1673 32.282 13.2043 32.7325 12.0625C33.1829 10.9207 33.2476 9.66299 32.9166 8.48106C32.5856 7.29913 31.877 6.25791 30.8991 5.51621C29.9211 4.77451 28.7274 4.37305 27.5 4.37305C26.2726 4.37305 25.0789 4.77451 24.1009 5.51621C23.123 6.25791 22.4144 7.29913 22.0834 8.48106C21.7524 9.66299 21.8171 10.9207 22.2675 12.0625C22.718 13.2043 23.5296 14.1673 24.5784 14.8048C22.8053 15.3434 21.219 16.3689 20 17.7647C18.7811 16.3689 17.1947 15.3433 15.4216 14.8048C16.4704 14.1673 17.282 13.2043 17.7325 12.0625C18.1829 10.9207 18.2476 9.66299 17.9166 8.48106C17.5856 7.29913 16.877 6.25791 15.8991 5.51621C14.9211 4.77451 13.7274 4.37305 12.5 4.37305C11.2726 4.37305 10.0789 4.77451 9.10091 5.51621C8.12295 6.25791 7.41443 7.29913 7.08342 8.48106C6.7524 9.66299 6.81706 10.9207 7.26754 12.0625C7.71801 13.2043 8.52957 14.1673 9.57844 14.8048C7.54784 15.4217 5.76813 16.6725 4.5 18.3742C4.40048 18.5067 4.35767 18.6734 4.38099 18.8375C4.40432 19.0015 4.49186 19.1497 4.62437 19.2492H4.62422ZM23.125 9.99982C23.125 9.13453 23.3816 8.28867 23.8623 7.5692C24.3431 6.84974 25.0263 6.28898 25.8258 5.95785C26.6252 5.62672 27.5049 5.54008 28.3535 5.70889C29.2022 5.8777 29.9817 6.29438 30.5936 6.90623C31.2054 7.51809 31.6221 8.29764 31.7909 9.1463C31.9597 9.99497 31.8731 10.8746 31.542 11.6741C31.2108 12.4735 30.6501 13.1568 29.9306 13.6375C29.2112 14.1182 28.3653 14.3748 27.5 14.3748C26.3401 14.3735 25.228 13.9122 24.4078 13.092C23.5876 12.2718 23.1263 11.1598 23.125 9.99982V9.99982ZM8.125 9.99982C8.125 9.13453 8.38159 8.28867 8.86232 7.5692C9.34305 6.84974 10.0263 6.28898 10.8258 5.95785C11.6252 5.62672 12.5049 5.54008 13.3535 5.70889C14.2022 5.8777 14.9817 6.29438 15.5936 6.90623C16.2054 7.51809 16.6221 8.29764 16.7909 9.1463C16.9597 9.99497 16.8731 10.8746 16.542 11.6741C16.2108 12.4735 15.6501 13.1568 14.9306 13.6375C14.2112 14.1182 13.3653 14.3748 12.5 14.3748C11.3401 14.3735 10.228 13.9122 9.40782 13.092C8.58763 12.2718 8.12628 11.1598 8.125 9.99982V9.99982ZM30.4216 31.0548C31.4704 30.4173 32.282 29.4543 32.7325 28.3125C33.1829 27.1707 33.2476 25.913 32.9166 24.7311C32.5856 23.5491 31.877 22.5079 30.8991 21.7662C29.9211 21.0245 28.7274 20.623 27.5 20.623C26.2726 20.623 25.0789 21.0245 24.1009 21.7662C23.123 22.5079 22.4144 23.5491 22.0834 24.7311C21.7524 25.913 21.8171 27.1707 22.2675 28.3125C22.718 29.4543 23.5296 30.4173 24.5784 31.0548C22.8053 31.5934 21.219 32.6189 20 34.0147C18.7811 32.6189 17.1947 31.5933 15.4216 31.0548C16.4704 30.4173 17.282 29.4543 17.7325 28.3125C18.1829 27.1707 18.2476 25.913 17.9166 24.7311C17.5856 23.5491 16.877 22.5079 15.8991 21.7662C14.9211 21.0245 13.7274 20.623 12.5 20.623C11.2726 20.623 10.0789 21.0245 9.10091 21.7662C8.12295 22.5079 7.41443 23.5491 7.08342 24.7311C6.7524 25.913 6.81706 27.1707 7.26754 28.3125C7.71801 29.4543 8.52957 30.4173 9.57844 31.0548C7.54784 31.6717 5.76813 32.9225 4.5 34.6242C4.44933 34.6897 4.41219 34.7646 4.39073 34.8446C4.36927 34.9246 4.36392 35.0081 4.375 35.0902C4.38607 35.1722 4.41335 35.2513 4.45525 35.3227C4.49714 35.3942 4.55281 35.4566 4.61903 35.5063C4.68526 35.556 4.7607 35.5921 4.84099 35.6125C4.92127 35.6328 5.0048 35.637 5.08671 35.6247C5.16862 35.6125 5.24728 35.5841 5.31812 35.5412C5.38897 35.4983 5.45058 35.4417 5.49937 35.3748C6.31452 34.2881 7.37147 33.406 8.58654 32.7985C9.80162 32.191 11.1414 31.8747 12.4999 31.8747C13.8584 31.8746 15.1982 32.1909 16.4133 32.7983C17.6284 33.4058 18.6854 34.2878 19.5006 35.3745C19.5042 35.3794 19.5087 35.3828 19.5125 35.3875C19.529 35.4078 19.5467 35.427 19.5656 35.445C19.578 35.4572 19.5903 35.4692 19.6036 35.4801C19.6109 35.4862 19.6166 35.4934 19.6244 35.4992C19.6387 35.5101 19.6541 35.518 19.6689 35.5273C19.6778 35.533 19.6861 35.5389 19.6952 35.5439C19.7253 35.5609 19.7569 35.5753 19.7895 35.587C19.792 35.588 19.7945 35.5894 19.7973 35.5903C19.834 35.6028 19.8717 35.6119 19.91 35.6175C19.9147 35.6183 19.9194 35.6181 19.9242 35.6186C19.9491 35.622 19.9741 35.624 19.9992 35.6245C20.0045 35.6245 20.0097 35.623 20.0148 35.6228C20.0475 35.6217 20.0801 35.6179 20.1122 35.6117C20.1231 35.6097 20.1341 35.6094 20.145 35.6069C20.1886 35.5966 20.2309 35.5816 20.2712 35.5622C20.28 35.558 20.2875 35.5517 20.2961 35.5472C20.3238 35.5331 20.3505 35.5169 20.3758 35.4989C20.3797 35.4959 20.3825 35.4922 20.3864 35.489C20.3977 35.4801 20.4075 35.4695 20.4183 35.4597C20.4431 35.4376 20.4661 35.4136 20.487 35.3878C20.4909 35.3831 20.4958 35.3797 20.4995 35.3748C21.3147 34.2881 22.3716 33.4061 23.5867 32.7986C24.8017 32.1911 26.1415 31.8748 27.5 31.8748C28.8585 31.8747 30.1983 32.191 31.4134 32.7984C32.6284 33.4059 33.6854 34.2878 34.5006 35.3745C34.5494 35.4414 34.611 35.498 34.6819 35.5409C34.7527 35.5838 34.8314 35.6122 34.9133 35.6244C34.9952 35.6366 35.0787 35.6325 35.159 35.6121C35.2393 35.5918 35.3147 35.5557 35.381 35.506C35.4472 35.4563 35.5029 35.3939 35.5448 35.3224C35.5866 35.251 35.6139 35.1719 35.625 35.0898C35.6361 35.0078 35.6307 34.9243 35.6093 34.8443C35.5878 34.7643 35.5507 34.6894 35.5 34.6239C34.2319 32.9223 32.4522 31.6716 30.4217 31.0548H30.4216ZM8.125 26.2498C8.125 25.3845 8.38159 24.5387 8.86232 23.8192C9.34305 23.0997 10.0263 22.539 10.8258 22.2079C11.6252 21.8767 12.5049 21.7901 13.3535 21.9589C14.2022 22.1277 14.9817 22.5444 15.5936 23.1562C16.2054 23.7681 16.6221 24.5476 16.7909 25.3963C16.9597 26.245 16.8731 27.1246 16.542 27.9241C16.2108 28.7235 15.6501 29.4068 14.9306 29.8875C14.2112 30.3682 13.3653 30.6248 12.5 30.6248C11.3401 30.6235 10.228 30.1622 9.40782 29.342C8.58763 28.5218 8.12628 27.4098 8.125 26.2498V26.2498ZM23.125 26.2498C23.125 25.3845 23.3816 24.5387 23.8623 23.8192C24.3431 23.0997 25.0263 22.539 25.8258 22.2079C26.6252 21.8767 27.5049 21.7901 28.3535 21.9589C29.2022 22.1277 29.9817 22.5444 30.5936 23.1562C31.2054 23.7681 31.6221 24.5476 31.7909 25.3963C31.9597 26.245 31.8731 27.1246 31.542 27.9241C31.2108 28.7235 30.6501 29.4068 29.9306 29.8875C29.2112 30.3682 28.3653 30.6248 27.5 30.6248C26.3401 30.6235 25.228 30.1622 24.4078 29.342C23.5876 28.5218 23.1263 27.4098 23.125 26.2498V26.2498Z" fill="white"/>
</svg>
