<svg width="62" height="62" viewBox="0 0 62 62" fill="none" xmlns="http://www.w3.org/2000/svg">
<circle cx="31" cy="31" r="31" fill="#0D74E4" fill-opacity="0.15"/>
<path d="M17.6665 21V31C17.6665 31 17.6665 36 29.3332 36C40.9998 36 40.9998 31 40.9998 31V21" stroke="#0D74E4" stroke-width="2.5" stroke-linecap="round" stroke-linejoin="round"/>
<path d="M29.3332 16C40.9998 16 40.9998 21 40.9998 21C40.9998 21 40.9998 26 29.3332 26C17.6665 26 17.6665 21 17.6665 21C17.6665 21 17.6665 16 29.3332 16Z" stroke="#0D74E4" stroke-width="2.5" stroke-linecap="round" stroke-linejoin="round"/>
<path d="M29.3332 46C17.6665 46 17.6665 41 17.6665 41V31" stroke="#0D74E4" stroke-width="2.5" stroke-linecap="round" stroke-linejoin="round"/>
<path d="M46.8332 48.9167V47.5278C46.8332 46.7911 46.5405 46.0845 46.0196 45.5636C45.4986 45.0427 44.7921 44.75 44.0554 44.75H39.1943C38.4576 44.75 37.751 45.0427 37.2301 45.5636C36.7092 46.0845 36.4165 46.7911 36.4165 47.5278V48.9167" stroke="#0D74E4" stroke-width="2.5" stroke-linecap="round" stroke-linejoin="round"/>
<path d="M41.6245 41.9716C43.1586 41.9716 44.4022 40.7279 44.4022 39.1938C44.4022 37.6597 43.1586 36.416 41.6245 36.416C40.0903 36.416 38.8467 37.6597 38.8467 39.1938C38.8467 40.7279 40.0903 41.9716 41.6245 41.9716Z" stroke="#0D74E4" stroke-width="2.5" stroke-linecap="round" stroke-linejoin="round"/>
</svg>
