<svg width="40" height="40" viewBox="0 0 40 40" fill="none" xmlns="http://www.w3.org/2000/svg">
<path d="M15.1269 18.6468C19.653 18.6468 23.3223 14.9775 23.3223 10.4513C23.3223 5.92488 19.653 2.25586 15.1269 2.25586C10.6007 2.25586 6.9314 5.92488 6.9314 10.4513C6.93564 14.9757 10.6022 18.6426 15.1269 18.6468ZM15.1269 3.80657C18.7968 3.80657 21.7716 6.7814 21.7716 10.4513C21.7716 14.1213 18.7968 17.0961 15.1269 17.0961C11.4569 17.0961 8.48211 14.1213 8.48211 10.4513C8.48635 6.78322 11.4588 3.81082 15.1269 3.80657Z" fill="black"/>
<path d="M15.119 22.043H15.1423C18.1005 22.0276 20.9484 23.1652 23.0822 25.2141L24.1598 24.0977C21.7362 21.7704 18.5024 20.4772 15.1423 20.4923H15.119C11.5681 20.4999 8.27286 21.8801 5.83048 24.3924C3.34934 26.9278 1.99246 30.3936 2.00003 34.1541C2.00155 34.3597 2.08211 34.5569 2.22507 34.7047C2.37075 34.8504 2.56913 34.9315 2.77539 34.9294L23.4774 34.8907V33.3399L3.57407 33.3787C3.73701 30.3315 4.9155 27.5481 6.939 25.4779C9.08698 23.2682 11.9946 22.0506 15.119 22.043V22.043Z" fill="black"/>
<path d="M29.5289 21.0001C24.8186 21.0001 21 24.8187 21 29.529C21 34.2396 24.8186 38.058 29.5289 38.058C34.2392 38.058 38.0579 34.2396 38.0579 29.529C38.0694 27.2635 37.1747 25.0874 35.5725 23.4855C33.9706 21.8836 31.7944 20.9886 29.5289 21.0001V21.0001ZM29.5289 36.5073C25.6749 36.5073 22.5507 33.3831 22.5507 29.529C22.5507 25.6753 25.6749 22.5508 29.5289 22.5508C33.383 22.5508 36.5072 25.6753 36.5072 29.529C36.5072 33.3831 33.383 36.5073 29.5289 36.5073Z" fill="black"/>
<path d="M26.5746 26.5652C26.6625 26.4832 26.7816 26.4371 26.9057 26.4371C27.0299 26.4371 27.149 26.4832 27.2369 26.5652L29.7158 28.8809L32.1948 26.5652C32.238 26.5234 32.2897 26.4901 32.3468 26.4672C32.4039 26.4442 32.4654 26.4322 32.5276 26.4317C32.5898 26.4312 32.6514 26.4422 32.709 26.4642C32.7666 26.4862 32.8188 26.5187 32.8628 26.5598C32.9068 26.6009 32.9416 26.6497 32.9651 26.7035C32.9887 26.7572 33.0005 26.8149 33 26.8729C32.9994 26.931 32.9865 26.9884 32.962 27.0418C32.9374 27.0952 32.9018 27.1435 32.857 27.1838L30.3781 29.4995L32.857 31.8152C32.9423 31.8977 32.9895 32.0082 32.9885 32.1229C32.9874 32.2377 32.9381 32.3474 32.8513 32.4285C32.7645 32.5096 32.647 32.5556 32.5242 32.5566C32.4014 32.5576 32.2831 32.5135 32.1948 32.4338L29.7158 30.1181L27.2369 32.4338C27.1485 32.5135 27.0302 32.5576 26.9074 32.5566C26.7846 32.5556 26.6672 32.5096 26.5803 32.4285C26.4935 32.3474 26.4442 32.2377 26.4432 32.1229C26.4421 32.0082 26.4893 31.8977 26.5746 31.8152L29.0536 29.4995L26.5746 27.1838C26.4868 27.1018 26.4375 26.9905 26.4375 26.8745C26.4375 26.7585 26.4868 26.6472 26.5746 26.5652V26.5652Z" fill="black"/>
</svg>
