<svg width="62" height="62" viewBox="0 0 62 62" fill="none" xmlns="http://www.w3.org/2000/svg">
<circle cx="31" cy="31" r="31" fill="#25282B" fill-opacity="0.15"/>
<g clip-path="url(#clip0)">
<path d="M17.6665 21V31C17.6665 31 17.6665 36 29.3332 36C40.9998 36 40.9998 31 40.9998 31V21" stroke="#25282B" stroke-width="2.5" stroke-linecap="round" stroke-linejoin="round"/>
<path d="M29.3332 16C40.9998 16 40.9998 21 40.9998 21C40.9998 21 40.9998 26 29.3332 26C17.6665 26 17.6665 21 17.6665 21C17.6665 21 17.6665 16 29.3332 16Z" stroke="#25282B" stroke-width="2.5" stroke-linecap="round" stroke-linejoin="round"/>
<path d="M29.3332 46C17.6665 46 17.6665 41 17.6665 41V31" stroke="#25282B" stroke-width="2.5" stroke-linecap="round" stroke-linejoin="round"/>
<path fill-rule="evenodd" clip-rule="evenodd" d="M40.8856 43.5H39.1943C38.126 43.5 37.1016 43.9244 36.3462 44.6797C35.5909 45.4351 35.1665 46.4595 35.1665 47.5278V48.9167C35.1665 49.607 35.7261 50.1667 36.4165 50.1667C37.1069 50.1667 37.6665 49.607 37.6665 48.9167V47.5278C37.6665 47.1226 37.8275 46.734 38.114 46.4475C38.4005 46.161 38.7891 46 39.1943 46H43.3856L40.8856 43.5ZM45.5832 48.1975V48.9167C45.5832 49.607 46.1428 50.1667 46.8332 50.1667C47.0416 50.1667 47.2382 50.1156 47.411 50.0254L45.5832 48.1975ZM42.2999 43.5L48.0407 49.2409C48.0684 49.1375 48.0832 49.0288 48.0832 48.9167V47.5278C48.0832 46.4595 47.6588 45.4351 46.9035 44.6797C46.1481 43.9244 45.1236 43.5 44.0554 43.5H42.2999Z" fill="#25282B"/>
<path fill-rule="evenodd" clip-rule="evenodd" d="M41.4283 37.6785C41.4927 37.6703 41.5583 37.666 41.6249 37.666C42.4687 37.666 43.1527 38.35 43.1527 39.1938C43.1527 39.2604 43.1484 39.326 43.1402 39.3904L45.0554 41.3056C45.4341 40.6916 45.6527 39.9682 45.6527 39.1938C45.6527 36.9693 43.8494 35.166 41.6249 35.166C40.8153 35.166 40.0616 35.4049 39.4302 35.8159C39.6201 35.9177 39.7985 36.0488 39.9588 36.209L41.4283 37.6785ZM40.4979 38.1623L39.2517 36.9161C39.0597 36.7241 38.8207 36.6076 38.5718 36.5667C38.0417 37.1821 37.6946 37.9596 37.6147 38.8147L42.004 43.204C42.9412 43.1165 43.7852 42.7079 44.4248 42.0892L42.6564 40.3208C42.3846 40.5697 42.0225 40.7216 41.6249 40.7216C40.7812 40.7216 40.0971 40.0376 40.0971 39.1938C40.0971 38.7962 40.249 38.4341 40.4979 38.1623ZM40.4259 43.0401L37.7786 40.3928C38.171 41.653 39.1657 42.6477 40.4259 43.0401Z" fill="#25282B"/>
<rect x="36.6001" y="37.8008" width="2.5" height="18" rx="1.25" transform="rotate(-45 36.6001 37.8008)" fill="#25282B"/>
</g>
<defs>
<clipPath id="clip0">
<rect width="40" height="40" fill="white" transform="translate(11 11)"/>
</clipPath>
</defs>
</svg>
