<svg width="19" height="18" viewBox="0 0 19 18" fill="none" xmlns="http://www.w3.org/2000/svg">
<g opacity="0.6">
<path d="M7.25 15H5C4.20435 15 3.44129 14.6839 2.87868 14.1213C2.31607 13.5587 2 12.7956 2 12V5.25C2 4.45435 2.31607 3.69129 2.87868 3.12868C3.44129 2.56607 4.20435 2.25 5 2.25H13.25C14.0456 2.25 14.8087 2.56607 15.3713 3.12868C15.9339 3.69129 16.25 4.45435 16.25 5.25V7.5" stroke="#3C3C43" stroke-width="1.3" stroke-linecap="round" stroke-linejoin="round"/>
<path d="M6.5 1.5V3" stroke="#3C3C43" stroke-width="1.3" stroke-linecap="round" stroke-linejoin="round"/>
<path d="M11.75 1.5V3" stroke="#3C3C43" stroke-width="1.3" stroke-linecap="round" stroke-linejoin="round"/>
<path d="M2 6H16.25" stroke="#3C3C43" stroke-width="1.3" stroke-linecap="round" stroke-linejoin="round"/>
<path d="M14.375 11.7323L13.25 12.8573" stroke="#3C3C43" stroke-width="1.3" stroke-linecap="round" stroke-linejoin="round"/>
<path d="M13.25 16.5C15.3211 16.5 17 14.8211 17 12.75C17 10.6789 15.3211 9 13.25 9C11.1789 9 9.5 10.6789 9.5 12.75C9.5 14.8211 11.1789 16.5 13.25 16.5Z" stroke="#3C3C43" stroke-width="1.3" stroke-linecap="round" stroke-linejoin="round"/>
</g>
</svg>
