<svg width="64" height="64" viewBox="0 0 64 64" fill="none" xmlns="http://www.w3.org/2000/svg">
<path d="M20.3299 55.4355C19.8199 55.5355 19.2099 55.7555 19.1499 56.2755C19.0799 56.8555 19.79 57.1955 20.36 57.3155C22.51 57.7855 24.73 57.8455 26.94 57.9055C38.62 58.1855 50.3 58.2355 61.98 58.0455C61.81 56.6155 60.1099 55.9955 58.6999 55.7255C52.6399 54.5655 46.37 55.2255 40.42 53.9955C34.15 52.6855 26.5199 54.1655 20.3299 55.4355Z" fill="url(#paint0_linear)"/>
<path d="M20.3299 55.4355C19.8199 55.5355 19.2099 55.7555 19.1499 56.2755C19.0799 56.8555 19.79 57.1955 20.36 57.3155C22.51 57.7855 24.73 57.8455 26.94 57.9055C38.62 58.1855 50.3 58.2355 61.98 58.0455C61.81 56.6155 60.1099 55.9955 58.6999 55.7255C52.6399 54.5655 46.37 55.2255 40.42 53.9955C34.15 52.6855 26.5199 54.1655 20.3299 55.4355Z" fill="url(#paint1_linear)"/>
<path d="M52.1399 46.0156C52.2699 45.9756 52.4099 46.0156 52.5399 46.0556C53.1099 46.2456 53.6699 46.4956 54.1699 46.8256C54.4199 46.9856 54.6699 47.1656 54.7899 47.4356C54.8999 47.6856 54.8899 47.9656 54.8699 48.2256C54.6899 51.4456 54.5199 54.6756 54.3399 57.8956C54.3299 58.1056 54.2999 58.3356 54.1399 58.4656C53.9399 58.6156 53.6599 58.5156 53.4399 58.4156C51.2899 57.4756 49.1499 56.5256 46.9999 55.5856C45.9699 55.1356 44.9099 54.6556 44.1499 53.8256C44.7299 52.5456 45.9499 51.6956 47.0699 50.8356C48.8099 49.4956 50.4099 47.9556 51.8199 46.2756C51.8999 46.1756 51.9999 46.0556 52.1399 46.0156Z" fill="#DDC199"/>
<path d="M62.2699 29.4255C61.7399 29.3055 61.1999 29.1854 60.6699 29.0654C57.5499 34.7954 54.7899 40.7255 52.4099 46.8055C52.9599 47.1555 53.6899 47.5154 54.2199 47.1354C54.4399 46.9754 54.5699 46.7155 54.6899 46.4655C57.3899 40.8655 59.9199 35.1855 62.2699 29.4255Z" fill="#BDB39B"/>
<g opacity="0.26">
<path opacity="0.26" d="M52.4399 57.3053C52.4299 57.4153 52.5999 57.4553 52.6199 57.3453C53.0499 54.0953 53.6598 50.9053 54.4498 47.7253C54.4998 47.5253 54.1898 47.4653 54.1398 47.6653C53.3198 50.8153 52.7499 54.0553 52.4399 57.3053Z" fill="#272525"/>
<path opacity="0.26" d="M49.0498 55.8752C50.3698 53.0952 51.7698 50.3552 53.2498 47.6552C53.3398 47.4952 53.0798 47.3652 52.9898 47.5252C51.4498 50.2452 50.0598 53.0452 48.7898 55.8952C48.8098 55.9152 48.8198 55.9352 48.8298 55.9552C48.8998 55.9052 48.9698 55.8852 49.0498 55.8752Z" fill="#272525"/>
<path opacity="0.26" d="M46.8999 54.0456C49.1099 51.9656 51.0799 49.6556 52.7999 47.1556C52.9099 46.9856 52.6299 46.8456 52.5199 47.0156C50.8299 49.5056 48.8899 51.8056 46.7199 53.8856C46.6099 53.9956 46.7899 54.1556 46.8999 54.0456Z" fill="#272525"/>
</g>
<path d="M31.57 48.8647C31.58 48.7147 31.6 48.5547 31.61 48.4047C30.29 47.5047 27.97 47.7947 26.57 48.2547C25.07 48.7447 25.07 49.6647 25.09 51.2247C25.1 52.1047 25.18 53.0947 25.86 53.6647C26.38 54.1047 27.11 54.1647 27.79 54.2047C28.4 54.2447 29 54.2747 29.61 54.3147C30.03 54.3347 30.5 54.3447 30.83 54.0747C31.16 53.7947 31.21 53.3247 31.25 52.8947C31.36 51.5447 31.47 50.2047 31.57 48.8647Z" fill="#2F3F47"/>
<path d="M33.1799 48.8647C33.1699 48.7147 33.1499 48.5547 33.1399 48.4047C34.4599 47.5047 36.7799 47.7947 38.1799 48.2547C39.6799 48.7447 39.6799 49.6647 39.6599 51.2247C39.6499 52.1047 39.5699 53.0947 38.8899 53.6647C38.3699 54.1047 37.6399 54.1647 36.9599 54.2047C36.3499 54.2447 35.7499 54.2747 35.1399 54.3147C34.7199 54.3347 34.2499 54.3447 33.9199 54.0747C33.5899 53.7947 33.5399 53.3247 33.4999 52.8947C33.3999 51.5447 33.2899 50.2047 33.1799 48.8647Z" fill="#2F3F47"/>
<path d="M21.92 45.5251C21.59 45.5951 21.27 45.6951 20.96 45.8251C20.73 45.9151 20.5 46.0351 20.34 46.2151C20.12 46.4751 20.06 46.8351 20.02 47.1851C19.97 47.6451 19.95 48.1051 19.96 48.5651C19.96 48.9551 19.9901 49.3551 20.1901 49.6851C20.4701 50.1451 21.02 50.3551 21.54 50.4851C22.53 50.7351 23.56 50.7951 24.58 50.8451C30.75 51.1451 36.94 50.9451 43.08 50.2551C43.33 50.2251 43.61 50.1851 43.78 49.9951C43.88 49.8851 43.93 49.7351 43.98 49.5951C44.3 48.5751 44.5101 47.1851 43.8201 46.2351C43.2301 45.4251 42.1401 45.8851 41.3201 45.8751C40.4801 45.8651 39.63 45.7951 38.79 45.7651C37.15 45.6951 35.5101 45.6251 33.8701 45.5751C31.5601 45.4951 29.2401 45.4251 26.9301 45.3651C25.3701 45.3351 23.53 45.1651 21.92 45.5251Z" fill="#516770"/>
<path d="M35.18 23.5751C39.37 23.5951 43.55 23.6852 47.74 23.7752C47.64 21.5452 47.48 19.3151 47 17.1351C46.17 13.3151 44.27 9.58518 41.06 7.35518C36.14 3.93518 28.33 4.38515 23.03 7.76515C20.8 9.18515 19.01 11.1352 18.07 13.5252C16.99 16.2552 16.7 19.2352 16.53 22.1652C16.51 22.5552 16.49 22.9352 16.47 23.3251C22.69 23.0851 28.95 23.5551 35.18 23.5751Z" fill="#EAF1F2"/>
<path d="M34.8399 24.6948C28.6999 24.6848 22.5399 24.2448 16.3999 24.4648C16.0999 31.1248 16.38 37.8149 17.24 44.4349C17.36 45.3449 17.51 46.2948 18.11 47.0148C19.04 48.1248 20.6499 47.6348 21.8999 47.6348C24.0099 47.6348 26.18 47.7248 28.31 47.7748C32.33 47.8648 36.32 47.8749 40.32 47.4249C42.22 47.2149 46.06 47.7948 46.97 46.0848C47.72 44.6948 47.4099 41.8748 47.5199 40.3248C47.6499 38.4848 47.75 36.6548 47.81 34.8148C47.92 31.5048 47.8999 28.1948 47.7699 24.8748C43.4699 24.7948 39.1499 24.6948 34.8399 24.6948Z" fill="#E2ECED"/>
<path d="M49.34 35.4747C49.42 35.4047 49.43 35.2847 49.44 35.1847C49.65 32.4147 49.83 29.6446 49.96 26.8746C49.97 26.6346 49.97 26.3546 49.78 26.1946C49.64 26.0846 49.46 26.0746 49.28 26.0746C48.66 26.0646 48.05 26.0547 47.43 26.0547C47.04 29.2047 46.88 32.3747 46.96 35.5447C47.65 35.5447 48.33 35.5547 49.02 35.5547C49.13 35.5547 49.25 35.5547 49.34 35.4747Z" fill="#2F3F47"/>
<path d="M52.5299 41.8545C52.6099 41.6245 52.6999 41.3845 52.8799 41.2145C53.0199 41.0845 53.2099 41.0045 53.3899 40.9445C54.1699 40.6645 54.9699 40.4545 55.7799 40.3145C56.4099 40.7445 56.9799 41.2545 57.4699 41.8445C57.5599 41.9545 57.6499 42.0745 57.6699 42.2145C57.6899 42.3245 57.6599 42.4345 57.6299 42.5445C57.3099 43.7745 56.9999 45.0045 56.6799 46.2345C56.2099 46.2945 55.7399 46.3045 55.2799 46.2445C55.4599 45.4945 55.6399 44.7445 55.8099 44.0045C55.9799 43.2945 56.11 42.4245 55.57 41.9245C55.02 42.0645 54.4799 42.2145 53.9299 42.3545C53.8399 42.3745 53.7399 42.4045 53.6599 42.4645C53.5699 42.5445 53.5299 42.6645 53.4899 42.7745C53.2599 43.4745 53.0899 44.1945 52.9699 44.9245C52.6199 44.8245 52.2699 44.7345 51.9199 44.6345C51.8899 43.6845 52.2099 42.7545 52.5299 41.8545Z" fill="#2F3F47"/>
<path d="M56.7799 40.7749C56.8099 40.7449 56.8199 40.7049 56.8299 40.6749C56.9299 40.2249 57.0298 39.7749 57.1398 39.3349C56.4398 39.1749 55.7199 39.0649 55.0099 39.0049C54.8999 39.3749 54.8299 39.7649 54.7999 40.1549C54.7899 40.2349 54.7899 40.3349 54.8499 40.3949C54.8899 40.4349 54.9399 40.4449 54.9899 40.4649C55.5199 40.6249 56.0699 40.7449 56.6299 40.8149C56.6699 40.8049 56.7299 40.8149 56.7799 40.7749Z" fill="#516770"/>
<path d="M57.48 39.0246C57.9 38.3146 57.56 36.4446 57.56 35.6946C57.55 34.6646 57.55 33.6246 57.31 32.6246C57.07 31.6246 56.5799 30.6446 55.7699 30.0146C55.3099 29.6546 54.7699 29.4246 54.2099 29.2346C52.5399 28.6646 50.75 28.4746 49 28.6846C48.86 28.7046 48.71 28.7246 48.61 28.8246C48.5 28.9246 48.48 29.0846 48.46 29.2346C48.38 29.8046 48.27 30.4346 48.3 31.0146C48.35 32.0346 48.14 31.7546 48.88 32.0446C49.45 32.2646 50.52 32.0846 51.17 32.2346C51.93 32.4046 52.67 32.6646 53.41 32.9246C53.88 33.0846 54.38 33.2846 54.62 33.7146C54.75 33.9446 54.79 34.2246 54.82 34.4946C55 36.0946 55.08 37.7046 55.07 39.3146C55.07 39.5946 57.13 39.4546 57.4 39.1446C57.43 39.1046 57.45 39.0646 57.48 39.0246Z" fill="#E2ECED"/>
<g opacity="0.15">
<path opacity="0.15" d="M53.98 29.6947C53.92 30.6547 53.67 31.5247 53.29 32.4047C53.22 32.5747 53.43 32.7047 53.54 32.5547C54.14 31.7147 54.45 30.7147 54.56 29.6947C54.6 29.3347 54.01 29.3247 53.98 29.6947Z" fill="#272525"/>
<path opacity="0.15" d="M55.51 30.3851C55.34 31.3151 54.92 31.9251 54.26 32.5851C54.17 32.6751 54.2899 32.8251 54.3899 32.7551C54.8399 32.4751 55.2599 32.2951 55.5799 31.8451C55.8799 31.4251 56.0799 30.9751 56.1399 30.4651C56.1799 30.1151 55.58 30.0351 55.51 30.3851Z" fill="#272525"/>
</g>
<path d="M15.42 26.1346C15.34 26.2046 15.33 26.3247 15.32 26.4247C15.11 29.1947 14.93 31.9647 14.8 34.7347C14.79 34.9747 14.79 35.2547 14.98 35.4147C15.12 35.5247 15.3 35.5347 15.48 35.5347C16.1 35.5447 16.71 35.5547 17.33 35.5547C17.72 32.4047 17.88 29.2346 17.8 26.0646C17.11 26.0646 16.43 26.0547 15.74 26.0547C15.63 26.0547 15.5 26.0546 15.42 26.1346Z" fill="#2F3F47"/>
<path d="M7.66998 22.7253C7.69998 22.9653 7.72995 23.2253 7.63995 23.4453C7.56995 23.6253 7.43999 23.7753 7.29999 23.9153C6.72999 24.5053 6.11 25.0553 5.44 25.5453C4.68 25.4453 3.94 25.2354 3.25 24.9254C3.12 24.8654 2.97996 24.8054 2.89996 24.6854C2.83996 24.5954 2.80998 24.4853 2.78998 24.3753C2.52998 23.1353 2.26 21.8853 2 20.6453C2.39 20.3853 2.81 20.1653 3.25 20.0053C3.42 20.7553 3.59996 21.5053 3.76996 22.2553C3.93996 22.9653 4.20997 23.8053 4.90997 24.0053C5.33997 23.6353 5.76 23.2653 6.19 22.8953C6.26 22.8353 6.34 22.7654 6.38 22.6754C6.43001 22.5654 6.40995 22.4353 6.38995 22.3153C6.27995 21.5853 6.11996 20.8653 5.89996 20.1553C6.25996 20.0853 6.60997 20.0153 6.96997 19.9453C7.42997 20.7953 7.54998 21.7753 7.66998 22.7253Z" fill="#2F3F47"/>
<path d="M4.3499 25.5753C4.3399 25.6153 4.3499 25.6553 4.3499 25.6853C4.4599 26.1353 4.56991 26.5753 4.66991 27.0253C5.36991 26.8553 6.05991 26.6353 6.72991 26.3753C6.66991 25.9953 6.5599 25.6153 6.4099 25.2553C6.3799 25.1753 6.33994 25.0953 6.25994 25.0653C6.20994 25.0453 6.1599 25.0553 6.0999 25.0653C5.5499 25.1553 5.00991 25.2953 4.47991 25.4753C4.42991 25.4953 4.3699 25.5253 4.3499 25.5753Z" fill="#516770"/>
<path d="M4.49991 27.4554C4.42991 28.2754 5.56989 29.7955 5.90989 30.4755C6.36989 31.3955 6.83991 32.3255 7.49991 33.1155C8.15991 33.9055 9.02989 34.5654 10.0399 34.7654C10.6099 34.8854 11.1999 34.8554 11.7799 34.7754C13.5299 34.5454 15.2199 33.9254 16.6899 32.9554C16.8099 32.8754 16.9299 32.7954 16.9799 32.6554C17.0299 32.5154 16.9799 32.3654 16.9399 32.2154C16.7499 31.6654 16.5799 31.0555 16.2899 30.5455C15.7899 29.6555 16.1099 29.8154 15.3099 29.8754C14.6999 29.9254 13.8199 30.5655 13.1699 30.7255C12.4099 30.9155 11.6299 31.0055 10.8599 31.1055C10.3699 31.1655 9.8299 31.2155 9.4199 30.9355C9.1999 30.7855 9.03988 30.5554 8.89988 30.3254C8.02988 28.9754 7.23988 27.5655 6.52988 26.1155C6.40988 25.8655 4.62987 26.9055 4.51987 27.3055C4.50987 27.3655 4.49991 27.4054 4.49991 27.4554Z" fill="#E2ECED"/>
<g opacity="0.15">
<path opacity="0.15" d="M11.7699 34.2552C11.3999 33.3652 11.2399 32.4752 11.1799 31.5152C11.1699 31.3252 10.9199 31.3052 10.8899 31.4952C10.7299 32.5152 10.8899 33.5452 11.2499 34.5052C11.3799 34.8552 11.9199 34.5952 11.7699 34.2552Z" fill="#272525"/>
<path opacity="0.15" d="M10.0999 34.3257C9.8399 33.4157 9.93991 32.6857 10.2399 31.7957C10.2799 31.6757 10.1099 31.5957 10.0399 31.6957C9.7699 32.1457 9.46993 32.4957 9.37993 33.0357C9.29993 33.5457 9.31992 34.0357 9.49992 34.5157C9.61992 34.8657 10.1899 34.6657 10.0999 34.3257Z" fill="#272525"/>
</g>
<path d="M19.26 17.0349C19.27 17.4149 19.29 17.8049 19.45 18.1549C19.86 19.0249 20.94 19.3049 21.89 19.4649C27.32 20.3749 32.87 20.685 38.33 19.995C39.05 19.905 39.77 19.795 40.43 19.495C41.09 19.195 41.68 18.6849 41.92 18.0149C42.07 17.5849 42.08 17.1249 42.09 16.6649C42.1 16.2049 42.1 15.7349 42.11 15.2749C42.11 15.0649 42.11 14.8549 42.03 14.6549C41.94 14.4449 41.76 14.2749 41.57 14.1449C40.85 13.6549 39.94 13.5449 39.07 13.4549C33.29 12.8749 27.44 12.3649 21.69 13.1449C21.45 13.1749 21.2 13.2149 21.03 13.3849C20.94 13.4649 20.88 13.5749 20.79 13.6549C20.62 13.7849 20.39 13.7749 20.19 13.8449C19.63 14.0249 19.43 14.715 19.36 15.305C19.28 15.875 19.25 16.4549 19.26 17.0349Z" fill="#2F3F47"/>
<path opacity="0.2" d="M26.5 17.8752C26.69 17.5252 26.72 17.1152 26.68 16.7152C26.66 16.4752 26.6 16.2252 26.45 16.0452C26.13 15.6652 25.54 15.7052 25.05 15.6152C24.62 15.7952 24.26 16.1452 24.08 16.5752C23.97 16.8352 23.92 17.1152 23.95 17.3952C24.02 17.9652 24.49 18.4552 25.05 18.5552C25.62 18.6752 26.23 18.3852 26.5 17.8752Z" fill="#EAF1F2"/>
<path opacity="0.2" d="M36.02 17.8752C36.21 17.5252 36.24 17.1152 36.2 16.7152C36.18 16.4752 36.12 16.2252 35.97 16.0452C35.65 15.6652 35.06 15.7052 34.57 15.6152C34.14 15.7952 33.78 16.1452 33.6 16.5752C33.49 16.8352 33.44 17.1152 33.47 17.3952C33.54 17.9652 34.01 18.4552 34.57 18.5552C35.13 18.6752 35.74 18.3852 36.02 17.8752Z" fill="#EAF1F2"/>
<defs>
<linearGradient id="paint0_linear" x1="19.1517" y1="55.8204" x2="61.9915" y2="55.8204" gradientUnits="userSpaceOnUse">
<stop stop-color="#4D4D4D"/>
<stop offset="1"/>
</linearGradient>
<linearGradient id="paint1_linear" x1="19.1517" y1="55.8204" x2="61.9915" y2="55.8204" gradientUnits="userSpaceOnUse">
<stop/>
<stop offset="1"/>
</linearGradient>
</defs>
</svg>
