<svg xmlns="http://www.w3.org/2000/svg" width="19.945" height="19.002" viewBox="0 0 19.945 19.002">
    <g id="uYZHjG" transform="translate(-1.146 -.502)">
        <g id="Group_8363" data-name="Group 8363" transform="translate(-4594.292 -6104.271)">
            <path id="Union_82" fill="#5993fd" stroke="rgba(0,0,0,0)" stroke-miterlimit="10" d="M4925.47 24636.846v-7.066a.441.441 0 0 0-.093-.26l-5.361-6.963a.425.425 0 0 1 .334-.686h14.592a.426.426 0 0 1 .34.686l-5.336 6.988a.433.433 0 0 0-.086.258v3.637a.415.415 0 0 1-.13.309l-3.543 3.408a.419.419 0 0 1-.292.119.425.425 0 0 1-.425-.43zm-6.264-15.543a1.015 1.015 0 0 1 0-2.029h16.917a1.015 1.015 0 0 1 0 2.029z" data-name="Union 82" transform="translate(-322.254 -18514)"/>
        </g>
    </g>
</svg>
