<svg xmlns="http://www.w3.org/2000/svg" width="435.448" height="365.286" viewBox="0 0 435.448 365.286">
    <defs>
        <linearGradient id="linear-gradient" x1=".828" x2=".18" y1=".904" y2=".106" gradientUnits="objectBoundingBox">
            <stop offset="0" stop-color="#077ed1"/>
            <stop offset="1" stop-color="#5773ee"/>
        </linearGradient>
        <linearGradient id="linear-gradient-2" x1=".606" x2="-.566" y1=".535" y2="-.623" gradientUnits="objectBoundingBox">
            <stop offset="0" stop-color="#4252ad"/>
            <stop offset="1" stop-color="#8192f0"/>
        </linearGradient>
        <linearGradient id="linear-gradient-3" x1=".148" x2=".874" y1=".894" y2=".095" gradientUnits="objectBoundingBox">
            <stop offset="0" stop-color="#5993fd"/>
            <stop offset="1" stop-color="#4252ad"/>
        </linearGradient>
        <style>
            .cls-12,.cls-5{fill:none}.cls-5{stroke:#fff}.cls-12,.cls-5{stroke-miterlimit:10}.cls-6{fill:#21326f}.cls-8{fill:#fff}.cls-9{opacity:.4;mix-blend-mode:multiply;isolation:isolate}.cls-10{fill:#494949}.cls-12{stroke:#21326f}
        </style>
    </defs>
    <g id="Group_9497" data-name="Group 9497" transform="translate(-764.419 -299.97)">
        <g id="Group_9529" data-name="Group 9529" transform="translate(6 2)">
            <ellipse id="Ellipse_649" cx="164.5" cy="165" fill="#e7e9f2" data-name="Ellipse 649" rx="164.5" ry="165" transform="translate(849.867 312.97)"/>
            <g id="Ellipse_650" fill="none" stroke="#8192f0" stroke-dasharray="2" data-name="Ellipse 650" transform="translate(834.867 297.97)">
                <circle cx="179.5" cy="179.5" r="179.5" stroke="none"/>
                <circle cx="179.5" cy="179.5" r="179"/>
            </g>
        </g>
        <g id="Group_9496" data-name="Group 9496" opacity="0.9" transform="translate(764.419 385.335)">
            <g id="Group_9490" data-name="Group 9490" transform="translate(122.78 38.232)">
                <path id="Path_21247" fill="#4252ad" d="M262.647 156.46l42.473-43.245a4.657 4.657 0 0 1 7.827 2.08l15.9 60.478a4.656 4.656 0 0 1-1.257 4.522l-42.471 41.312a4.657 4.657 0 0 1-7.742-2.118l-15.9-58.546a4.658 4.658 0 0 1 1.17-4.483z" data-name="Path 21247" transform="translate(-253.089 -99.611)"/>
                <path id="Path_21248" d="M249.919 154.46l42.473-43.245a4.657 4.657 0 0 1 7.827 2.08l15.895 60.478a4.656 4.656 0 0 1-1.257 4.522l-42.471 41.312a4.657 4.657 0 0 1-7.742-2.118l-15.9-58.546a4.656 4.656 0 0 1 1.175-4.483z" class="cls-5" data-name="Path 21248" transform="translate(-248.584 -98.903)"/>
                <path id="Path_21249" d="M432.708 188.865l-59.308-14.73a4.657 4.657 0 0 1-3.381-3.336l-15.919-60.55a4.658 4.658 0 0 1 5.737-5.675l59.307 16.281a4.656 4.656 0 0 1 3.263 3.278l15.915 59a4.657 4.657 0 0 1-5.614 5.732z" class="cls-6" data-name="Path 21249" transform="translate(-285.878 -96.986)"/>
                <path id="Path_21250" d="M442.864 177.385l-59.308-14.73a4.657 4.657 0 0 1-3.382-3.336l-15.914-60.55a4.657 4.657 0 0 1 5.74-5.675l59.3 16.281a4.658 4.658 0 0 1 3.264 3.278l15.914 59a4.657 4.657 0 0 1-5.614 5.732z" class="cls-5" data-name="Path 21250" transform="translate(-289.473 -92.923)"/>
                <path id="Path_21251" fill="#5773ee" d="M365.4 292.163l-57.872-15.818a4.657 4.657 0 0 1-2.02-7.831L347.9 227.28a4.657 4.657 0 0 1 4.37-1.182l59.03 14.662a4.657 4.657 0 0 1 2.126 7.857l-43.547 42.391a4.657 4.657 0 0 1-4.479 1.155z" data-name="Path 21251" transform="translate(-268.234 -140.013)"/>
                <path id="Path_21252" d="M368.4 305.272l-57.872-15.818a4.657 4.657 0 0 1-2.02-7.831l42.39-41.234a4.657 4.657 0 0 1 4.37-1.181l59.032 14.66a4.657 4.657 0 0 1 2.126 7.857l-43.547 42.391a4.658 4.658 0 0 1-4.479 1.156z" class="cls-5" data-name="Path 21252" transform="translate(-269.296 -144.653)"/>
                <g id="Group_9487" data-name="Group 9487" transform="translate(27.042 45.166)">
                    <path id="Path_21253" d="M299.394 205.476a27.844 27.844 0 0 1 .773 10q-.566 4.44-2.8 6.49t-4.361.084q-2.119-1.974-3.458-7.529l-2.244-9.309a28.056 28.056 0 0 1-.776-9.979q.551-4.469 2.795-6.528t4.367-.063q2.124 2 3.458 7.53zm-4.768-7.778a13.969 13.969 0 0 0-2.065-5.158q-1.181-1.493-2.4-.374a5.5 5.5 0 0 0-1.377 3.844 22.22 22.22 0 0 0 .726 6.388l2.549 10.576a14.007 14.007 0 0 0 2.076 5.177q1.192 1.509 2.412.39a5.491 5.491 0 0 0 1.368-3.848 22.563 22.563 0 0 0-.739-6.417z" class="cls-8" data-name="Path 21253" transform="translate(-286.368 -176.006)"/>
                    <path id="Path_21254" d="M317.352 202.438l-2.346 2.155-6.876-28.529-3.17 3.4-.809-3.355 5.29-6.486z" class="cls-8" data-name="Path 21254" transform="translate(-292.662 -169.624)"/>
                </g>
                <g id="Group_9488" data-name="Group 9488" transform="translate(99.584 29.882)">
                    <path id="Path_21255" d="M420.813 167.66q1.094 5.456-.043 8.091t-4.084 1.772q-2.962-.866-5.372-4.541a25.761 25.761 0 0 1-3.5-9.13l-1.832-9.144q-1.085-5.413.038-8.083t4.086-1.8q2.962.868 5.376 4.564a25.864 25.864 0 0 1 3.5 9.13zm-5.089-10.694a20.473 20.473 0 0 0-2.025-5.935 5.377 5.377 0 0 0-2.915-2.805q-1.61-.472-2.076 1.344a13.113 13.113 0 0 0 .257 5.416l2.082 10.388a20.563 20.563 0 0 0 2.038 5.958 5.413 5.413 0 0 0 2.927 2.829q1.61.472 2.065-1.357a13.387 13.387 0 0 0-.271-5.452z" class="cls-8" data-name="Path 21255" transform="translate(-405.444 -144.609)"/>
                    <path id="Path_21256" d="M448.02 186.282l-12.775-3.741-.591-2.946 3.9-9.93a20.909 20.909 0 0 0 1.128-4.4 11.557 11.557 0 0 0-.161-3.622 12.306 12.306 0 0 0-1.511-4.079 4.411 4.411 0 0 0-2.454-2.074 1.508 1.508 0 0 0-2.114 1.045 8.623 8.623 0 0 0 .043 4.244l-3.023-.885-.072-.143q-.862-4.012.33-6.272t4.153-1.393a9.33 9.33 0 0 1 4.911 3.667 17.064 17.064 0 0 1 2.865 6.807 12.326 12.326 0 0 1 .079 4.922 30.348 30.348 0 0 1-1.718 5.3l-2.551 7.532 8.886 2.6z" class="cls-8" data-name="Path 21256" transform="translate(-414.147 -147.172)"/>
                </g>
                <g id="Group_9489" data-name="Group 9489" transform="translate(70.099 108.965)">
                    <path id="Path_21257" d="M373.968 279.193a22.061 22.061 0 0 1-7.485 5.464 9.211 9.211 0 0 1-6.769.536 3.448 3.448 0 0 1-2.589-3.943q.341-2.875 3.974-6.742l6.09-6.481a22.246 22.246 0 0 1 7.471-5.46 9.2 9.2 0 0 1 6.8-.556 3.441 3.441 0 0 1 2.576 3.958q-.357 2.891-3.976 6.741zm3.414-8.057a11.642 11.642 0 0 0 2.9-4.342 1.713 1.713 0 0 0-1.092-2.37 4.822 4.822 0 0 0-3.845.572 17.615 17.615 0 0 0-4.651 3.7l-6.918 7.363a11.709 11.709 0 0 0-2.907 4.359 1.721 1.721 0 0 0 1.085 2.388 4.8 4.8 0 0 0 3.846-.581 17.87 17.87 0 0 0 4.666-3.73z" class="cls-8" data-name="Path 21257" transform="translate(-357.089 -261.588)"/>
                    <path id="Path_21258" d="M396.248 281.014a4.481 4.481 0 0 0 3.416-.158 10.437 10.437 0 0 0 3.421-2.522 6.232 6.232 0 0 0 1.812-3.056 1.649 1.649 0 0 0-1.305-1.907 4.706 4.706 0 0 0-3.318.224 9.309 9.309 0 0 0-3.474 2.388l-2.977-1.084.057-.1a13.01 13.01 0 0 1 5.812-3.728 9.377 9.377 0 0 1 6.167-.11q2.856 1.04 3.007 3.274t-2.685 5.25a12.593 12.593 0 0 1-3.544 2.633 11.562 11.562 0 0 1-4.1 1.227 3.223 3.223 0 0 1 .532 2.934 8.984 8.984 0 0 1-2.311 3.684 14.674 14.674 0 0 1-6.34 4.137 9.709 9.709 0 0 1-6.332.03 4.156 4.156 0 0 1-2.986-3.339q-.385-2.394 2.452-5.3l.118-.082 2.961 1.078a5.5 5.5 0 0 0-1.712 3.207 1.883 1.883 0 0 0 1.406 2.058 4.933 4.933 0 0 0 3.578-.222 10.521 10.521 0 0 0 3.744-2.654q1.991-2.118 2.063-3.483t-1.687-2.005l-2.1-.766 2.224-2.367z" class="cls-8" data-name="Path 21258" transform="translate(-365.572 -264.738)"/>
                </g>
            </g>
            <g id="Group_9492" data-name="Group 9492" transform="translate(194.963 190.062)">
                <g id="Group_9491" class="cls-9" data-name="Group 9491" transform="translate(52.582 19.583)">
                    <rect id="Rectangle_2233" width="48.513" height="44.782" class="cls-10" data-name="Rectangle 2233" rx="15.092"/>
                </g>
                <rect id="Rectangle_2234" width="50.407" height="46.53" fill="url(#linear-gradient)" data-name="Rectangle 2234" rx="15.092" transform="translate(51.635 18.709)"/>
                <rect id="Rectangle_2235" width="50.407" height="46.53" class="cls-12" data-name="Rectangle 2235" rx="15.092" transform="translate(55.409 14.084)"/>
                <path id="Path_21259" d="M364.1 331.727v75.932a10.98 10.98 0 0 0 10.979 10.979h51.771a13.848 13.848 0 0 0 13.85-13.847v-14.9" class="cls-12" data-name="Path 21259" transform="translate(-361.656 -329.28)"/>
                <path id="Path_21260" d="M365.209 330.386a2.447 2.447 0 1 1-2.447-2.447 2.447 2.447 0 0 1 2.447 2.447z" class="cls-6" data-name="Path 21260" transform="translate(-360.315 -327.939)"/>
                <g id="Group_9499" data-name="Group 9499" transform="translate(-5655.44 -3150.425)">
                    <path id="Path_21268" d="M5740.334 3187.108a9.2 9.2 0 1 0-9.242 9.3 9.242 9.242 0 0 0 9.242-9.3zm-9.19 7.52a7.387 7.387 0 1 1 7.345-7.419 7.421 7.421 0 0 1-7.345 7.419z" class="cls-8" data-name="Path 21268"/>
                    <path id="Path_21269" d="M5741.524 3198.734c-.464-.8-.972-1.583-1.461-2.373l-1.2-1.93a28.408 28.408 0 0 1-2.306 1.724c-.806.492-1.7.837-2.58 1.258.934 1.483 1.858 3.019 2.855 4.506a2.8 2.8 0 0 0 3.042 1.036 2.893 2.893 0 0 0 1.65-4.221z" class="cls-8" data-name="Path 21269"/>
                </g>
            </g>
            <g id="Group_9493" data-name="Group 9493" transform="translate(0 50.15)">
                <rect id="Rectangle_2236" width="50.407" height="46.53" fill="url(#linear-gradient-2)" data-name="Rectangle 2236" rx="15.092" transform="translate(0 4.347)"/>
                <rect id="Rectangle_2237" width="50.407" height="46.53" class="cls-12" data-name="Rectangle 2237" rx="15.092" transform="translate(4.111)"/>
                <path id="Path_21261" d="M204.633 214.144h-90.041a13.41 13.41 0 0 1-13.41-13.41v-17.341" class="cls-12" data-name="Path 21261" transform="translate(-73.63 -136.863)"/>
                <path id="Path_21262" d="M262.419 229.651a2.447 2.447 0 1 1-2.447-2.447 2.447 2.447 0 0 1 2.447 2.447z" class="cls-6" data-name="Path 21262" transform="translate(-128.969 -152.37)"/>
                <g id="Group_9498" data-name="Group 9498" transform="translate(-3089.793 -11145.509)">
                    <path id="Path_21266" d="M3126.966 11162.959a1.161 1.161 0 0 0-1.3-1.293h-18.775a1.127 1.127 0 0 0-1.224 1.177q-.008 6.393.008 12.783a1.48 1.48 0 0 0 .256.755 1.128 1.128 0 0 0 1.037.433h18.72a1.159 1.159 0 0 0 1.282-1.289l-.004-12.566zm-1.142-.145V11174h-19.017v-11.183z" class="cls-8" data-name="Path 21266" transform="translate(0 .001)"/>
                    <path id="Path_21267" d="M3218.93 11420.48c-.264-.066-.515-.18-.777-.258a.934.934 0 0 1-.716-.834c-.039-.289-.1-.574-.162-.879h-4.486c-.057.309-.119.6-.165.9a.9.9 0 0 1-.659.789c-.278.088-.547.205-.828.279s-.389.229-.28.523h8.35c.11-.291.012-.443-.277-.52z" class="cls-8" data-name="Path 21267" transform="translate(-98.72 -241.123)"/>
                </g>
            </g>
            <g id="Group_9495" data-name="Group 9495" transform="translate(271.559)">
                <g id="Group_9494" class="cls-9" data-name="Group 9494" transform="translate(31.796 5.523)">
                    <rect id="Rectangle_2238" width="48.513" height="44.782" class="cls-10" data-name="Rectangle 2238" rx="15.092"/>
                </g>
                <rect id="Rectangle_2239" width="50.407" height="46.53" fill="url(#linear-gradient-3)" data-name="Rectangle 2239" rx="15.092" transform="translate(30.849 4.649)"/>
                <rect id="Rectangle_2240" width="50.407" height="46.53" class="cls-12" data-name="Rectangle 2240" rx="15.092" transform="translate(34.394)"/>
                <path id="Path_21263" d="M481.738 145.122h43.384a14.448 14.448 0 0 0 14.448-14.449v-24.906" class="cls-12" data-name="Path 21263" transform="translate(-479.89 -59.237)"/>
                <path id="Path_21264" d="M483.77 165.343a2.447 2.447 0 1 1-2.447-2.447 2.447 2.447 0 0 1 2.447 2.447z" class="cls-6" data-name="Path 21264" transform="translate(-478.877 -79.458)"/>
                <path id="Path_21265" fill="none" stroke="#fff" stroke-linecap="round" stroke-linejoin="round" stroke-width="1.5px" d="M557.787 64.815a6.722 6.722 0 0 1-2.646-5.823 6.184 6.184 0 0 1 1.931-4.233 6.538 6.538 0 0 1 8.78-.412 6.384 6.384 0 0 1 2.416 5.3 6.518 6.518 0 0 1-2.611 5.122c.612.358 1.242.7 1.84 1.083a8.975 8.975 0 0 1 1.764 1.56 9.319 9.319 0 0 1 1.282 1.784 11.744 11.744 0 0 1 .786 1.763 11.62 11.62 0 0 1 .472 1.876 9.933 9.933 0 0 1 .114 1.674 2.337 2.337 0 0 1-.8 1.664 6.024 6.024 0 0 1-2.076 1.282 15.415 15.415 0 0 1-3.459.894 19.739 19.739 0 0 1-2.765.251c-.667 0-1.337.057-2 .02-.937-.053-1.873-.14-2.8-.266a22.483 22.483 0 0 1-2.224-.434 9.1 9.1 0 0 1-2.538-1.011 3.846 3.846 0 0 1-1.464-1.375 2.583 2.583 0 0 1-.289-1.644c.06-.477.085-.959.163-1.433a7.9 7.9 0 0 1 .631-2.1 16.905 16.905 0 0 1 .958-1.785 9.522 9.522 0 0 1 1.8-2.045 9.748 9.748 0 0 1 2.735-1.712z" data-name="Path 21265" transform="translate(-504.571 -40.506)"/>
            </g>
        </g>
    </g>
</svg>
