<svg xmlns="http://www.w3.org/2000/svg" width="19.83" height="19.737" viewBox="0 0 19.83 19.737">
    <defs>
        <style>
            .prefix__cls-1{fill:#fff}
        </style>
    </defs>
    <g id="prefix__Group_4658" data-name="Group 4658" transform="translate(-584.826 304)">
        <path id="prefix__Path_18396" d="M597.329-287.775c.228.36.406.692.633.987a1.972 1.972 0 0 0 1.133.68 2.419 2.419 0 0 1 .308.087.948.948 0 0 1 .615.994.961.961 0 0 1-.938.76c-.948.007-1.9 0-2.843 0h-5.731a1.288 1.288 0 0 1-.476-.088.856.856 0 0 1-.576-.9.927.927 0 0 1 .685-.812 4.328 4.328 0 0 0 .821-.343 2.112 2.112 0 0 0 .962-1.21c.035-.112.079-.157.2-.156q2.588.006 5.174 0c.033 0 .061.003.033.001z" class="prefix__cls-1" data-name="Path 18396"/>
        <g id="prefix__Group_4657" data-name="Group 4657">
            <path id="prefix__Path_18397" d="M592.2-293.512h-2.083a.52.52 0 0 1-.5-.537.519.519 0 0 1 .5-.5h2.083v-5.184h-2.083a.521.521 0 0 1-.5-.536.52.52 0 0 1 .5-.5h9.748l-2.136 3.631 2.133 3.631z" class="prefix__cls-1" data-name="Path 18397"/>
            <path id="prefix__Path_18398" d="M590.1-295.666v-2.953a.6.6 0 0 1 .6-.6.6.6 0 0 1 .6.6v2.953a.6.6 0 0 1-.6.6.6.6 0 0 1-.6-.6z" class="prefix__cls-1" data-name="Path 18398"/>
        </g>
        <path id="prefix__Path_18399" d="M603.582-304H585.9a1.074 1.074 0 0 0-1.074 1.074v13.479a1.073 1.073 0 0 0 1.074 1.074h17.682a1.074 1.074 0 0 0 1.074-1.074v-13.479a1.074 1.074 0 0 0-1.074-1.074zm-.048 12.422a.267.267 0 0 1-.267.267h-17.056a.267.267 0 0 1-.267-.267v-11.035a.268.268 0 0 1 .267-.267h17.056a.268.268 0 0 1 .267.267z" class="prefix__cls-1" data-name="Path 18399"/>
    </g>
</svg>
