<svg xmlns="http://www.w3.org/2000/svg" id="Component_104_2" width="27.837" height="20.681" viewBox="0 0 27.837 20.681">
    <defs>
        <style>
            .cls-2{fill:#5993fd}
        </style>
    </defs>
    <g id="Component_103_1">
        <rect id="Rectangle_2102" width="2" height="27.248" class="cls-2" rx="1" transform="rotate(-45 3.457 -3.518)"/>
        <g id="Group_9020" transform="translate(-3814.404 -5824.719)">
            <path id="Path_21119" d="M3831.768 5835.584c0-.059.017-.114.017-.173a3.435 3.435 0 0 0-3.435-3.436c-.06 0-.115.015-.173.018z" class="cls-2"/>
            <path id="Path_21120" d="M3824.932 5835.233c0 .06-.018.117-.018.178a3.435 3.435 0 0 0 3.436 3.435c.06 0 .117-.015.177-.018z" class="cls-2"/>
        </g>
        <g id="Group_9021" transform="translate(-3814.404 -5824.719)">
            <path id="Path_21121" d="M3827.32 5831.136a4.362 4.362 0 0 1 5.3 5.3l1.691 1.691a6.547 6.547 0 0 0-8.68-8.68z" class="cls-2"/>
            <path id="Path_21122" d="M3829.379 5839.68a4.366 4.366 0 0 1-5.3-5.3l-1.688-1.688a6.548 6.548 0 0 0 8.683 8.683z" class="cls-2"/>
        </g>
        <g id="Group_9022" transform="translate(-3814.404 -5824.719)">
            <path id="Path_21123" d="M3842.117 5835.044a16.124 16.124 0 0 0-1.578-2.183c-6.206-6.9-11.932-6.4-12.426-6.454a.693.693 0 0 0-.071 0 12.554 12.554 0 0 0-4.49.958l.879.878a10.745 10.745 0 0 1 3.644-.732h.069c.44-.041 5.453-.367 10.863 5.644a13.921 13.921 0 0 1 1.343 1.85.793.793 0 0 1-.027.89 21.848 21.848 0 0 1-4.034 4.209l.891.891a24.975 24.975 0 0 0 4.912-5.066.793.793 0 0 0 .025-.885z" class="cls-2"/>
            <path id="Path_21124" d="M3832.171 5842.473a11.539 11.539 0 0 1-3.913.777s-6.64.279-11.948-7.446a.793.793 0 0 1-.032-.847 15.938 15.938 0 0 1 4.027-4.351l-.876-.875a18.312 18.312 0 0 0-4.921 5.256.8.8 0 0 0 .033.841c6.078 8.9 13.706 8.577 13.706 8.577a13.318 13.318 0 0 0 4.832-1.025z" class="cls-2"/>
        </g>
    </g>
</svg>
