<svg width="25" height="25" viewBox="0 0 25 25" fill="none" xmlns="http://www.w3.org/2000/svg">
<path d="M12.5 9.99414C10.874 9.99414 9.5 11.3681 9.5 12.9941C9.5 14.6201 10.874 15.9941 12.5 15.9941C14.126 15.9941 15.5 14.6201 15.5 12.9941C15.5 11.3681 14.126 9.99414 12.5 9.99414Z" fill="#117B5B"/>
<path d="M20.5 5.99414H17.914L15.207 3.28714C15.1143 3.1941 15.0041 3.12031 14.8828 3.07003C14.7614 3.01974 14.6313 2.99395 14.5 2.99414H10.5C10.3687 2.99395 10.2386 3.01974 10.1172 3.07003C9.9959 3.12031 9.88571 3.1941 9.793 3.28714L7.086 5.99414H4.5C3.397 5.99414 2.5 6.89114 2.5 7.99414V18.9941C2.5 20.0971 3.397 20.9941 4.5 20.9941H20.5C21.603 20.9941 22.5 20.0971 22.5 18.9941V7.99414C22.5 6.89114 21.603 5.99414 20.5 5.99414ZM12.5 17.9941C9.79 17.9941 7.5 15.7041 7.5 12.9941C7.5 10.2841 9.79 7.99414 12.5 7.99414C15.21 7.99414 17.5 10.2841 17.5 12.9941C17.5 15.7041 15.21 17.9941 12.5 17.9941Z" fill="#117B5B"/>
</svg>
