<svg width="15" height="15" viewBox="0 0 15 15" fill="none" xmlns="http://www.w3.org/2000/svg">
<path fill-rule="evenodd" clip-rule="evenodd" d="M1.52351 6.83866C1.52351 3.88815 3.91537 1.49629 6.86588 1.49629C9.81639 1.49629 12.2083 3.88815 12.2083 6.83866C12.2083 9.78917 9.81639 12.181 6.86588 12.181C3.91537 12.181 1.52351 9.78917 1.52351 6.83866ZM6.86588 0.196289C3.1974 0.196289 0.223511 3.17018 0.223511 6.83866C0.223511 10.5071 3.1974 13.481 6.86588 13.481C8.38686 13.481 9.78843 12.9698 10.9082 12.1099L12.924 14.1205C13.1782 14.374 13.5897 14.3734 13.8432 14.1193C14.0967 13.8651 14.0962 13.4535 13.842 13.2L11.8577 11.2209C12.8852 10.0514 13.5083 8.51777 13.5083 6.83866C13.5083 3.17018 10.5344 0.196289 6.86588 0.196289Z" fill="#3C3C43" fill-opacity="0.6"/>
</svg>
