<svg width="17" height="17" viewBox="0 0 17 17" fill="none" xmlns="http://www.w3.org/2000/svg">
<path fill-rule="evenodd" clip-rule="evenodd" d="M2.70198 8.83866C2.70198 5.88815 5.09384 3.49629 8.04435 3.49629C10.9949 3.49629 13.3867 5.88815 13.3867 8.83866C13.3867 11.7892 10.9949 14.181 8.04435 14.181C5.09384 14.181 2.70198 11.7892 2.70198 8.83866ZM8.04435 2.19629C4.37587 2.19629 1.40198 5.17018 1.40198 8.83866C1.40198 12.5071 4.37587 15.481 8.04435 15.481C9.56532 15.481 10.9669 14.9698 12.0866 14.1099L14.1025 16.1205C14.3566 16.374 14.7682 16.3734 15.0217 16.1193C15.2752 15.8651 15.2747 15.4535 15.0205 15.2L13.0362 13.2209C14.0637 12.0514 14.6867 10.5178 14.6867 8.83866C14.6867 5.17018 11.7128 2.19629 8.04435 2.19629Z" fill="#117B5B"/>
</svg>
