<svg xmlns="http://www.w3.org/2000/svg" width="525" height="387.21" viewBox="0 0 525 387.21">
    <defs>
        <clipPath id="clip-path">
            <path id="Rectangle_2273" fill="#fff" stroke="#707070" d="M0 0H76V96H0z" transform="translate(3604.374 -186.08)"/>
        </clipPath>
        <style>
            .cls-15{fill:#fff}.cls-4{fill:#82b378}.cls-5{fill:#a8d29f}.cls-6{fill:#4c55a8}.cls-8{fill:#6072d8}.cls-9{fill:#21326f}.cls-10{fill:#fbb03b}.cls-11{fill:#5773ee;fill-rule:evenodd}.cls-12{fill:#5a5bae}.cls-13{fill:#f6c5ae}.cls-14{fill:#393768}.cls-16{fill:#9b9ad3}.cls-18{fill:#9aa7f4}.cls-19{fill:#d7d4ff}
        </style>
    </defs>
    <g id="Group_2207" transform="translate(-3338.374 418.536)">
        <g id="Group_9619" transform="translate(-1014.006 -13692.137)">
            <g id="Group_9563" transform="translate(4352.38 13273.601)">
                <g id="Group_9560" transform="translate(18.115 11.548)">
                    <ellipse id="Ellipse_649" cx="187.262" cy="187.831" fill="#eae9ff" rx="187.262" ry="187.831"/>
                </g>
                <g id="Group_9529">
                    <g id="Ellipse_649-2" fill="none" stroke="#8192f0" stroke-dasharray="2">
                        <ellipse cx="190.036" cy="190.613" stroke="none" rx="190.036" ry="190.613"/>
                        <ellipse cx="190.036" cy="190.613" rx="189.536" ry="190.113"/>
                    </g>
                </g>
            </g>
        </g>
        <g id="Group_9632" transform="translate(183 -22)">
            <g id="Group_9631" transform="translate(-4475.787 -11387.658)">
                <g id="Group_9623" transform="translate(7720.827 11205.448)">
                    <path id="Path_21399" d="M7745.07 11279.053s-32.448-43.831-22.266-53.193 25.061 23.614 22.266 53.193z" class="cls-4" transform="translate(-7720.827 -11224.239)"/>
                    <g id="Group_9620" transform="translate(5.125 6.605)">
                        <path id="Path_21400" d="M7730.5 11236.821a115.493 115.493 0 0 1 8.5 15.014 126.631 126.631 0 0 1 5.957 15.135 142.248 142.248 0 0 1 3.8 14.373q1.367 6.5 2.168 13.108c.448 3.681.771 7.376 1 11.076.024.4.06.788.078 1.183 0 .1.165.1.161 0-.17-3.633-.4-7.253-.807-10.868q-.724-6.456-1.969-12.84a141.947 141.947 0 0 0-3.608-14.405 126.33 126.33 0 0 0-5.633-14.941 110.9 110.9 0 0 0-8.277-15.128q-.6-.907-1.209-1.8c-.067-.1-.229 0-.16.1z" class="cls-5" transform="translate(-7730.482 -11236.685)"/>
                    </g>
                    <g id="Group_9621" transform="translate(4.188 12.547)">
                        <path id="Path_21401" d="M7728.762 11248.054c1.411.9 2.791 1.834 4.125 2.842q1.062.8 2.093 1.642c.627.516 1.225 1.1 1.9 1.562.08.054.153-.062.1-.127a14.988 14.988 0 0 0-1.888-1.707c-.655-.545-1.321-1.077-2-1.59a32.5 32.5 0 0 0-4.23-2.781.093.093 0 0 0-.093.16z" class="cls-5" transform="translate(-7728.717 -11247.881)"/>
                    </g>
                    <g id="Group_9622" transform="translate(5.192 15.172)">
                        <path id="Path_21402" d="M7730.655 11253c1.412.9 2.792 1.835 4.126 2.841q1.061.8 2.092 1.644c.628.515 1.226 1.1 1.9 1.56.081.056.154-.061.1-.127a15 15 0 0 0-1.888-1.707q-.981-.817-2-1.589a32.365 32.365 0 0 0-4.229-2.782.094.094 0 0 0-.095.161z" class="cls-5" transform="translate(-7730.61 -11252.827)"/>
                    </g>
                </g>
                <g id="Group_9625" transform="translate(7751.409 11195.884)">
                    <path id="Path_21403" d="M7781.692 11261.5s31.284-44.672 20.859-53.762-24.432 24.262-20.859 53.762z" class="cls-5" transform="translate(-7779.707 -11206.217)"/>
                    <g id="Group_9624" transform="translate(0 6.589)">
                        <path id="Path_21404" d="M7798.109 11218.676a109.833 109.833 0 0 0-8.211 15.26 124.478 124.478 0 0 0-5.55 15.2 139.941 139.941 0 0 0-3.436 14.539q-1.187 6.538-1.806 13.163c-.351 3.71-.573 7.435-.644 11.16-.008.4 0 .8-.01 1.2a.081.081 0 0 0 .161 0c.074-3.605.313-7.22.622-10.812q.563-6.513 1.659-12.964a143.916 143.916 0 0 1 3.207-14.354 128.682 128.682 0 0 1 5.23-15.124 116.3 116.3 0 0 1 7.777-15.306q.57-.94 1.159-1.871c.064-.1-.1-.194-.161-.094z" class="cls-4" transform="translate(-7778.454 -11218.633)"/>
                    </g>
                </g>
                <g id="Group_9627" transform="translate(7727.037 11184.198)">
                    <path id="Path_21405" d="M7755.73 11239.4s-31.484-44.528-21.1-53.667 24.54 24.159 21.1 53.667z" class="cls-5" transform="translate(-7732.529 -11184.197)"/>
                    <g id="Group_9626" transform="translate(5.137 6.592)">
                        <path id="Path_21406" d="M7742.224 11196.756a115.4 115.4 0 0 1 8.159 15.169 126.68 126.68 0 0 1 5.622 15.236 142.6 142.6 0 0 1 3.5 14.482q1.228 6.543 1.885 13.179c.368 3.684.61 7.377.758 11.077.016.4.042.8.052 1.2a.081.081 0 0 0 .162 0c-.091-3.628-.244-7.245-.568-10.862q-.584-6.507-1.7-12.951a141.558 141.558 0 0 0-3.277-14.405 126.179 126.179 0 0 0-5.315-15.087 110.856 110.856 0 0 0-7.929-15.279q-.582-.932-1.184-1.85c-.065-.1-.226-.008-.161.094z" class="cls-4" transform="translate(-7742.208 -11196.619)"/>
                    </g>
                </g>
                <g id="Group_9629" transform="translate(7745.844 11219.202)">
                    <path id="Path_21407" d="M7770.519 11283.347s19.375-26.627 13.181-32.229-15.015 14.382-13.181 32.229z" class="cls-4" transform="translate(-7769.049 -11250.157)"/>
                    <g id="Group_9628" transform="translate(0 3.95)">
                        <path id="Path_21408" d="M7780.6 11257.643a69.764 69.764 0 0 0-8.671 18.262 88.665 88.665 0 0 0-3.456 16.641 70.945 70.945 0 0 0-.51 7.48.081.081 0 0 0 .162 0c.153-2.165.285-4.328.511-6.488q.412-3.93 1.146-7.814a82.312 82.312 0 0 1 5.437-17.757 71.128 71.128 0 0 1 5.543-10.229c.066-.1-.095-.193-.161-.095z" class="cls-5" transform="translate(-7767.967 -11257.601)"/>
                    </g>
                </g>
                <g id="Group_9630" transform="translate(7735.423 11270.758)">
                    <path id="Path_21409" d="M7774.746 11349.186l-.138.922-.291 1.961-2.8 18.821h-16.727l-2.8-18.821-.291-1.961-.138-.922z" class="cls-6" transform="translate(-7749.842 -11348.186)"/>
                    <path id="Path_21410" fill="#85a8e0" d="M7774.729 11350.924l-.291 1.96H7752.1l-.29-1.96z" transform="translate(-7749.965 -11349.002)"/>
                    <path id="Path_21411" d="M7773.558 11350.07h-23.845a1.383 1.383 0 0 1-1.383-1.384 1.383 1.383 0 0 1 1.383-1.384h23.845a1.383 1.383 0 0 1 1.384 1.384 1.383 1.383 0 0 1-1.384 1.384z" class="cls-8" transform="translate(-7748.33 -11347.303)"/>
                </g>
            </g>
            <g id="Group_2206" transform="translate(3216.548 -359.08)">
                <g id="Group_4573" transform="translate(65.889 97.1)">
                    <path id="Path_18280" d="M5416.709 727.719h17.108a1.2 1.2 0 0 1 1.205 1.2v25.152a1.2 1.2 0 0 1-1.205 1.2h-17.108a1.2 1.2 0 0 0-1.2 1.2v34.851a1.2 1.2 0 0 1-1.2 1.2h-31.776a1.2 1.2 0 0 1-1.205-1.2v-34.839a1.2 1.2 0 0 0-1.2-1.2h-68.289a1.2 1.2 0 0 1-1.2-1.118l-1.429-20.014a1.2 1.2 0 0 1 .183-.73l71.231-112.537a1.2 1.2 0 0 1 1.016-.56h32.66a1.2 1.2 0 0 1 1.2 1.2v104.992a1.2 1.2 0 0 0 1.209 1.203zm-71.292 0h34.7a1.2 1.2 0 0 0 1.2-1.2v-55.092a1.2 1.2 0 0 0-2.246-.6l-34.671 55.047a1.2 1.2 0 0 0 1.017 1.845z" class="cls-9" transform="translate(-5309.196 -620.32)"/>
                </g>
                <g id="Group_2188" transform="translate(201.318)">
                    <path id="Path_1622" d="M3956.361-120.633q0 18.494-4 31.742t-11.276 21.819A43.427 43.427 0 0 1 3923.6-54.5a61.455 61.455 0 0 1-22.608 4 61.445 61.445 0 0 1-22.608-4 43.855 43.855 0 0 1-17.534-12.573q-7.331-8.568-11.389-21.819t-4.06-31.742v-28.529q0-18.492 4-31.742t11.333-21.763a44.193 44.193 0 0 1 17.478-12.516 61 61 0 0 1 22.552-4 61.459 61.459 0 0 1 22.609 4 44.13 44.13 0 0 1 17.534 12.516q7.329 8.515 11.389 21.763t4.059 31.742zm-32.587-33.152a93.68 93.68 0 0 0-1.522-18.38 34.6 34.6 0 0 0-4.511-12.009 17.856 17.856 0 0 0-7.273-6.6 22.392 22.392 0 0 0-9.7-2.03 22.015 22.015 0 0 0-9.641 2.03 17.58 17.58 0 0 0-7.161 6.6 35.33 35.33 0 0 0-4.453 12.009 93.584 93.584 0 0 0-1.522 18.38v37.437a92.654 92.654 0 0 0 1.578 18.605 37.511 37.511 0 0 0 4.51 12.235 17.28 17.28 0 0 0 7.221 6.708 22.385 22.385 0 0 0 9.7 2.03 22.392 22.392 0 0 0 9.7-2.03 16.958 16.958 0 0 0 7.16-6.709 37.617 37.617 0 0 0 4.4-12.235 96.14 96.14 0 0 0 1.522-18.605z" class="cls-9" transform="translate(-3845.405 219.185)"/>
                </g>
                <g id="Group_2190" transform="translate(327.814 13.234)">
                    <g id="Group_5461">
                        <path id="Path_1623" d="M4280.816-177.458l-48.137 11.294 49.342 18.263-1.974-13.288 7.136-6.266-39.389.208 33.483-3.572 1.709-2.925 2.878-4.926z" class="cls-10" transform="translate(-4232.679 178.671)"/>
                        <g id="Group_2189" transform="translate(35.428 10.625)">
                            <path id="Path_1624" d="M4435.018-145.787l-.076 1.453q-1.208-.068-2.419-.1l.048-1.454q1.224.034 2.447.101z" class="cls-11" transform="translate(-4402.676 145.971)"/>
                            <path id="Path_1625" d="M4419.223-146.137l2.448.029-.027 1.455-2.423-.028z" class="cls-11" transform="translate(-4393.719 146.137)"/>
                            <path id="Path_1626" d="M4405.812-146.044l2.452-.057.019 1.455-2.419.057z" class="cls-11" transform="translate(-4384.689 146.113)"/>
                            <path id="Path_1627" d="M4472.3-141.022l.209-1.44 2.426.386-.248 1.434z" class="cls-11" transform="translate(-4429.459 143.662)"/>
                            <path id="Path_1628" d="M4459.257-144.1c.812.094 1.626.163 2.437.278l-.18 1.444c-.8-.113-1.6-.181-2.405-.274z" class="cls-11" transform="translate(-4420.577 144.762)"/>
                            <path id="Path_1629" d="M4448.441-145.031l-.125 1.45c-.8-.076-1.609-.132-2.415-.184l.1-1.452c.812.052 1.626.11 2.44.186z" class="cls-11" transform="translate(-4411.686 145.517)"/>
                            <path id="Path_1630" d="M4511.485-133.211c.772.3 1.557.561 2.32.887l-.559 1.343c-.735-.314-1.5-.569-2.243-.857z" class="cls-11" transform="translate(-4455.522 137.433)"/>
                            <path id="Path_1631" d="M4501.094-136.47l-.43 1.39c-.761-.256-1.541-.453-2.317-.66l.371-1.407c.794.213 1.593.414 2.376.677z" class="cls-11" transform="translate(-4447 140.083)"/>
                            <path id="Path_1632" d="M4485.473-138.731l.281-1.428c.808.141 1.607.34 2.408.517l-.329 1.417c-.786-.175-1.566-.368-2.36-.506z" class="cls-11" transform="translate(-4438.332 142.111)"/>
                            <path id="Path_1633" d="M4544.477-111.1l1.068-.987c.567.64 1.1 1.325 1.6 2.021l-1.212.806c-.457-.627-.939-1.25-1.456-1.84z" class="cls-11" transform="translate(-4478.062 123.207)"/>
                            <path id="Path_1634" d="M4534.6-119.949l.826-1.2c.7.469 1.342 1.029 2.014 1.541l-.954 1.1c-.631-.477-1.226-1-1.886-1.441z" class="cls-11" transform="translate(-4471.412 129.31)"/>
                            <path id="Path_1635" d="M4523.284-126.688l.629-1.312 2.218 1.167-.731 1.258z" class="cls-11" transform="translate(-4463.792 133.924)"/>
                            <path id="Path_1636" d="M4555.54-73.051c-.153.832-.348 1.655-.523 2.482l-1.407-.37c.161-.774.345-1.546.49-2.322z" class="cls-11" transform="translate(-4484.212 97.064)"/>
                            <path id="Path_1637" d="M4555.32-86.527l1.444-.178.081 1.29a6.858 6.858 0 0 1 .016 1.285l-1.455-.051a5.89 5.89 0 0 0-.015-1.174z" class="cls-11" transform="translate(-4485.364 106.117)"/>
                            <path id="Path_1638" d="M4552.233-98.617l-.424-1.089 1.312-.626.478 1.212a6.19 6.19 0 0 1 .4 1.234l-1.405.377a5.141 5.141 0 0 0-.361-1.108z" class="cls-11" transform="translate(-4483 115.293)"/>
                            <path id="Path_1639" d="M4538.462-36.356c-.46.687-.889 1.4-1.4 2.043l-1.177-.855c.5-.629.916-1.317 1.362-1.983z" class="cls-11" transform="translate(-4472.274 72.75)"/>
                            <path id="Path_1640" d="M4545.639-47.841l-1.21 2.178-1.253-.742 1.167-2.1z" class="cls-11" transform="translate(-4477.186 80.393)"/>
                            <path id="Path_1641" d="M4550.033-60.546l1.375.474-.4 1.191-.512 1.142-1.333-.585.491-1.091z" class="cls-11" transform="translate(-4481.216 88.503)"/>
                            <path id="Path_1642" d="M4512.139-5.588l-1.751 1.723-1-1.056 1.725-1.7z" class="cls-11" transform="translate(-4454.435 52.188)"/>
                            <path id="Path_1643" d="M4521.513-15.247l-1.676 1.8-1.052-1.005 1.645-1.77z" class="cls-11" transform="translate(-4460.762 58.654)"/>
                            <path id="Path_1644" d="M4530.3-25.431c-.485.668-1.047 1.269-1.567 1.906l-1.111-.94c.508-.623 1.061-1.212 1.532-1.862z" class="cls-11" transform="translate(-4466.709 65.461)"/>
                            <path id="Path_1645" d="M4480.78 19.781l.9 1.142-1.938 1.494-.883-1.156z" class="cls-11" transform="translate(-4433.878 34.413)"/>
                            <path id="Path_1646" d="M4492.12 12.468c-.614.54-1.254 1.047-1.889 1.56l-.917-1.129c.626-.509 1.261-1.01 1.867-1.543z" class="cls-11" transform="translate(-4440.917 40.086)"/>
                            <path id="Path_1647" d="M4502.245 3.687c-.6.553-1.2 1.112-1.827 1.635l-.957-1.1c.62-.518 1.209-1.069 1.8-1.614z" class="cls-11" transform="translate(-4447.75 45.974)"/>
                            <path id="Path_1648" d="M4448.211 43.255l.813 1.207-2.032 1.357-.8-1.217z" class="cls-11" transform="translate(-4411.882 18.606)"/>
                            <path id="Path_1649" d="M4459.24 35.706l.839 1.189-2 1.4-.823-1.2z" class="cls-11" transform="translate(-4419.328 23.69)"/>
                            <path id="Path_1650" d="M4470.059 27.931l.869 1.167-1.976 1.441-.851-1.18z" class="cls-11" transform="translate(-4426.633 28.925)"/>
                            <path id="Path_1651" d="M4414.209 64.617l.743 1.251-2.106 1.232-.731-1.258z" class="cls-11" transform="translate(-4388.933 4.222)"/>
                            <path id="Path_1652" d="M4425.652 57.707l.765 1.238-2.084 1.271-.752-1.246z" class="cls-11" transform="translate(-4396.654 8.875)"/>
                            <path id="Path_1653" d="M4436.941 50.625l.787 1.224-2.06 1.312-.773-1.232z" class="cls-11" transform="translate(-4404.274 13.643)"/>
                            <path id="Path_1654" d="M4379.2 84.231l.684 1.284-2.159 1.137-.673-1.29z" class="cls-11" transform="translate(-4365.321 -8.986)"/>
                            <path id="Path_1655" d="M4390.947 77.868l.7 1.274-2.142 1.17-.692-1.28z" class="cls-11" transform="translate(-4373.245 -4.701)"/>
                            <path id="Path_1656" d="M4402.572 71.364l.723 1.263-2.123 1.2-.711-1.269z" class="cls-11" transform="translate(-4381.086 -.322)"/>
                            <path id="Path_1657" d="M4341.145 103.278l2.2-1.026.623 1.315-2.215 1.034z" class="cls-11" transform="translate(-4341.145 -21.12)"/>
                            <path id="Path_1658" d="M4355.368 96.434l.645 1.3-2.192 1.073-.633-1.31z" class="cls-11" transform="translate(-4349.254 -17.203)"/>
                            <path id="Path_1659" d="M4367.265 90.447l.665 1.294-2.174 1.106-.655-1.3z" class="cls-11" transform="translate(-4357.275 -13.172)"/>
                        </g>
                    </g>
                </g>
                <path id="Path_1660" d="M3678.022-134.367h-2.547a1.361 1.361 0 0 1-1.3-.943 10.182 10.182 0 0 0-.66-1.587 1.362 1.362 0 0 1 .25-1.592l1.8-1.8a1.377 1.377 0 0 0 0-1.947l-1.1-1.1a1.377 1.377 0 0 0-1.948 0l-1.8 1.8a1.363 1.363 0 0 1-1.591.25 10.1 10.1 0 0 0-1.587-.66 1.362 1.362 0 0 1-.943-1.3v-2.547a1.377 1.377 0 0 0-1.377-1.377h-1.55a1.376 1.376 0 0 0-1.377 1.377v2.547a1.362 1.362 0 0 1-.943 1.3 10.1 10.1 0 0 0-1.586.66 1.364 1.364 0 0 1-1.592-.25l-1.8-1.8a1.377 1.377 0 0 0-1.947 0l-1.1 1.1a1.377 1.377 0 0 0 0 1.947l1.8 1.8a1.363 1.363 0 0 1 .25 1.592 10.134 10.134 0 0 0-.659 1.587 1.362 1.362 0 0 1-1.3.943h-2.547a1.377 1.377 0 0 0-1.377 1.377v1.55a1.377 1.377 0 0 0 1.377 1.377h2.547a1.362 1.362 0 0 1 1.3.942 10.137 10.137 0 0 0 .659 1.587 1.363 1.363 0 0 1-.25 1.592l-1.8 1.8a1.377 1.377 0 0 0 0 1.947l1.1 1.1a1.377 1.377 0 0 0 1.947 0l1.8-1.8a1.363 1.363 0 0 1 1.592-.25 10.132 10.132 0 0 0 1.586.66 1.362 1.362 0 0 1 .943 1.3v2.547a1.376 1.376 0 0 0 1.377 1.377h1.55a1.377 1.377 0 0 0 1.377-1.377v-2.547a1.363 1.363 0 0 1 .943-1.3 10.153 10.153 0 0 0 1.587-.66 1.363 1.363 0 0 1 1.591.25l1.8 1.8a1.377 1.377 0 0 0 1.948 0l1.1-1.1a1.377 1.377 0 0 0 0-1.947l-1.8-1.8a1.362 1.362 0 0 1-.25-1.592 10.185 10.185 0 0 0 .66-1.587 1.362 1.362 0 0 1 1.3-.942h2.547a1.377 1.377 0 0 0 1.377-1.377v-1.55a1.377 1.377 0 0 0-1.377-1.377zm-8.382 3.187a5.3 5.3 0 0 1-4.155 4.156 5.3 5.3 0 0 1-6.227-6.226 5.3 5.3 0 0 1 4.155-4.156 5.3 5.3 0 0 1 6.226 6.226z" class="cls-12" transform="translate(-3550.993 195.864)"/>
                <g id="Group_2201" transform="translate(176.163 150.812)">
                    <path id="Path_1671" d="M4078.441 278s1.912-2.042 2.082-3.22c.28-1.948 1.9-3.489 1.69-1.878-.217 1.695.016.98.688.429a3.573 3.573 0 0 0 1.564-2.962c.1-1.768 1.278-1.034.854 2.222s-1.818 3.425-2.531 4.424-2.644 3.177-2.644 3.177z" class="cls-13" transform="translate(-3977.169 -260.644)"/>
                    <path id="Path_1672" d="M3896.41 253.226s-.545-2.743-.067-3.833c.791-1.8.23-3.965-.443-2.488-.711 1.554-.531.824-.811 0a3.57 3.57 0 0 1 .236-3.341c.852-1.552-.539-1.553-1.9 1.436s-.265 3.869-.187 5.094.567 4.094.567 4.094z" class="cls-13" transform="translate(-3852.13 -242.537)"/>
                    <g id="Group_2198" transform="translate(0 102.518)">
                        <path id="Path_1673" d="M3793.214 560.824l-3.309 1.4c-.081-.337-1.4-4.551-1.4-4.551l3.351-1.272z" class="cls-13" transform="translate(-3781.934 -556.404)"/>
                        <path id="Path_1674" d="M3777.924 564.623s-1.941 11.349-1.967 11.579c-.011.1.024.627.066 1.178a1.793 1.793 0 0 1-1.229 1.886 1.834 1.834 0 0 1-.56.121c-.174-.058-5.843-18.964-5.843-18.964s5.967-2.293 6.513-1.368.786 4.581 3.02 5.568z" class="cls-14" transform="translate(-3768.392 -558.041)"/>
                        <g id="Group_2197" transform="translate(6.112 12.685)">
                            <path id="Path_1675" d="M3789.982 595.641l-1.89-.4-.153.712 1.919.405z" class="cls-15" transform="translate(-3787.667 -595.241)"/>
                            <path id="Path_1676" d="M3789.488 599.548l-1.805-.381-.152.712 1.833.388z" class="cls-15" transform="translate(-3787.392 -597.884)"/>
                            <path id="Path_1677" d="M3789 603.237l-1.738-.367-.152.711 1.767.373z" class="cls-15" transform="translate(-3787.105 -600.379)"/>
                        </g>
                    </g>
                    <g id="Group_2200" transform="translate(87.463 126.8)">
                        <path id="Path_1678" d="M4040.954 630.745l.707 3.4c-.337.011-4.6.454-4.6.454l-.575-3.41z" class="cls-13" transform="translate(-4036.379 -630.745)"/>
                        <path id="Path_1679" d="M4042.467 637.07s10.443 4.005 10.657 4.074c.1.031.6.1 1.135.163a1.742 1.742 0 0 1 1.563 1.522 1.724 1.724 0 0 1 .008.553c-.088.153-19.179 1.893-19.179 1.893s-1.05-6.078-.064-6.417 4.513.134 5.88-1.788z" class="cls-14" transform="translate(-4036.165 -635.004)"/>
                        <g id="Group_2199" transform="translate(11.547 4.354)">
                            <path id="Path_1680" d="M4072.256 644.075l-.74 1.709.649.28.751-1.735z" class="cls-15" transform="translate(-4071.517 -644.075)"/>
                            <path id="Path_1681" d="M4075.885 645.447l-.706 1.633.648.28.719-1.659z" class="cls-15" transform="translate(-4073.983 -644.999)"/>
                            <path id="Path_1682" d="M4079.306 646.744l-.68 1.572.648.281.692-1.6z" class="cls-15" transform="translate(-4076.304 -645.873)"/>
                        </g>
                    </g>
                    <path id="Rectangle_469" d="M0 0H6.851V8.815H0z" class="cls-13" transform="rotate(180 36.869 17.305)"/>
                    <path id="Path_1683" d="M3928.462 295.119l11.035-2.6 15.239-12.035 2.6 2.165-11.575 14.093-15.572 8.83-8.18 25.785-23.645-1.612 8.731-27.087-8.968-7.558-3.877-20.863 3.2-.388 6.053 17.106 14.734 4.582 1.233-.011s3.879 3.164 6.1 2.262a2.482 2.482 0 0 0 1.356-2.629z" class="cls-10" transform="translate(-3853.141 -263.625)"/>
                    <path id="Path_1684" d="M3854.948 446.006l16.79 16.521 8.4 42.533-7.251.806-10.58-35.191-19.21-12.863-14.975 19.111-31.459 8.914-2.308-6.638 26.681-12.1 10.233-23.064" class="cls-14" transform="translate(-3785.878 -378.217)"/>
                    <path id="Path_1685" d="M3979.587 280.285a5.21 5.21 0 0 0-.222-4.545 4.642 4.642 0 0 0-3.934-2.316 2.08 2.08 0 0 0-1.062.241 3.1 3.1 0 0 0-.648.6 9.486 9.486 0 0 1-3.338 2.308 43.016 43.016 0 0 1-4.93 1.314 4.519 4.519 0 0 0-2.505 1.418 4.284 4.284 0 0 0-.381 3.519c.266 1.189.266 2.4.485 3.595.169.927.126.952.293 2.067a7.341 7.341 0 0 0 .988 2.633c.279.511.406 2.372 1 2.427.4.037.286-1.433.526-1.746a2.909 2.909 0 0 0 .454-1.078c.473-1.885.557-3.992 1.849-5.466a4.391 4.391 0 0 1 2.859-1.426c1.177-.114 2.24.658 3.366.516a7.25 7.25 0 0 0 5.2-4.061z" class="cls-14" transform="translate(-3899.012 -263.335)"/>
                    <path id="Path_1686" d="M3978.646 300.385s.357 8.334-2.21 9.634-6.01-.8-7.192-1.689a7.232 7.232 0 0 1-1.893-2.781 5.125 5.125 0 0 1-.857-2.338c.036-1 .092-2.3 1.035-1.66 1.5 1.01.8.256.8.256a1.973 1.973 0 0 1 .576-2.251c1.136-1.227 9.712-3.704 9.741.829z" class="cls-13" transform="translate(-3901.787 -279.728)"/>
                </g>
                <g id="Group_2204" transform="translate(69.624 203.331)">
                    <path id="Path_1687" d="M3474.638 464.771s-11.29 17.191-9.653 21.189 7.881 10.083 7.881 10.083l4.676-1.764s-4.224-7.014-3.886-8.456c.343-1.461 4.47-9.536 4.47-9.536z" class="cls-12" transform="translate(-3457.438 -444.702)"/>
                    <path id="Path_1688" d="M3576.217 464.538s11.007 17.152 9.371 21.127-7.6 9.96-7.6 9.96l-4.676-1.754s3.719-7.821 3.94-8.554c.434-1.433-4.525-9.332-4.525-9.332z" class="cls-12" transform="translate(-3530.098 -444.545)"/>
                    <path id="Path_1689" d="M3523.19 457.248c-.83-1.7-11.588-3.991-11.588-3.991a18.569 18.569 0 0 1-1.978 2.113 24.562 24.562 0 0 0-1.071 3.829 24.441 24.441 0 0 0-1.085-3.824 17.574 17.574 0 0 1-2-1.835s-10.734 2.059-11.557 3.765 1.241 37.335 2.413 38.034 6.407 2.033 8.061 2.932c1.384.752 3.562.244 4.245.057.684.185 2.137-.453 3.519-1.21 1.65-.906 7.478-2.241 8.647-2.944s3.223-35.224 2.394-36.926z" class="cls-12" transform="translate(-3476.898 -436.948)"/>
                    <path id="Path_1690" d="M3454.61 552.48s-5.9-2.49-8.843-1.22-5.132 6.4-2.083 9.5 28.154 12.5 30.338 13.162 7.624.61 7.624.61l1.168-4.625s-19.058-13.412-28.204-17.427z" class="cls-14" transform="translate(-3442.213 -502.698)"/>
                    <path id="Path_1691" d="M3535.091 552.48s5.895-2.49 8.842-1.22 5.133 6.4 2.084 9.5-28.153 12.5-30.338 13.162-7.623.61-7.623.61l-1.169-4.625s19.057-13.412 28.204-17.427z" class="cls-14" transform="translate(-3485.762 -502.698)"/>
                    <g id="Group_2202" transform="translate(8.279 63.574)">
                        <path id="Path_1692" d="M3471.99 598.835a3.976 3.976 0 0 0-1.979-.871c-.911 0-1.5 1.069-1.98 2.613s-.713 6.3-.119 6.771 2.771.158 2.771.158z" class="cls-14" transform="translate(-3467.56 -597.964)"/>
                        <path id="Path_1693" d="M3486.193 607.4s-6.1-.238-7.444.317-3.444 2.138-3.96.99-.031-9.171 1.941-8.236c1.072.509 2.693 1.188 4.157 1.861a16.656 16.656 0 0 0 4.258.906z" class="cls-16" transform="translate(-3472.299 -599.604)"/>
                    </g>
                    <g id="Group_2203" transform="translate(39.444 63.574)">
                        <path id="Path_1694" d="M3591.947 598.835a3.978 3.978 0 0 1 1.98-.871c.911 0 1.5 1.069 1.979 2.613s.713 6.3.119 6.771-2.771.158-2.771.158z" class="cls-14" transform="translate(-3582.483 -597.964)"/>
                        <path id="Path_1695" d="M3562.974 607.4s6.1-.238 7.445.317 3.445 2.138 3.959.99.032-9.171-1.939-8.236c-1.073.509-2.693 1.188-4.158 1.861a16.658 16.658 0 0 1-4.257.906z" class="cls-16" transform="translate(-3562.974 -599.604)"/>
                    </g>
                    <path id="Path_1696" d="M3512.817 534.733h-34.227a1.3 1.3 0 0 1-1.294-1.212l-1.214-18.583a1.3 1.3 0 0 1 1.294-1.381h36.608a1.3 1.3 0 0 1 1.294 1.378l-1.167 18.583a1.3 1.3 0 0 1-1.294 1.215z" class="cls-10" transform="translate(-3465.018 -477.553)"/>
                    <path id="Path_1697" d="M3530.853 430.438a.659.659 0 0 0-.286-.535.472.472 0 0 0-.219-.037 1.751 1.751 0 0 0-.966.536c.007-.4.008-.639.008-.639.141-3.175-6.1-2.991-6.152-2.981-.05-.01-6.293-.194-6.152 2.981 0 0 0 .243.008.639a1.753 1.753 0 0 0-.967-.536.472.472 0 0 0-.219.037.66.66 0 0 0-.286.535 5.726 5.726 0 0 0 .021 2.094 3.428 3.428 0 0 0 1 1.816 1.678 1.678 0 0 0 .636.383 10.272 10.272 0 0 0 .3 2.021c.46 1.352 3.217 4.41 5.656 4.508 2.439-.1 5.2-3.156 5.656-4.508a10.231 10.231 0 0 0 .3-2.021 1.693 1.693 0 0 0 .637-.383 3.435 3.435 0 0 0 1-1.816 5.748 5.748 0 0 0 .025-2.094z" class="cls-13" transform="translate(-3491.586 -419.118)"/>
                    <path id="Path_1698" d="M3528.078 414.263c.092-.564.116-1.279.189-1.846a4.207 4.207 0 0 0-.387-2.915 7.192 7.192 0 0 0-1.511-2.4 6.54 6.54 0 0 0-3.825-1.419c-2.44-.269-4.938-.122-7.318-.723a4.984 4.984 0 0 1-1.782-1.125c-.331-.275-.725-.6-1.136-.479a.976.976 0 0 0-.556.935 11.264 11.264 0 0 0 .622 2.667c.1.513.105 1.044.218 1.555a1.906 1.906 0 0 0 .818 1.287l-1.005-.525a4.054 4.054 0 0 0 .856 1.94c.124.152.236.421.056.5-.044.019-.1.018-.134.049-.06.051-.032.147 0 .219a23.253 23.253 0 0 0 1.221 2.372c.144.245.035.431.319.424a1.374 1.374 0 0 0 .911-.395 3.6 3.6 0 0 1 2.2-1.84 4.991 4.991 0 0 1 1.338.073 7.868 7.868 0 0 0 2.192-.053 5.766 5.766 0 0 1 1.666-.171 3.8 3.8 0 0 1 1.61.733 18.335 18.335 0 0 1 1.716 1.33.676.676 0 0 0 .3.184.8.8 0 0 0 .7-.289c.194-.194.644-.351.722-.088z" transform="translate(-3489.036 -403.327)"/>
                </g>
                <path id="Path_18280-2" d="M5416.709 727.719h17.108a1.2 1.2 0 0 1 1.205 1.2v25.152a1.2 1.2 0 0 1-1.205 1.2h-17.108a1.2 1.2 0 0 0-1.2 1.2v34.851a1.2 1.2 0 0 1-1.2 1.2h-31.776a1.2 1.2 0 0 1-1.205-1.2v-34.839a1.2 1.2 0 0 0-1.2-1.2h-68.289a1.2 1.2 0 0 1-1.2-1.118l-1.429-20.014a1.2 1.2 0 0 1 .183-.73l71.231-112.537a1.2 1.2 0 0 1 1.016-.56h32.66a1.2 1.2 0 0 1 1.2 1.2v104.992a1.2 1.2 0 0 0 1.209 1.203zm-71.292 0h34.7a1.2 1.2 0 0 0 1.2-1.2v-55.092a1.2 1.2 0 0 0-2.246-.6l-34.671 55.047a1.2 1.2 0 0 0 1.017 1.845z" class="cls-9" transform="translate(-5027.672 -523.22)"/>
            </g>
            <g id="Mask_Group_5795" clip-path="url(#clip-path)">
                <g id="Group_4542" transform="rotate(10.02 2902.417 20484.453)">
                    <g id="Group_4539" transform="translate(11.373)">
                        <path id="Path_18212" d="M6214.761 3624.193a.268.268 0 0 1-.039-.018.216.216 0 0 1-.077-.3c15.747-26.925 28.643-45.505 36.314-52.316.17-.151.293-.26.344-.318a.216.216 0 0 1 .325.286 5.035 5.035 0 0 1-.382.356c-7.638 6.781-20.5 25.324-36.229 52.21a.216.216 0 0 1-.256.1z" class="cls-6" transform="translate(-6203.736 -3567.284)"/>
                        <path id="Path_18213" d="M6312.73 3564.781c-.9.756-4.7 1.622-4.914 1.366s1.28-3.856 2.176-4.612a2.123 2.123 0 0 1 2.738 3.246z" class="cls-18" transform="translate(-6261.175 -3561.035)"/>
                        <path id="Path_18214" d="M6294.84 3570.656c.066 1.2-1.568 4.836-1.911 4.855s-2.36-3.421-2.426-4.618a2.172 2.172 0 1 1 4.337-.237z" class="cls-18" transform="translate(-6250.514 -3565.7)"/>
                        <path id="Path_18215" d="M6301.252 3586.965c-1.182-.206-4.359-2.616-4.3-2.954s3.864-1.531 5.046-1.325a2.172 2.172 0 1 1-.746 4.279z" class="cls-18" transform="translate(-6254.49 -3574.367)"/>
                        <path id="Path_18216" d="M6252.057 3612.935c.326 1.987-1.741 8.355-2.308 8.448s-4.562-5.281-4.887-7.267a3.646 3.646 0 0 1 7.195-1.181z" class="cls-18" transform="translate(-6222.351 -3591.145)"/>
                        <path id="Path_18217" d="M6265.5 3638.249c-2.008-.129-7.748-3.577-7.711-4.15s6.171-3.255 8.18-3.125a3.645 3.645 0 1 1-.469 7.276z" class="cls-18" transform="translate(-6230.352 -3604.145)"/>
                        <path id="Path_18218" d="M6232.041 3629.089c.924 2.284.172 10.442-.479 10.706s-6.868-5.075-7.792-7.359a4.461 4.461 0 0 1 8.271-3.346z" class="cls-18" transform="translate(-6209.177 -3601.267)"/>
                        <path id="Path_18219" d="M6252.712 3661.984c-2.429-.411-8.98-5.33-8.864-6.023s7.922-3.184 10.352-2.774a4.461 4.461 0 1 1-1.488 8.8z" class="cls-18" transform="translate(-6221.755 -3617.813)"/>
                        <path id="Path_18220" d="M6217.865 3651.79c.924 2.284.172 10.443-.48 10.706s-6.866-5.075-7.79-7.359a4.461 4.461 0 1 1 8.27-3.347z" class="cls-18" transform="translate(-6200.439 -3615.261)"/>
                        <path id="Path_18221" d="M6238.536 3684.685c-2.43-.41-8.98-5.33-8.863-6.023s7.923-3.185 10.352-2.774a4.461 4.461 0 1 1-1.488 8.8z" class="cls-18" transform="translate(-6213.016 -3631.807)"/>
                        <path id="Path_18222" d="M6193.9 3680.79c1.725 1.76 4.137 9.59 3.633 10.082s-8.281-2.077-10.005-3.837a4.461 4.461 0 0 1 6.372-6.245z" class="cls-18" transform="translate(-6186.25 -3634.032)"/>
                        <path id="Path_18223" d="M6224.278 3707.227c-2.462-.1-9.577-4.165-9.547-4.869s7.462-4.15 9.923-4.046a4.461 4.461 0 0 1-.376 8.915z" class="cls-18" transform="translate(-6203.807 -3645.657)"/>
                        <path id="Path_18224" d="M6282.935 3584.287c.067 1.217-1.593 4.914-1.94 4.933s-2.4-3.475-2.466-4.692a2.206 2.206 0 1 1 4.406-.241z" class="cls-18" transform="translate(-6243.132 -3574.082)"/>
                        <path id="Path_18225" d="M6289 3600.95c-1.2-.208-4.429-2.659-4.369-3s3.926-1.556 5.126-1.346a2.206 2.206 0 1 1-.758 4.347z" class="cls-18" transform="translate(-6246.898 -3582.945)"/>
                        <path id="Path_18226" d="M6267.337 3595.584c.236 1.715-1.683 7.144-2.172 7.211s-3.8-4.641-4.04-6.356a3.135 3.135 0 0 1 6.212-.855z" class="cls-18" transform="translate(-6232.387 -3580.663)"/>
                        <path id="Path_18227" d="M6277.9 3619.344c-1.708-.3-6.293-3.777-6.209-4.263s5.579-2.21 7.285-1.913a3.135 3.135 0 0 1-1.076 6.177z" class="cls-18" transform="translate(-6238.919 -3593.151)"/>
                    </g>
                    <g id="Group_4540" transform="translate(3.176 35.363)">
                        <path id="Path_18228" d="M6165.692 3702.8s-12.253-39.449 58.326-49.017c0 .003-17.894 71.146-58.326 49.017z" class="cls-6" transform="translate(-6164.878 -3653.573)"/>
                        <path id="Path_18229" d="M6224.3 3653.542l-59.1 43.944c-.584-10.966 4.186-36.498 59.1-43.944z" class="cls-8" transform="translate(-6165.052 -3653.423)"/>
                        <path id="Path_18230" d="M6171.558 3695.556a.128.128 0 0 1-.069-.045.122.122 0 0 1 .025-.168l56.6-42.088a.12.12 0 1 1 .144.192l-56.6 42.089a.123.123 0 0 1-.1.02z" class="cls-19" transform="translate(-6168.939 -3653.231)"/>
                        <path id="Path_18231" d="M6242.091 3710.752a.12.12 0 0 1 .039-.237l19.5 1.87a.118.118 0 0 1 .108.131.12.12 0 0 1-.13.108l-19.5-1.87z" class="cls-19" transform="translate(-6212.418 -3688.543)"/>
                        <path id="Path_18232" d="M6210.48 3706.154a.1.1 0 0 1-.022-.009.119.119 0 0 1-.06-.159l8.011-17.486a.12.12 0 1 1 .218.1l-8.012 17.487a.118.118 0 0 1-.135.067z" class="cls-19" transform="translate(-6192.932 -3674.928)"/>
                    </g>
                    <g id="Group_4541" transform="translate(0 71.439)">
                        <path id="Path_18233" d="M6156.6 3764.035s6.029-29.127 53.835-10.555c-.002-.001-36.073 38.589-53.835 10.555z" class="cls-18" transform="translate(-6156.598 -3747.288)"/>
                        <path id="Path_18234" d="M6210.433 3763.43l-53.835 10.555s12.811 29.305 53.835-10.555z" class="cls-8" transform="translate(-6156.598 -3757.239)"/>
                        <path id="Path_18235" d="M6227.371 3775.66a.173.173 0 1 1 .089-.335l12.234 3.253a.174.174 0 0 1-.068.34h-.022" class="cls-18" transform="translate(-6200.145 -3764.567)"/>
                        <path id="Path_18236" d="M6187.069 3793.472a.174.174 0 0 1-.083.335.2.2 0 0 1-.039-.01l-15.677-5.908a.173.173 0 1 1 .122-.324" class="cls-18" transform="translate(-6165.574 -3772.109)"/>
                    </g>
                </g>
            </g>
        </g>
    </g>
</svg>
