<svg xmlns="http://www.w3.org/2000/svg" width="21" height="22.004" viewBox="0 0 21 22.004">
    <g id="prefix__Group_4641" data-name="Group 4641" transform="translate(-1708 -359.502)">
        <path id="prefix__Union_79" fill="#fff" stroke="rgba(0,0,0,0)" stroke-miterlimit="10" d="M10520.95 24710a3.028 3.028 0 0 1-2.951-3.1v-14.814a3.027 3.027 0 0 1 2.951-3.094h.41v4.533a.728.728 0 0 0 .713.744h8.855a.728.728 0 0 0 .707-.744V24689h.409a3.027 3.027 0 0 1 2.952 3.094v14.814a3.029 3.029 0 0 1-2.952 3.1zm.41-2.965a.914.914 0 0 0 .893.936h8.49a.937.937 0 0 0 0-1.871h-8.49a.917.917 0 0 0-.893.937zm0-4.639a.919.919 0 0 0 .893.936h8.49a.937.937 0 0 0 0-1.871h-8.49a.914.914 0 0 0-.893.939zm0-4.645a.919.919 0 0 0 .893.936h8.49a.938.938 0 0 0 0-1.873h-8.49a.919.919 0 0 0-.893.94zm2.412-4.781a1 1 0 0 1-1-1v-1.955a1 1 0 0 1 1-1h5.631a1 1 0 0 1 1 1v1.955a1 1 0 0 1-1 1z" data-name="Union 79" transform="translate(-8808 -24328.996)"/>
        <path id="prefix__Rectangle_1318" fill="none" d="M0 0H21V21H0z" data-name="Rectangle 1318" transform="translate(1708 360)"/>
    </g>
</svg>
