<svg width="27" height="27" viewBox="0 0 27 27" fill="none" xmlns="http://www.w3.org/2000/svg">
<path d="M15.0879 24.8828C15.6738 24.2969 15.6152 23.418 15.0879 22.832L7.99805 16.0938H24.873C25.6348 16.0938 26.2793 15.5078 26.2793 14.6875V12.8125C26.2793 12.0508 25.6348 11.4062 24.873 11.4062H7.99805L15.0879 4.72656C15.6152 4.14062 15.6738 3.26172 15.0879 2.67578L13.7988 1.38672C13.2715 0.859375 12.334 0.859375 11.8066 1.38672L0.439453 12.8125C-0.146484 13.3398 -0.146484 14.2188 0.439453 14.7461L11.8066 26.1719C12.334 26.6992 13.2129 26.6992 13.7988 26.1719L15.0879 24.8828Z" fill="black" fill-opacity="0.4"/>
</svg>
