<svg xmlns="http://www.w3.org/2000/svg" width="15.744" height="19" viewBox="0 0 15.744 19">
    <path id="Icon-Delete" fill="#f13c19" stroke="rgba(0,0,0,0)" stroke-miterlimit="10" d="M2.968 18a1.957 1.957 0 0 1-1.957-1.957V5.222a.62.62 0 0 1 .621-.622h11.452a.622.622 0 0 1 .621.619v10.824A1.957 1.957 0 0 1 11.748 18zM9.806 7.573v6.708a1.018 1.018 0 1 0 2.036 0V7.573a1.018 1.018 0 1 0-2.036 0zm-3.469 0v6.708a1.018 1.018 0 1 0 2.037 0V7.573a1.018 1.018 0 1 0-2.037 0zm-3.468 0v6.708a1.018 1.018 0 1 0 2.037 0V7.573a1.018 1.018 0 1 0-2.037 0zM.239 3.3A.239.239 0 0 1 0 3.059v-.683A1.086 1.086 0 0 1 1.087 1.29h4.275V.429A.428.428 0 0 1 5.79 0h3.162a.428.428 0 0 1 .43.429v.86h4.275a1.086 1.086 0 0 1 1.087 1.087v.683a.239.239 0 0 1-.244.241z" transform="translate(.5 .5)"/>
</svg>
