<svg width="26" height="27" viewBox="0 0 26 27" fill="none" xmlns="http://www.w3.org/2000/svg">
<path d="M0 13.9912C0 6.81151 5.8203 0.991211 13 0.991211C20.1797 0.991211 26 6.81151 26 13.9912C26 21.1709 20.1797 26.9912 13 26.9912C5.8203 26.9912 0 21.1709 0 13.9912Z" fill="#117B5B"/>
<path d="M14.3344 21.8144C14.7358 21.4021 14.6957 20.7835 14.3344 20.3711L9.47826 15.6289H21.0368C21.5585 15.6289 22 15.2165 22 14.6392V13.3196C22 12.7835 21.5585 12.3299 21.0368 12.3299H9.47826L14.3344 7.62887C14.6957 7.21649 14.7358 6.59794 14.3344 6.18557L13.4515 5.27835C13.0903 4.90722 12.4482 4.90722 12.087 5.27835L4.301 13.3196C3.89967 13.6907 3.89967 14.3093 4.301 14.6804L12.087 22.7216C12.4482 23.0928 13.0502 23.0928 13.4515 22.7216L14.3344 21.8144Z" fill="white"/>
</svg>
