<svg xmlns="http://www.w3.org/2000/svg" id="Component_104_2" width="27.837" height="20.923" viewBox="0 0 27.837 20.923">
    <defs>
        <style>
            .cls-1{fill:#5993fd}
        </style>
    </defs>
    <g id="Component_102_1" transform="translate(0 1.9)">
        <path id="Path_21116" d="M3807.576 5832.861c-6.206-6.9-11.932-6.4-12.427-6.454a.684.684 0 0 0-.07 0 15.153 15.153 0 0 0-7.38 2.436 19.394 19.394 0 0 0-6.154 6.14.8.8 0 0 0 .033.841c6.078 8.9 13.706 8.577 13.706 8.577 7.373-.119 12.572-6.7 13.844-8.475a.794.794 0 0 0 .026-.886 16.135 16.135 0 0 0-1.578-2.179zm-12.281 10.389s-6.64.279-11.948-7.446a.794.794 0 0 1-.033-.847 17.1 17.1 0 0 1 5.348-5.311 13.252 13.252 0 0 1 6.45-2.131h.069c.44-.041 5.452-.367 10.862 5.644a13.809 13.809 0 0 1 1.343 1.85.792.792 0 0 1-.026.89c-1.179 1.631-5.694 7.248-12.065 7.351z" class="cls-1" transform="translate(-3781.44 -5826.407)"/>
        <path id="Path_21117" d="M3795.381 5828.859a6.552 6.552 0 1 0 6.552 6.551 6.552 6.552 0 0 0-6.552-6.551zm4.18 7.943a4.4 4.4 0 1 1-2.572-5.493 1.809 1.809 0 0 1 2.5 2.513 4.4 4.4 0 0 1 .288 1.341 1 1 0 0 1-.217 1.639z" class="cls-1" transform="translate(-3781.44 -5826.407)"/>
        <path id="Path_21118" d="M3798.124 5835.909a.994.994 0 0 1 .662-.937 3.515 3.515 0 0 0-.1-.485 1.81 1.81 0 0 1-2.367-2.379 3.433 3.433 0 1 0 2.231 4.619 1 1 0 0 1-.426-.818z" class="cls-1" transform="translate(-3781.44 -5826.407)"/>
    </g>
</svg>
