<svg xmlns="http://www.w3.org/2000/svg" width="19" height="19.001" viewBox="0 0 19 19.001">
    <defs>
        <style>
            .cls-1{fill:none}.cls-2{fill:#fff}
        </style>
    </defs>
    <g id="Group_1038" data-name="Group 1038" transform="translate(-1 -1)">
        <path id="Rectangle_151" d="M0 0H19V19H0z" class="cls-1" data-name="Rectangle 151" transform="translate(1 1)"/>
        <g id="Group_7888" data-name="Group 7888" transform="translate(-5465.16 -3054.111)">
            <g id="hT3OkI">
                <g id="Group_7887" data-name="Group 7887">
                    <path id="Path_20825" d="M5473.6 3064.1a3.7 3.7 0 0 1-1.454-3.2 3.4 3.4 0 0 1 1.061-2.325 3.591 3.591 0 0 1 4.823-.226 3.5 3.5 0 0 1 1.328 2.909 3.578 3.578 0 0 1-1.435 2.814c.336.2.682.383 1.011.595a4.936 4.936 0 0 1 .969.857 5.111 5.111 0 0 1 .7.981 6.159 6.159 0 0 1 .692 2 5.462 5.462 0 0 1 .062.92 1.286 1.286 0 0 1-.44.914 3.3 3.3 0 0 1-1.141.7 8.47 8.47 0 0 1-1.9.492 11.008 11.008 0 0 1-1.518.138c-.367 0-.735.031-1.1.011-.515-.029-1.03-.077-1.54-.146-.411-.056-.818-.143-1.222-.239a5.055 5.055 0 0 1-1.394-.555 2.117 2.117 0 0 1-.8-.756 1.41 1.41 0 0 1-.159-.9c.033-.262.047-.527.089-.787a4.373 4.373 0 0 1 .347-1.154 9.411 9.411 0 0 1 .526-.981 5.26 5.26 0 0 1 .988-1.123 5.332 5.332 0 0 1 1.507-.939z" class="cls-2" data-name="Path 20825"/>
                    <path id="Path_20826" d="M5468.864 3064.161a2.861 2.861 0 0 1-.6-3.945 2.806 2.806 0 0 1 3.437-.914 4.461 4.461 0 0 0 .846 4.61 6.45 6.45 0 0 0-2.491 2.543 6.539 6.539 0 0 0-.783 3.469 4.821 4.821 0 0 1-.5-.066c-.427-.1-.854-.194-1.272-.319a2.418 2.418 0 0 1-1.014-.577 1.012 1.012 0 0 1-.323-.766 4.5 4.5 0 0 1 .45-1.947 4.085 4.085 0 0 1 .993-1.3 4.421 4.421 0 0 1 1.209-.759.393.393 0 0 0 .048-.029z" class="cls-2" data-name="Path 20826"/>
                    <path id="Path_20827" d="M5479.779 3059.227a2.823 2.823 0 0 1 3.785 2.3 2.85 2.85 0 0 1-1.119 2.623c.2.106.4.193.578.307a6.683 6.683 0 0 1 .66.473 4 4 0 0 1 1.087 1.465 4.115 4.115 0 0 1 .333 1.164c.027.2.049.41.057.616a1.067 1.067 0 0 1-.451.893 3.745 3.745 0 0 1-1.5.654c-.317.078-.642.129-.962.192a6.557 6.557 0 0 0-3.284-6.015 4.438 4.438 0 0 0 .816-4.672z" class="cls-2" data-name="Path 20827"/>
                </g>
            </g>
            <path id="Rectangle_2050" d="M0 0H19V19H0z" class="cls-1" data-name="Rectangle 2050" transform="translate(5466.161 3055.112)"/>
        </g>
    </g>
</svg>
