<svg xmlns="http://www.w3.org/2000/svg" width="19.003" height="19.092" viewBox="0 0 19.003 19.092">
    <path id="Icon-Edit" fill="#5993fd" stroke="rgba(0,0,0,0)" stroke-miterlimit="10" d="M7.348 18a1.153 1.153 0 0 1 0-2.306h9.5a1.153 1.153 0 1 1 0 2.306zM.016 16.2l.943-3.5a.644.644 0 0 1 .166-.286L11.907 1.675a.016.016 0 0 1 .023 0l3.207 3.2a.015.015 0 0 1 0 .022L4.354 15.629a.645.645 0 0 1-.289.167l-3.52.939a.425.425 0 0 1-.114.015.432.432 0 0 1-.416-.543zM15.449 4.358l-3.006-2.995a.158.158 0 0 1 0-.222l.824-.82a1.084 1.084 0 0 1 1.528 0l1.7 1.694a1.073 1.073 0 0 1 0 1.522l-.824.821a.159.159 0 0 1-.223 0z" transform="translate(.503 .589)"/>
</svg>
