<svg xmlns="http://www.w3.org/2000/svg" width="21" height="19.727" viewBox="0 0 21 19.727">
    <defs>
        <style>
            .prefix__cls-1{fill:#fff}
        </style>
    </defs>
    <g id="prefix__Group_4665" data-name="Group 4665" transform="translate(-461.758 303.99)">
        <path id="prefix__Path_18415" d="M474.271-287.775c.228.36.406.692.633.987a1.972 1.972 0 0 0 1.133.68 2.417 2.417 0 0 1 .308.087.946.946 0 0 1 .614.994.959.959 0 0 1-.937.76c-.948.007-1.9 0-2.844 0h-5.73a1.288 1.288 0 0 1-.476-.088.856.856 0 0 1-.576-.9.928.928 0 0 1 .684-.812 4.336 4.336 0 0 0 .822-.343 2.106 2.106 0 0 0 .961-1.21c.036-.112.08-.157.2-.156q2.588.006 5.174 0c.034 0 .063.003.034.001z" class="prefix__cls-1" data-name="Path 18415"/>
        <path id="prefix__Path_18416" d="M478.768-288.99a3.386 3.386 0 0 1-3.381-3.384 3.39 3.39 0 0 1 3.376-3.407 3.409 3.409 0 0 1 3.413 3.361 3.385 3.385 0 0 1-3.408 3.43zm2.728-3.393a2.731 2.731 0 0 0-2.71-2.713 2.735 2.735 0 0 0-2.721 2.745 2.737 2.737 0 0 0 2.722 2.7 2.752 2.752 0 0 0 2.713-2.732z" class="prefix__cls-1" data-name="Path 18416"/>
        <path id="prefix__Path_18417" d="M481.634-289.72l.442.712c.181.291.368.579.539.875a1.067 1.067 0 0 1-.608 1.557 1.03 1.03 0 0 1-1.122-.382c-.368-.548-.709-1.115-1.053-1.662a10.34 10.34 0 0 0 .951-.464 10.45 10.45 0 0 0 .851-.636z" class="prefix__cls-1" data-name="Path 18417"/>
        <path id="prefix__Path_18418" d="M480.48-303.99H462.8a1.043 1.043 0 0 0-1.044 1.044v13.493a1.043 1.043 0 0 0 1.044 1.044h12.947a5.036 5.036 0 0 1-.5-.435 4.97 4.97 0 0 1-1.335-2.426H463.7a.31.31 0 0 1-.31-.31.31.31 0 0 1 .31-.31h10.036a3.85 3.85 0 0 1-.049-.483 5.029 5.029 0 0 1 5.052-5.005 5.05 5.05 0 0 1 1.718.317v-.034a4.988 4.988 0 0 1 1.069.533v-6.384a1.043 1.043 0 0 0-1.046-1.044zm-8.569 9.893a.975.975 0 0 1-.978.972.976.976 0 0 1-.972-.978.974.974 0 0 1 .978-.971.972.972 0 0 1 .971.973zm0-2.85a.973.973 0 0 1-.954.955.974.974 0 0 1-.991-.955v-4.541a.975.975 0 0 1 .973-.976.975.975 0 0 1 .971.975z" class="prefix__cls-1" data-name="Path 18418"/>
    </g>
</svg>
