<svg xmlns="http://www.w3.org/2000/svg" width="21.646" height="18.003" viewBox="0 0 21.646 18.003">
    <path id="Path_20834" fill="#c6c6c6" d="M5911.989 3184.475l-10.021-16.4a.8.8 0 0 0-1.368 0l-10.02 16.4a.8.8 0 0 0 .683 1.22h20.042a.8.8 0 0 0 .684-1.22zm-10.938-12.488h.466a.865.865 0 0 1 .865.9l-.233 6a.866.866 0 0 1-1.73 0l-.233-6a.865.865 0 0 1 .865-.9zm1.456 10.309a1.223 1.223 0 1 1-1.221-1.225 1.221 1.221 0 0 1 1.221 1.219z" data-name="Path 20834" transform="translate(-5890.461 -3167.692)"/>
</svg>
