<svg width="193" height="173" viewBox="0 0 193 173" fill="none" xmlns="http://www.w3.org/2000/svg">
<g clip-path="url(#clip0)">
<path d="M176.833 147.216C154.238 134.408 126.747 128.909 123.96 120.697C121.173 112.485 120.571 104.423 123.132 98.3208C125.692 92.2183 128.705 92.9717 130.211 86.1911C130.211 86.1911 133.977 86.9445 136.99 82.4242C140.003 77.9038 140.756 70.3698 140.756 66.6029C140.756 62.8359 135.484 60.5757 135.484 60.5757C135.484 60.5757 140.756 46.2612 137.743 31.9467C134.73 17.6322 124.939 -0.449244 92.553 1.05755V1.28356C66.1168 2.71501 57.6813 18.9883 54.8945 32.1727C51.8819 46.4872 57.1541 60.8017 57.1541 60.8017C57.1541 60.8017 51.8819 63.0619 51.8819 66.8289C51.8819 70.5959 52.635 78.1298 55.6477 82.6502C58.6604 87.1705 62.4262 86.4171 62.4262 86.4171C63.9326 93.1977 66.9453 92.4443 69.506 98.5468C72.0668 104.649 71.4643 112.786 68.6775 120.923C65.8908 129.059 38.4001 134.634 15.8051 147.442C-6.79001 160.25 -4.5305 173.058 -4.5305 173.058L197.319 172.907C197.168 172.831 199.428 160.024 176.833 147.216Z" fill="#797979"/>
</g>
<defs>
<clipPath id="clip0">
<rect width="202" height="172" fill="white" transform="translate(-4.75635 0.982422)"/>
</clipPath>
</defs>
</svg>
