<svg xmlns="http://www.w3.org/2000/svg" xmlns:xlink="http://www.w3.org/1999/xlink" width="85.749" height="65.32" viewBox="0 0 85.749 65.32"><defs><style>.a,.c{fill:none;}.b{opacity:0.9;}.c{stroke:#6b6e70;stroke-width:5px;}.d{clip-path:url(#a);}.e{fill:#6b6e70;}.f{clip-path:url(#b);}.g{stroke:none;}</style><clipPath id="a"><rect class="a" width="85.748" height="42.874"/></clipPath><clipPath id="b"><rect class="a" width="11.675" height="39.348"/></clipPath></defs><g transform="translate(-1131 -268.511)"><g class="b" transform="translate(1131 268.511)"><line class="c" x1="81.351" transform="translate(1.099 62.82)"/><g class="d" transform="translate(0 22.145)"><g transform="translate(2.199 4.397)"><line class="c" y1="28.582" transform="translate(7.695 7.695)"/><ellipse class="e" cx="7.695" cy="7.695" rx="7.695" ry="7.695"/></g><g transform="translate(65.96 4.397)"><line class="c" y1="28.582" transform="translate(7.695 7.695)"/><ellipse class="e" cx="7.695" cy="7.695" rx="7.695" ry="7.695"/></g></g></g><g class="b" transform="translate(1149 268.511)"><g transform="translate(5.939 0)"><g class="c" transform="translate(0)"><rect class="g" width="34.568" height="65.019"/><rect class="a" x="2.5" y="2.5" width="29.568" height="60.019"/></g><g class="f" transform="translate(13.233 14.262)"><circle class="e" cx="4.477" cy="4.477" r="4.477"/><g transform="translate(0 14.325)"><circle class="e" cx="4.477" cy="4.477" r="4.477" transform="translate(0 0)"/></g><g transform="translate(0 28.65)"><circle class="e" cx="4.477" cy="4.477" r="4.477"/></g></g></g></g></g></svg>