<svg xmlns="http://www.w3.org/2000/svg" xmlns:xlink="http://www.w3.org/1999/xlink" width="55" height="58.423" viewBox="0 0 55 58.423"><defs><style>.a,.c{fill:none;}.b{opacity:0.9;}.c{stroke:#fff;stroke-width:5px;}.d{fill:#fff;}.e{clip-path:url(#a);}</style><clipPath id="a"><rect class="a" width="11.675" height="39.348"/></clipPath></defs><g transform="translate(-845.5 -275.5)"><g class="b" transform="translate(848 278)"><path class="c" d="M0,53.423V0H50V53.423Z" transform="translate(0 0)"/></g><path class="d" d="M8957.394,1370.112a120.233,120.233,0,0,1,0,33.478,17.011,17.011,0,0,0,5.548,1.093,19.125,19.125,0,0,0,5.76-1.093,102,102,0,0,1,0-33.478,15.5,15.5,0,0,0-5.76-1.41A13.84,13.84,0,0,0,8957.394,1370.112Z" transform="translate(-8097 -1082)"/><g class="e" transform="translate(880.172 285.773)"><circle class="d" cx="4.477" cy="4.477" r="4.477"/><g transform="translate(0 14.325)"><circle class="d" cx="4.477" cy="4.477" r="4.477" transform="translate(0 0)"/></g><g transform="translate(0 28.65)"><circle class="d" cx="4.477" cy="4.477" r="4.477"/></g></g></g></svg>