<svg xmlns="http://www.w3.org/2000/svg" width="56.002" height="59.738" viewBox="0 0 56.002 59.738"><defs><style>.a{fill:#6b6e70;}</style></defs><path class="a" d="M55.817,11.121a47.414,47.414,0,0,0-2-9.934A1.743,1.743,0,0,0,52.118,0a47.147,47.147,0,0,0-9.964,1.56C34.909,3.494,29.4,6.92,26.209,11.471a23.537,23.537,0,0,0-3.915,12.193,35.871,35.871,0,0,0-8.457-3.316,46.806,46.806,0,0,0-9.967-1.5,1.746,1.746,0,0,0-1.687,1.181,46.779,46.779,0,0,0-2,9.879c-.7,7.459.614,13.808,3.8,18.361s8.7,7.977,15.945,9.908A47.163,47.163,0,0,0,29.9,59.739h.045a1.752,1.752,0,0,0,1.641-1.151c0-.011.01-.022.013-.034a47.389,47.389,0,0,0,2-9.935,36.893,36.893,0,0,0-.138-8.627c6.327-1.265,14.113-4.1,18.559-10.453A22.152,22.152,0,0,0,55.6,20.289,36.347,36.347,0,0,0,55.817,11.121ZM6.854,46.262C1.351,38.4,4.04,26.32,5.119,22.423c7.7.6,17.261,3.295,21.806,9.785C31.608,38.9,30.358,48.7,29.217,53.893l-5.469-7.846,1.6-9.09A1.75,1.75,0,0,0,21.9,36.35l-.993,5.628L13.306,31.066a1.75,1.75,0,1,0-2.871,2l7.578,10.871-5.549-.979a1.75,1.75,0,1,0-.608,3.446l8.982,1.584,5.506,7.9C21.1,55.162,11.532,52.943,6.854,46.262Zm42.294-18.73c-3.939,5.626-11.421,8.026-16.409,9.032a22.954,22.954,0,0,0-.9-2.617l3.274-4.676,9.036-1.593a1.75,1.75,0,1,0-.608-3.447l-5.589.985,7.615-10.875A1.75,1.75,0,0,0,42.7,12.334L35.083,23.209,34.1,17.62a1.75,1.75,0,0,0-3.447.608l1.593,9.036-2.257,3.224c-.065-.1-.128-.192-.194-.287a20.268,20.268,0,0,0-4.07-4.259c0-5.1,1.129-9.287,3.354-12.464,5.5-7.856,17.763-9.544,21.808-9.891C51.969,7.514,54.662,19.656,49.147,27.532Zm0,0" transform="translate(-0.001 -0.001)"/></svg>