<svg xmlns="http://www.w3.org/2000/svg" width="48.474" height="56.631" viewBox="0 0 48.474 56.631"><defs><style>.a{fill:none;stroke:#6b6e70;stroke-width:5px;}.b{fill:#6b6e70;}</style></defs><g transform="translate(2.5 2.5)"><path class="a" d="M-4514.9-12949.9l-13.94,13.939a2.019,2.019,0,0,1-2.853,0l-13.94-13.939h0a21.719,21.719,0,0,1,0-30.732,21.722,21.722,0,0,1,30.734,0A21.719,21.719,0,0,1-4514.9-12949.9Z" transform="translate(4552 12987)"/><path class="b" d="M-9610-1651v-6h-5a2,2,0,0,1-2-2,2,2,0,0,1,2-2h5v-5a2,2,0,0,1,2-2,2,2,0,0,1,2,2v5h5a2,2,0,0,1,2,2,2,2,0,0,1-2,2h-5v6a2,2,0,0,1-2,2A2,2,0,0,1-9610-1651Z" transform="translate(9630 1682)"/></g></svg>