<svg xmlns="http://www.w3.org/2000/svg" width="52.105" height="52.105" viewBox="0 0 52.105 52.105"><defs><style>.a,.d{fill:none;}.a{stroke:#fff;stroke-width:5px;}.b{fill:#fff;}.c{stroke:none;}</style></defs><g transform="translate(0 0)"><g class="a" transform="translate(0 0)"><circle class="c" cx="26.053" cy="26.053" r="26.053"/><circle class="d" cx="26.053" cy="26.053" r="23.553"/></g><path class="b" d="M4.961,25.538C1.74,24.511,0,21.834,0,17.406S4.126-.511,4.417.015C4.57.286,6.737,4.843,8.8,9.794c2.317-2.018,4.333-3.513,4.333-3.513S16.04,14.535,16.04,18.41a7.466,7.466,0,0,1-6.364,7.274,6.639,6.639,0,0,1-1.982.284,9.1,9.1,0,0,1-2.733-.429Z" transform="translate(18.037 12.023)"/></g></svg>