<svg xmlns="http://www.w3.org/2000/svg" width="58.555" height="59.876" viewBox="0 0 58.555 59.876"><defs><style>.a{fill:#6b6e70;}</style></defs><path class="a" d="M51.97,0H7.6A7.091,7.091,0,0,0,.506,7.093V52.785A7.091,7.091,0,0,0,7.6,59.876H51.97a7.091,7.091,0,0,0,7.091-7.091V7.093A7.089,7.089,0,0,0,51.97,0Zm2.722,51.648a3.857,3.857,0,0,1-3.859,3.859H8.653a3.859,3.859,0,0,1-3.859-3.859V8.312A3.859,3.859,0,0,1,8.653,4.445h42.18a3.859,3.859,0,0,1,3.848,3.867V51.648Z" transform="translate(-0.506 0)"/><path class="a" d="M-9429.66-1316.352H-9437v-32.6a61.045,61.045,0,0,1,9.142-.692c.309,0,.623,0,.934.007.415-.033.838-.05,1.256-.05a15.75,15.75,0,0,1,8.828,2.7,9.7,9.7,0,0,1,2.638,3.416,9.707,9.707,0,0,1,.885,4.224,10.566,10.566,0,0,1-3.044,7.842,15.371,15.371,0,0,1-9.762,3.508c-.325,0-.654-.01-.979-.031h-.112a20.155,20.155,0,0,1-2.445-.149v11.827Zm2.9-27.488a16.347,16.347,0,0,0-2.9.263l.135,9.587a13.236,13.236,0,0,0,2.245.187,8.9,8.9,0,0,0,4.19-.915,4.814,4.814,0,0,0,2.479-4.2,4.221,4.221,0,0,0-1.02-3.287C-9422.9-1343.557-9425.121-1343.84-9426.762-1343.84Z" transform="translate(9455.31 1363.519)"/></svg>