<svg xmlns="http://www.w3.org/2000/svg" id="Group_9883" width="69.707" height="62.497" viewBox="0 0 69.707 62.497">
    <defs>
        <style>
            .cls-1{fill:#b9b9ba}
        </style>
    </defs>
    <g id="Group_9882">
        <path id="Rectangle_2309" d="M.805 0h5.747a.805.805 0 0 1 .805.805v24.357H0V.805A.805.805 0 0 1 .805 0z" class="cls-1" transform="translate(9.235 11.008)"/>
        <path id="Rectangle_2310" d="M.805 0h5.747a.805.805 0 0 1 .805.805v15.137H0V.805A.805.805 0 0 1 .805 0z" class="cls-1" transform="translate(19.182 20.228)"/>
        <path id="Rectangle_2311" d="M.805 0h5.747a.805.805 0 0 1 .805.805v8.354H0V.805A.805.805 0 0 1 .805 0z" class="cls-1" transform="translate(29.13 27.011)"/>
        <path id="Path_21559" d="M5192.98 3465.737v-30.206a1.375 1.375 0 0 1 1.442-1.294h63.832v-.145a3.341 3.341 0 0 0-.384-1.518h.043a3.659 3.659 0 0 0-.761-.956 3.855 3.855 0 0 0-.547-.406 3.81 3.81 0 0 0-.381-.232 4.328 4.328 0 0 0-2.086-.583h-61.452a4.32 4.32 0 0 0-2.071.575 3.272 3.272 0 0 0-2.062 3.094q-.013 21.438 0 42.876a3 3 0 0 0 3.146 2.81h22.763v-9.115h-21.5v-4.9z" class="cls-1" transform="translate(-5188.547 -3430.397)"/>
        <g id="Group_9881" transform="translate(32.107 18.967)">
            <path id="Path_21560" d="M5254.9 3463.732a8.942 8.942 0 0 1 .1 13.274l6.431 10.093a20.836 20.836 0 0 0-.5-33.728z" class="cls-1" transform="translate(-5232.228 -3453.371)"/>
            <path id="Path_21561" d="M5247.482 3483.581a8.943 8.943 0 0 1-9.96-2.336l-10.084 6.425a20.83 20.83 0 0 0 26.482 6.015z" class="cls-1" transform="translate(-5227.438 -3458.233)"/>
        </g>
        <path id="Path_21562" d="M5257.4 3437.457a1.606 1.606 0 0 0-1.606 1.606 1.586 1.586 0 0 0 .09.507l-9.6 10.472a1.559 1.559 0 0 0-.343-.039 1.6 1.6 0 0 0-.563.106l-5.739-6a1.6 1.6 0 1 0-3.017.131l-8.282 7.583a1.589 1.589 0 0 0-.571-.109 1.611 1.611 0 1 0 1.47.964l8.252-7.555a1.571 1.571 0 0 0 1.347-.058l5.636 5.892a1.607 1.607 0 1 0 2.827-.193l9.4-10.259a1.6 1.6 0 1 0 .694-3.048z" class="cls-1" transform="translate(-5195.109 -3431.628)"/>
    </g>
    <rect id="Rectangle_2312" width="30.748" height="1.525" class="cls-1" rx=".763" transform="translate(16.24 60.971)"/>
    <path id="Path_21563" d="M5222.1 3495.155h-5.332a.907.907 0 0 0-.876.671l-2.16 8.038h21.643l-.236-.882a23.877 23.877 0 0 1-12.364-7.517.893.893 0 0 0-.675-.31z" class="cls-1" transform="translate(-5192.94 -3441.692)"/>
</svg>
