<svg xmlns="http://www.w3.org/2000/svg" width="31.001" height="30" viewBox="0 0 31.001 30">
    <g>
        <path fill="none" d="M0 0H30V30H0z" transform="translate(.5)"/>
        <path fill="#21326f" stroke="rgba(0,0,0,0)" stroke-miterlimit="10" d="M-3955.844-94.665l-25.956-19.555a1.217 1.217 0 0 1-.24-1.7 1.218 1.218 0 0 1 1.705-.24l25.951 19.555a1.218 1.218 0 0 1 .239 1.705 1.213 1.213 0 0 1-.972.484 1.212 1.212 0 0 1-.727-.249zM-3974.9-97.7a26.946 26.946 0 0 1-8.1-7.392v-.4a30.127 30.127 0 0 1 3.826-4.247l1.251.944a24.647 24.647 0 0 0-3.146 3.311c-.079.1.034.464.161.592 1.349 1.369 2.756 2.756 4 3.978a.87.87 0 0 0 .242.147c.062.03.131.064.214.109a9.975 9.975 0 0 1-.729-7.579l1.3.981-.026.1a8.019 8.019 0 0 0 1.1 6.271 8.115 8.115 0 0 0 5.367 3.563 9.119 9.119 0 0 0 1.563.135 10.741 10.741 0 0 0 4.161-.9l1.382 1.042a13.163 13.163 0 0 1-5.677 1.352 13.645 13.645 0 0 1-6.889-2.007zm6.846-1.813a5.667 5.667 0 0 1-4.033-1.7 5.909 5.909 0 0 1-1.693-4.232c0-.077 0-.153.007-.227l1.614 1.217a4.18 4.18 0 0 0 4.133 3.41h.024c.115 0 .232-.006.346-.016l1.594 1.2a5.756 5.756 0 0 1-1.963.345zm11.246-1.429l-1.057-.8a2.439 2.439 0 0 1 .537-.733c.616-.629 1.214-1.27 1.846-1.95l.008-.009c.276-.3.559-.6.853-.913l-2.966-2.951-1.742-1.734-.058.062-.009.01-.05.055c.086.281.181.577.257.815.2.629.41 1.28.58 1.928a8.338 8.338 0 0 1 .2 1.371l.006.066.012.142c.058.639-.161.959-.689 1.007h-.1c-.457 0-.7-.324-.73-.964a8.1 8.1 0 0 0-5.682-7.5 8.081 8.081 0 0 0-2.409-.37 8.106 8.106 0 0 0-3.955 1.04l-1.627-1.227A13.106 13.106 0 0 1-3968-114.9a13.9 13.9 0 0 1 7.251 2.209 27.726 27.726 0 0 1 7.752 7.194v.4c-.323.366-.65.74-.966 1.1l-.01.012c-.74.847-1.5 1.721-2.279 2.567a2.419 2.419 0 0 1-.552.469zm-5.422-4.085l-1.65-1.243a4.184 4.184 0 0 0-1.461-2.352 4.2 4.2 0 0 0-2.662-.92h-.008c-.066 0-.134 0-.2.006l-1.629-1.229a5.739 5.739 0 0 1 1.856-.308h.03a5.7 5.7 0 0 1 4.048 1.716 5.8 5.8 0 0 1 1.684 4.145v.183z" transform="translate(.5) translate(3983 119.897)"/>
    </g>
</svg>
