<svg xmlns="http://www.w3.org/2000/svg" width="1920" height="1080" viewBox="0 0 1920 1080">
    <defs>
        <clipPath id="prefix__clip-path">
            <path id="prefix__Rectangle_1282" fill="#fff" stroke="#707070" d="M0 0H1920V1080H0z" data-name="Rectangle 1282"/>
        </clipPath>
    </defs>
    <g id="prefix__Mask_Group_106" clip-path="url(#prefix__clip-path)" data-name="Mask Group 106">
        <g id="prefix__Group_4570" data-name="Group 4570" transform="translate(0 26)">
            <path id="prefix__Union_77" fill="#e4e4f5" stroke="rgba(0,0,0,0)" stroke-miterlimit="10" d="M-8750.851 18854.908c-177.91-37.9-240.027-254.822-167-353.2q1.1-1.474 2.2-2.906c51.165-66.477 154.226-51 184.965 27.49 19.137 48.865 55.944 100.3 124.018 78.514 120.49-38.547 202.874-18.174 202.409 74.332-.405 80.582-128.086 182.9-278.6 182.895a326.16 326.16 0 0 1-67.992-7.125zm1773.409-439.781c-17.283-31.312-22-58.572-19.568-81.752 7.359-70.127 78.135-97.291 133.122-52.465 54.494 44.428 120.964 113.686 96.356 172.348-17.519 41.76-47.459 62.486-81.109 62.486-42.935-.002-91.906-33.75-128.801-100.617zm132.851-221.541c-25.442-92.307-82.482-192.641-210.241-166.141-226.13 46.9-371.845-5.8-353.387-173.537s346.972-355.369 662.815-252.621 387.335 508.162 235.992 672.676q-2.268 2.47-4.542 4.852c-39.6 41.578-90.272 60.834-140.293 60.832-83.303-.004-164.803-53.413-190.344-146.061zm-614.518-555.055c6.927-10.777 14.718-16.908 22.437-20.09 23.361-9.621 43.977 8.064 39.207 33.033-4.727 24.742-15.239 57.486-37.922 59.719q-2.617.258-5.074.256c-32.852 0-43.79-33.81-18.648-72.918z" data-name="Union 77" transform="translate(8792.941 -17598)"/>
        </g>
    </g>
</svg>
