<?xml version="1.0" encoding="utf-8"?>
<!-- Svg Vector Icons : http://www.onlinewebfonts.com/icon -->
<!DOCTYPE svg PUBLIC "-//W3C//DTD SVG 1.1//EN" "http://www.w3.org/Graphics/SVG/1.1/DTD/svg11.dtd">
<svg version="1.1" xmlns="http://www.w3.org/2000/svg" xmlns:xlink="http://www.w3.org/1999/xlink" x="0px" y="0px" viewBox="0 0 1000 1000" enable-background="new 0 0 1000 1000" xml:space="preserve">
<metadata> Svg Vector Icons : http://www.onlinewebfonts.com/icon </metadata>
<g><path d="M499.9,249.6h180.7v-123H499.9V10h-123l0,410.3c-132.8,29.1-232.3,147.4-232.3,289c0,68.2,19.5,154.8,103.7,231.1l48.8-139.9c-18.1-26.9-28.7-59.1-28.7-93.9c0-93.4,75.7-169.1,169.1-169.1c32.5,0,62.8,9.2,88.5,25.1l90.6-90.7c-34-25.3-73.7-43.4-116.8-52.2L499.9,249.6z"/><path d="M470.1,990c146.5-10.5,263.1-127.3,273.5-273.4L470.1,990z"/><path d="M688.3,497.2L380.1,805.7l87.3,87l308.3-308.5L688.3,497.2z"/><path d="M809.6,549.2c-6.5,6.4-15.7,7.7-20.5,2.9l-69.2-69.7c-4.8-4.8-3.4-14,3.1-20.4l39.9-39.3c6.5-6.4,15.7-7.7,20.5-2.8l69.2,69.6c4.8,4.9,3.5,14-3.1,20.4L809.6,549.2z"/><path d="M444.9,916.7l-124.2,35.8L358,829.1L444.9,916.7z"/></g>
</svg>