<svg xmlns="http://www.w3.org/2000/svg" width="31" height="30" viewBox="0 0 31 30">
    <g id="prefix__Showpass" transform="translate(.5)">
        <path id="prefix__Rectangle_26" fill="none" d="M0 0H30V30H0z" data-name="Rectangle 26"/>
        <path id="prefix__Union_6" fill="#21326f" stroke="rgba(0,0,0,0)" stroke-miterlimit="10" d="M-2626.68-484.562a27.128 27.128 0 0 1-8.1-7.393v-.4a27.631 27.631 0 0 1 7.752-7.2 13 13 0 0 1 14.5 0 27.9 27.9 0 0 1 7.752 7.195v.4c-1.083 1.229-2.148 2.473-3.254 3.682-.607.664-1.1.759-1.467.4s-.227-.822.393-1.457c.881-.9 1.731-1.833 2.707-2.871l-4.709-4.685-.117.127c.283.914.6 1.819.837 2.743a9.746 9.746 0 0 1 .214 1.578c.046.51-.068.95-.689 1.007-.526.048-.8-.28-.828-.958a8.1 8.1 0 0 0-5.683-7.5 8.137 8.137 0 0 0-10.311 5.872 8.119 8.119 0 0 0 6.468 9.833 11.147 11.147 0 0 0 7.335-1.536c.254-.137.5-.294.744-.438.425-.245.845-.327 1.178.13.277.382.113.841-.394 1.157a13.983 13.983 0 0 1-7.432 2.316 13.585 13.585 0 0 1-6.896-2.002zm-6.169-7.786c-.078.1.031.459.161.591 1.319 1.341 2.659 2.661 4 3.98a2.432 2.432 0 0 0 .453.256 10.024 10.024 0 0 1-.062-9.259 23.608 23.608 0 0 0-4.553 4.432zm13.015 5.972a5.792 5.792 0 0 1-5.726-5.93 5.8 5.8 0 0 1 5.824-5.629 5.809 5.809 0 0 1 5.733 5.862 5.816 5.816 0 0 1-5.8 5.7zm.043-10.029a4.2 4.2 0 0 0-4.234 4.217 4.211 4.211 0 0 0 4.243 4.28 4.22 4.22 0 0 0 4.24-4.221 4.2 4.2 0 0 0-4.239-4.276z" data-name="Union 6" transform="translate(2634.781 506.759)"/>
    </g>
</svg>
