<svg xmlns="http://www.w3.org/2000/svg" width="68.145" height="28.237" viewBox="0 0 68.145 28.237">
    <defs>
        <style>
            .cls-1{fill:#fff}
        </style>
    </defs>
    <g id="Group_3844" transform="translate(837.537 -159.443)">
        <path id="Path_18066" d="M-829.538 171.8l-3.947-6.528a16.423 16.423 0 0 1-1.307-2.674 2.562 2.562 0 0 1 .229-2.508 3.264 3.264 0 0 1 .712-.65 4.033 4.033 0 0 0-2.924 2.858c-1.03 2.918.723 6.084 1.1 6.719l1.026 1.584 2.237 3.473c.1.159.185.327.284.534a6.581 6.581 0 0 1 .9 3.32 6.583 6.583 0 0 1-.281 1.9l-.348 1.157-.085-.591a8.7 8.7 0 0 0-.2-1.195 7.285 7.285 0 0 0-.421-1.247c-.014-.033-.03-.065-.046-.1-.029-.062-.058-.124-.089-.186s-.073-.141-.111-.212l-.047-.084c-.051-.09-.1-.179-.159-.266l-3.632-5.753c-.056-.089-.427-.7-.427-.7a12.556 12.556 0 0 1-1.6-3.975 2.088 2.088 0 0 1 .2-1.4 1.519 1.519 0 0 1 .106-.173 4.607 4.607 0 0 0-1.552 1.745c-.043.079-.084.16-.124.243-1.453 3.047.68 6.644 1.084 7.317.027.042 3.03 4.77 3.8 6.072a16.827 16.827 0 0 1 1.678 3.97 7.259 7.259 0 0 1 .283 1.793 8.657 8.657 0 0 1-.118 1.428l2.455-3.912a9.548 9.548 0 0 0 .546-.871l1.281-2.041c2.54-4-.188-8.548-.508-9.053z" class="cls-1" transform="translate(3)"/>
        <path id="Path_18067" d="M-722.032 227.635a11.67 11.67 0 0 1-1.162-1.863 2.467 2.467 0 0 1-.124-1.724l.032-.074.013-.027a1.383 1.383 0 0 1 1.072-.709 2.581 2.581 0 0 0-3.385 1.651c-.532 1.9.129 3.4 1.347 5.186l.755 1.084a2.9 2.9 0 0 1 .23.44c1.132 2.678-1.235 7.379-1.235 7.379l.048-.075.016-.026.049-.074.084-.131.172-.268.07-.108.054-.083.064-.1.109-.17.139-.216.488-.757.028-.043.642-1 .123-.192.123-.191.67-1.041.508-.79c1.055-1.852 1.035-3.321.022-4.742z" class="cls-1" transform="translate(-100.371 -57.325)"/>
        <path id="Path_18068" d="M-488.929 310.595v-.005a1.554 1.554 0 0 0-.439-.348 3.258 3.258 0 0 0-.468-.2 2.444 2.444 0 0 0-.41-.1l-.241-.034c-.19-.036-.358-.068-.509-.094a1.338 1.338 0 0 1-.373-.115.56.56 0 0 1-.23-.207.724.724 0 0 1-.083-.376.6.6 0 0 1 .269-.52 1.361 1.361 0 0 1 .774-.19 2.765 2.765 0 0 1 .454.051 1.616 1.616 0 0 1 .356.134.617.617 0 0 1 .261.242l.031.051 1.023-.771-.037-.042a2.65 2.65 0 0 0-.875-.643 2.565 2.565 0 0 0-1.08-.235 3.4 3.4 0 0 0-1.033.136 2.5 2.5 0 0 0-.7.34 1.687 1.687 0 0 0-.436.454 2.129 2.129 0 0 0-.224.459 1.768 1.768 0 0 0-.085.366c-.011.119-.013.163-.013.17a1.74 1.74 0 0 0 .122.679 1.775 1.775 0 0 0 .306.494 1.671 1.671 0 0 0 .414.339 3.106 3.106 0 0 0 .436.211 2.472 2.472 0 0 0 .382.118c.15.031.212.041.235.044q.278.053.52.111a1.693 1.693 0 0 1 .415.154.761.761 0 0 1 .277.249.7.7 0 0 1 .1.393.749.749 0 0 1-.274.579 1.126 1.126 0 0 1-.774.247 1.542 1.542 0 0 1-.471-.064 1.618 1.618 0 0 1-.326-.14.965.965 0 0 1-.189-.142l-.108-.111-1.007.76.037.041a2.585 2.585 0 0 0 .87.639 2.571 2.571 0 0 0 1.075.231 3.244 3.244 0 0 0 1.034-.145 2.331 2.331 0 0 0 .7-.368 1.76 1.76 0 0 0 .432-.479 2.522 2.522 0 0 0 .223-.48 1.749 1.749 0 0 0 .089-.389c.013-.151.014-.175.014-.178a2.008 2.008 0 0 0-.131-.764 1.921 1.921 0 0 0-.333-.552z" class="cls-1" transform="translate(-312.734 -133.072)"/>
        <path id="Path_18069" d="M-426.682 306.372v6.9l1.246-.951v-3.387l2.238 1.7 2.248-1.7v3.387l1.247.951v-6.9l-3.489 2.647z" class="cls-1" transform="translate(-372.473 -132.34)"/>
        <path id="Path_18070" d="M-593.265 280.487l-3.612-7.528h-1.594l5.206 10.4 5.2-10.4h-1.594z" class="cls-1" transform="translate(-217.741 -102.245)"/>
        <path id="Path_18071" d="M-185.633 307.187v1.2h2.3v5.552h1.246v-5.552h2.278v-1.2z" class="cls-1" transform="translate(-589.587 -133.075)"/>
        <path id="Path_18072" d="M-342.06 313.277h1.506l.446-.918H-337l.448.918h1.506l-3.513-6.829zm2.476-2l1.028-2.118 1.033 2.118z" class="cls-1" transform="translate(-448.692 -132.409)"/>
        <path id="Path_18073" d="M-251.057 311.181l.1-.036h.005a1.592 1.592 0 0 0 .485-.3 2.07 2.07 0 0 0 .463-.619 2.189 2.189 0 0 0 .207-1.013 2.4 2.4 0 0 0-.084-.665 1.875 1.875 0 0 0-.221-.5 1.536 1.536 0 0 0-.316-.359 2.571 2.571 0 0 0-.357-.246 2.31 2.31 0 0 0-.976-.254h-3.746v6.756h1.246v-2.714h1.715l1.513 2.714h1.389l-1.529-2.727zm-.341-1.263a.724.724 0 0 1-.339.1h-2.509V308.4h2.5a.736.736 0 0 1 .356.1.713.713 0 0 1 .243.237.839.839 0 0 1 .11.465.862.862 0 0 1-.11.475.725.725 0 0 1-.253.241z" class="cls-1" transform="translate(-526.665 -133.073)"/>
    </g>
</svg>
