<svg width="151" height="112" viewBox="0 0 151 112" fill="none" xmlns="http://www.w3.org/2000/svg">
<path d="M150.204 98.3535H0V98.4286H150.204V98.3535Z" fill="#EBEBEB"/>
<path d="M135.153 103.188H125.203V103.263H135.153V103.188Z" fill="#EBEBEB"/>
<path d="M99.5012 104.005H96.8906V104.08H99.5012V104.005Z" fill="#EBEBEB"/>
<path d="M124.905 100.399H119.141V100.475H124.905V100.399Z" fill="#EBEBEB"/>
<path d="M28.7325 100.904H15.7578V100.979H28.7325V100.904Z" fill="#EBEBEB"/>
<path d="M33.3117 100.904H31.4102V100.979H33.3117V100.904Z" fill="#EBEBEB"/>
<path d="M67.6384 102.172H39.4961V102.247H67.6384V102.172Z" fill="#EBEBEB"/>
<path d="M71.1987 84.9556H13.1928C12.7384 84.9548 12.3029 84.7738 11.9818 84.4522C11.6608 84.1305 11.4805 83.6947 11.4805 83.2403V1.70031C11.4844 1.24851 11.6665 0.816505 11.9871 0.498143C12.3077 0.179782 12.741 0.00077397 13.1928 0H71.1987C71.6537 0 72.09 0.180722 72.4117 0.50241C72.7334 0.824098 72.9141 1.2604 72.9141 1.71533V83.2403C72.9141 83.6952 72.7334 84.1315 72.4117 84.4532C72.09 84.7749 71.6537 84.9556 71.1987 84.9556V84.9556ZM13.1928 0.060082C12.7583 0.0608778 12.3419 0.234038 12.0349 0.541555C11.728 0.849072 11.5556 1.26582 11.5556 1.70031V83.2403C11.5556 83.6748 11.728 84.0915 12.0349 84.399C12.3419 84.7066 12.7583 84.8797 13.1928 84.8805H71.1987C71.6335 84.8797 72.0503 84.7067 72.3577 84.3992C72.6651 84.0918 72.8382 83.6751 72.839 83.2403V1.70031C72.8382 1.26554 72.6651 0.848803 72.3577 0.541372C72.0503 0.23394 71.6335 0.0608761 71.1987 0.060082H13.1928Z" fill="#EBEBEB"/>
<path d="M136.177 84.9556H78.1685C77.7138 84.9548 77.2779 84.7738 76.9564 84.4523C76.6349 84.1308 76.4539 83.695 76.4531 83.2403V1.70031C76.4579 1.24823 76.6406 0.816234 76.9617 0.497956C77.2828 0.179677 77.7164 0.000765529 78.1685 0H136.177C136.629 0.00156348 137.061 0.180921 137.381 0.499198C137.701 0.817475 137.883 1.24903 137.887 1.70031V83.2403C137.887 83.6942 137.707 84.1296 137.386 84.4511C137.066 84.7726 136.631 84.954 136.177 84.9556V84.9556ZM78.1685 0.060082C77.7337 0.0608761 77.3169 0.23394 77.0095 0.541372C76.7021 0.848803 76.529 1.26554 76.5282 1.70031V83.2403C76.529 83.6751 76.7021 84.0918 77.0095 84.3992C77.3169 84.7067 77.7337 84.8797 78.1685 84.8805H136.177C136.612 84.8797 137.029 84.7067 137.336 84.3992C137.644 84.0918 137.817 83.6751 137.818 83.2403V1.70031C137.817 1.26554 137.644 0.848803 137.336 0.541372C137.029 0.23394 136.612 0.0608761 136.177 0.060082H78.1685Z" fill="#EBEBEB"/>
<path d="M118.086 6.35645H30.4297V47.3683H118.086V6.35645Z" fill="#E6E6E6"/>
<path d="M119.402 6.35645H31.043V47.3683H119.402V6.35645Z" fill="#F0F0F0"/>
<path d="M118.086 47.3682H30.4297V49.459H118.086V47.3682Z" fill="#E6E6E6"/>
<path d="M121.601 47.3682H33.2422V49.459H121.601V47.3682Z" fill="#F0F0F0"/>
<path d="M117.555 45.5208V8.20703L32.8935 8.20703V45.5208L117.555 45.5208Z" fill="#FAFAFA"/>
<path d="M41.9766 45.5208L47.1226 8.20703H55.1525L50.0065 45.5208H41.9766Z" fill="white"/>
<path d="M33.7494 43.6792C33.7143 43.6792 33.6807 43.6653 33.6559 43.6405C33.6311 43.6157 33.6172 43.5821 33.6172 43.547V9.40855C33.6172 9.37349 33.6311 9.33987 33.6559 9.31508C33.6807 9.29029 33.7143 9.27637 33.7494 9.27637C33.7667 9.27637 33.7839 9.27979 33.7999 9.28643C33.816 9.29307 33.8306 9.30281 33.8428 9.31508C33.8551 9.32736 33.8648 9.34193 33.8715 9.35796C33.8781 9.374 33.8815 9.39119 33.8815 9.40855V43.559C33.8792 43.5922 33.8642 43.6233 33.8396 43.6456C33.815 43.668 33.7826 43.68 33.7494 43.6792V43.6792Z" fill="#F0F0F0"/>
<path d="M51.7305 45.5208L56.8765 8.20703H60.0067L54.8607 45.5208H51.7305Z" fill="white"/>
<path d="M117.555 45.5208V8.20703H117.32V45.5208H117.555Z" fill="#E6E6E6"/>
<path opacity="0.6" d="M119.84 10.9946H32.1869L32.0156 8.9248H119.672L119.84 10.9946Z" fill="#EBEBEB"/>
<path opacity="0.6" d="M119.84 14.3862H32.1869L32.0156 12.3164H119.672L119.84 14.3862Z" fill="#EBEBEB"/>
<path opacity="0.6" d="M119.84 17.7808H32.1869L32.0156 15.7109H119.672L119.84 17.7808Z" fill="#EBEBEB"/>
<path opacity="0.6" d="M119.84 21.1724H32.1869L32.0156 19.1025H119.672L119.84 21.1724Z" fill="#EBEBEB"/>
<path opacity="0.6" d="M119.84 24.5679H32.1869L32.0156 22.498H119.672L119.84 24.5679Z" fill="#EBEBEB"/>
<path opacity="0.6" d="M119.84 27.9595H32.1869L32.0156 25.8896H119.672L119.84 27.9595Z" fill="#EBEBEB"/>
<path d="M131.881 57.6787H118.504V98.3541H131.881V57.6787Z" fill="#E6E6E6"/>
<path d="M128.309 98.3539H131.88V92.7393H124.562L128.309 98.3539Z" fill="#FAFAFA"/>
<path d="M95.4085 57.6787H82.0312V98.3541H95.4085V57.6787Z" fill="#E6E6E6"/>
<path d="M131.88 57.6787H92.2891V96.4224H131.88V57.6787Z" fill="#FAFAFA"/>
<path d="M95.8609 98.3539H92.2891V92.7393H99.607L95.8609 98.3539Z" fill="#FAFAFA"/>
<path d="M129.107 72.1162H95.0586V81.8104H129.107V72.1162Z" fill="#F0F0F0"/>
<path d="M129.107 83.8828H95.0586V93.577H129.107V83.8828Z" fill="#F0F0F0"/>
<path d="M100.41 71.2754H123.77V71.747C123.77 72.1191 123.622 72.4759 123.359 72.739C123.096 73.0021 122.739 73.1499 122.367 73.1499H101.816C101.444 73.1499 101.087 73.0021 100.824 72.739C100.561 72.4759 100.413 72.1191 100.413 71.747V71.2754H100.41Z" fill="#FAFAFA"/>
<path d="M129.107 60.3457H95.0586V70.0399H129.107V60.3457Z" fill="#F0F0F0"/>
<path d="M100.41 59.5078H123.77V59.9795C123.77 60.3515 123.622 60.7084 123.359 60.9715C123.096 61.2346 122.739 61.3824 122.367 61.3824H101.816C101.444 61.3824 101.087 61.2346 100.824 60.9715C100.561 60.7084 100.413 60.3515 100.413 59.9795V59.5078H100.41Z" fill="#FAFAFA"/>
<path d="M100.41 83.042H123.77V83.5136C123.77 83.8857 123.622 84.2425 123.359 84.5056C123.096 84.7687 122.739 84.9165 122.367 84.9165H101.816C101.444 84.9165 101.087 84.7687 100.824 84.5056C100.561 84.2425 100.413 83.8857 100.413 83.5136V83.042H100.41Z" fill="#FAFAFA"/>
<path d="M16.0483 66.3509C16.7933 64.209 22.6573 67.1199 25.0605 70.6648C26.6497 73.026 27.62 75.5464 28.0646 78.932C28.0105 75.0688 27.9505 70.9201 27.8904 67.0028C27.4067 66.0264 26.3042 63.7734 25.5141 61.989C22.8705 56.0348 16.586 53.8178 14.399 50.0597C11.5541 45.133 11.5722 37.7429 13.9935 35.0813C16.0963 32.7622 23.0658 48.4285 23.8529 50.1799C26.5566 56.1881 27.3376 60.6671 27.8423 64.996C27.7852 61.316 27.7312 57.9394 27.6861 55.3319C27.5389 46.8303 27.3526 44.0966 27.2685 43.2555C26.9681 42.8439 26.6347 42.3542 26.4334 42.1079C24.7481 39.9359 21.005 37.3524 19.1365 34.1951C16.4057 29.5869 16.8473 24.0713 18.761 22.0165C20.7797 19.8686 24.3335 24.9335 26.1991 29.9744C28.0646 35.0152 27.2745 39.8158 27.8033 43.9945C27.9144 44.8116 28.0256 47.9238 28.1337 52.2407C28.7045 47.5964 29.84 44.4841 31.9429 41.5852C34.5324 38.0193 36.7675 33.6784 38.9004 34.2402C41.0333 34.8019 39.8857 40.5488 38.1974 44.5803C36.6954 48.1701 29.2813 51.754 28.1878 54.641C28.317 60.4929 28.4311 67.904 28.5152 74.8044C29.098 71.2385 28.6955 70.9411 31.0927 65.4917C32.5167 62.2473 38.3536 58.2489 39.0506 60.4779C39.7475 62.7069 38.6871 66.9187 36.4851 69.8687C34.7067 72.2509 30.7773 72.2479 29.849 73.7229C29.6358 74.0684 28.9478 75.3902 28.5302 76.1472C28.6234 84.5737 28.6684 92.0088 28.6204 94.5443L28.2358 94.5713C28.2569 93.9164 28.2088 89.6296 28.1337 83.9579C27.1754 80.9538 20.7286 79.1814 18.7369 76.0421C16.6521 72.7496 15.153 68.9164 16.0483 66.3509Z" fill="#E6E6E6"/>
<path d="M22.1112 98.3542H34.4881C34.816 98.354 35.1338 98.2405 35.3877 98.0331C35.6417 97.8257 35.8163 97.5369 35.882 97.2157L36.7592 92.8838H19.8281L20.7294 97.2157C20.7946 97.5349 20.9675 97.8221 21.219 98.0293C21.4704 98.2365 21.7854 98.3512 22.1112 98.3542V98.3542Z" fill="#F0F0F0"/>
<path d="M19.4845 94.5628H37.1125C37.3169 94.5626 37.5141 94.4872 37.6665 94.3509C37.8189 94.2146 37.9157 94.027 37.9386 93.8238L38.2991 90.6215C38.3117 90.5054 38.2998 90.3879 38.2641 90.2767C38.2283 90.1655 38.1696 90.0631 38.0917 89.9761C38.0137 89.8892 37.9184 89.8195 37.8118 89.7718C37.7052 89.7241 37.5897 89.6994 37.473 89.6992H19.124C19.0072 89.6994 18.8918 89.7241 18.7852 89.7718C18.6786 89.8195 18.5832 89.8892 18.5053 89.9761C18.4274 90.0631 18.3686 90.1655 18.3329 90.2767C18.2971 90.3879 18.2852 90.5054 18.2979 90.6215L18.6584 93.8238C18.6812 94.027 18.7781 94.2146 18.9305 94.3509C19.0828 94.4872 19.28 94.5626 19.4845 94.5628Z" fill="#F0F0F0"/>
<path d="M53.425 78.8936H42.8477V98.354H53.425V78.8936Z" fill="#E0E0E0"/>
<path d="M80.3834 98.3542H44.9682L41.2461 71.9482H76.6613L80.3834 98.3542Z" fill="#E6E6E6"/>
<path d="M85.5516 98.3542H46.3753L42.6562 71.9482H81.8296L85.5516 98.3542Z" fill="#F0F0F0"/>
<path d="M50.2075 94.2259L47.0742 76.0752H77.9953L81.1286 94.2259H50.2075Z" fill="white"/>
<path d="M63.4927 94.2259L52.9844 76.0752H56.2799L66.7912 94.2259H63.4927Z" fill="#FAFAFA"/>
<path d="M68.191 94.2259L57.6797 76.0752H63.3033L73.8116 94.2259H68.191Z" fill="#FAFAFA"/>
<path d="M75.1017 111.92C107.27 111.92 133.348 110.398 133.348 108.52C133.348 106.642 107.27 105.119 75.1017 105.119C42.9332 105.119 16.8555 106.642 16.8555 108.52C16.8555 110.398 42.9332 111.92 75.1017 111.92Z" fill="#F5F5F5"/>
<path d="M23.2142 50.0265C23.1819 50.0266 23.1508 50.0147 23.1269 49.993C23.103 49.9713 23.088 49.9414 23.085 49.9093L22.4181 41.8884C22.4164 41.8559 22.4274 41.824 22.4487 41.7994C22.4699 41.7747 22.4999 41.7593 22.5323 41.7562C22.5661 41.7537 22.5995 41.7646 22.6254 41.7865C22.6512 41.8084 22.6674 41.8396 22.6705 41.8734L23.3374 49.8943C23.3399 49.9281 23.329 49.9615 23.3071 49.9874C23.2852 50.0132 23.254 50.0294 23.2202 50.0325L23.2142 50.0265Z" fill="#E33C3C"/>
<path d="M23.6123 54.7916C23.58 54.7918 23.5489 54.7798 23.525 54.7582C23.5011 54.7365 23.4861 54.7066 23.4831 54.6745L23.2819 52.2472C23.2802 52.2304 23.282 52.2134 23.287 52.1973C23.292 52.1811 23.3003 52.1662 23.3112 52.1533C23.3221 52.1404 23.3355 52.1298 23.3506 52.1222C23.3657 52.1146 23.3822 52.1101 23.399 52.109C23.4158 52.1074 23.4328 52.1091 23.4489 52.1141C23.4651 52.1192 23.48 52.1274 23.4929 52.1383C23.5058 52.1493 23.5164 52.1627 23.524 52.1777C23.5316 52.1928 23.5361 52.2093 23.5372 52.2262L23.7385 54.6535C23.741 54.6873 23.7301 54.7207 23.7082 54.7465C23.6863 54.7724 23.6551 54.7886 23.6213 54.7916H23.6123Z" fill="#E33C3C"/>
<path d="M91.1938 77.6165H29.1654C28.3839 77.6012 27.6352 77.2998 27.061 76.7694C26.4869 76.2389 26.1272 75.5164 26.0502 74.7386L22.5564 32.7444C22.5191 32.3776 22.5598 32.0071 22.6758 31.6571C22.7919 31.3072 22.9807 30.9857 23.2298 30.7139C23.4789 30.4421 23.7827 30.2261 24.1212 30.08C24.4597 29.934 24.8253 29.8612 25.194 29.8665H87.2194C88.0012 29.8817 88.7503 30.183 89.325 30.7134C89.8996 31.2437 90.2599 31.9663 90.3376 32.7444L93.8314 74.7325C93.8692 75.0997 93.8288 75.4707 93.713 75.8212C93.5971 76.1717 93.4085 76.4937 93.1594 76.766C92.9103 77.0384 92.6063 77.255 92.2676 77.4016C91.9288 77.5481 91.5629 77.6214 91.1938 77.6165V77.6165Z" fill="white"/>
<path d="M91.195 77.7366H29.1666C28.3546 77.7234 27.5759 77.4117 26.9792 76.8609C26.3824 76.3101 26.0093 75.5589 25.9312 74.7505L22.4374 32.7594C22.4021 32.3763 22.4472 31.99 22.5698 31.6253C22.6924 31.2606 22.8898 30.9255 23.1494 30.6415C23.4076 30.3556 23.7234 30.1275 24.076 29.9722C24.4285 29.8169 24.8099 29.7379 25.1952 29.7403H87.2206C88.0359 29.7532 88.8177 30.0672 89.4155 30.6217C90.0133 31.1763 90.385 31.9323 90.459 32.7444L93.9498 74.7325C93.9883 75.1154 93.9455 75.5022 93.8241 75.8674C93.7027 76.2326 93.5055 76.5681 93.2454 76.8517C92.9853 77.1354 92.6682 77.3609 92.3148 77.5134C91.9614 77.6659 91.5798 77.7419 91.195 77.7366V77.7366ZM25.1952 29.9926C24.8426 29.9869 24.4927 30.056 24.1688 30.1955C23.8449 30.3349 23.5542 30.5415 23.316 30.8016C23.0778 31.0616 22.8975 31.3693 22.7869 31.7042C22.6764 32.0391 22.6382 32.3936 22.6747 32.7444L26.1685 74.7295C26.2428 75.4788 26.5899 76.1747 27.1438 76.6849C27.6977 77.195 28.4197 77.4838 29.1726 77.4963H91.195C91.5468 77.5015 91.8957 77.4322 92.2189 77.2929C92.542 77.1536 92.8319 76.9475 93.0697 76.6882C93.3075 76.4289 93.4877 76.1221 93.5985 75.7882C93.7092 75.4542 93.7481 75.1006 93.7124 74.7505L90.2187 32.7594C90.145 32.0098 89.7981 31.3136 89.2441 30.8033C88.6901 30.2931 87.9677 30.0045 87.2146 29.9926H25.1952Z" fill="#E33C3C"/>
<path d="M87.2188 29.8723H25.1934C24.8253 29.8671 24.4602 29.9398 24.1222 30.0855C23.7841 30.2312 23.4806 30.4466 23.2316 30.7178C22.9826 30.9889 22.7937 31.3096 22.6772 31.6588C22.5607 32.008 22.5194 32.3779 22.5558 32.7442H90.337C90.2579 31.9672 89.897 31.2461 89.3225 30.717C88.748 30.1879 87.9997 29.8874 87.2188 29.8723V29.8723Z" fill="#E33C3C"/>
<path d="M26.6459 31.3113C26.6545 31.3905 26.6461 31.4706 26.6213 31.5462C26.5965 31.6219 26.5559 31.6915 26.5022 31.7503C26.4486 31.8091 26.383 31.8558 26.3099 31.8873C26.2368 31.9189 26.1578 31.9345 26.0782 31.9332C25.9094 31.9296 25.7478 31.8644 25.6238 31.7498C25.4998 31.6353 25.4221 31.4793 25.4052 31.3113C25.3972 31.2323 25.4059 31.1524 25.4309 31.0769C25.4558 31.0015 25.4964 30.9321 25.55 30.8734C25.6036 30.8147 25.669 30.768 25.7419 30.7363C25.8148 30.7046 25.8935 30.6887 25.973 30.6895C26.1422 30.6917 26.3045 30.7565 26.4288 30.8713C26.553 30.9861 26.6304 31.1429 26.6459 31.3113Z" fill="white"/>
<path d="M29.1691 31.3113C29.1776 31.3905 29.1692 31.4706 29.1444 31.5462C29.1197 31.6219 29.0791 31.6915 29.0254 31.7503C28.9717 31.8091 28.9061 31.8558 28.833 31.8873C28.7599 31.9189 28.6809 31.9345 28.6013 31.9332C28.4346 31.9267 28.2759 31.8602 28.1544 31.746C28.033 31.6317 27.9569 31.4773 27.9404 31.3113C27.9324 31.2323 27.9411 31.1524 27.9661 31.0769C27.991 31.0015 28.0316 30.9321 28.0852 30.8734C28.1388 30.8147 28.2042 30.768 28.277 30.7363C28.3499 30.7046 28.4287 30.6887 28.5082 30.6895C28.6752 30.6946 28.8346 30.7607 28.9564 30.8753C29.0781 30.9898 29.1538 31.1449 29.1691 31.3113V31.3113Z" fill="white"/>
<path d="M31.6928 31.3113C31.7013 31.3905 31.6929 31.4706 31.6682 31.5462C31.6434 31.6219 31.6028 31.6915 31.5491 31.7503C31.4954 31.8091 31.4299 31.8558 31.3567 31.8873C31.2836 31.9189 31.2046 31.9345 31.125 31.9332C30.9563 31.9296 30.7946 31.8644 30.6707 31.7498C30.5467 31.6353 30.469 31.4793 30.4521 31.3113C30.4441 31.2323 30.4528 31.1524 30.4778 31.0769C30.5027 31.0015 30.5433 30.9321 30.5969 30.8734C30.6505 30.8147 30.7159 30.768 30.7888 30.7363C30.8617 30.7046 30.9404 30.6887 31.0199 30.6895C31.189 30.6917 31.3514 30.7565 31.4756 30.8713C31.5999 30.9861 31.6772 31.1429 31.6928 31.3113V31.3113Z" fill="white"/>
<path d="M85.8101 72.1129H33.6471C33.0258 72.1013 32.4303 71.8621 31.9736 71.4408C31.5168 71.0194 31.2304 70.4452 31.1688 69.8268L28.7174 40.555C28.6881 40.263 28.721 39.9682 28.8138 39.6899C28.9066 39.4115 29.0572 39.156 29.2559 38.94C29.4545 38.7241 29.6966 38.5526 29.9662 38.437C30.2359 38.3213 30.5269 38.264 30.8203 38.2688H82.9923C83.6136 38.2805 84.2091 38.5196 84.6659 38.941C85.1226 39.3623 85.409 39.9366 85.4707 40.555L87.907 69.8418C87.934 70.132 87.8996 70.4247 87.8061 70.7008C87.7127 70.9769 87.5622 71.2303 87.3644 71.4444C87.1667 71.6586 86.9261 71.8288 86.6584 71.944C86.3906 72.0591 86.1016 72.1167 85.8101 72.1129Z" fill="#F0F0F0"/>
<path opacity="0.1" d="M69.6714 43.3819L53.5094 62.8424C53.0014 63.4535 52.6595 64.1852 52.5167 64.9669C52.3739 65.7486 52.4349 66.5539 52.694 67.3051C52.9531 68.0564 53.4014 68.7281 53.9957 69.2556C54.59 69.7831 55.3102 70.1485 56.0869 70.3166L82.3126 75.9853C83.1329 76.1632 83.9861 76.1145 84.7807 75.8444C85.5754 75.5742 86.2815 75.0928 86.8234 74.4519C87.3652 73.8109 87.7224 73.0345 87.8565 72.206C87.9907 71.3774 87.8967 70.528 87.5848 69.7488L77.5301 44.6166C77.2331 43.8709 76.747 43.2153 76.1197 42.7145C75.4924 42.2136 74.7455 41.8847 73.9525 41.7601C73.1596 41.6355 72.3478 41.7196 71.5971 42.0039C70.8465 42.2883 70.1828 42.7632 69.6714 43.3819V43.3819Z" fill="#263238"/>
<path opacity="0.1" d="M33.6964 46.1094L28.0667 61.2831C27.8981 61.7464 27.8495 62.2448 27.9255 62.7319C28.0015 63.219 28.1996 63.6789 28.5013 64.0688C28.803 64.4586 29.1985 64.7658 29.651 64.9616C30.1034 65.1573 30.5981 65.2354 31.0888 65.1884L47.5302 63.5752C48.0534 63.5241 48.5531 63.3327 48.9765 63.0212C49.4 62.7097 49.7315 62.2897 49.9361 61.8055C50.1407 61.3212 50.2108 60.7907 50.1389 60.27C50.0671 59.7492 49.856 59.2575 49.5279 58.8468L38.7132 45.2983C38.3901 44.8951 37.9658 44.5848 37.4835 44.3991C37.0013 44.2134 36.4785 44.1591 35.9683 44.2415C35.4582 44.324 34.9791 44.5404 34.58 44.8685C34.1808 45.1967 33.8759 45.6249 33.6964 46.1094V46.1094Z" fill="#263238"/>
<path d="M75.2499 38.4827L60.1393 60.4125C59.6674 61.0975 59.3791 61.8921 59.3021 62.7204C59.2251 63.5486 59.362 64.3828 59.6996 65.143C60.0372 65.9033 60.5643 66.5641 61.2304 67.0624C61.8965 67.5607 62.6793 67.8796 63.5039 67.9888L91.2797 71.6869C92.1532 71.8032 93.042 71.6799 93.8509 71.3301C94.6597 70.9802 95.3583 70.4171 95.8717 69.7009C96.3852 68.9847 96.6943 68.1423 96.766 67.264C96.8376 66.3856 96.6691 65.5043 96.2785 64.7144L83.6133 39.0775C83.2373 38.318 82.6694 37.67 81.9657 37.1977C81.2621 36.7255 80.4472 36.4454 79.6019 36.3853C78.7566 36.3252 77.9103 36.4871 77.1469 36.855C76.3835 37.2229 75.7295 37.784 75.2499 38.4827V38.4827Z" fill="#E33C3C"/>
<path d="M64.1586 66.0298C63.657 65.9616 63.18 65.7704 62.7701 65.4732C62.3602 65.1761 62.0302 64.7821 61.8094 64.3265C61.5818 63.8959 61.4748 63.4117 61.4996 62.9252C61.5245 62.4387 61.6803 61.968 61.9506 61.5628L77.1002 39.5668C77.3741 39.1745 77.753 38.8672 78.1934 38.6802C78.6339 38.4931 79.1181 38.434 79.5906 38.5094C80.0924 38.5771 80.5697 38.7681 80.9796 39.0653C81.3896 39.3626 81.7195 39.7568 81.9398 40.2127L94.6291 65.9127C94.8567 66.3433 94.9637 66.8275 94.9389 67.314C94.914 67.8005 94.7582 68.2712 94.4879 68.6764C94.2146 69.0696 93.836 69.3777 93.3954 69.5653C92.9549 69.7529 92.4703 69.8124 91.9975 69.7369L64.1586 66.0298Z" fill="white"/>
<path d="M78.3041 46.284L80.0735 46.5183C80.6267 46.5963 81.1318 46.8752 81.4925 47.3019C81.8532 47.7285 82.0443 48.273 82.0292 48.8314L81.909 51.1386C81.9061 51.2222 81.8971 51.3056 81.882 51.3879L80.6233 58.3424C80.5332 58.8217 80.2595 59.2469 79.8605 59.5274C79.4616 59.808 78.9689 59.9217 78.4874 59.8444C77.9763 59.7718 77.5048 59.5283 77.1497 59.1535C76.7946 58.7788 76.5768 58.2949 76.5317 57.7806L76.024 50.5948C76.018 50.5118 76.018 50.4285 76.024 50.3455L76.1412 48.0354C76.1538 47.7729 76.2218 47.5161 76.3406 47.2818C76.4594 47.0474 76.6264 46.8408 76.8306 46.6755C77.0348 46.5101 77.2716 46.3898 77.5255 46.3223C77.7795 46.2548 78.0448 46.2418 78.3041 46.284V46.284ZM78.1629 61.7731L78.6436 61.8361C79.1387 61.906 79.5908 62.1556 79.9137 62.5373C80.2367 62.919 80.408 63.4061 80.395 63.906C80.3844 64.1417 80.3241 64.3724 80.2181 64.5832C80.112 64.794 79.9626 64.9799 79.7797 65.1288C79.5967 65.2778 79.3843 65.3863 79.1564 65.4474C78.9285 65.5084 78.6903 65.5206 78.4573 65.4831L77.9767 65.417C77.4818 65.3478 77.0298 65.0989 76.7068 64.7177C76.3837 64.3365 76.2124 63.8497 76.2253 63.3502V63.3502C76.2354 63.1143 76.2953 62.8833 76.4012 62.6723C76.5071 62.4613 76.6566 62.2752 76.8396 62.1261C77.0227 61.9771 77.2353 61.8686 77.4634 61.8077C77.6915 61.7469 77.9299 61.7351 78.1629 61.7731V61.7731Z" fill="#E33C3C"/>
<path d="M39.5055 41.8349L35.3569 57.5673C35.2317 58.0453 35.23 58.5473 35.3518 59.0263C35.4736 59.5052 35.7149 59.9453 36.0532 60.3056C36.3915 60.6658 36.8157 60.9342 37.286 61.0858C37.7564 61.2374 38.2575 61.2671 38.7425 61.1722L54.8354 58.0329C55.346 57.9311 55.82 57.6946 56.2085 57.3479C56.5969 57.0012 56.8856 56.557 57.0446 56.0612C57.2037 55.5655 57.2272 55.0362 57.1129 54.5282C56.9986 54.0203 56.7506 53.5521 56.3945 53.1723L44.4622 40.5702C44.1044 40.1899 43.6512 39.9124 43.1497 39.7666C42.6483 39.6208 42.117 39.612 41.611 39.7411C41.105 39.8702 40.6429 40.1325 40.2726 40.5007C39.9023 40.8689 39.6374 41.3296 39.5055 41.8349V41.8349Z" fill="#E33C3C"/>
<path d="M38.7085 59.9043C38.413 59.9577 38.1088 59.9357 37.8242 59.8401C37.5395 59.7445 37.2836 59.5785 37.0803 59.3575C36.8705 59.1446 36.719 58.8815 36.6401 58.5932C36.5611 58.305 36.5576 58.0013 36.6297 57.7113L40.7874 41.9368C40.8594 41.6612 41.0084 41.4117 41.217 41.2176C41.4255 41.0234 41.6849 40.8926 41.965 40.8403C42.2607 40.7875 42.565 40.8102 42.8496 40.9063C43.1342 41.0024 43.39 41.1688 43.5932 41.3901L55.5675 54.0072C55.7775 54.22 55.9295 54.483 56.0089 54.7712C56.0883 55.0594 56.0925 55.3632 56.0211 55.6535C55.9485 55.9285 55.7993 56.1774 55.5908 56.3709C55.3823 56.5645 55.1232 56.6949 54.8435 56.747L38.7085 59.9043Z" fill="white"/>
<path d="M42.7458 45.6405L43.7702 45.4392C44.1009 45.3858 44.4398 45.4566 44.7215 45.638C45.0032 45.8193 45.2079 46.0984 45.2963 46.4216L45.6628 47.7944C45.6767 47.8448 45.6877 47.896 45.6958 47.9476L46.3477 52.2705C46.3985 52.5616 46.3323 52.8609 46.1635 53.1034C45.9948 53.3459 45.7371 53.5119 45.4465 53.5653V53.5653C45.1418 53.6159 44.8289 53.5606 44.56 53.4087C44.2911 53.2567 44.0824 53.0173 43.9685 52.7301L42.3042 48.6206C42.284 48.5726 42.267 48.5235 42.2531 48.4734L41.8746 47.0975C41.8254 46.9445 41.8094 46.7828 41.8276 46.6232C41.8459 46.4636 41.8979 46.3097 41.9804 46.1718C42.0629 46.0339 42.1738 45.9152 42.3058 45.8235C42.4378 45.7319 42.5878 45.6695 42.7458 45.6405V45.6405ZM45.6448 54.7369L45.9241 54.6828C46.2204 54.6315 46.5251 54.6931 46.7782 54.8555C47.0312 55.0179 47.2142 55.2693 47.291 55.56C47.3333 55.6954 47.3467 55.8382 47.3301 55.979C47.3136 56.1199 47.2675 56.2557 47.1949 56.3776C47.1224 56.4995 47.0249 56.6047 46.909 56.6864C46.793 56.7681 46.6611 56.8244 46.5219 56.8518L46.2426 56.9058C45.9467 56.9573 45.6423 56.8961 45.3893 56.7343C45.1363 56.5725 44.9531 56.3218 44.8757 56.0316V56.0316C44.8334 55.8961 44.82 55.7531 44.8365 55.612C44.8531 55.471 44.8991 55.335 44.9716 55.2128C45.0442 55.0907 45.1416 54.9852 45.2576 54.9032C45.3735 54.8212 45.5054 54.7646 45.6448 54.7369V54.7369Z" fill="#E33C3C"/>
<path d="M116.667 45.3613L114.336 46.1184L116.21 48.3354C116.743 47.8743 117.203 47.3367 117.577 46.7402C117.674 46.5713 117.701 46.3712 117.651 46.1829C117.602 45.9947 117.48 45.8334 117.313 45.7338L116.667 45.3613Z" fill="#7F3E3B"/>
<path d="M113.266 47.9513L114.663 49.6486L116.216 48.3479L114.338 46.1309L113.266 47.9513Z" fill="#7F3E3B"/>
<path d="M117.423 27.2412C117.991 28.8033 118.514 30.3655 119.01 31.9486C119.505 33.5318 119.962 35.1209 120.361 36.7852L120.503 37.4251L120.569 37.7585L120.602 37.9268V37.9688V38.0319L120.62 38.1581C120.685 38.7296 120.657 39.3081 120.536 39.8704C120.344 40.7727 120.054 41.6511 119.671 42.49C118.97 44.0575 118.109 45.5475 117.099 46.936L115.54 46.0738C116.093 44.5718 116.639 43.0367 117.042 41.5497C117.241 40.8529 117.379 40.1403 117.457 39.4198C117.482 39.171 117.469 38.9199 117.42 38.6748L117.291 38.2061L117.123 37.6504C116.651 36.1483 116.114 34.6012 115.582 33.0631C115.05 31.525 114.519 29.9719 114.008 28.4308L117.423 27.2412Z" fill="#7F3E3B"/>
<path d="M104.447 17.946C104.486 18.1352 104.42 18.3095 104.3 18.3425C104.18 18.3756 104.047 18.2434 103.999 18.0421C103.951 17.8408 104.023 17.6786 104.147 17.6486C104.27 17.6185 104.408 17.7597 104.447 17.946Z" fill="#263238"/>
<path d="M104.437 18.3066C104.336 18.9358 104.152 19.5489 103.891 20.1301C104.038 20.1897 104.197 20.2158 104.356 20.2064C104.515 20.1971 104.67 20.1526 104.81 20.076L104.437 18.3066Z" fill="#630F0F"/>
<path d="M103.942 16.8226C103.924 16.8226 103.906 16.8183 103.89 16.8099C103.874 16.8016 103.86 16.7894 103.849 16.7746C103.84 16.7626 103.834 16.749 103.831 16.7346C103.828 16.7202 103.827 16.7053 103.83 16.6908C103.832 16.6763 103.838 16.6624 103.846 16.6499C103.854 16.6375 103.864 16.6268 103.876 16.6184C104.027 16.5249 104.199 16.469 104.376 16.4554C104.553 16.4418 104.731 16.4709 104.894 16.5403C104.908 16.5458 104.921 16.5541 104.931 16.5646C104.942 16.575 104.95 16.5875 104.955 16.6012C104.961 16.6149 104.964 16.6296 104.964 16.6444C104.963 16.6592 104.96 16.6739 104.954 16.6875C104.943 16.7152 104.921 16.7373 104.894 16.7491C104.866 16.7609 104.835 16.7614 104.807 16.7505C104.679 16.694 104.54 16.6692 104.4 16.6781C104.26 16.6869 104.125 16.7293 104.005 16.8016C103.987 16.8157 103.965 16.8231 103.942 16.8226V16.8226Z" fill="#263238"/>
<path d="M110.884 18.541C111.094 20.722 110.785 22.8339 111.272 24.7294C111.272 24.7294 110.731 26.4898 107.507 26.4898C103.963 26.4898 105.882 24.7294 105.882 24.7294C107.835 24.2698 107.838 22.8339 107.555 21.485L110.884 18.541Z" fill="#7F3E3B"/>
<path d="M111.96 25.3336C112.236 24.7778 112.42 23.9877 111.849 23.7895C111.221 23.5702 107.865 23.4891 106.649 23.9096C106.324 23.9954 106.046 24.2045 105.874 24.4925C105.702 24.7804 105.649 25.1243 105.726 25.4507L111.96 25.3336Z" fill="#263238"/>
<path d="M119.204 104.449C119.425 104.392 119.639 104.309 119.841 104.203C119.852 104.198 119.861 104.19 119.867 104.179C119.874 104.169 119.877 104.158 119.877 104.146C119.877 104.133 119.873 104.121 119.865 104.112C119.857 104.102 119.847 104.095 119.835 104.092C119.73 104.056 118.799 103.746 118.552 103.956C118.525 103.98 118.505 104.01 118.494 104.044C118.483 104.078 118.481 104.114 118.489 104.149C118.494 104.212 118.514 104.272 118.549 104.325C118.584 104.377 118.631 104.42 118.687 104.449C118.855 104.507 119.037 104.507 119.204 104.449V104.449ZM119.649 104.149C119.24 104.335 118.91 104.398 118.747 104.314C118.71 104.295 118.678 104.267 118.655 104.233C118.631 104.198 118.618 104.157 118.615 104.116C118.611 104.102 118.61 104.087 118.614 104.073C118.618 104.059 118.625 104.047 118.636 104.038C118.759 103.941 119.264 104.047 119.649 104.161V104.149Z" fill="#E33C3C"/>
<path d="M119.83 104.209C119.838 104.207 119.846 104.203 119.853 104.198C119.859 104.193 119.865 104.186 119.869 104.179C119.873 104.172 119.876 104.164 119.877 104.155C119.878 104.147 119.877 104.139 119.875 104.13C119.875 104.1 119.632 103.385 119.274 103.229C119.233 103.207 119.187 103.194 119.14 103.191C119.093 103.188 119.045 103.195 119.001 103.211C118.956 103.222 118.916 103.248 118.888 103.284C118.86 103.321 118.846 103.366 118.848 103.413C118.848 103.713 119.497 104.139 119.791 104.221L119.83 104.209ZM119.079 103.307C119.13 103.296 119.183 103.302 119.229 103.325C119.459 103.512 119.627 103.763 119.713 104.046C119.413 103.911 118.986 103.569 118.98 103.394C118.98 103.379 118.98 103.343 119.052 103.313L119.079 103.307Z" fill="#E33C3C"/>
<path d="M102.794 106.284C103.022 106.278 103.249 106.247 103.47 106.191C103.482 106.188 103.493 106.181 103.501 106.172C103.509 106.163 103.515 106.152 103.518 106.14C103.519 106.128 103.517 106.115 103.512 106.104C103.506 106.093 103.498 106.084 103.488 106.077C103.395 106.02 102.56 105.506 102.271 105.653C102.239 105.67 102.212 105.695 102.194 105.725C102.175 105.756 102.166 105.792 102.166 105.828C102.16 105.888 102.168 105.949 102.19 106.005C102.212 106.062 102.247 106.112 102.292 106.152C102.441 106.25 102.617 106.296 102.794 106.284V106.284ZM103.293 106.104C102.854 106.191 102.515 106.176 102.374 106.056C102.342 106.029 102.318 105.994 102.303 105.956C102.288 105.917 102.284 105.875 102.289 105.834C102.289 105.786 102.31 105.771 102.328 105.761C102.476 105.686 102.953 105.906 103.293 106.104V106.104Z" fill="#E33C3C"/>
<path d="M103.455 106.191C103.467 106.194 103.48 106.194 103.491 106.191C103.5 106.185 103.507 106.176 103.512 106.166C103.517 106.156 103.519 106.145 103.518 106.134C103.518 106.104 103.452 105.356 103.152 105.11C103.117 105.079 103.075 105.055 103.03 105.042C102.985 105.028 102.937 105.025 102.891 105.032V105.032C102.845 105.031 102.8 105.047 102.764 105.076C102.729 105.105 102.704 105.146 102.695 105.191C102.641 105.491 103.158 106.047 103.428 106.194L103.455 106.191ZM102.933 105.143C102.984 105.142 103.035 105.16 103.074 105.194C103.254 105.429 103.358 105.713 103.374 106.008C103.107 105.804 102.773 105.377 102.809 105.206C102.809 105.206 102.809 105.152 102.9 105.143H102.927H102.933Z" fill="#E33C3C"/>
<path d="M106.249 106.098H103.876L103.852 100.606H106.225L106.249 106.098Z" fill="#7F3E3B"/>
<path d="M122.768 104.067L120.485 104.485L118.848 99.0807L121.131 98.6631L122.768 104.067Z" fill="#7F3E3B"/>
<path d="M120.051 103.878L122.643 103.277C122.688 103.266 122.736 103.271 122.777 103.291C122.819 103.312 122.852 103.346 122.872 103.388L123.731 105.35C123.751 105.399 123.761 105.452 123.759 105.505C123.757 105.558 123.743 105.61 123.719 105.658C123.694 105.705 123.66 105.746 123.618 105.779C123.576 105.811 123.527 105.834 123.475 105.846C122.574 106.044 122.117 106.092 120.976 106.362C120.276 106.528 118.846 106.945 117.876 107.174C116.905 107.402 116.593 106.465 116.974 106.272C118.675 105.458 119.24 104.77 119.705 104.109C119.789 103.994 119.912 103.912 120.051 103.878V103.878Z" fill="#263238"/>
<path d="M103.9 105.822H106.489C106.536 105.822 106.58 105.838 106.616 105.868C106.652 105.898 106.676 105.939 106.684 105.984L107.072 108.087C107.081 108.139 107.079 108.193 107.065 108.244C107.051 108.295 107.027 108.342 106.992 108.382C106.958 108.422 106.916 108.454 106.868 108.476C106.819 108.498 106.767 108.509 106.714 108.508C105.78 108.493 104.434 108.439 103.26 108.439C101.887 108.439 101.397 108.514 99.787 108.514C98.8137 108.514 98.5854 107.529 98.9939 107.441C100.862 107.033 101.68 106.991 103.323 106.003C103.495 105.891 103.694 105.828 103.9 105.822V105.822Z" fill="#263238"/>
<path d="M116.561 25.3428C118.775 26.902 119.442 30.9154 119.442 30.9154L114.425 33.4569C113.631 31.8706 113.017 30.2011 112.592 28.4791C112.055 26.1059 114.987 24.2373 116.561 25.3428Z" fill="#E33C3C"/>
<path opacity="0.2" d="M114.05 27.9023L116.027 32.6368L114.423 33.4569C113.926 32.4518 113.492 31.4163 113.125 30.3567L114.05 27.9023Z" fill="black"/>
<path d="M101.806 35.7489C101.824 38.3955 101.983 41.688 102.377 45.7735H115.057C115.21 43.911 114.432 35.13 116.322 26.3371C116.355 26.1822 116.356 26.0222 116.326 25.8668C116.295 25.7114 116.233 25.5639 116.143 25.4334C116.053 25.3028 115.938 25.192 115.804 25.1077C115.67 25.0234 115.52 24.9674 115.363 24.9432C114.368 24.7839 113.366 24.6766 112.359 24.6217C110.563 24.518 108.763 24.518 106.967 24.6217C106.242 24.6845 105.521 24.7848 104.807 24.9221C104.276 25.0301 103.786 25.2859 103.394 25.66C103.001 26.0342 102.723 26.5115 102.59 27.037C102.195 28.6572 101.963 30.3126 101.896 31.9787C101.839 33.0602 101.797 34.3129 101.806 35.7489Z" fill="#E33C3C"/>
<path opacity="0.2" d="M105.808 30.7797C104.97 31.3805 103.365 31.6809 101.902 31.8041C101.926 31.4165 101.956 31.05 101.989 30.7046C102.383 30.4973 102.762 30.308 103.119 30.1338L105.808 30.7797Z" fill="black"/>
<g opacity="0.2">
<path opacity="0.2" d="M103.852 100.606L103.867 103.659H106.237L106.225 100.606H103.852Z" fill="black"/>
<path opacity="0.2" d="M121.131 98.6631L118.848 99.0837L119.695 101.868L121.978 101.448L121.131 98.6631Z" fill="black"/>
</g>
<path d="M110.553 15.988C110.898 18.3222 111.219 19.668 110.318 21.14C110.032 21.6187 109.62 22.01 109.128 22.2716C108.635 22.5332 108.081 22.6551 107.524 22.6242C106.967 22.5933 106.429 22.4106 105.969 22.0961C105.508 21.7815 105.142 21.347 104.911 20.8396C103.983 18.899 103.571 15.4052 105.605 13.9302C106.036 13.6003 106.547 13.3898 107.085 13.3198C107.624 13.2498 108.171 13.3227 108.673 13.5312C109.174 13.7397 109.612 14.0765 109.942 14.5078C110.272 14.939 110.482 15.4495 110.553 15.988Z" fill="#7F3E3B"/>
<path d="M105.697 17.6941C104.816 17.3066 104.901 15.9217 105.168 15.3389C104.15 15.6873 102.678 15.8886 102.413 14.8522C102.149 13.8158 103.047 13.4854 102.497 12.5991C101.948 11.7129 103.699 10.7486 104.516 11.9983C105.333 13.248 107.352 12.6893 108.656 11.4966C109.605 10.6285 110.993 11.749 110.443 12.8815C110.443 12.8815 113.297 12.6983 112.729 14.6359C112.161 16.5736 111.359 16.6396 111.543 18.0185C111.669 18.9498 111.777 20.8424 110.659 21.1097C109.308 21.4191 105.937 20.2205 105.697 17.6941Z" fill="#263238"/>
<path opacity="0.2" d="M105.678 20.2201C105.42 20.4063 105.152 20.6046 104.879 20.8209L104.894 20.8539C105.161 21.4169 105.588 21.8883 106.123 22.2088C106.294 22.0435 106.39 21.4878 106.708 21.4968C107.661 21.5238 109.502 21.1243 109.809 20.0488L105.678 20.2201Z" fill="black"/>
<path d="M106.42 17.6612C106.486 18.1802 106.407 18.7073 106.192 19.1843C105.921 19.734 105.495 19.3826 105.33 18.7066C105.179 18.1058 105.14 17.0814 105.531 16.781C105.921 16.4806 106.345 16.9763 106.42 17.6612Z" fill="#7F3E3B"/>
<path d="M106.879 45.7822C106.879 45.7822 108.871 63.9029 110.084 70.6921C111.415 78.1273 118.306 101.463 118.306 101.463L122.554 100.562C122.554 100.562 117.811 78.7281 117.162 71.3681C116.468 63.3772 115.059 45.7822 115.059 45.7822H106.879Z" fill="#E33C3C"/>
<path opacity="0.3" d="M106.879 45.7822C106.879 45.7822 108.871 63.9029 110.084 70.6921C111.415 78.1273 118.306 101.463 118.306 101.463L122.554 100.562C122.554 100.562 117.811 78.7281 117.162 71.3681C116.501 63.7737 116.501 63.7887 115.059 45.7822H106.879Z" fill="black"/>
<path d="M117.356 100.037C117.338 100.037 118.077 101.587 118.077 101.587L122.868 100.562L122.529 99.1143L117.356 100.037Z" fill="#263238"/>
<path opacity="0.2" d="M108.33 52.2414C111.418 52.8422 110.64 64.453 110.036 70.4221C109.303 66.2164 108.303 58.0843 107.633 52.3255C107.849 52.2182 108.095 52.1885 108.33 52.2414V52.2414Z" fill="black"/>
<path d="M102.378 45.7823C102.378 45.7823 101.369 63.5064 101.348 70.7433C101.324 78.2535 103 102.887 103 102.887H107.02C107.02 102.887 108.101 78.7011 108.564 71.3141C109.068 63.2601 110.718 45.7793 110.718 45.7793L102.378 45.7823Z" fill="#E33C3C"/>
<path opacity="0.3" d="M102.378 45.7823C102.378 45.7823 101.369 63.5064 101.348 70.7433C101.324 78.2535 103 102.887 103 102.887H107.02C107.02 102.887 108.101 78.7011 108.564 71.3141C109.068 63.2601 110.718 45.7793 110.718 45.7793L102.378 45.7823Z" fill="black"/>
<path d="M102.29 101.292C102.272 101.292 102.453 102.959 102.453 102.959H107.337L107.526 101.457L102.29 101.292Z" fill="#263238"/>
<path d="M107.404 29.0616C106.923 29.1067 106.517 29.1337 106.076 29.1457C105.634 29.1578 105.214 29.1668 104.784 29.1638C103.919 29.1638 103.054 29.1097 102.182 29.0136C101.298 28.9224 100.421 28.7718 99.5569 28.5629C98.6418 28.3479 97.7532 28.0326 96.9073 27.6227L96.8081 27.5716C96.6226 27.481 96.4569 27.3546 96.3204 27.1997C96.1839 27.0448 96.0795 26.8644 96.013 26.669C95.9465 26.4735 95.9194 26.2668 95.9332 26.0608C95.9469 25.8549 96.0013 25.6536 96.0932 25.4687C96.1351 25.3835 96.1843 25.3021 96.2404 25.2254C96.599 24.7502 97.0068 24.3142 97.457 23.9246C97.8626 23.5641 98.2681 23.2427 98.6767 22.9363C99.4938 22.3204 100.329 21.7767 101.167 21.248C102.005 20.7193 102.861 20.2296 103.724 19.7459C104.586 19.2623 105.454 18.8267 106.355 18.4091C106.553 18.3299 106.773 18.3236 106.975 18.3912C107.178 18.4588 107.35 18.5961 107.46 18.7785C107.571 18.9609 107.613 19.1766 107.58 19.3873C107.546 19.5981 107.439 19.7901 107.277 19.9292V19.9292C106.523 20.509 105.745 21.0828 104.991 21.6716C104.237 22.2604 103.489 22.8402 102.741 23.435C101.993 24.0298 101.281 24.6366 100.599 25.2374C100.26 25.5378 99.9324 25.8382 99.641 26.1657C99.3789 26.4319 99.1416 26.7215 98.932 27.0309L98.2681 24.6276C98.9225 24.8704 99.5984 25.0505 100.287 25.1653C101.024 25.2905 101.767 25.3767 102.513 25.4237C103.273 25.4717 104.042 25.4988 104.814 25.4988C105.202 25.4988 105.589 25.4988 105.974 25.4988C106.358 25.4988 106.764 25.4687 107.1 25.4507H107.139C107.594 25.4502 108.031 25.6214 108.365 25.9299C108.698 26.2384 108.903 26.6615 108.938 27.1146C108.973 27.5676 108.836 28.0171 108.553 28.3731C108.271 28.7291 107.865 28.9654 107.416 29.0346L107.404 29.0616Z" fill="#7F3E3B"/>
<path d="M109.085 17.9408L107.583 18.2743C107.583 18.2743 105.573 18.0249 105.113 19.539L106.315 20.5544L108.153 20.8548C108.444 20.9 108.742 20.8516 109.004 20.7166L109.472 20.4733C109.579 20.4184 109.67 20.3377 109.737 20.2385C109.804 20.1393 109.845 20.0248 109.857 19.9055L109.968 18.7038C109.979 18.5901 109.962 18.4753 109.92 18.3691C109.878 18.263 109.81 18.1686 109.724 18.0939C109.637 18.0191 109.534 17.9662 109.423 17.9396C109.312 17.913 109.196 17.9134 109.085 17.9408V17.9408Z" fill="#7F3E3B"/>
<path d="M106.153 30.8162C103.627 31.5191 100.746 30.6419 100.746 30.6419L101.807 24.9852C101.807 24.9852 104.315 24.7629 105.883 24.7299C109.918 24.6338 110.708 29.5545 106.153 30.8162Z" fill="#E33C3C"/>
</svg>
