<svg width="62" height="62" viewBox="0 0 62 62" fill="none" xmlns="http://www.w3.org/2000/svg">
<circle cx="31" cy="31" r="30" fill="#14B86E" stroke="white" stroke-width="2"/>
<path d="M26.1269 29.6468C30.6531 29.6468 34.3224 25.9775 34.3224 21.4513C34.3224 16.9249 30.6531 13.2559 26.1269 13.2559C21.6008 13.2559 17.9314 16.9249 17.9314 21.4513C17.9357 25.9757 21.6023 29.6426 26.1269 29.6468ZM26.1269 14.8066C29.7968 14.8066 32.7717 17.7814 32.7717 21.4513C32.7717 25.1213 29.7968 28.0961 26.1269 28.0961C22.457 28.0961 19.4822 25.1213 19.4822 21.4513C19.4864 17.7832 22.4588 14.8108 26.1269 14.8066Z" fill="white"/>
<path d="M26.119 33.0433H26.1423C29.1005 33.0278 31.9484 34.1654 34.0822 36.2144L35.1598 35.098C32.7362 32.7707 29.5024 31.4774 26.1423 31.4926H26.119C22.5681 31.5001 19.2728 32.8803 16.8305 35.3927C14.3493 37.928 12.9924 41.3938 13 45.1543C13.0015 45.36 13.0821 45.5571 13.2251 45.7049C13.3707 45.8506 13.5691 45.9318 13.7754 45.9297L34.4774 45.8909V44.3402L14.5741 44.379C14.737 41.3317 15.9155 38.5483 17.939 36.4782C20.087 34.2684 22.9946 33.0509 26.119 33.0433Z" fill="white"/>
<path d="M43.0838 37.8196L39.3388 40.8668L37.9665 39.2619C37.6881 38.9366 37.1987 38.8982 36.8734 39.1765C36.5478 39.4548 36.5096 39.9446 36.788 40.2699L38.6488 42.4487C38.7967 42.6202 39.0117 42.7192 39.2382 42.7201C39.4157 42.7216 39.5884 42.6614 39.7265 42.5493L44.0609 39.0214C44.2205 38.8912 44.3217 38.7025 44.342 38.4975C44.3623 38.2924 44.3002 38.0877 44.1693 37.9284C44.0403 37.769 43.8531 37.6679 43.6493 37.6476C43.4455 37.6273 43.2419 37.6891 43.0838 37.8196Z" fill="white"/>
<path d="M40.471 31.6556C35.7607 31.6556 31.9421 35.4743 31.9421 40.1846C31.9421 44.8952 35.7607 48.7135 40.471 48.7135C45.1813 48.7135 48.9999 44.8952 48.9999 40.1846C49.0114 37.9191 48.1168 35.7429 46.5146 34.141C44.9126 32.5391 42.7365 31.6441 40.471 31.6556ZM40.471 47.1628C36.6169 47.1628 33.4928 44.0386 33.4928 40.1846C33.4928 36.3308 36.6169 33.2063 40.471 33.2063C44.3251 33.2063 47.4492 36.3308 47.4492 40.1846C47.4492 44.0386 44.3251 47.1628 40.471 47.1628Z" fill="white"/>
</svg>
