<svg width="62" height="62" viewBox="0 0 62 62" fill="none" xmlns="http://www.w3.org/2000/svg">
<circle cx="31" cy="31" r="30" fill="#00695C" stroke="white" stroke-width="2"/>
<path d="M15.6242 30.2497C15.7567 30.3492 15.9233 30.392 16.0874 30.3687C16.2515 30.3454 16.3996 30.2578 16.4992 30.1253C17.3143 29.0386 18.3713 28.1565 19.5863 27.549C20.8014 26.9415 22.1412 26.6252 23.4997 26.6252C24.8582 26.6251 26.198 26.9414 27.4131 27.5488C28.6282 28.1563 29.6852 29.0383 30.5004 30.125C30.504 30.1298 30.5085 30.1333 30.5123 30.138C30.5288 30.1582 30.5465 30.1774 30.5654 30.1955C30.5778 30.2077 30.5901 30.2197 30.6034 30.2306C30.6107 30.2367 30.6163 30.2439 30.6242 30.2497C30.6384 30.2605 30.6538 30.2684 30.6685 30.2778C30.6774 30.2833 30.686 30.2894 30.6951 30.2944C30.725 30.3112 30.7562 30.3255 30.7884 30.3372C30.7913 30.3383 30.7942 30.3398 30.7971 30.3408C30.8336 30.3533 30.8713 30.3624 30.9095 30.368C30.9149 30.3688 30.9204 30.3686 30.9257 30.3692C30.9501 30.3726 30.9746 30.3745 30.9992 30.375C31.0042 30.375 31.0092 30.3734 31.0142 30.3733C31.0477 30.3722 31.0811 30.3683 31.114 30.3619C31.124 30.36 31.1343 30.3598 31.1443 30.3575C31.1881 30.3471 31.2306 30.332 31.2712 30.3125C31.2795 30.3086 31.2868 30.3027 31.2949 30.2983C31.323 30.284 31.35 30.2677 31.3756 30.2494C31.3795 30.2464 31.3823 30.2427 31.3862 30.2395C31.3974 30.2306 31.4073 30.22 31.4181 30.2102C31.4429 30.1881 31.4659 30.164 31.4868 30.1383C31.4907 30.1336 31.4956 30.1302 31.4993 30.1253C32.3145 29.0386 33.3714 28.1566 34.5865 27.5491C35.8015 26.9416 37.1413 26.6253 38.4998 26.6253C39.8582 26.6252 41.1981 26.9415 42.4131 27.5489C43.6282 28.1563 44.6852 29.0383 45.5004 30.125C45.5492 30.1919 45.6108 30.2485 45.6817 30.2914C45.7525 30.3343 45.8312 30.3627 45.9131 30.3749C45.995 30.3871 46.0785 30.383 46.1588 30.3626C46.2391 30.3423 46.3145 30.3062 46.3807 30.2565C46.447 30.2067 46.5026 30.1443 46.5445 30.0729C46.5864 30.0015 46.6137 29.9224 46.6248 29.8403C46.6359 29.7583 46.6305 29.6748 46.6091 29.5948C46.5876 29.5148 46.5505 29.4399 46.4998 29.3744C45.2317 27.6728 43.452 26.4221 41.4215 25.8053C42.4704 25.1678 43.2819 24.2047 43.7324 23.063C44.1829 21.9212 44.2475 20.6635 43.9165 19.4815C43.5855 18.2996 42.877 17.2584 41.899 16.5167C40.9211 15.775 39.7273 15.3735 38.4999 15.3735C37.2725 15.3735 36.0788 15.775 35.1009 16.5167C34.1229 17.2584 33.4144 18.2996 33.0834 19.4815C32.7523 20.6635 32.817 21.9212 33.2675 23.063C33.7179 24.2047 34.5295 25.1678 35.5784 25.8053C33.8052 26.3438 32.2189 27.3694 30.9999 28.7652C29.781 27.3694 28.1947 26.3438 26.4215 25.8053C27.4704 25.1678 28.2819 24.2047 28.7324 23.063C29.1829 21.9212 29.2475 20.6635 28.9165 19.4815C28.5855 18.2996 27.877 17.2584 26.899 16.5167C25.9211 15.775 24.7273 15.3735 23.4999 15.3735C22.2725 15.3735 21.0788 15.775 20.1009 16.5167C19.1229 17.2584 18.4144 18.2996 18.0834 19.4815C17.7523 20.6635 17.817 21.9212 18.2675 23.063C18.7179 24.2047 19.5295 25.1678 20.5784 25.8053C18.5478 26.4222 16.7681 27.673 15.4999 29.3747C15.4004 29.5072 15.3576 29.6739 15.3809 29.8379C15.4043 30.002 15.4918 30.1501 15.6243 30.2497H15.6242ZM34.1249 21.0003C34.1249 20.135 34.3815 19.2892 34.8623 18.5697C35.343 17.8502 36.0263 17.2895 36.8257 16.9583C37.6251 16.6272 38.5048 16.5406 39.3535 16.7094C40.2021 16.8782 40.9817 17.2949 41.5935 17.9067C42.2054 18.5186 42.6221 19.2981 42.7909 20.1468C42.9597 20.9955 42.873 21.8751 42.5419 22.6746C42.2108 23.474 41.65 24.1573 40.9306 24.638C40.2111 25.1187 39.3652 25.3753 38.4999 25.3753C37.34 25.374 36.228 24.9127 35.4078 24.0925C34.5876 23.2723 34.1262 22.1602 34.1249 21.0003ZM19.1249 21.0003C19.1249 20.135 19.3815 19.2892 19.8623 18.5697C20.343 17.8502 21.0263 17.2895 21.8257 16.9583C22.6251 16.6272 23.5048 16.5406 24.3535 16.7094C25.2021 16.8782 25.9817 17.2949 26.5935 17.9067C27.2054 18.5186 27.6221 19.2981 27.7909 20.1468C27.9597 20.9955 27.873 21.8751 27.5419 22.6746C27.2108 23.474 26.65 24.1573 25.9306 24.638C25.2111 25.1187 24.3652 25.3753 23.4999 25.3753C22.34 25.374 21.228 24.9127 20.4078 24.0925C19.5876 23.2723 19.1262 22.1602 19.1249 21.0003ZM41.4215 42.0553C42.4704 41.4178 43.2819 40.4547 43.7324 39.313C44.1829 38.1712 44.2475 36.9135 43.9165 35.7315C43.5855 34.5496 42.877 33.5084 41.899 32.7667C40.9211 32.025 39.7273 31.6235 38.4999 31.6235C37.2725 31.6235 36.0788 32.025 35.1009 32.7667C34.1229 33.5084 33.4144 34.5496 33.0834 35.7315C32.7523 36.9135 32.817 38.1712 33.2675 39.313C33.7179 40.4547 34.5295 41.4178 35.5784 42.0553C33.8052 42.5938 32.2189 43.6194 30.9999 45.0152C29.781 43.6194 28.1947 42.5938 26.4215 42.0553C27.4704 41.4178 28.2819 40.4547 28.7324 39.313C29.1829 38.1712 29.2475 36.9135 28.9165 35.7315C28.5855 34.5496 27.877 33.5084 26.899 32.7667C25.9211 32.025 24.7273 31.6235 23.4999 31.6235C22.2725 31.6235 21.0788 32.025 20.1009 32.7667C19.1229 33.5084 18.4144 34.5496 18.0834 35.7315C17.7523 36.9135 17.817 38.1712 18.2675 39.313C18.7179 40.4547 19.5295 41.4178 20.5784 42.0553C18.5478 42.6722 16.7681 43.923 15.4999 45.6247C15.4493 45.6902 15.4121 45.7651 15.3907 45.8451C15.3692 45.9251 15.3639 46.0086 15.3749 46.0906C15.386 46.1727 15.4133 46.2518 15.4552 46.3232C15.4971 46.3947 15.5528 46.4571 15.619 46.5068C15.6852 46.5565 15.7606 46.5926 15.8409 46.6129C15.9212 46.6333 16.0047 46.6374 16.0866 46.6252C16.1686 46.613 16.2472 46.5846 16.3181 46.5417C16.3889 46.4988 16.4505 46.4422 16.4993 46.3753C17.3145 45.2886 18.3714 44.4065 19.5865 43.799C20.8016 43.1915 22.1414 42.8752 23.4999 42.8752C24.8583 42.8751 26.1982 43.1914 27.4133 43.7988C28.6284 44.4063 29.6854 45.2883 30.5006 46.375C30.5042 46.3798 30.5087 46.3833 30.5124 46.388C30.5289 46.4082 30.5467 46.4274 30.5656 46.4455C30.5779 46.4577 30.5902 46.4697 30.6035 46.4806C30.6109 46.4867 30.6165 46.4939 30.6243 46.4997C30.6387 46.5106 30.654 46.5184 30.6688 46.5278C30.6777 46.5334 30.686 46.5394 30.6951 46.5444C30.7253 46.5614 30.7569 46.5758 30.7895 46.5875C30.792 46.5884 30.7945 46.5898 30.7973 46.5908C30.8339 46.6033 30.8716 46.6124 30.9099 46.618C30.9146 46.6188 30.9193 46.6186 30.9242 46.6191C30.949 46.6225 30.9741 46.6245 30.9992 46.625C31.0045 46.625 31.0096 46.6234 31.0148 46.6233C31.0475 46.6221 31.08 46.6184 31.1121 46.6122C31.1231 46.6102 31.134 46.6098 31.1449 46.6073C31.1885 46.5971 31.2308 46.5821 31.2712 46.5627C31.2799 46.5584 31.2874 46.5522 31.296 46.5477C31.3238 46.5336 31.3504 46.5174 31.3757 46.4994C31.3796 46.4964 31.3824 46.4927 31.3863 46.4895C31.3976 46.4806 31.4074 46.47 31.4182 46.4602C31.443 46.4381 31.466 46.414 31.487 46.3883C31.4909 46.3836 31.4957 46.3802 31.4995 46.3753C32.3146 45.2886 33.3716 44.4066 34.5866 43.7991C35.8017 43.1916 37.1415 42.8753 38.4999 42.8753C39.8584 42.8752 41.1982 43.1915 42.4133 43.7989C43.6284 44.4063 44.6854 45.2883 45.5006 46.375C45.5494 46.4419 45.611 46.4985 45.6818 46.5414C45.7527 46.5843 45.8313 46.6127 45.9132 46.6249C45.9951 46.6371 46.0787 46.633 46.159 46.6126C46.2392 46.5923 46.3147 46.5562 46.3809 46.5065C46.4471 46.4567 46.5028 46.3943 46.5447 46.3229C46.5866 46.2515 46.6139 46.1724 46.6249 46.0903C46.636 46.0083 46.6307 45.9248 46.6092 45.8448C46.5877 45.7648 46.5506 45.6899 46.4999 45.6244C45.2318 43.9228 43.4522 42.6721 41.4217 42.0553H41.4215ZM19.1249 37.2503C19.1249 36.385 19.3815 35.5392 19.8623 34.8197C20.343 34.1002 21.0263 33.5395 21.8257 33.2083C22.6251 32.8772 23.5048 32.7906 24.3535 32.9594C25.2021 33.1282 25.9817 33.5449 26.5935 34.1567C27.2054 34.7686 27.6221 35.5481 27.7909 36.3968C27.9597 37.2455 27.873 38.1251 27.5419 38.9246C27.2108 39.724 26.65 40.4073 25.9306 40.888C25.2111 41.3687 24.3652 41.6253 23.4999 41.6253C22.34 41.624 21.228 41.1627 20.4078 40.3425C19.5876 39.5223 19.1262 38.4102 19.1249 37.2503ZM34.1249 37.2503C34.1249 36.385 34.3815 35.5392 34.8623 34.8197C35.343 34.1002 36.0263 33.5395 36.8257 33.2083C37.6251 32.8772 38.5048 32.7906 39.3535 32.9594C40.2021 33.1282 40.9817 33.5449 41.5935 34.1567C42.2054 34.7686 42.6221 35.5481 42.7909 36.3968C42.9597 37.2455 42.873 38.1251 42.5419 38.9246C42.2108 39.724 41.65 40.4073 40.9306 40.888C40.2111 41.3687 39.3652 41.6253 38.4999 41.6253C37.34 41.624 36.228 41.1627 35.4078 40.3425C34.5876 39.5223 34.1262 38.4102 34.1249 37.2503Z" fill="white"/>
</svg>
