<svg width="62" height="62" viewBox="0 0 62 62" fill="none" xmlns="http://www.w3.org/2000/svg">
<circle cx="31" cy="31" r="30" fill="#FF9800" stroke="white" stroke-width="2"/>
<path d="M44.2695 44.3173H25.0076C24.7326 44.3173 24.5094 44.0942 24.5094 43.8192C24.5094 43.5442 24.7326 43.321 25.0076 43.321H44.2702C45.42 43.321 46.3559 42.3857 46.3559 41.2352V24.1534C46.3559 23.0036 45.4206 22.0677 44.2702 22.0677H17.4524C16.3026 22.0677 15.3667 23.0029 15.3667 24.1534V41.2359C15.3667 42.3857 16.302 43.3216 17.4524 43.3216H20.8766C21.1516 43.3216 21.3748 43.5448 21.3748 43.8198C21.3748 44.0948 21.1516 44.318 20.8766 44.318H17.4524C15.7533 44.318 14.3703 42.9357 14.3703 41.2359V24.1534C14.3703 22.4543 15.7526 21.0713 17.4524 21.0713H44.2702C45.9693 21.0713 47.3523 22.4536 47.3523 24.1534V41.2359C47.3516 42.935 45.9693 44.3173 44.2695 44.3173Z" fill="white"/>
<path d="M27.2606 40.1812H18.3803C18.1053 40.1812 17.8821 39.958 17.8821 39.683C17.8821 39.408 18.1053 39.1848 18.3803 39.1848H27.26C27.535 39.1848 27.7582 39.408 27.7582 39.683C27.7582 39.958 27.5356 40.1812 27.2606 40.1812Z" fill="white"/>
<path d="M22.3565 37.8836H18.3803C18.1053 37.8836 17.8821 37.6604 17.8821 37.3854C17.8821 37.1104 18.1053 36.8872 18.3803 36.8872H22.3565C22.6315 36.8872 22.8547 37.1104 22.8547 37.3854C22.8547 37.6604 22.6315 37.8836 22.3565 37.8836Z" fill="white"/>
<path d="M22.0305 29.9091H18.4415C17.865 29.9091 17.3967 29.4402 17.3967 28.8643V25.2753C17.3967 24.6988 17.8656 24.2305 18.4415 24.2305H22.0305C22.607 24.2305 23.0753 24.6994 23.0753 25.2753V28.8643C23.076 29.4408 22.607 29.9091 22.0305 29.9091ZM18.4415 25.2268C18.415 25.2268 18.393 25.2488 18.393 25.2753V28.8643C18.393 28.8908 18.415 28.9128 18.4415 28.9128H22.0305C22.057 28.9128 22.079 28.8908 22.079 28.8643V25.2753C22.079 25.2488 22.057 25.2268 22.0305 25.2268H18.4415Z" fill="white"/>
<path d="M40.9051 41.2208C39.1986 41.2208 37.8097 39.8325 37.8097 38.1254C37.8097 36.4183 39.1979 35.03 40.9051 35.03C42.6122 35.03 44.0005 36.4183 44.0005 38.1254C44.0005 39.8325 42.6115 41.2208 40.9051 41.2208ZM40.9051 36.0271C39.7479 36.0271 38.806 36.9683 38.806 38.1261C38.806 39.2832 39.7473 40.2251 40.9051 40.2251C42.0628 40.2251 43.0041 39.2839 43.0041 38.1261C43.0041 36.9683 42.0622 36.0271 40.9051 36.0271Z" fill="white"/>
<path fill-rule="evenodd" clip-rule="evenodd" d="M29.5071 25.9191C29.8398 25.9191 30.1095 25.6494 30.1095 25.3167C30.1095 24.984 29.8398 24.7144 29.5071 24.7144C29.1745 24.7144 28.9048 24.984 28.9048 25.3167C28.9048 25.6494 29.1745 25.9191 29.5071 25.9191ZM31.5285 25.9191C31.8611 25.9191 32.1308 25.6494 32.1308 25.3167C32.1308 24.984 31.8611 24.7144 31.5285 24.7144C31.1958 24.7144 30.9261 24.984 30.9261 25.3167C30.9261 25.6494 31.1958 25.9191 31.5285 25.9191ZM34.1519 25.3167C34.1519 25.6494 33.8822 25.9191 33.5495 25.9191C33.2168 25.9191 32.9472 25.6494 32.9472 25.3167C32.9472 24.984 33.2168 24.7144 33.5495 24.7144C33.8822 24.7144 34.1519 24.984 34.1519 25.3167ZM37.4142 25.9191C37.7468 25.9191 38.0165 25.6494 38.0165 25.3167C38.0165 24.984 37.7468 24.7144 37.4142 24.7144C37.0815 24.7144 36.8118 24.984 36.8118 25.3167C36.8118 25.6494 37.0815 25.9191 37.4142 25.9191ZM40.0379 25.3167C40.0379 25.6494 39.7682 25.9191 39.4355 25.9191C39.1028 25.9191 38.8331 25.6494 38.8331 25.3167C38.8331 24.984 39.1028 24.7144 39.4355 24.7144C39.7682 24.7144 40.0379 24.984 40.0379 25.3167ZM41.4568 25.9191C41.7895 25.9191 42.0592 25.6494 42.0592 25.3167C42.0592 24.984 41.7895 24.7144 41.4568 24.7144C41.1241 24.7144 40.8544 24.984 40.8544 25.3167C40.8544 25.6494 41.1241 25.9191 41.4568 25.9191ZM44.0807 25.3167C44.0807 25.6494 43.8111 25.9191 43.4784 25.9191C43.1457 25.9191 42.876 25.6494 42.876 25.3167C42.876 24.984 43.1457 24.7144 43.4784 24.7144C43.8111 24.7144 44.0807 24.984 44.0807 25.3167Z" fill="white"/>
<path d="M19.3974 21.9356C19.2107 21.9356 19.0314 21.83 18.9464 21.65C18.8288 21.4009 18.9351 21.104 19.1842 20.987L36.157 12.9735C36.9296 12.6089 37.7971 12.5677 38.6008 12.8586C39.4039 13.1489 40.0456 13.7354 40.4062 14.51L42.7331 19.5044C42.8494 19.7535 42.7411 20.0505 42.492 20.1667C42.2429 20.2829 41.946 20.1747 41.8297 19.9256L39.5029 14.9311C39.2551 14.399 38.814 13.9958 38.2621 13.7965C37.7101 13.5973 37.1136 13.6252 36.5828 13.8756L19.6093 21.8878C19.5409 21.9203 19.4685 21.9356 19.3974 21.9356Z" fill="white"/>
<path d="M30.1104 22.0459C29.9251 22.0459 29.7478 21.9423 29.6614 21.7649C29.5418 21.5171 29.6448 21.2196 29.8926 21.0993L40.2967 16.063C40.5445 15.9434 40.842 16.0464 40.9623 16.2941C41.0818 16.5419 40.9789 16.8395 40.7311 16.9597L30.327 21.9961C30.2572 22.0299 30.1828 22.0459 30.1104 22.0459Z" fill="white"/>
</svg>
