<svg width="62" height="62" viewBox="0 0 62 62" fill="none" xmlns="http://www.w3.org/2000/svg">
<circle cx="31" cy="31" r="30" fill="#2B78E4" stroke="white" stroke-width="2"/>
<path d="M45.4019 39.0107C45.9445 39.0107 46.4618 39.0107 46.9992 39.0107C46.9992 39.0784 46.9992 39.1374 46.9992 39.1962C46.9992 40.7169 47.0015 42.238 46.9985 43.7588C46.9956 45.316 45.9852 46.584 44.4683 46.9263C44.2517 46.9752 44.0242 46.9956 43.8017 46.9962C42.2533 47.0021 40.7052 46.9995 39.1568 46.9989C39.1138 46.9989 39.0705 46.9943 39.0144 46.991C39.0144 46.4645 39.0144 45.9442 39.0144 45.4029C39.082 45.4029 39.1457 45.4029 39.2094 45.4029C40.7023 45.4029 42.1955 45.4033 43.6884 45.4029C44.7172 45.4026 45.4019 44.7149 45.4019 43.6823C45.4019 42.195 45.4019 40.7078 45.4019 39.2205C45.4019 39.1555 45.4019 39.0908 45.4019 39.0107Z" fill="white"/>
<path d="M46.98 22.9781C46.4486 22.9781 45.9368 22.9781 45.4054 22.9781C45.4054 22.9049 45.4054 22.8408 45.4054 22.7768C45.4054 21.2952 45.4054 19.8135 45.4054 18.3318C45.4054 17.2565 44.7328 16.5865 43.6522 16.5865C42.176 16.5865 40.7002 16.5865 39.224 16.5865C39.159 16.5865 39.0943 16.5865 39.0169 16.5865C39.0169 16.0594 39.0169 15.5437 39.0169 15.0116C39.0832 15.0083 39.1465 15.0027 39.2102 15.0027C40.7195 15.0021 42.2292 14.9962 43.7385 15.0041C45.0532 15.0109 46.0255 15.6051 46.6495 16.7595C46.8845 17.1944 46.9909 17.6671 46.9909 18.1624C46.9912 19.7209 46.9912 21.2794 46.9909 22.8382C46.9909 22.8809 46.9846 22.9236 46.98 22.9781Z" fill="white"/>
<path d="M22.9764 45.4068C22.9764 45.9478 22.9764 46.4598 22.9764 46.9837C22.914 46.987 22.8609 46.9923 22.8077 46.9923C21.2764 46.9926 19.7451 46.9952 18.2137 46.9919C16.67 46.9886 15.4006 45.9681 15.0697 44.4602C15.0234 44.2488 15.005 44.0269 15.0044 43.8099C14.9991 42.2679 15.0014 40.7258 15.0018 39.1837C15.0018 39.1305 15.0077 39.0777 15.0113 39.0156C15.5348 39.0156 16.0466 39.0156 16.5846 39.0156C16.5846 39.0803 16.5846 39.143 16.5846 39.206C16.5846 40.731 16.5767 42.2564 16.5885 43.7814C16.5938 44.4651 16.9188 44.9788 17.5467 45.2575C17.769 45.3563 18.0329 45.3986 18.2784 45.4006C19.7762 45.4134 21.2741 45.4072 22.7719 45.4072C22.8362 45.4068 22.9006 45.4068 22.9764 45.4068Z" fill="white"/>
<path d="M16.5849 22.9788C16.0479 22.9788 15.5361 22.9788 15.0112 22.9788C15.0076 22.9184 15.002 22.8655 15.002 22.813C15.0014 21.2709 14.9974 19.7289 15.0027 18.1868C15.0083 16.6673 16.0419 15.3928 17.528 15.0711C17.7292 15.0274 17.9396 15.0078 18.1457 15.0071C19.7043 15.0015 21.2629 15.0032 22.8214 15.0032C22.8693 15.0032 22.9169 15.0094 22.975 15.0133C22.975 15.5343 22.975 16.0463 22.975 16.5866C22.9143 16.5866 22.8516 16.5866 22.7892 16.5866C21.2589 16.5869 19.7286 16.5777 18.1983 16.5915C17.5217 16.5978 17.0129 16.924 16.7352 17.5454C16.6381 17.7627 16.5931 18.0204 16.5911 18.26C16.5786 19.763 16.5849 21.2664 16.5849 22.7694C16.5849 22.834 16.5849 22.899 16.5849 22.9788Z" fill="white"/>
<path d="M23.4748 24.0061V26.9084" stroke="white" stroke-width="2" stroke-miterlimit="10" stroke-linecap="round"/>
<path d="M38.3596 24.0063V26.9087" stroke="white" stroke-width="2" stroke-miterlimit="10" stroke-linecap="round"/>
<path d="M30.917 23.9939V32.7386H28.6472" stroke="white" stroke-width="2" stroke-miterlimit="10" stroke-linecap="round" stroke-linejoin="round"/>
<path d="M25.8193 38.0222C25.8193 38.0222 31.1777 41.8177 36.1643 38.0222" stroke="white" stroke-width="2" stroke-miterlimit="10" stroke-linecap="round"/>
</svg>
