<svg width="62" height="62" viewBox="0 0 62 62" fill="none" xmlns="http://www.w3.org/2000/svg">
<circle cx="31" cy="31" r="30" fill="#109CF1" stroke="white" stroke-width="2"/>
<path d="M46.9999 31.379C46.9564 32.7535 46.8049 34.1052 46.4642 35.4313C46.3635 35.8242 46.0799 36.0317 45.7105 36.0251C45.3691 36.0192 45.0626 35.7795 44.9948 35.4277C44.9662 35.2803 44.9883 35.1132 45.0219 34.9629C45.952 30.7625 45.3362 26.8333 43.0396 23.2113C42.0174 21.5993 40.713 20.26 39.1686 19.1692C39.1001 19.1208 39.03 19.0747 38.9643 19.0219C38.6172 18.7433 38.5386 18.3086 38.7707 17.9531C38.9993 17.6027 39.4479 17.4869 39.8065 17.7324C40.2601 18.0433 40.7066 18.3702 41.1245 18.7287C44.2654 21.4285 46.177 24.8504 46.7913 29.0149C46.9056 29.7963 46.9321 30.591 46.9999 31.379Z" fill="white"/>
<path d="M30.5714 22.8151C28.289 22.8752 26.0967 23.9514 24.4123 26.0956C24.3302 26.1997 24.2573 26.3118 24.1723 26.4137C23.8851 26.7575 23.4558 26.8183 23.1222 26.5662C22.7808 26.3081 22.7079 25.8383 22.9708 25.4629C23.6287 24.5246 24.4209 23.7227 25.3431 23.0592C29.2255 20.2678 34.6152 20.7487 37.9505 24.1984C38.1262 24.3795 38.2555 24.6683 38.2855 24.9219C38.3212 25.2291 38.1155 25.4783 37.8233 25.5905C37.5233 25.7063 37.2469 25.644 36.999 25.4175C36.609 25.0619 36.2289 24.6888 35.8053 24.3787C34.3616 23.3187 32.7387 22.8144 30.5714 22.8151Z" fill="white"/>
<path d="M18.0886 30.3615C18.3607 27.1962 19.5551 24.4311 21.7289 22.1322C23.584 20.1706 25.8363 18.9346 28.4429 18.3804C29.0508 18.2514 29.4851 18.5329 29.513 19.0636C29.5359 19.5005 29.2801 19.8048 28.7908 19.9045C27.1721 20.2336 25.6791 20.8706 24.3498 21.8734C21.5788 23.9648 19.9966 26.768 19.6344 30.2874C19.618 30.4443 19.6001 30.6056 19.5487 30.7529C19.4301 31.0931 19.0529 31.3027 18.7179 31.236C18.3272 31.1576 18.0721 30.8138 18.0886 30.3615Z" fill="white"/>
<path d="M31.1198 15C32.5378 15.0125 34.0022 15.2199 35.4366 15.6495C35.7973 15.7572 36.0123 15.9962 36.038 16.3752C36.0616 16.7095 35.9066 16.9917 35.6044 17.1039C35.4094 17.1764 35.158 17.1772 34.9551 17.1207C33.0757 16.5981 31.1741 16.4287 29.2382 16.6743C26.1609 17.065 23.4842 18.3457 21.1948 20.4855C21.1333 20.5426 21.0755 20.6049 21.0133 20.6607C20.6526 20.9825 20.1947 20.9722 19.8997 20.6372C19.6182 20.3183 19.6254 19.8301 19.979 19.5295C20.7647 18.8625 21.5348 18.1617 22.3856 17.5928C25.0093 15.8393 27.9153 15.0117 31.1198 15Z" fill="white"/>
<path d="M37.8322 33.9034C37.8672 35.5652 37.6779 37.2322 37.5429 38.8955C37.5072 39.3309 37.2307 39.6197 36.8557 39.6608C36.5078 39.6989 36.1364 39.4643 36.0635 39.1191C36.0221 38.9219 36.0328 38.7056 36.0578 38.5026C36.3228 36.343 36.39 34.1739 36.3221 32.0026C36.2985 31.2416 36.2542 30.4499 36.0321 29.7337C35.4085 27.7259 34.0326 26.5039 32.0239 26.0421C31.9661 26.0289 31.9082 26.0142 31.8503 26.0018C31.3232 25.8903 31.0446 25.5201 31.1381 25.0583C31.2274 24.6185 31.6325 24.3773 32.1304 24.4675C35.407 25.0598 37.7672 27.885 37.8301 31.301C37.8458 32.1668 37.8322 33.0325 37.8322 33.8982C37.8651 33.8997 37.7994 33.9019 37.8322 33.9034Z" fill="white"/>
<path d="M26.7089 46.3966C27.7319 45.2977 28.4055 44.075 28.9019 42.7452C29.5341 41.0511 29.872 39.2859 30.0585 37.4877C30.2649 35.496 30.3178 33.4999 30.2256 31.4987C30.2028 31.0053 30.5042 30.6505 30.94 30.6139C31.35 30.5794 31.73 30.8976 31.7443 31.3645C31.8657 35.279 31.725 39.1657 30.4528 42.9153C30.0213 44.1871 29.4341 45.3783 28.6491 46.4647C28.4812 46.6971 28.3276 46.8071 28.0319 46.714C27.6261 46.5886 27.2047 46.5131 26.7089 46.3966Z" fill="white"/>
<path d="M34.8282 32.5659C34.8282 33.0534 34.8368 33.5409 34.8261 34.0283C34.8146 34.5723 34.4889 34.9234 34.031 34.9095C33.5917 34.8963 33.3038 34.5415 33.2981 34.0063C33.2888 33.1413 33.2874 32.2756 33.2674 31.4113C33.2352 30.0405 32.223 29.0355 30.9136 29.0597C29.6593 29.0831 28.7049 30.13 28.7071 31.481C28.7071 31.5909 28.7142 31.7009 28.7063 31.8101C28.677 32.2258 28.3527 32.5351 27.9527 32.5351C27.5655 32.5351 27.2527 32.2463 27.2048 31.8446C26.9576 29.7905 28.3492 27.9029 30.3772 27.5415C32.3387 27.1919 34.3132 28.5553 34.6889 30.5661C34.8111 31.2193 34.7754 31.8973 34.8289 32.5644C34.8175 32.5637 34.8382 32.5652 34.8282 32.5659Z" fill="white"/>
<path d="M24.0661 36.2585C24.0661 34.7359 24.1576 33.2126 24.1383 31.6901C24.099 28.5995 25.7684 25.9649 28.4879 24.8602C28.9915 24.6557 29.4158 24.803 29.5894 25.2429C29.7623 25.6805 29.5587 26.0844 29.0544 26.3058C26.7849 27.302 25.5905 29.3311 25.6591 31.8645C25.702 33.4457 25.6077 35.0313 25.5584 36.614C25.5419 37.1359 25.1919 37.4614 24.744 37.4321C24.2811 37.402 24.009 37.0267 24.0504 36.4777C24.0561 36.4051 24.0611 36.3318 24.0661 36.2585C24.0911 36.2585 24.0411 36.2585 24.0661 36.2585Z" fill="white"/>
<path d="M15.0085 31.356C15.0421 28.0155 15.9486 24.952 17.7716 22.1774C17.9473 21.9099 18.1502 21.7112 18.4867 21.7141C18.7874 21.7171 19.016 21.8498 19.1531 22.1217C19.296 22.4039 19.2539 22.6744 19.1017 22.953C18.6095 23.8539 18.0581 24.7307 17.6637 25.6756C16.4872 28.4993 16.2429 31.4352 16.8437 34.4436C16.9151 34.7999 16.9037 35.1276 16.6008 35.3724C16.3694 35.5601 16.0793 35.6495 15.8415 35.4714C15.64 35.3211 15.4214 35.0711 15.3829 34.8366C15.1971 33.6864 15.0307 32.578 15.0078 31.3699C15.0371 31.3655 14.9792 31.3604 15.0085 31.356Z" fill="white"/>
<path d="M22.2155 27.9499C22.7012 27.9403 23.1184 28.3948 22.9748 28.8669C22.5591 30.237 22.6348 31.6371 22.6498 33.038C22.6719 35.0664 22.5619 37.0808 22.0769 39.0615C21.8297 40.0717 21.3647 40.9359 20.6347 41.6565C20.3311 41.9556 19.9046 41.9952 19.6031 41.735C19.2888 41.463 19.1745 40.9821 19.461 40.6926C20.8754 39.2631 20.8961 37.3784 21.0497 35.5619C21.1583 34.2791 21.0968 32.9801 21.0933 31.6884C21.0897 30.6336 21.1926 29.5963 21.4876 28.5832C21.609 28.1646 21.8562 27.9572 22.2155 27.9499Z" fill="white"/>
<path d="M43.1843 27.0438C43.1778 27.4814 42.935 27.7959 42.6078 27.8743C42.2556 27.9586 41.9085 27.7966 41.7477 27.4506C41.6256 27.1874 41.5384 26.9067 41.4184 26.642C39.7733 23.0325 37.0467 20.8003 33.2657 19.917C32.7306 19.7924 32.4692 19.4471 32.5556 18.9692C32.6371 18.5161 33.0585 18.2559 33.5778 18.3944C34.3 18.5872 35.0344 18.7646 35.723 19.052C39.2397 20.5181 41.697 23.0765 43.09 26.7036C43.1421 26.8378 43.1678 26.9822 43.1843 27.0438Z" fill="white"/>
<path d="M40.8847 33.5389C40.9004 36.2732 40.6911 38.9884 40.1882 41.6765C40.1789 41.7242 40.1746 41.7733 40.1632 41.8202C40.0475 42.2923 39.6703 42.5474 39.2331 42.4506C38.8274 42.3605 38.611 41.983 38.6767 41.4947C38.8595 40.1452 39.0881 38.7993 39.2096 37.4439C39.4267 35.016 39.4946 32.5801 39.2574 30.147C39.226 29.8223 39.1396 29.502 39.0696 29.1816C38.9538 28.6538 39.171 28.2382 39.6275 28.1282C40.0375 28.0292 40.4497 28.2895 40.534 28.7843C40.679 29.6332 40.8068 30.4886 40.8726 31.3471C40.9283 32.0735 40.8847 32.8073 40.8847 33.5389Z" fill="white"/>
<path d="M41.6107 42.5162C41.7871 41.2766 41.9914 40.0406 42.1343 38.7974C42.4564 35.9934 42.5086 33.1792 42.3436 30.3621C42.3114 29.8152 42.5593 29.4333 43.0193 29.3776C43.4651 29.3241 43.843 29.6452 43.8601 30.2038C43.9073 31.763 43.9737 33.3258 43.9187 34.8836C43.8587 36.5747 43.6758 38.2615 43.5315 39.9483C43.5151 40.1425 43.4387 40.3595 43.3229 40.5113C42.7893 41.2077 42.2314 41.885 41.6821 42.5689C41.6578 42.5506 41.6342 42.533 41.6107 42.5162Z" fill="white"/>
<path d="M30.2226 46.9925C30.6276 46.1942 31.0505 45.4494 31.3948 44.6673C32.3213 42.5612 32.7842 40.3261 33.0528 38.0427C33.0885 37.7406 33.1 37.435 33.1457 37.1337C33.2121 36.6924 33.5664 36.4094 33.9729 36.449C34.385 36.4886 34.6944 36.8397 34.6544 37.2803C34.3622 40.5446 33.6971 43.704 32.1627 46.6216C32.0199 46.8936 31.867 47.016 31.5634 46.9991C31.1184 46.9742 30.6719 46.9925 30.2226 46.9925Z" fill="white"/>
<path d="M25.1721 45.8403C24.7256 45.6233 24.2906 45.4114 23.802 45.1732C23.9906 44.9049 24.1256 44.6417 24.3228 44.4445C25.5521 43.2137 26.1722 41.6553 26.5451 39.989C26.7858 38.9129 26.9022 37.8082 27.073 36.7159C27.0915 36.5957 27.098 36.4733 27.1173 36.3538C27.1887 35.9052 27.5259 35.6149 27.9266 35.653C28.3502 35.6933 28.6688 36.0496 28.6209 36.5114C28.5266 37.4182 28.4202 38.3257 28.2716 39.2245C28.0652 40.475 27.7259 41.6905 27.213 42.8494C26.8022 43.7767 26.2772 44.6249 25.5736 45.3506C25.44 45.4884 25.3293 45.6475 25.1721 45.8403Z" fill="white"/>
<path d="M18.1675 39.8282C17.9146 39.3678 17.6746 38.9368 17.4438 38.5014C17.416 38.4493 17.4117 38.3533 17.4403 38.3049C17.9074 37.4993 17.9067 36.5844 17.9989 35.6982C18.0682 35.0348 18.0582 34.3618 18.0874 33.694C18.1074 33.2454 18.4096 32.9551 18.8496 32.9536C19.2961 32.9522 19.6126 33.2351 19.6097 33.6874C19.6004 35.2349 19.4947 36.7706 19.149 38.2866C19.0032 38.9244 18.5582 39.318 18.1675 39.8282Z" fill="white"/>
<path d="M22.4719 44.3484C22.089 44.0551 21.7026 43.759 21.2611 43.4203C21.574 43.0098 21.8783 42.6279 22.1626 42.2306C22.4619 41.8127 22.7662 41.3942 23.0227 40.9492C23.2841 40.4954 23.6684 40.2982 24.0735 40.4859C24.4878 40.678 24.6571 41.1684 24.3935 41.6317C24.0799 42.1837 23.7077 42.7012 23.342 43.2202C23.0791 43.5933 22.7862 43.943 22.4719 44.3484Z" fill="white"/>
<path d="M33.902 46.7383C34.3278 45.5273 34.7292 44.3852 35.1321 43.2431C35.2821 42.8179 35.6657 42.6024 36.0608 42.7175C36.4779 42.8392 36.7258 43.249 36.5887 43.6866C36.3379 44.4849 36.0536 45.2722 35.7743 46.061C35.7457 46.1416 35.6715 46.242 35.5986 46.2633C35.0328 46.4326 34.4628 46.5844 33.902 46.7383Z" fill="white"/>
<path d="M39.3747 44.4405C38.8168 44.7719 38.2797 45.0908 37.7425 45.4096C37.7168 45.3891 37.6903 45.3693 37.6646 45.3488C37.786 45.0021 37.8689 44.6333 38.0382 44.313C38.3218 43.7771 38.9854 43.8226 39.3747 44.4405Z" fill="white"/>
</svg>
