<svg width="62" height="62" viewBox="0 0 62 62" fill="none" xmlns="http://www.w3.org/2000/svg">
<circle cx="31" cy="31" r="30" fill="black" fill-opacity="0.64" stroke="white" stroke-width="2"/>
<path d="M26.1269 29.6468C30.6531 29.6468 34.3224 25.9775 34.3224 21.4513C34.3224 16.9249 30.6531 13.2559 26.1269 13.2559C21.6008 13.2559 17.9315 16.9249 17.9315 21.4513C17.9357 25.9757 21.6023 29.6426 26.1269 29.6468ZM26.1269 14.8066C29.7968 14.8066 32.7717 17.7814 32.7717 21.4513C32.7717 25.1213 29.7968 28.0961 26.1269 28.0961C22.457 28.0961 19.4822 25.1213 19.4822 21.4513C19.4864 17.7832 22.4588 14.8108 26.1269 14.8066Z" fill="white"/>
<path d="M26.119 33.0433H26.1423C29.1005 33.0278 31.9484 34.1654 34.0822 36.2144L35.1598 35.098C32.7362 32.7707 29.5024 31.4774 26.1423 31.4926H26.119C22.5681 31.5001 19.2729 32.8803 16.8305 35.3927C14.3493 37.928 12.9925 41.3938 13 45.1543C13.0015 45.36 13.0821 45.5571 13.2251 45.7049C13.3707 45.8506 13.5691 45.9318 13.7754 45.9297L34.4774 45.8909V44.3402L14.5741 44.379C14.737 41.3317 15.9155 38.5483 17.939 36.4782C20.087 34.2684 22.9946 33.0509 26.119 33.0433Z" fill="white"/>
<path d="M40.5289 31.9994C35.8186 31.9994 31.9999 35.818 31.9999 40.5283C31.9999 45.2389 35.8186 49.0572 40.5289 49.0572C45.2392 49.0572 49.0578 45.2389 49.0578 40.5283C49.0693 38.2628 48.1746 36.0867 46.5724 34.4848C44.9705 32.8829 42.7944 31.9879 40.5289 31.9994ZM40.5289 47.5065C36.6748 47.5065 33.5507 44.3824 33.5507 40.5283C33.5507 36.6745 36.6748 33.5501 40.5289 33.5501C44.3829 33.5501 47.5071 36.6745 47.5071 40.5283C47.5071 44.3824 44.3829 47.5065 40.5289 47.5065Z" fill="white"/>
<path d="M37.5746 37.5652C37.6625 37.4832 37.7816 37.4371 37.9057 37.4371C38.0299 37.4371 38.149 37.4832 38.2369 37.5652L40.7158 39.8809L43.1948 37.5652C43.238 37.5234 43.2897 37.4901 43.3468 37.4672C43.4039 37.4442 43.4654 37.4322 43.5276 37.4317C43.5898 37.4312 43.6514 37.4422 43.709 37.4642C43.7666 37.4862 43.8188 37.5187 43.8628 37.5598C43.9068 37.6009 43.9416 37.6497 43.9651 37.7035C43.9887 37.7572 44.0005 37.8149 44 37.8729C43.9994 37.931 43.9865 37.9884 43.962 38.0418C43.9374 38.0952 43.9018 38.1435 43.857 38.1838L41.3781 40.4995L43.857 42.8152C43.9423 42.8977 43.9895 43.0082 43.9885 43.1229C43.9874 43.2377 43.9381 43.3474 43.8513 43.4285C43.7645 43.5096 43.647 43.5556 43.5242 43.5566C43.4014 43.5576 43.2831 43.5135 43.1948 43.4338L40.7158 41.1181L38.2369 43.4338C38.1485 43.5135 38.0302 43.5576 37.9074 43.5566C37.7846 43.5556 37.6672 43.5096 37.5803 43.4285C37.4935 43.3474 37.4442 43.2377 37.4432 43.1229C37.4421 43.0082 37.4893 42.8977 37.5746 42.8152L40.0536 40.4995L37.5746 38.1838C37.4868 38.1018 37.4375 37.9905 37.4375 37.8745C37.4375 37.7585 37.4868 37.6472 37.5746 37.5652Z" fill="white"/>
</svg>
