<svg width="62" height="62" viewBox="0 0 62 62" fill="none" xmlns="http://www.w3.org/2000/svg">
<circle cx="31" cy="31" r="30" fill="#E85C30" stroke="white" stroke-width="2"/>
<path d="M40.3248 29.2199C42.9954 29.2199 45.1617 27.055 45.1617 24.3845C45.1617 21.7139 42.9954 19.5491 40.3248 19.5491" stroke="white" stroke-width="1.5" stroke-linecap="round" stroke-linejoin="round"/>
<path d="M42.5485 34.4746C43.346 34.5296 44.1389 34.6427 44.9196 34.8184C46.0043 35.0307 47.309 35.4753 47.7735 36.4485C48.0699 37.0718 48.0699 37.7975 47.7735 38.4224C47.3106 39.3956 46.0043 39.8386 44.9196 40.0617" stroke="white" stroke-width="1.5" stroke-linecap="round" stroke-linejoin="round"/>
<path d="M21.4833 29.2199C18.8128 29.2199 16.6464 27.055 16.6464 24.3845C16.6464 21.7139 18.8128 19.5491 21.4833 19.5491" stroke="white" stroke-width="1.5" stroke-linecap="round" stroke-linejoin="round"/>
<path d="M19.2597 34.4746C18.4622 34.5296 17.6692 34.6427 16.8885 34.8184C15.8038 35.0307 14.4991 35.4753 14.0362 36.4485C13.7383 37.0718 13.7383 37.7975 14.0362 38.4224C14.4976 39.3956 15.8038 39.8386 16.8885 40.0617" stroke="white" stroke-width="1.5" stroke-linecap="round" stroke-linejoin="round"/>
<path fill-rule="evenodd" clip-rule="evenodd" d="M30.8963 35.5159C36.3077 35.5159 40.9307 36.3348 40.9307 39.6118C40.9307 42.8874 36.3382 43.7368 30.8963 43.7368C25.4834 43.7368 20.8618 42.918 20.8618 39.6409C20.8618 36.3638 25.4543 35.5159 30.8963 35.5159Z" stroke="white" stroke-width="1.5" stroke-linecap="round" stroke-linejoin="round"/>
<path fill-rule="evenodd" clip-rule="evenodd" d="M30.8963 30.8416C27.3274 30.8416 24.4659 27.9801 24.4659 24.4097C24.4659 20.8408 27.3274 17.9792 30.8963 17.9792C34.4652 17.9792 37.3267 20.8408 37.3267 24.4097C37.3267 27.9801 34.4652 30.8416 30.8963 30.8416Z" stroke="white" stroke-width="1.5" stroke-linecap="round" stroke-linejoin="round"/>
</svg>
