<svg width="14" height="14" viewBox="0 0 14 14" fill="none" xmlns="http://www.w3.org/2000/svg">
<path fill-rule="evenodd" clip-rule="evenodd" d="M7.70017 1.16655C7.70017 0.779953 7.38677 0.466553 7.00017 0.466553C6.61357 0.466553 6.30017 0.779953 6.30017 1.16655V6.29993H1.16667C0.780075 6.29993 0.466675 6.61333 0.466675 6.99993C0.466675 7.38653 0.780075 7.69993 1.16667 7.69993H6.30017V12.8332C6.30017 13.2198 6.61357 13.5332 7.00017 13.5332C7.38677 13.5332 7.70017 13.2198 7.70017 12.8332V7.69993H12.8333C13.2199 7.69993 13.5333 7.38653 13.5333 6.99993C13.5333 6.61333 13.2199 6.29993 12.8333 6.29993H7.70017V1.16655Z" fill="#3C3C43" fill-opacity="0.6"/>
</svg>
