<svg width="18" height="19" viewBox="0 0 18 19" fill="none" xmlns="http://www.w3.org/2000/svg">
<path fill-rule="evenodd" clip-rule="evenodd" d="M11.7877 2.09218C11.1526 2.09218 10.5435 2.34398 10.0944 2.7922L2.76416 10.1083C2.01574 10.8552 1.59527 11.8683 1.59527 12.9247C1.59527 13.9811 2.01574 14.9942 2.76416 15.7412C3.51259 16.4882 4.52768 16.9078 5.58612 16.9078C6.64455 16.9078 7.65964 16.4882 8.40807 15.7412L15.7383 8.42515C16.0498 8.11426 16.5549 8.11426 16.8664 8.42515C17.1779 8.73604 17.1779 9.2401 16.8664 9.55099L9.5361 16.867C8.4885 17.9126 7.06765 18.5 5.58612 18.5C4.10459 18.5 2.68374 17.9126 1.63614 16.867C0.588536 15.8215 0 14.4034 0 12.9247C0 11.4461 0.588536 10.028 1.63614 8.98241L8.96642 1.66636C9.71468 0.919553 10.7295 0.5 11.7877 0.5C12.8459 0.5 13.8608 0.919553 14.6091 1.66636C15.3573 2.41317 15.7777 3.42606 15.7777 4.48221C15.7777 5.53836 15.3573 6.55125 14.6091 7.29806L7.27081 14.6141C6.82189 15.0622 6.21302 15.3139 5.57814 15.3139C4.94327 15.3139 4.33439 15.0622 3.88547 14.6141C3.43655 14.1661 3.18434 13.5584 3.18434 12.9247C3.18434 12.2911 3.43655 11.6834 3.88547 11.2353L10.6577 4.48418C10.9694 4.17347 11.4745 4.17377 11.7858 4.48485C12.0971 4.79592 12.0968 5.29998 11.7851 5.61068L5.0135 12.3612C4.86396 12.5106 4.77962 12.7135 4.77962 12.9247C4.77962 13.1361 4.86375 13.3388 5.0135 13.4883C5.16325 13.6377 5.36636 13.7217 5.57814 13.7217C5.78992 13.7217 5.99303 13.6377 6.14278 13.4883L13.481 6.17222C13.9299 5.72403 14.1824 5.11594 14.1824 4.48221C14.1824 3.84833 13.9301 3.24042 13.481 2.7922C13.0319 2.34398 12.4229 2.09218 11.7877 2.09218Z" fill="black" fill-opacity="0.64"/>
</svg>
