<svg width="24" height="24" viewBox="0 0 24 24" fill="none" xmlns="http://www.w3.org/2000/svg">
<path d="M20.2375 6.80276L20.2383 6.8046C20.5435 7.51514 20.7 8.26928 20.7 9.04613C20.7 9.82315 20.5434 10.5777 20.2359 11.2906L20.2355 11.2914C19.939 11.9763 19.5151 12.5913 18.9775 13.1172C18.4399 13.6432 17.813 14.0563 17.1168 14.3447L17.1151 14.3455C16.393 14.6424 15.6277 14.7942 14.8401 14.7942C14.0312 14.7942 13.2331 14.6306 12.4971 14.3156L10.0884 16.6735L10.7866 17.3566C11.1489 17.708 11.2394 18.2351 11.0392 18.6921L11.0328 18.7063C10.9765 18.8274 10.8991 18.9347 10.8074 19.0245L9.44753 20.3548C9.44684 20.3555 9.44615 20.3562 9.44545 20.3569C9.08945 20.7084 8.56802 20.7895 8.1186 20.601L8.10474 20.595C7.98438 20.5415 7.87611 20.4671 7.78437 20.3774L8.27389 19.877L7.78436 20.3774L7.04357 19.6526L6.68176 20.0066C6.68108 20.0073 6.6804 20.0079 6.67973 20.0086C6.32376 20.36 5.80237 20.4412 5.35286 20.2528L5.33911 20.2468C5.21853 20.1932 5.11026 20.1188 5.01861 20.0291L5.50813 19.5287L5.01861 20.0291L3.63587 18.6763C3.63583 18.6763 3.63578 18.6762 3.63573 18.6762C3.55898 18.6011 3.46593 18.4895 3.40182 18.3391C3.20195 17.8778 3.30173 17.3554 3.65529 17.0096L3.65552 17.0093L9.46602 11.3302C9.14929 10.6126 8.98415 9.8359 8.98415 9.04613C8.98415 8.27101 9.13802 7.51387 9.44691 6.80218C9.74343 6.1175 10.1672 5.50276 10.7046 4.97692C11.2423 4.45096 11.8692 4.03791 12.5653 3.74944L12.5671 3.74869C13.2892 3.4518 14.0545 3.3 14.8421 3.3C15.6278 3.3 16.3959 3.44919 17.1188 3.74944L20.2375 6.80276ZM20.2375 6.80276C19.941 6.11785 19.5171 5.50291 18.9795 4.97692C18.4419 4.451 17.8151 4.03797 17.119 3.7495L20.2375 6.80276ZM16.1609 10.3148L16.1599 10.3158C15.8094 10.6588 15.3423 10.8491 14.8401 10.8491C14.338 10.8491 13.8709 10.6588 13.5204 10.3158L13.5204 10.3158C13.1694 9.97243 12.9798 9.52221 12.9798 9.04613C12.9798 8.56703 13.1682 8.11904 13.5184 7.77643C13.8689 7.4335 14.336 7.24316 14.8382 7.24316C15.3403 7.24316 15.8074 7.4335 16.1579 7.77643C16.5079 8.11884 16.6966 8.56865 16.6966 9.04613L16.6966 9.05021C16.6994 9.52455 16.5121 9.97262 16.1609 10.3148Z" stroke="black" stroke-opacity="0.48" stroke-width="1.4" stroke-linejoin="round"/>
</svg>
