<svg width="20" height="21" viewBox="0 0 20 21" fill="none" xmlns="http://www.w3.org/2000/svg">
<path fill-rule="evenodd" clip-rule="evenodd" d="M0 10.5137C0 4.99082 4.47715 0.513672 10 0.513672C15.5228 0.513672 20 4.99082 20 10.5137C20 16.0365 15.5228 20.5137 10 20.5137C4.47715 20.5137 0 16.0365 0 10.5137ZM13.3701 7.14358C13.7251 7.4986 13.7251 8.0742 13.3701 8.42922L11.2856 10.5137L13.3701 12.5981C13.7251 12.9531 13.7251 13.5287 13.3701 13.8838C13.0151 14.2388 12.4395 14.2388 12.0844 13.8838L10 11.7993L7.91555 13.8838C7.56053 14.2388 6.98493 14.2388 6.6299 13.8838C6.27488 13.5287 6.27488 12.9531 6.6299 12.5981L8.71435 10.5137L6.6299 8.42922C6.27488 8.0742 6.27488 7.4986 6.6299 7.14358C6.98493 6.78855 7.56053 6.78855 7.91555 7.14358L10 9.22802L12.0844 7.14358C12.4395 6.78855 13.0151 6.78855 13.3701 7.14358Z" fill="#7E7E83"/>
</svg>
