<svg width="24" height="24" viewBox="0 0 24 24" fill="none" xmlns="http://www.w3.org/2000/svg">
<path fill-rule="evenodd" clip-rule="evenodd" d="M4.1096 4.34288C3.72826 4.64341 3.65001 4.87041 3.65001 5.0001C3.65001 5.12979 3.72826 5.35678 4.1096 5.65732C4.48362 5.95207 5.06511 6.24594 5.84159 6.50477C7.38777 7.02017 9.56515 7.3501 12 7.3501C14.4349 7.3501 16.6122 7.02017 18.1584 6.50477C18.9349 6.24594 19.5164 5.95207 19.8904 5.65732C20.2718 5.35678 20.35 5.12979 20.35 5.0001C20.35 4.87041 20.2718 4.64341 19.8904 4.34288C19.5164 4.04812 18.9349 3.75425 18.1584 3.49542C16.6122 2.98003 14.4349 2.6501 12 2.6501C9.56515 2.6501 7.38777 2.98003 5.84159 3.49542C5.06511 3.75425 4.48362 4.04812 4.1096 4.34288ZM20.35 6.92354C19.8593 7.23959 19.2514 7.51076 18.5695 7.73806C16.8583 8.30846 14.5357 8.6501 12 8.6501C9.4643 8.6501 7.14168 8.30846 5.4305 7.73806C4.74859 7.51076 4.14074 7.23959 3.65001 6.92354V11.9991C3.65001 12.1318 3.72893 12.3593 4.10682 12.6587C4.47823 12.953 5.0565 13.2466 5.83084 13.5051C7.3728 14.0198 9.5499 14.3491 12 14.3491C14.4501 14.3491 16.6272 14.0198 18.1692 13.5051C18.9435 13.2466 19.5218 12.953 19.8932 12.6587C20.2711 12.3593 20.35 12.1318 20.35 11.9991V6.92354ZM21.65 11.9991V5.0001C21.65 4.30136 21.2246 3.73914 20.6951 3.32184C20.1582 2.89877 19.4217 2.5462 18.5695 2.26213C16.8583 1.69174 14.5357 1.3501 12 1.3501C9.4643 1.3501 7.14168 1.69174 5.4305 2.26213C4.5783 2.5462 3.84177 2.89877 3.30494 3.32184C2.77543 3.73914 2.35001 4.30136 2.35001 5.0001V11.9991V19.0001C2.35001 19.6974 2.77108 20.2599 3.29944 20.6786C3.83429 21.1024 4.56851 21.4552 5.41917 21.7391C7.12722 22.3094 9.45011 22.6501 12 22.6501C14.5499 22.6501 16.8728 22.3094 18.5808 21.7391C19.4315 21.4552 20.1657 21.1024 20.7006 20.6786C21.2289 20.2599 21.65 19.6974 21.65 19.0001V11.9991ZM20.35 13.9275C19.8621 14.2422 19.2584 14.512 18.5808 14.7382C16.8728 15.3084 14.5499 15.6491 12 15.6491C9.45011 15.6491 7.12722 15.3084 5.41917 14.7382C4.74161 14.512 4.13791 14.2422 3.65001 13.9275V19.0001C3.65001 19.1327 3.72893 19.3603 4.10682 19.6597C4.47823 19.954 5.0565 20.2475 5.83084 20.506C7.3728 21.0208 9.5499 21.3501 12 21.3501C14.4501 21.3501 16.6272 21.0208 18.1692 20.506C18.9435 20.2475 19.5218 19.954 19.8932 19.6597C20.2711 19.3603 20.35 19.1327 20.35 19.0001V13.9275Z" fill="#3C3C43" fill-opacity="0.6"/>
</svg>
