<svg width="25" height="24" viewBox="0 0 25 24" fill="none" xmlns="http://www.w3.org/2000/svg">
<g opacity="0.6">
<path d="M4.27283 6.60001H6.07283H20.4728" stroke="#3C3C43" stroke-width="1.4" stroke-linecap="round" stroke-linejoin="round"/>
<path d="M8.77282 6.6V4.8C8.77282 4.32261 8.96246 3.86477 9.30002 3.52721C9.63759 3.18964 10.0954 3 10.5728 3H14.1728C14.6502 3 15.108 3.18964 15.4456 3.52721C15.7832 3.86477 15.9728 4.32261 15.9728 4.8V6.6M18.6728 6.6V19.2C18.6728 19.6774 18.4832 20.1352 18.1456 20.4728C17.808 20.8104 17.3502 21 16.8728 21H7.87282C7.39543 21 6.93759 20.8104 6.60002 20.4728C6.26246 20.1352 6.07281 19.6774 6.07281 19.2V6.6H18.6728Z" stroke="#3C3C43" stroke-width="1.4" stroke-linecap="round" stroke-linejoin="round"/>
<path d="M10.5728 11.1V16.5" stroke="#3C3C43" stroke-width="1.4" stroke-linecap="round" stroke-linejoin="round"/>
<path d="M14.1729 11.1V16.5" stroke="#3C3C43" stroke-width="1.4" stroke-linecap="round" stroke-linejoin="round"/>
</g>
</svg>
