<svg width="24" height="24" viewBox="0 0 24 24" fill="none" xmlns="http://www.w3.org/2000/svg">
<path fill-rule="evenodd" clip-rule="evenodd" d="M4 4H3.3H4ZM4 20H3.3H4ZM20 8.342H20.7V8.34191L20 8.342ZM19.398 6.912L18.9086 7.41247L18.9087 7.41259L19.398 6.912ZM14.958 2.57L15.4474 2.06953L15.4474 2.0695L14.958 2.57ZM13.56 2L13.5601 1.3H13.56V2ZM6 2V1.3V2ZM9 12.3C8.6134 12.3 8.3 12.6134 8.3 13C8.3 13.3866 8.6134 13.7 9 13.7V12.3ZM15 13.7C15.3866 13.7 15.7 13.3866 15.7 13C15.7 12.6134 15.3866 12.3 15 12.3V13.7ZM9 16.3C8.6134 16.3 8.3 16.6134 8.3 17C8.3 17.3866 8.6134 17.7 9 17.7V16.3ZM12 17.7C12.3866 17.7 12.7 17.3866 12.7 17C12.7 16.6134 12.3866 16.3 12 16.3V17.7ZM16 8V8.7V8ZM3.3 4V20H4.7V4H3.3ZM3.3 20C3.3 20.7161 3.58446 21.4028 4.09081 21.9092L5.08076 20.9192C4.83696 20.6754 4.7 20.3448 4.7 20H3.3ZM4.09081 21.9092C4.59716 22.4155 5.28392 22.7 6 22.7V21.3C5.65522 21.3 5.32456 21.163 5.08076 20.9192L4.09081 21.9092ZM6 22.7H18V21.3H6V22.7ZM18 22.7C18.7161 22.7 19.4028 22.4155 19.9092 21.9092L18.9192 20.9192C18.6754 21.163 18.3448 21.3 18 21.3V22.7ZM19.9092 21.9092C20.4155 21.4028 20.7 20.7161 20.7 20H19.3C19.3 20.3448 19.163 20.6754 18.9192 20.9192L19.9092 21.9092ZM20.7 20V8.342H19.3V20H20.7ZM20.7 8.34191C20.7 7.98222 20.628 7.62616 20.4885 7.29464L19.1982 7.83784C19.2654 7.99746 19.3 8.1689 19.3 8.34209L20.7 8.34191ZM20.4885 7.29464C20.3489 6.96313 20.1445 6.66284 19.8873 6.41142L18.9087 7.41259C19.0325 7.53364 19.131 7.67822 19.1982 7.83784L20.4885 7.29464ZM19.8874 6.41153L15.4474 2.06953L14.4686 3.07047L18.9086 7.41247L19.8874 6.41153ZM15.4474 2.0695C14.943 1.57629 14.2656 1.30009 13.5601 1.3L13.5599 2.7C13.8996 2.70004 14.2257 2.83303 14.4686 3.0705L15.4474 2.0695ZM13.56 1.3H6V2.7H13.56V1.3ZM6 1.3C5.28392 1.3 4.59716 1.58446 4.09081 2.09081L5.08076 3.08076C5.32456 2.83696 5.65522 2.7 6 2.7V1.3ZM4.09081 2.09081C3.58446 2.59716 3.3 3.28392 3.3 4H4.7C4.7 3.65522 4.83696 3.32456 5.08076 3.08076L4.09081 2.09081ZM9 13.7H15V12.3H9V13.7ZM9 17.7H12V16.3H9V17.7ZM13.3 2V6H14.7V2H13.3ZM13.3 6C13.3 6.71608 13.5845 7.40284 14.0908 7.90919L15.0808 6.91924C14.837 6.67544 14.7 6.34478 14.7 6H13.3ZM14.0908 7.90919C14.5972 8.41554 15.2839 8.7 16 8.7V7.3C15.6552 7.3 15.3246 7.16304 15.0808 6.91924L14.0908 7.90919ZM16 8.7H20V7.3H16V8.7Z" fill="black" fill-opacity="0.48"/>
</svg>
