<svg width="24" height="24" viewBox="0 0 24 24" fill="none" xmlns="http://www.w3.org/2000/svg">
<g opacity="0.6">
<path d="M13 2V9H20" stroke="#3C3C43" stroke-width="1.6" stroke-linecap="round" stroke-linejoin="round"/>
<path fill-rule="evenodd" clip-rule="evenodd" d="M6.00001 1.2002C5.25741 1.2002 4.54522 1.49519 4.02011 2.0203C3.49501 2.5454 3.20001 3.25759 3.20001 4.0002V20.0002C3.20001 20.7428 3.49501 21.455 4.02011 21.9801C4.54521 22.5052 5.25741 22.8002 6.00001 22.8002H10V21.2002H6.00001C5.68175 21.2002 5.37653 21.0738 5.15148 20.8487C4.92644 20.6237 4.80001 20.3185 4.80001 20.0002V4.0002C4.80001 3.68194 4.92644 3.37671 5.15148 3.15167C5.37653 2.92662 5.68175 2.8002 6.00001 2.8002H12.6686L19.2 9.33157V12.0002H20.8V9.0002C20.8 8.78802 20.7157 8.58454 20.5657 8.43451L13.5657 1.43451C13.4157 1.28448 13.2122 1.2002 13 1.2002H6.00001Z" fill="#3C3C43"/>
<path d="M18.8333 22.7998L23 18.6331L18.8333 14.4665" stroke="#3C3C43" stroke-width="1.6" stroke-linecap="round" stroke-linejoin="round"/>
<path d="M23 18.6333H13" stroke="#3C3C43" stroke-width="1.6" stroke-linecap="round" stroke-linejoin="round"/>
</g>
</svg>
