<svg width="22" height="21" viewBox="0 0 22 21" fill="none" xmlns="http://www.w3.org/2000/svg">
<path d="M20.9961 2.40234V8.40234M20.9961 8.40234H14.9961M20.9961 8.40234L16.366 4.04236C14.9866 2.6621 13.196 1.76754 11.2639 1.4935C9.3319 1.21946 7.36314 1.58077 5.65433 2.523C3.94551 3.46522 2.58922 4.93731 1.78984 6.71743C0.990451 8.49754 0.791281 10.4893 1.22234 12.3924C1.6534 14.2956 2.69133 16.0071 4.17973 17.269C5.66813 18.531 7.52636 19.275 9.47439 19.3889C11.4224 19.5029 13.3547 18.9806 14.9801 17.9009C16.6055 16.8211 17.8359 15.2423 18.486 13.4024" stroke="#3C3C43" stroke-opacity="0.6" stroke-width="1.6" stroke-linecap="round" stroke-linejoin="round"/>
</svg>
