<svg width="18" height="20" viewBox="0 0 18 20" fill="none" xmlns="http://www.w3.org/2000/svg">
<path d="M13.9563 7.43439C13.9563 6.11988 13.4341 4.85921 12.5046 3.92971C11.5751 3.00021 10.3145 2.47803 8.99997 2.47803C7.68546 2.47803 6.42479 3.00021 5.49529 3.92971C4.5658 4.85921 4.04361 6.11988 4.04361 7.43439C4.04361 13.2168 1.56543 14.8689 1.56543 14.8689H16.4345C16.4345 14.8689 13.9563 13.2168 13.9563 7.43439Z" stroke="black" stroke-width="1.6" stroke-linecap="round" stroke-linejoin="round"/>
<path d="M10.429 18.1733C10.2837 18.4237 10.0753 18.6315 9.82448 18.776C9.57367 18.9204 9.28932 18.9965 8.99988 18.9965C8.71045 18.9965 8.4261 18.9204 8.17529 18.776C7.92448 18.6315 7.71603 18.4237 7.5708 18.1733" stroke="black" stroke-width="1.6" stroke-linecap="round" stroke-linejoin="round"/>
<line x1="8.82617" y1="2.3042" x2="8.82617" y2="0.999958" stroke="black" stroke-width="2" stroke-linecap="round" stroke-linejoin="round"/>
</svg>
