<svg width="24" height="24" viewBox="0 0 24 24" fill="none" xmlns="http://www.w3.org/2000/svg">
<path d="M0.749506 -0.000933023C0.535656 0.03974 0.343061 0.154681 0.20574 0.323587C0.06842 0.492493 -0.00478929 0.704494 -0.000955768 0.922144V3.69138C-0.000955768 3.93619 0.0962967 4.17098 0.269407 4.34409C0.442518 4.5172 0.677306 4.61445 0.922121 4.61445C1.16694 4.61445 1.40172 4.5172 1.57484 4.34409C1.74795 4.17098 1.8452 3.93619 1.8452 3.69138V1.84522H3.69135C3.93617 1.84522 4.17096 1.74797 4.34407 1.57486C4.51718 1.40175 4.61443 1.16696 4.61443 0.922144C4.61443 0.677329 4.51718 0.44254 4.34407 0.26943C4.17096 0.0963195 3.93617 -0.000933023 3.69135 -0.000933023H0.922121C0.893214 -0.00229316 0.864259 -0.00229316 0.835352 -0.000933023C0.806445 -0.00229316 0.77749 -0.00229316 0.748583 -0.000933023H0.749506ZM20.0474 -0.000933023C19.8025 0.0334635 19.5814 0.163704 19.4326 0.361136C19.2838 0.558569 19.2196 0.807021 19.254 1.05184C19.2884 1.29665 19.4186 1.51778 19.616 1.66656C19.8135 1.81535 20.0619 1.87962 20.3067 1.84522H22.1529V3.69138C22.1529 3.93619 22.2501 4.17098 22.4233 4.34409C22.5964 4.5172 22.8312 4.61445 23.076 4.61445C23.3208 4.61445 23.5556 4.5172 23.7287 4.34409C23.9018 4.17098 23.999 3.93619 23.999 3.69138V0.922144C23.999 0.677329 23.9018 0.44254 23.7287 0.26943C23.5556 0.0963195 23.3208 -0.000933023 23.076 -0.000933023H20.3067C20.2778 -0.00229316 20.2489 -0.00229316 20.22 -0.000933023C20.1914 -0.00226303 20.1627 -0.00226303 20.1341 -0.000933023C20.1052 -0.00228773 20.0763 -0.00228773 20.0474 -0.000933023ZM11.999 0.922144C4.43074 0.922144 3.55289 8.31414 3.71997 11.8265C3.14951 12.2335 2.76828 12.8935 2.76828 13.8452H0.922121C0.893214 13.8439 0.864259 13.8439 0.835352 13.8452C0.806445 13.8439 0.77749 13.8439 0.748583 13.8452C0.503767 13.8682 0.278121 13.9876 0.121283 14.1769C-0.0355553 14.3663 -0.110738 14.6103 -0.087725 14.8551C-0.0647124 15.0999 0.0546102 15.3255 0.243993 15.4824C0.433376 15.6392 0.677306 15.7144 0.922121 15.6914H23.076C23.3208 15.6914 23.5556 15.5941 23.7287 15.421C23.9018 15.2479 23.999 15.0131 23.999 14.7683C23.999 14.5235 23.9018 14.2887 23.7287 14.1156C23.5556 13.9425 23.3208 13.8452 23.076 13.8452H21.2298C21.2298 12.9388 20.8827 12.2335 20.2781 11.7969C20.4378 8.27353 19.5461 0.922144 11.999 0.922144ZM9.22981 7.38368C9.22981 10.3006 17.5375 9.07014 17.5375 11.076V13.2683L18.576 13.1529C18.5898 13.152 18.6129 13.1529 18.6627 13.1529C19.3181 13.1529 19.3837 13.4705 19.3837 13.8452H16.5277C16.5775 13.7031 16.6144 13.5434 16.6144 13.3837C16.6144 13.0165 16.4685 12.6643 16.2089 12.4046C15.9492 12.1449 15.597 11.9991 15.2298 11.9991C14.8626 11.9991 14.5104 12.1449 14.2507 12.4046C13.9911 12.6643 13.8452 13.0165 13.8452 13.3837C13.8452 13.5434 13.8821 13.7031 13.932 13.8452H10.0661C10.116 13.7031 10.1529 13.5434 10.1529 13.3837C10.1529 13.0165 10.007 12.6643 9.74735 12.4046C9.48768 12.1449 9.1355 11.9991 8.76828 11.9991C8.40105 11.9991 8.04887 12.1449 7.7892 12.4046C7.52954 12.6643 7.38366 13.0165 7.38366 13.3837C7.38366 13.5434 7.42058 13.7031 7.47043 13.8452H4.61443C4.61443 13.5914 4.6172 13.1529 5.45074 13.1529L6.46058 13.2683V11.076C6.46058 8.56245 8.14428 10.0468 9.22981 7.38368ZM4.72981 16.6145C6.52058 20.8966 8.97043 23.076 11.999 23.076C15.0286 23.076 17.4784 20.8975 19.2683 16.6145H17.2486C15.827 19.6745 14.0603 21.2298 11.999 21.2298C9.93781 21.2298 8.17197 19.6745 6.74858 16.6145H4.73074H4.72981ZM0.835352 19.3551C0.796315 19.3621 0.757774 19.3717 0.719967 19.3837C0.511568 19.4304 0.325812 19.5479 0.194355 19.7162C0.0628982 19.8846 -0.00612617 20.0933 -0.000955768 20.3068V23.076C-0.000955768 23.3208 0.0962967 23.5556 0.269407 23.7287C0.442518 23.9018 0.677306 23.9991 0.922121 23.9991H3.69135C3.93617 23.9991 4.17096 23.9018 4.34407 23.7287C4.51718 23.5556 4.61443 23.3208 4.61443 23.076C4.61443 22.8312 4.51718 22.5964 4.34407 22.4233C4.17096 22.2502 3.93617 22.1529 3.69135 22.1529H1.8452V20.3068C1.84986 20.1755 1.82645 20.0447 1.77655 19.9233C1.72664 19.8018 1.65137 19.6923 1.55579 19.6022C1.4602 19.5121 1.34649 19.4435 1.22225 19.4009C1.09801 19.3583 0.966109 19.3426 0.835352 19.3551ZM22.9892 19.3551C22.9502 19.3621 22.9116 19.3717 22.8738 19.3837C22.6654 19.4304 22.4797 19.5479 22.3482 19.7162C22.2167 19.8846 22.1477 20.0933 22.1529 20.3068V22.1529H20.3067C20.0619 22.1529 19.8271 22.2502 19.654 22.4233C19.4809 22.5964 19.3837 22.8312 19.3837 23.076C19.3837 23.3208 19.4809 23.5556 19.654 23.7287C19.8271 23.9018 20.0619 23.9991 20.3067 23.9991H23.076C23.3208 23.9991 23.5556 23.9018 23.7287 23.7287C23.9018 23.5556 23.999 23.3208 23.999 23.076V20.3068C24.0037 20.1755 23.9803 20.0447 23.9304 19.9233C23.8805 19.8018 23.8052 19.6923 23.7096 19.6022C23.614 19.5121 23.5003 19.4435 23.3761 19.4009C23.2519 19.3583 23.12 19.3426 22.9892 19.3551Z" fill="#5C5C5C"/>
</svg>
