<svg width="15" height="15" viewBox="0 0 15 15" fill="none" xmlns="http://www.w3.org/2000/svg">
<path fill-rule="evenodd" clip-rule="evenodd" d="M1.5644 7.17753C1.5644 4.22702 3.95627 1.83516 6.90678 1.83516C9.85729 1.83516 12.2491 4.22702 12.2491 7.17753C12.2491 10.128 9.85729 12.5199 6.90678 12.5199C3.95627 12.5199 1.5644 10.128 1.5644 7.17753ZM6.90678 0.535156C3.2383 0.535156 0.264404 3.50905 0.264404 7.17753C0.264404 10.846 3.2383 13.8199 6.90678 13.8199C8.42775 13.8199 9.82933 13.3087 10.9491 12.4487L12.9649 14.4593C13.2191 14.7128 13.6306 14.7123 13.8841 14.4581C14.1376 14.204 14.1371 13.7924 13.8829 13.5389L11.8986 11.5597C12.9261 10.3902 13.5491 8.85664 13.5491 7.17753C13.5491 3.50905 10.5753 0.535156 6.90678 0.535156Z" fill="white"/>
</svg>
