<svg width="16" height="16" viewBox="0 0 16 16" fill="none" xmlns="http://www.w3.org/2000/svg">
<path fill-rule="evenodd" clip-rule="evenodd" d="M2.50203 7.84452C2.50203 4.89401 4.89389 2.50215 7.8444 2.50215C10.7949 2.50215 13.1868 4.89401 13.1868 7.84452C13.1868 10.795 10.7949 13.1869 7.8444 13.1869C4.89389 13.1869 2.50203 10.795 2.50203 7.84452ZM7.8444 1.20215C4.17592 1.20215 1.20203 4.17604 1.20203 7.84452C1.20203 11.513 4.17592 14.4869 7.8444 14.4869C9.36537 14.4869 10.7669 13.9757 11.8867 13.1157L13.9025 15.1263C14.1567 15.3798 14.5682 15.3793 14.8217 15.1251C15.0753 14.871 15.0747 14.4594 14.8206 14.2059L12.8362 12.2267C13.8637 11.0572 14.4868 9.52363 14.4868 7.84452C14.4868 4.17604 11.5129 1.20215 7.8444 1.20215Z" fill="#3C3C43" fill-opacity="0.6"/>
</svg>