<svg width="16" height="16" viewBox="0 0 16 16" fill="none" xmlns="http://www.w3.org/2000/svg">
<path fill-rule="evenodd" clip-rule="evenodd" d="M4.23206 2.89857C4.39147 2.73916 4.60767 2.64961 4.83311 2.64961H12.2831V10.3496H4.83311C4.53795 10.3496 4.24906 10.4103 3.98311 10.5248V3.49961C3.98311 3.27418 4.07266 3.05797 4.23206 2.89857ZM3.98311 12.4996C3.98311 12.725 4.07266 12.9412 4.23206 13.1006C4.39147 13.2601 4.60767 13.3496 4.83311 13.3496H12.2831V11.6496H4.83311C4.60767 11.6496 4.39147 11.7392 4.23206 11.8986C4.07266 12.058 3.98311 12.2742 3.98311 12.4996ZM13.5831 10.9996V1.99961C13.5831 1.64062 13.2921 1.34961 12.9331 1.34961H4.83311C4.26289 1.34961 3.71603 1.57613 3.31283 1.97933C2.90962 2.38253 2.68311 2.92939 2.68311 3.49961V12.4996C2.68311 13.0698 2.90962 13.6167 3.31283 14.0199C3.71603 14.4231 4.26289 14.6496 4.83311 14.6496H12.9331C13.2921 14.6496 13.5831 14.3586 13.5831 13.9996V10.9996Z" fill="#3C3C43" fill-opacity="0.6"/>
</svg>
