<svg width="16" height="16" viewBox="0 0 16 16" fill="none" xmlns="http://www.w3.org/2000/svg">
<path d="M13.1943 15.3337V15.3337C14.3756 15.3337 15.3332 14.376 15.3332 13.1948V3.66699C15.3332 2.01014 13.99 0.666992 12.3332 0.666992H3.6665C2.00965 0.666992 0.666504 2.01014 0.666504 3.66699V12.3337C0.666504 13.9905 2.00965 15.3337 3.6665 15.3337H9.52761" stroke="#3C3C43" stroke-opacity="0.6" stroke-width="1.2" stroke-linecap="round" stroke-linejoin="round"/>
<path d="M9.4441 11.9997V11.1108C9.4441 10.6393 9.2568 10.1871 8.9234 9.85371C8.59001 9.52031 8.13782 9.33301 7.66633 9.33301H4.11078C3.63929 9.33301 3.1871 9.52031 2.85371 9.85371C2.52031 10.1871 2.33301 10.6393 2.33301 11.1108V11.9997" stroke="#3C3C43" stroke-opacity="0.6" stroke-width="1.3" stroke-linecap="round" stroke-linejoin="round"/>
<path d="M5.88861 7.55555C6.87045 7.55555 7.66639 6.75961 7.66639 5.77777C7.66639 4.79594 6.87045 4 5.88861 4C4.90678 4 4.11084 4.79594 4.11084 5.77777C4.11084 6.75961 4.90678 7.55555 5.88861 7.55555Z" stroke="#3C3C43" stroke-opacity="0.6" stroke-width="1.3" stroke-linecap="round" stroke-linejoin="round"/>
<line x1="10.5995" y1="5.4" x2="13.3995" y2="5.4" stroke="#3C3C43" stroke-opacity="0.6" stroke-width="1.2" stroke-linecap="round" stroke-linejoin="round"/>
<line x1="10.5995" y1="8.4" x2="13.3995" y2="8.4" stroke="#3C3C43" stroke-opacity="0.6" stroke-width="1.2" stroke-linecap="round" stroke-linejoin="round"/>
</svg>
