<svg width="16" height="14" viewBox="0 0 16 14" fill="none" xmlns="http://www.w3.org/2000/svg">
<path d="M2.66736 7.6849C2.84816 7.6849 2.99376 7.5393 2.99376 7.3569V3.4449C2.99376 3.2641 2.84816 3.1185 2.66736 3.1185C2.48656 3.1185 2.34096 3.2657 2.34096 3.4449V7.3553C2.34096 7.5393 2.48656 7.6849 2.66736 7.6849ZM1.98896 11.0993C2.18896 11.2961 2.46416 11.4145 2.76016 11.4145C3.05616 11.4145 3.32976 11.3041 3.52336 11.1073L3.54096 11.0993V11.0961C3.74096 10.9009 3.85936 10.6305 3.85936 10.3313C3.85936 10.0193 3.74096 9.7441 3.54096 9.5425V9.5521V9.5441C3.33936 9.3489 3.06416 9.2241 2.76016 9.2241C2.46416 9.2241 2.18896 9.3473 1.98896 9.5441V9.5537C1.78736 9.7457 1.66576 10.0209 1.66576 10.3329C1.66576 10.6161 1.78096 10.8865 1.97296 11.0849L1.98896 11.0993ZM2.44816 10.0065C2.52656 9.9281 2.64016 9.8785 2.76016 9.8785C2.88816 9.8785 3.00176 9.9249 3.08016 10.0065C3.16336 10.0897 3.20976 10.1969 3.20976 10.3329C3.20976 10.4513 3.16336 10.5601 3.08016 10.6449C3.00176 10.7249 2.88816 10.7713 2.76016 10.7713C2.64016 10.7713 2.52656 10.7249 2.44816 10.6449L2.42576 10.6337C2.35696 10.5489 2.31376 10.4497 2.31376 10.3329C2.31376 10.1969 2.36336 10.0897 2.44816 10.0065ZM11.581 9.8545C11.581 10.1617 11.7042 10.4385 11.901 10.6353C12.1058 10.8257 12.3826 10.9553 12.6818 10.9553C12.9826 10.9553 13.2578 10.8273 13.4562 10.6353C13.6514 10.4401 13.7794 10.1633 13.7794 9.8545C13.7794 9.5665 13.6642 9.2945 13.4722 9.0993L13.4546 9.0753C13.2546 8.8833 12.9794 8.7665 12.6802 8.7665C12.381 8.7665 12.1042 8.8833 11.8994 9.0753C11.7042 9.2785 11.581 9.5521 11.581 9.8545ZM12.3618 9.5377C12.437 9.4609 12.557 9.4097 12.6802 9.4097C12.7986 9.4097 12.9138 9.4593 12.9938 9.5377L13.0098 9.5537C13.0834 9.6305 13.125 9.7377 13.125 9.8561C13.125 9.9857 13.0754 10.0897 12.9938 10.1761C12.9138 10.2561 12.7986 10.3057 12.6802 10.3057C12.557 10.3057 12.437 10.2561 12.3618 10.1761C12.2802 10.0913 12.2338 9.9873 12.2338 9.8561C12.2338 9.7329 12.2818 9.6209 12.3618 9.5377ZM12.8914 0.880102C12.8146 0.587302 12.5138 0.419302 12.2274 0.496102L9.02096 1.3569C8.92496 1.2065 8.76016 1.1153 8.56656 1.1153H0.704156C0.404956 1.1153 0.160156 1.3489 0.160156 1.6465V12.9793C0.160156 13.2833 0.406556 13.5233 0.704156 13.5233H8.56496C8.86896 13.5233 9.10736 13.2817 9.10736 12.9793V6.1409L10.9778 13.1201C11.0562 13.4065 11.3506 13.5729 11.6434 13.4993L15.4386 12.4849C15.7298 12.4081 15.8994 12.1089 15.821 11.8225L12.8914 0.880102ZM4.30576 12.4353H1.24336V2.1937H4.30736V12.4353H4.30576ZM8.02416 12.4353H4.96016V2.1937H8.02416V12.4353ZM11.8818 12.3169L9.22736 2.4193L11.9842 1.6817L14.6386 11.5793L11.8818 12.3169ZM6.60496 11.4145C6.90256 11.4145 7.17616 11.2961 7.37456 11.0993C7.57936 10.9089 7.70256 10.6321 7.70256 10.3313C7.70256 10.0305 7.58736 9.7617 7.39376 9.5665L7.37456 9.5441C7.17616 9.3489 6.90256 9.2241 6.60496 9.2241C6.29776 9.2241 6.02736 9.3473 5.82896 9.5441C5.62416 9.7457 5.50576 10.0209 5.50576 10.3329C5.50576 10.6337 5.62416 10.9105 5.82896 11.1009C6.02736 11.2961 6.29776 11.4145 6.60496 11.4145ZM6.28816 10.0065C6.36336 9.9281 6.47376 9.8785 6.60496 9.8785C6.72336 9.8785 6.84176 9.9281 6.91536 10.0065L6.93456 10.0209C7.00336 10.0977 7.04976 10.2065 7.04976 10.3329C7.04976 10.4513 7.00016 10.5601 6.91536 10.6449C6.84176 10.7249 6.72336 10.7713 6.60496 10.7713C6.47376 10.7713 6.36336 10.7249 6.28816 10.6449C6.20496 10.5601 6.15056 10.4513 6.15056 10.3329C6.15056 10.1969 6.20496 10.0897 6.28816 10.0065ZM6.60496 7.6849C6.78096 7.6849 6.92176 7.5393 6.92176 7.3569V3.4449C6.92176 3.2641 6.78096 3.1185 6.60496 3.1185C6.42736 3.1185 6.27856 3.2657 6.27856 3.4449V7.3553C6.27856 7.5393 6.42736 7.6849 6.60496 7.6849ZM10.8514 2.9425C10.6738 2.9921 10.5762 3.1697 10.6226 3.3489L11.6354 7.1281C11.6818 7.2977 11.8594 7.4033 12.0274 7.3505C12.2066 7.3137 12.3058 7.1329 12.2594 6.9553L11.2466 3.1777C11.205 3.0065 11.0194 2.9009 10.8514 2.9425Z" fill="#3C3C43" fill-opacity="0.6"/>
</svg>
