<svg width="12" height="14" viewBox="0 0 12 14" fill="none" xmlns="http://www.w3.org/2000/svg">
<path fill-rule="evenodd" clip-rule="evenodd" d="M2.23206 1.89857C2.39147 1.73916 2.60767 1.64961 2.83311 1.64961H10.2831V9.34961H2.83311C2.53795 9.34961 2.24906 9.4103 1.98311 9.52477V2.49961C1.98311 2.27418 2.07266 2.05797 2.23206 1.89857ZM1.98311 11.4996C1.98311 11.725 2.07266 11.9412 2.23206 12.1006C2.39147 12.2601 2.60767 12.3496 2.83311 12.3496H10.2831V10.6496H2.83311C2.60767 10.6496 2.39147 10.7392 2.23206 10.8986C2.07266 11.058 1.98311 11.2742 1.98311 11.4996ZM11.5831 9.99961V0.999609C11.5831 0.640624 11.2921 0.349609 10.9331 0.349609H2.83311C2.26289 0.349609 1.71603 0.576127 1.31283 0.97933C0.909623 1.38253 0.683105 1.92939 0.683105 2.49961V11.4996C0.683105 12.0698 0.909623 12.6167 1.31283 13.0199C1.71603 13.4231 2.26289 13.6496 2.83311 13.6496H10.9331C11.2921 13.6496 11.5831 13.3586 11.5831 12.9996V9.99961Z" fill="#3C3C43" fill-opacity="0.6"/>
</svg>
