<svg width="13" height="16" viewBox="0 0 13 16" fill="none" xmlns="http://www.w3.org/2000/svg">
<path d="M7.33317 1.33301H1.99984C1.64622 1.33301 1.30708 1.47348 1.05703 1.72353C0.80698 1.97358 0.666504 2.31272 0.666504 2.66634V13.333C0.666504 13.6866 0.80698 14.0258 1.05703 14.2758C1.30708 14.5259 1.64622 14.6663 1.99984 14.6663H9.99984C10.3535 14.6663 10.6926 14.5259 10.9426 14.2758C11.1927 14.0258 11.3332 13.6866 11.3332 13.333V10.9997M7.33317 1.33301L10.9426 4.66634H8.33317C7.78089 4.66634 7.33317 4.21863 7.33317 3.66634V1.33301Z" stroke="#3C3C43" stroke-opacity="0.6" stroke-width="1.3" stroke-linecap="round" stroke-linejoin="round"/>
<path d="M6.66634 8.66602H3.33301" stroke="#3C3C43" stroke-opacity="0.6" stroke-width="1.3" stroke-linecap="round" stroke-linejoin="round"/>
<path d="M4.66634 11.333H3.33301" stroke="#3C3C43" stroke-opacity="0.6" stroke-width="1.3" stroke-linecap="round" stroke-linejoin="round"/>
<path d="M11.3974 6.21774C11.5369 6.07832 11.7259 6 11.9231 6C12.0207 6 12.1174 6.01923 12.2076 6.05659C12.2978 6.09395 12.3797 6.1487 12.4488 6.21774C12.5178 6.28677 12.5726 6.36872 12.6099 6.45891C12.6473 6.5491 12.6665 6.64577 12.6665 6.7434C12.6665 6.84102 12.6473 6.93769 12.6099 7.02788C12.5726 7.11807 12.5178 7.20003 12.4488 7.26906L8.06826 11.6496L6.6665 12L7.01694 10.5982L11.3974 6.21774Z" fill="#3C3C43" fill-opacity="0.6"/>
</svg>
