<svg width="14" height="14" viewBox="0 0 14 14" fill="none" xmlns="http://www.w3.org/2000/svg">
<path fill-rule="evenodd" clip-rule="evenodd" d="M7.0001 1.64961C6.25451 1.64961 5.6501 2.25402 5.6501 2.99961C5.6501 3.74519 6.25451 4.34961 7.0001 4.34961C7.74568 4.34961 8.3501 3.74519 8.3501 2.99961C8.3501 2.25402 7.74568 1.64961 7.0001 1.64961ZM7.6501 5.56931C8.7994 5.2795 9.6501 4.2389 9.6501 2.99961C9.6501 1.53605 8.46365 0.349609 7.0001 0.349609C5.53654 0.349609 4.3501 1.53605 4.3501 2.99961C4.3501 4.2389 5.2008 5.2795 6.3501 5.56931V5.68359H3.4001C2.97925 5.68359 2.55698 5.82189 2.22973 6.0946C1.89902 6.37019 1.68343 6.77212 1.68343 7.22248V9.79256C0.907311 10.0617 0.350098 10.7992 0.350098 11.6669C0.350098 12.7623 1.23807 13.6503 2.33343 13.6503C3.4288 13.6503 4.31676 12.7623 4.31676 11.6669C4.31676 10.7992 3.75955 10.0617 2.98343 9.79256V7.22248C2.98343 7.20135 2.9926 7.15109 3.06197 7.09329C3.1348 7.0326 3.25515 6.98359 3.4001 6.98359H6.3501V9.79259C5.57402 10.0617 5.01685 10.7993 5.01685 11.6669C5.01685 12.7623 5.90481 13.6503 7.00018 13.6503C8.09554 13.6503 8.98351 12.7623 8.98351 11.6669C8.98351 10.7992 8.42626 10.0616 7.6501 9.79253V6.98359H10.6001C10.745 6.98359 10.8654 7.0326 10.9382 7.09329C11.0076 7.15109 11.0168 7.20135 11.0168 7.22248V9.79256C10.2406 10.0617 9.68343 10.7992 9.68343 11.6669C9.68343 12.7623 10.5714 13.6503 11.6668 13.6503C12.7621 13.6503 13.6501 12.7623 13.6501 11.6669C13.6501 10.7992 13.0929 10.0617 12.3168 9.79256V7.22248C12.3168 6.77212 12.1012 6.37019 11.7705 6.0946C11.4432 5.82189 11.0209 5.68359 10.6001 5.68359H7.6501V5.56931ZM11.6668 10.9836C11.2894 10.9836 10.9834 11.2895 10.9834 11.6669C10.9834 12.0443 11.2894 12.3503 11.6668 12.3503C12.0442 12.3503 12.3501 12.0443 12.3501 11.6669C12.3501 11.2895 12.0442 10.9836 11.6668 10.9836ZM2.33343 10.9836C1.95604 10.9836 1.6501 11.2895 1.6501 11.6669C1.6501 12.0443 1.95604 12.3503 2.33343 12.3503C2.71083 12.3503 3.01676 12.0443 3.01676 11.6669C3.01676 11.2895 2.71083 10.9836 2.33343 10.9836ZM7.00018 10.9836C6.62279 10.9836 6.31685 11.2895 6.31685 11.6669C6.31685 12.0443 6.62279 12.3503 7.00018 12.3503C7.37757 12.3503 7.68351 12.0443 7.68351 11.6669C7.68351 11.2895 7.37757 10.9836 7.00018 10.9836Z" fill="#3C3C43" fill-opacity="0.6"/>
</svg>
