<svg width="15" height="15" viewBox="0 0 15 15" fill="none" xmlns="http://www.w3.org/2000/svg">
<path fill-rule="evenodd" clip-rule="evenodd" d="M1.50215 6.84452C1.50215 3.89401 3.89401 1.50215 6.84452 1.50215C9.79503 1.50215 12.1869 3.89401 12.1869 6.84452C12.1869 9.79503 9.79503 12.1869 6.84452 12.1869C3.89401 12.1869 1.50215 9.79503 1.50215 6.84452ZM6.84452 0.202148C3.17604 0.202148 0.202148 3.17604 0.202148 6.84452C0.202148 10.513 3.17604 13.4869 6.84452 13.4869C8.36549 13.4869 9.76707 12.9757 10.8868 12.1157L12.9026 14.1263C13.1568 14.3798 13.5684 14.3793 13.8219 14.1251C14.0754 13.871 14.0748 13.4594 13.8207 13.2059L11.8364 11.2267C12.8639 10.0572 13.4869 8.52363 13.4869 6.84452C13.4869 3.17604 10.513 0.202148 6.84452 0.202148Z" fill="#3C3C43" fill-opacity="0.6"/>
</svg>
