<svg width="16" height="16" viewBox="0 0 16 16" fill="none" xmlns="http://www.w3.org/2000/svg">
<path fill-rule="evenodd" clip-rule="evenodd" d="M2.67594 3.27059C2.65224 3.30919 2.65023 3.32825 2.6501 3.33261C2.6501 3.33294 2.6501 3.33327 2.6501 3.33359V3.3346C2.65024 3.339 2.65229 3.35806 2.67594 3.3966C2.70553 3.4448 2.76474 3.51551 2.87394 3.60157C3.09615 3.77668 3.45796 3.96282 3.96301 4.13116C4.96629 4.46559 6.39367 4.68359 8.0001 4.68359C9.60653 4.68359 11.0339 4.46559 12.0372 4.13116C12.5422 3.96282 12.904 3.77668 13.1263 3.60157C13.2355 3.51551 13.2947 3.4448 13.3243 3.3966C13.3479 3.35806 13.35 3.339 13.3501 3.3346L13.3501 3.33363L13.3501 3.33359C13.3501 3.33327 13.3501 3.33294 13.3501 3.33261C13.35 3.32825 13.348 3.30919 13.3243 3.27059C13.2947 3.22239 13.2355 3.15168 13.1263 3.06562C12.904 2.8905 12.5422 2.70437 12.0372 2.53602C11.0339 2.2016 9.60653 1.98359 8.0001 1.98359C6.39367 1.98359 4.96629 2.2016 3.96301 2.53602C3.45796 2.70437 3.09615 2.8905 2.87394 3.06562C2.76474 3.15168 2.70553 3.22239 2.67594 3.27059ZM13.3501 4.99066C13.0773 5.13212 12.7728 5.25628 12.4483 5.36445C11.28 5.75388 9.70737 5.98359 8.0001 5.98359C6.29282 5.98359 4.72019 5.75388 3.55191 5.36445C3.22741 5.25628 2.92285 5.13212 2.6501 4.99066V7.99961V8.00041C2.65016 8.00477 2.65152 8.02445 2.67625 8.06503C2.70563 8.11324 2.7643 8.18377 2.87254 8.26954C3.0929 8.44416 3.45243 8.62997 3.95593 8.79806C4.95622 9.132 6.38333 9.34961 8.0001 9.34961C9.61687 9.34961 11.044 9.132 12.0443 8.79806C12.5478 8.62997 12.9073 8.44416 13.1277 8.26954C13.2359 8.18377 13.2946 8.11324 13.3239 8.06503C13.3488 8.02428 13.3501 8.0046 13.3501 8.00036C13.3501 8.0001 13.3501 7.9999 13.3501 7.99976V7.99961V4.99066ZM14.6501 7.99961V3.33359C14.6501 2.77293 14.3086 2.34225 13.9309 2.04459C13.5459 1.74115 13.029 1.49632 12.4483 1.30274C11.28 0.913307 9.70737 0.683594 8.0001 0.683594C6.29282 0.683594 4.72019 0.913307 3.55191 1.30274C2.97116 1.49632 2.4543 1.74115 2.06927 2.04459C1.69158 2.34225 1.3501 2.77293 1.3501 3.33359V7.99961V12.6669C1.3501 13.2259 1.68784 13.6568 2.06516 13.9557C2.44896 14.2599 2.96444 14.5049 3.54427 14.6985C4.71064 15.0879 6.28353 15.3169 8.0001 15.3169C9.71666 15.3169 11.2896 15.0879 12.4559 14.6985C13.0358 14.5049 13.5512 14.2599 13.935 13.9557C14.3124 13.6568 14.6501 13.2259 14.6501 12.6669V7.99961ZM13.3501 9.66015C13.0795 9.80053 12.7776 9.92376 12.4559 10.0312C11.2896 10.4205 9.71666 10.6496 8.0001 10.6496C6.28353 10.6496 4.71064 10.4205 3.54427 10.0312C3.22257 9.92376 2.92068 9.80053 2.6501 9.66015V12.6669L2.6501 12.6671C2.65008 12.6696 2.64993 12.6892 2.67625 12.7324C2.70563 12.7806 2.7643 12.8511 2.87254 12.9369C3.0929 13.1115 3.45243 13.2973 3.95593 13.4654C4.95622 13.7993 6.38333 14.0169 8.0001 14.0169C9.61687 14.0169 11.044 13.7993 12.0443 13.4654C12.5478 13.2973 12.9073 13.1115 13.1277 12.9369C13.2359 12.8511 13.2946 12.7806 13.3239 12.7324C13.3503 12.6892 13.3501 12.6696 13.3501 12.6671V12.6669V9.66015Z" fill="#3C3C43" fill-opacity="0.6"/>
</svg>
