<svg width="16" height="16" viewBox="0 0 16 16" fill="none" xmlns="http://www.w3.org/2000/svg">
<path fill-rule="evenodd" clip-rule="evenodd" d="M0.0166016 1.99961C0.0166016 1.64062 0.307616 1.34961 0.666602 1.34961H15.3333C15.6923 1.34961 15.9833 1.64062 15.9833 1.99961V5.33294C15.9833 5.69193 15.6923 5.98294 15.3333 5.98294H14.6499V14.0003C14.6499 14.3592 14.3588 14.6503 13.9999 14.6503H1.99985C1.64087 14.6503 1.34985 14.3592 1.34985 14.0003V5.98294H0.666602C0.307616 5.98294 0.0166016 5.69193 0.0166016 5.33294V1.99961ZM2.64985 5.98294H13.3499V13.3503H2.64985V5.98294ZM1.3166 2.64961V4.68294H14.6833V2.64961H1.3166ZM6.6666 7.34961C6.30762 7.34961 6.0166 7.64062 6.0166 7.99961C6.0166 8.35859 6.30762 8.64961 6.6666 8.64961H9.33327C9.69225 8.64961 9.98327 8.35859 9.98327 7.99961C9.98327 7.64062 9.69225 7.34961 9.33327 7.34961H6.6666Z" fill="#3C3C43" fill-opacity="0.6"/>
</svg>
