<svg width="16" height="16" viewBox="0 0 16 16" fill="none" xmlns="http://www.w3.org/2000/svg">
<path d="M11.5197 12.6661V12.3757C11.5197 11.9134 11.3361 11.4701 11.0093 11.1433C10.6824 10.8164 10.2391 10.6328 9.77688 10.6328H6.29119C5.82895 10.6328 5.38565 10.8164 5.05881 11.1433C4.73196 11.4701 4.54834 11.9134 4.54834 12.3757V12.6661" stroke="#3C3C43" stroke-opacity="0.6" stroke-width="1.3" stroke-linecap="round" stroke-linejoin="round"/>
<path d="M8.03386 8.59995C8.99641 8.59995 9.77671 7.81965 9.77671 6.8571C9.77671 5.89456 8.99641 5.11426 8.03386 5.11426C7.07131 5.11426 6.29102 5.89456 6.29102 6.8571C6.29102 7.81965 7.07131 8.59995 8.03386 8.59995Z" stroke="#3C3C43" stroke-opacity="0.6" stroke-width="1.3" stroke-linecap="round" stroke-linejoin="round"/>
<path d="M3.67688 9.47168C3.13761 9.47168 2.62042 9.6859 2.2391 10.0672C1.85778 10.4485 1.64355 10.9657 1.64355 11.505V12.5217" stroke="#3C3C43" stroke-opacity="0.6" stroke-width="1.3" stroke-linecap="round" stroke-linejoin="round"/>
<path d="M4.36818 6.96005C3.9247 6.57378 3.65152 5.99915 3.6704 5.36543C3.70384 4.24295 4.6409 3.36012 5.76338 3.39356C5.96516 3.39958 6.1592 3.43479 6.34156 3.49503" stroke="#3C3C43" stroke-opacity="0.6" stroke-width="1.3" stroke-linecap="round" stroke-linejoin="round"/>
<path d="M12.4442 9.50977C12.9835 9.50977 13.5007 9.72399 13.882 10.1053C14.2633 10.4866 14.4775 11.0038 14.4775 11.5431V12.5597" stroke="#3C3C43" stroke-opacity="0.6" stroke-width="1.3" stroke-linecap="round" stroke-linejoin="round"/>
<path d="M11.7529 6.99814C12.1964 6.61186 12.4696 6.03724 12.4507 5.40351C12.4172 4.28104 11.4802 3.39821 10.3577 3.43165C10.1559 3.43766 9.9619 3.47288 9.77953 3.53312" stroke="#3C3C43" stroke-opacity="0.6" stroke-width="1.3" stroke-linecap="round" stroke-linejoin="round"/>
</svg>
