<svg xmlns="http://www.w3.org/2000/svg" id="Group_6281" width="101.627" height="66.437" data-name="Group 6281" viewBox="0 0 101.627 66.437">
    <defs>
        <style>
            .cls-1{fill:#21326f}.cls-2{fill:#4c55a8}.cls-3{fill:#6072d8}
        </style>
    </defs>
    <rect id="Rectangle_1620" width="12.715" height="13.871" class="cls-1" data-name="Rectangle 1620" rx="6" transform="translate(0 22.547)"/>
    <rect id="Rectangle_1621" width="12.715" height="38.144" class="cls-1" data-name="Rectangle 1621" rx="6" transform="translate(88.913 10.414)"/>
    <rect id="Rectangle_1601" width="19.771" height="35.283" class="cls-2" data-name="Rectangle 1601" rx="9.886" transform="translate(5.855 12.229)"/>
    <path id="Path_20368" d="M11002.81 4063.454h-1.908a.943.943 0 0 0-.944.945v2.385h-2.537a3.9 3.9 0 0 0-3.9 3.9v45.11a3.9 3.9 0 0 0 3.9 3.9h2.537v2.464a.941.941 0 0 0 .944.943h1.908a.939.939 0 0 0 .942-.943V4064.4a.941.941 0 0 0-.942-.946z" class="cls-3" data-name="Path 20368" transform="translate(-10977.681 -4063.454)"/>
    <rect id="Rectangle_1602" width="30.282" height="10.909" class="cls-1" data-name="Rectangle 1602" rx="5" transform="translate(43.119 53.216)"/>
    <rect id="Rectangle_1616" width="52.243" height="5.129" class="cls-1" data-name="Rectangle 1616" rx="2.565" transform="translate(32.135 61.307)"/>
    <path id="Rectangle_1603" d="M5.816 0h50.615a5.816 5.816 0 0 1 5.816 5.816H0A5.816 5.816 0 0 1 5.816 0z" class="cls-2" data-name="Rectangle 1603" transform="translate(28.949 3.489)"/>
    <path id="Rectangle_1604" d="M5.816 0h50.615a5.816 5.816 0 0 1 5.816 5.816H0A5.816 5.816 0 0 1 5.816 0z" class="cls-2" data-name="Rectangle 1604" transform="rotate(180 45.598 28.047)"/>
    <path id="Subtraction_33" fill="#4c55a8" stroke="rgba(0,0,0,0)" stroke-miterlimit="10" d="M-2237.119 7550.082h-62.4V7508h62.4v42.08zm-40.949-12.814l-3.513 3.909a16.146 16.146 0 0 0 11.191 4.481 16.1 16.1 0 0 0 11.46-4.747 16.105 16.105 0 0 0 4.747-11.462v-.043-.051h5.3l-8.055-8.951-8.057 8.951h5.561v.095a10.889 10.889 0 0 1-3.209 7.75 10.884 10.884 0 0 1-7.748 3.209 10.892 10.892 0 0 1-7.678-3.142zm-13.891-7.82l8.055 8.953 8.055-8.953h-5.5a10.887 10.887 0 0 1 3.211-7.746 10.887 10.887 0 0 1 7.749-3.209 10.9 10.9 0 0 1 7.6 3.064l3.509-3.907a16.145 16.145 0 0 0-11.105-4.406 16.1 16.1 0 0 0-11.46 4.746 16.1 16.1 0 0 0-4.748 11.458h-5.361z" data-name="Subtraction 33" transform="translate(2328.47 -7497.053)"/>
    <path id="Path_20369" d="M11416.572 4123.1h1.91a.943.943 0 0 0 .945-.943v-2.387h2.53a3.9 3.9 0 0 0 3.9-3.9v-45.111a3.9 3.9 0 0 0-3.9-3.9h-2.53v-2.459a.946.946 0 0 0-.945-.945h-1.91a.942.942 0 0 0-.944.945v57.762a.94.94 0 0 0 .944.938z" class="cls-3" data-name="Path 20369" transform="translate(-11331.24 -4063.454)"/>
</svg>
