<svg xmlns="http://www.w3.org/2000/svg" id="JXxDE9" width="85.902" height="101.626" viewBox="0 0 85.902 101.626">
    <defs>
        <style>
            .cls-2{fill:#c91b4a}.cls-3{fill:#21326f}
        </style>
    </defs>
    <g id="Group_6311" data-name="Group 6311">
        <path id="Path_20402" fill="#4c55a8" d="M14008.67 4159.971h3.366a4.284 4.284 0 0 0 4.43-4.425v-11.164h39.058v.392c0 3.685-.008 7.37.007 11.055a4.246 4.246 0 0 0 4.083 4.135c1.1.023 2.211.007 3.316.008h.374v19.536h-.383c-1.2.013-2.41-.036-3.605.051a4.2 4.2 0 0 0-3.785 4.109c-.015 2.46-.006 4.92-.007 7.381v15.81h.389c1.333.01 2.666-.026 4 .041a3.9 3.9 0 0 1-.585 7.776q-23.253 0-46.506.006a4.5 4.5 0 0 1-2.6-.658 3.9 3.9 0 0 1 2.139-7.164c1.233-.009 2.47 0 3.7 0h.411v-.354-22.592a4.283 4.283 0 0 0-3.5-4.325 4.741 4.741 0 0 0-.864-.077c-1.02-.009-2.041 0-3.062 0h-.367zm11.691 11.729a15.624 15.624 0 1 0 15.636-15.623 15.683 15.683 0 0 0-15.636 15.623z" data-name="Path 20402" transform="translate(-13993.031 -4113.054)"/>
        <path id="Path_20403" d="M14032.137 3986.9a15.513 15.513 0 0 1 .012-1.665 3.683 3.683 0 0 1 2.9-3.267c2.268-.368 4.083.28 4.794 3.01a3.512 3.512 0 0 1 .065.8c.01.375 0 .75 0 1.076 1.043.3 2.064.542 3.047.9a17.043 17.043 0 0 1 8.681 7.147 24.852 24.852 0 0 1 2.81 6.22.4.4 0 0 0 .467.337c1.535-.012 3.071-.018 4.608 0a3.9 3.9 0 0 1 .153 7.8c-.215.006-.43.011-.643.011h-46.6a3.9 3.9 0 0 1-.881-7.722 4.061 4.061 0 0 1 .86-.088q2.369-.012 4.737 0a.343.343 0 0 0 .4-.3 24.632 24.632 0 0 1 3.213-6.842 16.982 16.982 0 0 1 11.228-7.373c.012-.008.038-.016.149-.044z" class="cls-2" data-name="Path 20403" transform="translate(-13993.053 -3981.869)"/>
        <path id="Path_20404" d="M13940.152 4244.729a1.213 1.213 0 0 1-.142.02c-1.738 0-3.481.016-5.22-.022a2.524 2.524 0 0 1-2.42-2.524v-1.348h-3.9v-11.715h3.9v-1.181a2.52 2.52 0 0 1 2.491-2.719c1.735-.068 3.479-.017 5.218-.017.019 0 .038.016.072.033z" class="cls-3" data-name="Path 20404" transform="translate(-13928.469 -4178.296)"/>
        <path id="Path_20405" d="M14313.523 4244.763v-19.493a2.109 2.109 0 0 1 .228-.027c1.607 0 3.221-.011 4.829 0a2.566 2.566 0 0 1 2.707 2.315 7.98 7.98 0 0 1 .033 1.06v.533h3.876v11.72h-3.878c0 .443.006.859 0 1.273a2.571 2.571 0 0 1-2.129 2.577 3.006 3.006 0 0 1-.608.051h-4.829c-.066.004-.13-.003-.229-.009z" class="cls-3" data-name="Path 20405" transform="translate(-14239.296 -4178.324)"/>
        <path id="Path_20406" d="M14100.617 4245.2a9.765 9.765 0 1 1 9.766 9.782 9.779 9.779 0 0 1-9.766-9.782z" class="cls-2" data-name="Path 20406" transform="translate(-14067.432 -4186.563)"/>
    </g>
</svg>
