<svg xmlns="http://www.w3.org/2000/svg" id="Group_6296" width="101.628" height="66.929" data-name="Group 6296" viewBox="0 0 101.628 66.929">
    <defs>
        <style>
            .cls-1{fill:#21326f}.cls-4{fill:#4c55a8}.cls-5{fill:#6072d8}
        </style>
    </defs>
    <rect id="Rectangle_1611" width="28.115" height="12.701" class="cls-1" data-name="Rectangle 1611" rx="4" transform="translate(45.588 54.181)"/>
    <rect id="Rectangle_1617" width="46.657" height="4.009" class="cls-1" data-name="Rectangle 1617" rx="2.005" transform="translate(36.337 62.92)"/>
    <path id="Path_20398" fill="#c91b4a" d="M11835.716 4178.152l-8.543.006v-2.961l8.546-.005v-4.441l-8.549.006v-2.961h8.553v-4.44h-8.554v-2.961h8.557v-4.947l-10.575.007a2.637 2.637 0 0 0-2.637 2.638l.015 22.421a2.638 2.638 0 0 0 2.64 2.635l10.558-.006z" data-name="Path 20398" transform="translate(-11822.504 -4136.481)"/>
    <path id="Subtraction_34" fill="#4c55a8" stroke="rgba(0,0,0,0)" stroke-miterlimit="10" d="M-2410.349 7559.637h-64.075a5.006 5.006 0 0 1-5-5V7513a5 5 0 0 1 5-5h64.075a5 5 0 0 1 5 5v41.636a5.006 5.006 0 0 1-5 5.001zm-15.865-10.607l2.1 1.194a21.262 21.262 0 0 0 3.381-11.525 21.208 21.208 0 0 0-1.677-8.306 21.274 21.274 0 0 0-4.573-6.783 21.269 21.269 0 0 0-6.783-4.574 21.21 21.21 0 0 0-8.307-1.677 21.213 21.213 0 0 0-8.307 1.677 21.274 21.274 0 0 0-6.784 4.574 21.275 21.275 0 0 0-4.574 6.783 21.2 21.2 0 0 0-1.678 8.306 21.25 21.25 0 0 0 3.379 11.514l2.279-1.316 2.24-1.3-1.305-2.264-2.21 1.275a18.543 18.543 0 0 1-1.721-6.885h2.632v-2.614h-2.592a18.685 18.685 0 0 1 1.892-6.76l2.233 1.29 1.307-2.266-2.212-1.275a18.757 18.757 0 0 1 4.946-4.908l1.294 2.246 2.265-1.307-1.3-2.248a18.5 18.5 0 0 1 6.769-1.837v2.5h2.613v-2.525a18.56 18.56 0 0 1 6.968 1.815l-1.32 2.29 2.261 1.307 1.324-2.3a18.7 18.7 0 0 1 4.992 4.916l-2.286 1.316 1.309 2.266 2.307-1.336a18.469 18.469 0 0 1 1.918 6.806h-2.694v2.614h2.734a18.435 18.435 0 0 1-1.746 6.933l-2.286-1.323-1.307 2.264 2.506 1.446.009-.016zm-14.4-8.6l10.954 1.167-10.361-4.022a2.438 2.438 0 0 0-2.193-1.391 2.428 2.428 0 0 0-2.425 2.425 2.428 2.428 0 0 0 2.425 2.426 2.4 2.4 0 0 0 1.6-.6z" data-name="Subtraction 34" transform="translate(2501.828 -7501.046)"/>
    <rect id="Rectangle_1618" width="58.123" height="4.959" class="cls-4" data-name="Rectangle 1618" rx="2.479" transform="translate(30.381)"/>
    <rect id="Rectangle_1610" width="19.863" height="35.446" class="cls-4" data-name="Rectangle 1610" rx="9.931" transform="translate(6.64 15.107)"/>
    <path id="Path_20396" d="M11978.528 4063.454h-1.918a.951.951 0 0 0-.95.955v2.413h-2.546a3.932 3.932 0 0 0-3.919 3.943v45.607a3.933 3.933 0 0 0 3.919 3.944h2.546v2.491a.951.951 0 0 0 .95.954h1.918a.951.951 0 0 0 .948-.954v-58.4a.951.951 0 0 0-.948-.953z" class="cls-5" data-name="Path 20396" transform="translate(-11952.415 -4060.809)"/>
    <path id="Path_20397" d="M12392.248 4123.76h1.917a.953.953 0 0 0 .95-.954v-2.413h2.543a3.935 3.935 0 0 0 3.924-3.943v-45.607a3.935 3.935 0 0 0-3.924-3.944h-2.543v-2.491a.952.952 0 0 0-.95-.955h-1.917a.953.953 0 0 0-.951.955v58.4a.954.954 0 0 0 .951.952z" class="cls-5" data-name="Path 20397" transform="translate(-12299.954 -4060.809)"/>
</svg>
