<svg xmlns="http://www.w3.org/2000/svg" id="Group_6316" width="101.626" height="68.544" data-name="Group 6316" viewBox="0 0 101.626 68.544">
    <defs>
        <style>
            .cls-1{fill:#21326f}.cls-3{fill:#4c55a8}.cls-4{fill:#8192f0}
        </style>
    </defs>
    <rect id="Rectangle_1619" width="12.221" height="12.221" class="cls-1" data-name="Rectangle 1619" rx="6" transform="translate(0 27.637)"/>
    <rect id="Rectangle_1611" width="23.586" height="13.214" class="cls-1" data-name="Rectangle 1611" rx="4" transform="translate(48.99 55.282)"/>
    <rect id="Rectangle_1617" width="42.877" height="4.171" class="cls-1" data-name="Rectangle 1617" rx="2.086" transform="translate(39.425 64.373)"/>
    <path id="Subtraction_35" fill="#4c55a8" stroke="rgba(0,0,0,0)" stroke-miterlimit="10" d="M-2586.431 7562.387h-67.069a5.006 5.006 0 0 1-5-5V7514a5.006 5.006 0 0 1 5-5h67.064a5.006 5.006 0 0 1 5 5v43.388a5.006 5.006 0 0 1-4.995 4.999zm-36.212-45.087c-.047.141-.09.275-.132.406-.1.3-.186.576-.289.847a30.713 30.713 0 0 1-2.771 5.376c-.883 1.406-1.789 2.83-2.666 4.207l-.026.041c-.813 1.278-1.735 2.726-2.62 4.134a24.392 24.392 0 0 0-2.5 5.29 12.7 12.7 0 0 0-.617 5.927 11.168 11.168 0 0 0 4.107 7.21 11.249 11.249 0 0 0 6.963 2.543h.01c.176 0 .336.007.5.007a12.066 12.066 0 0 0 3.5-.486 11.6 11.6 0 0 0 4.94-3.008 10.92 10.92 0 0 0 3.185-7.5 14.483 14.483 0 0 0-1.086-5.821 29.362 29.362 0 0 0-2.608-5.107c-.859-1.374-1.743-2.749-2.6-4.079l-.046-.072c-.638-.994-1.3-2.021-1.94-3.035l-.083-.132a35.368 35.368 0 0 1-2.583-4.563 6.208 6.208 0 0 1-.642-2.185zm-1.319 33.032h-.209a7.774 7.774 0 0 1-5.515-2.575 7.764 7.764 0 0 1-2.05-5.011 2.132 2.132 0 0 1 .036-.55.988.988 0 0 1 .947-.746h.08a.974.974 0 0 1 .936.938 5.919 5.919 0 0 0 .626 2.678 5.833 5.833 0 0 0 4.654 3.232 4.45 4.45 0 0 0 .472.028h.151a.984.984 0 0 1 .977 1.016.972.972 0 0 1-1 .985h-.1z" data-name="Subtraction 35" transform="translate(2682.146 -7501.766)"/>
    <rect id="Rectangle_1618" width="57.137" height="5.159" class="cls-3" data-name="Rectangle 1618" rx="2.579" transform="translate(33.615)"/>
    <rect id="Rectangle_1610" width="20.665" height="36.877" class="cls-3" data-name="Rectangle 1610" rx="10.332" transform="translate(5.891 15.557)"/>
    <path id="Path_20396" d="M11978.905 4063.453h-2a.987.987 0 0 0-.988.988v2.5h-2.647a4.079 4.079 0 0 0-4.078 4.08v47.2a4.079 4.079 0 0 0 4.078 4.081h2.647v2.578a.987.987 0 0 0 .988.988h2a.988.988 0 0 0 .988-.988v-60.432a.988.988 0 0 0-.988-.995z" class="cls-4" data-name="Path 20396" transform="translate(-11952.506 -4060.702)"/>
    <path id="Path_20397" d="M12392.287 4125.861h2a.988.988 0 0 0 .987-.988v-2.5h2.645a4.082 4.082 0 0 0 4.083-4.08v-47.2a4.081 4.081 0 0 0-4.083-4.081h-2.645v-2.578a.988.988 0 0 0-.987-.988h-2a.988.988 0 0 0-.988.988v60.432a.988.988 0 0 0 .988.995z" class="cls-4" data-name="Path 20397" transform="translate(-12300.371 -4060.702)"/>
</svg>
