<svg xmlns="http://www.w3.org/2000/svg" id="Group_6364" width="73.821" height="100.085" data-name="Group 6364" viewBox="0 0 73.821 100.085">
    <defs>
        <style>
            .cls-4{fill:#21326f}
        </style>
    </defs>
    <path id="Subtraction_42" fill="#21326f" stroke="rgba(0,0,0,0)" stroke-miterlimit="10" d="M-3369.167 7565.54a20.153 20.153 0 0 1-7.89-1.593 20.206 20.206 0 0 1-6.442-4.345 20.208 20.208 0 0 1-4.344-6.443 20.152 20.152 0 0 1-1.593-7.89 20.152 20.152 0 0 1 1.593-7.89 20.2 20.2 0 0 1 4.344-6.442 20.19 20.19 0 0 1 6.442-4.344 20.145 20.145 0 0 1 7.89-1.593 20.146 20.146 0 0 1 7.89 1.593 20.193 20.193 0 0 1 6.443 4.344 20.2 20.2 0 0 1 4.344 6.442 20.142 20.142 0 0 1 1.593 7.89 20.142 20.142 0 0 1-1.593 7.89 20.2 20.2 0 0 1-4.344 6.443 20.2 20.2 0 0 1-6.443 4.345 20.154 20.154 0 0 1-7.89 1.593zm6.845-27.911a6.455 6.455 0 0 0-2.565.5 5.649 5.649 0 0 0-2 1.457 6.624 6.624 0 0 0-1.306 2.309 9.445 9.445 0 0 0-.465 3.053v.655a9.213 9.213 0 0 0 .473 3.057 6.654 6.654 0 0 0 1.312 2.294 5.731 5.731 0 0 0 2 1.445 6.409 6.409 0 0 0 2.563.507 6.357 6.357 0 0 0 2.563-.507 5.564 5.564 0 0 0 2-1.445 6.717 6.717 0 0 0 1.295-2.294 9.567 9.567 0 0 0 .459-3.057v-.655a9.456 9.456 0 0 0-.467-3.053 6.8 6.8 0 0 0-1.3-2.309 5.679 5.679 0 0 0-2-1.457 6.452 6.452 0 0 0-2.562-.5zm-13.838 0a6.32 6.32 0 0 0-2.556.5 5.393 5.393 0 0 0-1.944 1.428 6.575 6.575 0 0 0-1.244 2.257 9.552 9.552 0 0 0-.437 2.972v.979a9.689 9.689 0 0 0 .425 2.97 6.429 6.429 0 0 0 1.215 2.25 5.246 5.246 0 0 0 1.929 1.424 6.376 6.376 0 0 0 2.569.5 7.353 7.353 0 0 0 2.455-.383 5.5 5.5 0 0 0 1.834-1.062 4.909 4.909 0 0 0 1.187-1.629 6.211 6.211 0 0 0 .509-2.085h-3.064a4.125 4.125 0 0 1-.245 1.166 2.2 2.2 0 0 1-.547.832 2.27 2.27 0 0 1-.877.5 4.369 4.369 0 0 1-1.251.163 3.057 3.057 0 0 1-1.394-.292 2.362 2.362 0 0 1-.942-.872 4.324 4.324 0 0 1-.531-1.452 10.79 10.79 0 0 1-.165-2.022v-1a6.372 6.372 0 0 1 .76-3.5 2.6 2.6 0 0 1 2.314-1.131 4.014 4.014 0 0 1 1.287.182 2.135 2.135 0 0 1 .866.522 2.385 2.385 0 0 1 .517.858 4.608 4.608 0 0 1 .23 1.175h3.063a7 7 0 0 0-.528-2.1 4.983 4.983 0 0 0-1.168-1.665 5.293 5.293 0 0 0-1.811-1.094 7.173 7.173 0 0 0-2.455-.391zm13.855 12.767a2.953 2.953 0 0 1-1.373-.312 2.73 2.73 0 0 1-1.02-.921 4.605 4.605 0 0 1-.632-1.5 8.623 8.623 0 0 1-.219-2.056v-.676a6.3 6.3 0 0 1 .833-3.554 2.75 2.75 0 0 1 2.393-1.213 2.741 2.741 0 0 1 2.388 1.213 6.3 6.3 0 0 1 .839 3.554v.676a6.407 6.407 0 0 1-.83 3.564 2.706 2.706 0 0 1-2.374 1.229z" data-name="Subtraction 42" transform="translate(3406.077 -7508.226)"/>
    <g id="Group_6361" data-name="Group 6361" transform="translate(12.106 12.239)">
        <path id="Path_20484" fill="#4c55a8" d="M12603.487 9111.72a24.8 24.8 0 1 1 24.808-24.806 24.835 24.835 0 0 1-24.808 24.806zm0-47.98a23.174 23.174 0 1 0 23.175 23.175 23.2 23.2 0 0 0-23.175-23.176z" data-name="Path 20484" transform="translate(-12578.683 -9062.11)"/>
    </g>
    <g id="Group_6363" data-name="Group 6363">
        <path id="Path_20487" fill="#8192f0" d="M12618.527 9125.871h-26.216a23.828 23.828 0 0 1-23.8-23.8v-26.48a23.83 23.83 0 0 1 23.8-23.8h26.216a23.829 23.829 0 0 1 23.8 23.8v26.48a23.827 23.827 0 0 1-23.8 23.8zm-26.216-69.54a19.278 19.278 0 0 0-19.257 19.257v26.48a19.279 19.279 0 0 0 19.257 19.258h26.216a19.28 19.28 0 0 0 19.258-19.258v-26.48a19.279 19.279 0 0 0-19.258-19.257z" data-name="Path 20487" transform="translate(-12568.508 -9051.785)"/>
    </g>
    <path id="Path_20488" d="M12588.07 9171.029a27.919 27.919 0 0 1-19.753-8.145 1.62 1.62 0 0 1-.156-2.393 1.72 1.72 0 0 1 2.46.015 46.472 46.472 0 0 0 4.306 3.4 23.935 23.935 0 0 0 15.032 3.733 24.554 24.554 0 0 0 14.588-6.1c.372-.323.713-.687 1.073-1.026a1.655 1.655 0 1 1 2.317 2.354 27.612 27.612 0 0 1-13.7 7.486 28.8 28.8 0 0 1-6.167.676z" class="cls-4" data-name="Path 20488" transform="translate(-12551.322 -9070.944)"/>
    <path id="Path_20489" d="M12591.96 9159.36a20.594 20.594 0 0 1-14.066-6.1 1.642 1.642 0 1 1 2.277-2.356 17.1 17.1 0 0 0 7.864 4.519 17.537 17.537 0 0 0 16.8-4.144c.178-.159.344-.331.526-.483a1.63 1.63 0 0 1 2.258 2.352 23.789 23.789 0 0 1-2.443 2.125 21.457 21.457 0 0 1-13.216 4.087z" class="cls-4" data-name="Path 20489" transform="translate(-12555.912 -9066.341)"/>
    <path id="Path_20490" d="M12596.893 9147.712a13.558 13.558 0 0 1-9.375-3.988 1.651 1.651 0 0 1 .523-2.844 1.81 1.81 0 0 1 1.89.58 9.747 9.747 0 0 0 3.959 2.394 10.653 10.653 0 0 0 10.826-2.389 2.709 2.709 0 0 1 1.063-.62 1.588 1.588 0 0 1 1.757.832 1.756 1.756 0 0 1-.387 2.014 14.235 14.235 0 0 1-10.256 4.021z" class="cls-4" data-name="Path 20490" transform="translate(-12560.521 -9061.771)"/>
</svg>
