<svg xmlns="http://www.w3.org/2000/svg" width="88.827" height="102.223" viewBox="0 0 88.827 102.223">
    <defs>
        <style>
            .cls-3{fill:#4c55a8}.cls-2{fill:#21326f}
        </style>
    </defs>
    <g id="Group_6550" data-name="Group 6550" transform="translate(5466.977 5836.392)">
        <path id="Subtraction_37" fill="#4c55a8" stroke="rgba(0,0,0,0)" stroke-miterlimit="10" d="M-9163.106 1776.861a43.627 43.627 0 0 1-17.189-3.49 43.767 43.767 0 0 1-13.978-9.49 43.758 43.758 0 0 1-9.378-14.048 43.356 43.356 0 0 1-3.342-17.114 43.7 43.7 0 0 1 3.4-16.708 43.671 43.671 0 0 1 8.706-13.238 42.741 42.741 0 0 1 26.041-13.164c.787 2.585 2.778 3.951 5.76 3.951h.038c3.09-.012 4.907-1.254 5.719-3.91a37.861 37.861 0 0 1 12.186 3.271 44.529 44.529 0 0 1 11.724 7.706 43.441 43.441 0 0 1 9.247 11.917 43.622 43.622 0 0 1 4.758 15.9 43.851 43.851 0 0 1-1.8 17.918 43.312 43.312 0 0 1-8.308 14.972 44.2 44.2 0 0 1-6.269 6.053 44.122 44.122 0 0 1-7.368 4.718 43.576 43.576 0 0 1-17.224 4.669c-.909.06-1.823.087-2.723.087zm.03-81c-.254 0-.5 0-.747.007a37.025 37.025 0 0 0-14.426 3.187 36.849 36.849 0 0 0-11.585 8.123 37.1 37.1 0 0 0-7.69 11.791 36.761 36.761 0 0 0-2.738 14.192 37.007 37.007 0 0 0 2.979 14.384 37.231 37.231 0 0 0 7.957 11.756 36.978 36.978 0 0 0 11.739 7.931 36.463 36.463 0 0 0 14.329 2.91h.189a37.516 37.516 0 0 0 14.556-2.981 36.983 36.983 0 0 0 11.815-8 36.853 36.853 0 0 0 7.92-11.847 37.2 37.2 0 0 0 2.867-14.524 36.585 36.585 0 0 0-2.889-14.179 37.176 37.176 0 0 0-7.869-11.76 36.867 36.867 0 0 0-11.78-8.023 37.023 37.023 0 0 0-14.627-2.967z" data-name="Subtraction 37" transform="translate(3740.522 -7511.531)"/>
        <path id="Path_20477" d="M14910.074 4597.056h-7.4a2.532 2.532 0 0 1-2.782-2.679c-.02-.742-.022-1.484-.013-2.226a2.528 2.528 0 0 1 2.671-2.719q7.518-.023 15.032.012a2.492 2.492 0 0 1 2.673 2.7c.01.768.014 1.537-.011 2.306a2.464 2.464 0 0 1-2.618 2.587c-2.518.023-5.037.005-7.554.005z" class="cls-2" data-name="Path 20477" transform="translate(-20332.635 -10425.814)"/>
        <path id="Path_20478" d="M14928.149 4622.3c.9 0 1.8.017 2.7-.006.525-.014.773.146.763.721-.024 1.4.02 2.808 0 4.212a2.25 2.25 0 0 1-1.895 2.487 9.711 9.711 0 0 1-3.434-.084 2.112 2.112 0 0 1-1.665-2.243c-.016-1.483.01-2.968-.008-4.45-.006-.5.224-.648.677-.643.952.011 1.907 0 2.86 0z" class="cls-2" data-name="Path 20478" transform="translate(-20350.682 -10449.792)"/>
        <g id="Group_6347" data-name="Group 6347" transform="translate(-5459.67 -5815.664)">
            <g id="Group_6343" data-name="Group 6343" transform="translate(36.428)">
                <g id="Group_6341" data-name="Group 6341">
                    <path id="Rectangle_1624" d="M0 0H1.353V2.512H0z" class="cls-3" data-name="Rectangle 1624"/>
                </g>
                <g id="Group_6342" data-name="Group 6342" transform="translate(0 71.696)">
                    <path id="Rectangle_1625" d="M0 0H1.353V2.512H0z" class="cls-3" data-name="Rectangle 1625"/>
                </g>
            </g>
            <g id="Group_6346" data-name="Group 6346" transform="translate(0 36.428)">
                <g id="Group_6344" data-name="Group 6344" transform="translate(71.696)">
                    <path id="Rectangle_1626" d="M0 0H2.512V1.353H0z" class="cls-3" data-name="Rectangle 1626"/>
                </g>
                <g id="Group_6345" data-name="Group 6345">
                    <path id="Rectangle_1627" d="M0 0H2.512V1.353H0z" class="cls-3" data-name="Rectangle 1627"/>
                </g>
            </g>
        </g>
        <g id="Group_6354" data-name="Group 6354" transform="translate(-5449.281 -5805.275)">
            <g id="Group_6350" data-name="Group 6350">
                <g id="Group_6348" data-name="Group 6348" transform="translate(50.697)">
                    <path id="Rectangle_1628" d="M0 0H2.512V1.353H0z" class="cls-3" data-name="Rectangle 1628" transform="rotate(-45 2.144 .888)"/>
                </g>
                <g id="Group_6349" data-name="Group 6349" transform="translate(0 50.697)">
                    <path id="Rectangle_1629" d="M0 0H2.512V1.353H0z" class="cls-3" data-name="Rectangle 1629" transform="rotate(-45 2.144 .888)"/>
                </g>
            </g>
            <g id="Group_6353" data-name="Group 6353">
                <g id="Group_6351" data-name="Group 6351" transform="translate(50.697 50.697)">
                    <path id="Rectangle_1630" d="M0 0H1.353V2.512H0z" class="cls-3" data-name="Rectangle 1630" transform="rotate(-45 1.154 .478)"/>
                </g>
                <g id="Group_6352" data-name="Group 6352">
                    <path id="Rectangle_1631" d="M0 0H1.353V2.512H0z" class="cls-3" data-name="Rectangle 1631" transform="rotate(-45 1.154 .478)"/>
                </g>
            </g>
        </g>
        <path id="Subtraction_28" d="M30.49 60.976A30.5 30.5 0 0 1 18.621 2.4 30.309 30.309 0 0 1 30.49 0h.3v30.785h30.186A30.462 30.462 0 0 1 30.49 60.976z" class="cls-2" data-name="Subtraction 28" transform="translate(-5452.238 -5809.625)"/>
    </g>
</svg>
