<svg xmlns="http://www.w3.org/2000/svg" width="87.615" height="100.818" viewBox="0 0 87.615 100.818">
    <defs>
        <style>
            .cls-3{fill:#4c55a8}.cls-2{fill:#21326f}.cls-4{fill:#8192f0}
        </style>
    </defs>
    <g id="Group_6355" data-name="Group 6355" transform="translate(.501)">
        <path id="Subtraction_36" fill="#4c55a8" stroke="rgba(0,0,0,0)" stroke-miterlimit="10" d="M-3523.687 7611.049a43.044 43.044 0 0 1-16.954-3.442 43.15 43.15 0 0 1-13.786-9.36 43.15 43.15 0 0 1-9.248-13.854 42.755 42.755 0 0 1-3.3-16.877 43.1 43.1 0 0 1 3.355-16.478 43.058 43.058 0 0 1 8.586-13.055A42.152 42.152 0 0 1-3529.35 7525c.78 2.55 2.746 3.9 5.688 3.9h.031c3.051-.012 4.843-1.237 5.642-3.857a37.356 37.356 0 0 1 12.018 3.227 43.93 43.93 0 0 1 11.561 7.6 42.837 42.837 0 0 1 9.119 11.753 43.026 43.026 0 0 1 4.693 15.685 43.243 43.243 0 0 1-1.778 17.67 42.724 42.724 0 0 1-8.194 14.765 43.582 43.582 0 0 1-6.182 5.97 43.523 43.523 0 0 1-7.267 4.653 42.981 42.981 0 0 1-16.987 4.6c-.894.056-1.794.083-2.681.083zm.032-79.884c-.245 0-.492 0-.734.007a36.513 36.513 0 0 0-14.226 3.143 36.359 36.359 0 0 0-11.426 8.009 36.587 36.587 0 0 0-7.584 11.628 36.259 36.259 0 0 0-2.7 14 36.477 36.477 0 0 0 2.938 14.186 36.7 36.7 0 0 0 7.846 11.593 36.477 36.477 0 0 0 11.577 7.821 35.943 35.943 0 0 0 14.128 2.869h.189a37 37 0 0 0 14.356-2.939 36.468 36.468 0 0 0 11.654-7.889 36.372 36.372 0 0 0 7.81-11.684 36.706 36.706 0 0 0 2.827-14.325 36.091 36.091 0 0 0-2.849-13.982 36.657 36.657 0 0 0-7.76-11.6 36.37 36.37 0 0 0-11.619-7.912 36.514 36.514 0 0 0-14.422-2.926z" data-name="Subtraction 36" transform="translate(3566.972 -7510.731)"/>
        <path id="Path_20477" d="M14909.932 4596.952h-7.295a2.5 2.5 0 0 1-2.744-2.643q-.028-1.1-.012-2.2a2.493 2.493 0 0 1 2.635-2.682q7.411-.023 14.823.013a2.461 2.461 0 0 1 2.639 2.666c.008.757.012 1.516-.013 2.274a2.429 2.429 0 0 1-2.582 2.551c-2.484.023-4.968.006-7.451.006z" class="cls-2" data-name="Path 20477" transform="translate(-14866.622 -4589.421)"/>
        <path id="Path_20478" d="M14928.1 4622.3c.889 0 1.777.016 2.666-.006.519-.014.763.145.753.711-.023 1.384.02 2.77 0 4.154a2.219 2.219 0 0 1-1.868 2.453 9.575 9.575 0 0 1-3.387-.083 2.08 2.08 0 0 1-1.642-2.212c-.016-1.463.008-2.927-.008-4.389-.006-.491.222-.639.668-.634.938.012 1.882 0 2.821 0z" class="cls-2" data-name="Path 20478" transform="translate(-14884.76 -4613.523)"/>
        <g id="Group_6347" data-name="Group 6347" transform="translate(6.713 20.442)">
            <g id="Group_6343" data-name="Group 6343" transform="translate(35.925)">
                <g id="Group_6341" data-name="Group 6341">
                    <path id="Rectangle_1624" d="M0 0H1.334V2.477H0z" class="cls-3" data-name="Rectangle 1624"/>
                </g>
                <g id="Group_6342" data-name="Group 6342" transform="translate(0 70.707)">
                    <path id="Rectangle_1625" d="M0 0H1.334V2.477H0z" class="cls-3" data-name="Rectangle 1625"/>
                </g>
            </g>
            <g id="Group_6346" data-name="Group 6346" transform="translate(0 35.925)">
                <g id="Group_6344" data-name="Group 6344" transform="translate(70.707)">
                    <path id="Rectangle_1626" d="M0 0H2.477V1.334H0z" class="cls-3" data-name="Rectangle 1626"/>
                </g>
                <g id="Group_6345" data-name="Group 6345">
                    <path id="Rectangle_1627" d="M0 0H2.477V1.334H0z" class="cls-3" data-name="Rectangle 1627"/>
                </g>
            </g>
        </g>
        <g id="Group_6354" data-name="Group 6354" transform="translate(16.96 30.687)">
            <g id="Group_6350" data-name="Group 6350">
                <g id="Group_6348" data-name="Group 6348" transform="translate(49.997)">
                    <path id="Rectangle_1628" d="M0 0H2.477V1.334H0z" class="cls-3" data-name="Rectangle 1628" transform="rotate(-45 2.114 .875)"/>
                </g>
                <g id="Group_6349" data-name="Group 6349" transform="translate(0 49.997)">
                    <path id="Rectangle_1629" d="M0 0H2.477V1.334H0z" class="cls-3" data-name="Rectangle 1629" transform="rotate(-45 2.114 .875)"/>
                </g>
            </g>
            <g id="Group_6353" data-name="Group 6353">
                <g id="Group_6351" data-name="Group 6351" transform="translate(49.997 49.997)">
                    <path id="Rectangle_1630" d="M0 0H1.334V2.477H0z" class="cls-3" data-name="Rectangle 1630" transform="rotate(-45 1.138 .471)"/>
                </g>
                <g id="Group_6352" data-name="Group 6352">
                    <path id="Rectangle_1631" d="M0 0H1.334V2.477H0z" class="cls-3" data-name="Rectangle 1631" transform="rotate(-45 1.138 .471)"/>
                </g>
            </g>
        </g>
        <g id="sCpIYt" transform="translate(32.142 28.72)">
            <g id="Group_6374" data-name="Group 6374">
                <path id="Path_20491" d="M12654.8 7293.246q0 7.526-.006 15.051a.787.787 0 0 0 .319.687c3.586 3 4.979 6.839 3.827 11.355a10.472 10.472 0 0 1-8.765 8.121 10.967 10.967 0 0 1-12.71-9.074 10.694 10.694 0 0 1 4.107-10.454.658.658 0 0 0 .249-.6q-.006-14.779-.006-29.556a5.755 5.755 0 0 1 2.739-5.117 4.628 4.628 0 0 1 2.336-.792 10.768 10.768 0 0 1 4.095.268 5.751 5.751 0 0 1 3.81 5.411c.014 2.353 0 4.705 0 7.057zm-2.2.753v-8.111c0-2.431.008-4.862 0-7.292a3.393 3.393 0 0 0-2.705-3.449 9.988 9.988 0 0 0-3.172 0 3.4 3.4 0 0 0-2.7 3.492q0 15.383.01 30.767a.84.84 0 0 1-.444.8 8.536 8.536 0 0 0-4.022 8.24 8.8 8.8 0 1 0 13.363-8.309.622.622 0 0 1-.331-.622q.009-7.757.001-15.515z" class="cls-2" data-name="Path 20491" transform="translate(-12637.32 -7272.802)"/>
                <path id="Path_20492" d="M12893.48 7301.6v1.936h-7.892v-1.936z" class="cls-4" data-name="Path 20492" transform="translate(-12866.208 -7299.351)"/>
                <path id="Path_20493" d="M12885.624 7606.088h7.876v1.945h-7.876z" class="cls-4" data-name="Path 20493" transform="translate(-12866.24 -7580.072)"/>
                <path id="Path_20494" d="M12885.425 7405.163v-1.912h7.884v1.912z" class="cls-4" data-name="Path 20494" transform="translate(-12866.058 -7393.068)"/>
                <path id="Path_20495" d="M12885.42 7506.82v-1.91h7.885v1.91z" class="cls-4" data-name="Path 20495" transform="translate(-12866.053 -7486.79)"/>
                <path id="Path_20496" d="M12885.529 7707.641h7.884v1.929h-7.884z" class="cls-4" data-name="Path 20496" transform="translate(-12866.154 -7673.697)"/>
                <path id="Path_20497" d="M12885.439 7354.308v-1.956h5.907v1.956z" class="cls-4" data-name="Path 20497" transform="translate(-12866.071 -7346.142)"/>
                <path id="Path_20498" d="M12885.566 7555.386h5.9v1.938h-5.9z" class="cls-4" data-name="Path 20498" transform="translate(-12866.188 -7533.327)"/>
                <path id="Path_20499" d="M12891.427 7454.012v1.919h-5.908v-1.919z" class="cls-4" data-name="Path 20499" transform="translate(-12866.145 -7439.866)"/>
                <path id="Path_20500" d="M12891.368 7656.92v1.926h-5.9v-1.926z" class="cls-4" data-name="Path 20500" transform="translate(-12866.096 -7626.936)"/>
                <path id="Path_20501" fill="#c91b4a" d="M12696.091 7548.348c0 2.536 0 5.07-.006 7.6a.506.506 0 0 0 .349.549 7.161 7.161 0 1 1-6.055.045.64.64 0 0 0 .429-.695q-.018-7.428-.008-14.856a1.816 1.816 0 0 1 2.035-2.047c.469 0 .938-.007 1.405 0a1.769 1.769 0 0 1 1.849 1.875q.006 3.766.002 7.529zm3.5 14.361a5.908 5.908 0 0 0-1.245-3.328.713.713 0 0 0-1.012-.251c-.336.229-.377.6-.124 1.033a5.257 5.257 0 0 1 .008 5.651c-.255.44-.224.8.1 1.036.347.243.722.152 1.036-.263a6.257 6.257 0 0 0 1.233-3.878z" data-name="Path 20501" transform="translate(-12682.454 -7518.169)"/>
            </g>
        </g>
    </g>
</svg>
