<svg xmlns="http://www.w3.org/2000/svg" width="87.616" height="100.818" viewBox="0 0 87.616 100.818">
    <defs>
        <style>
            .cls-5{fill:#4c55a8}.cls-2{fill:#21326f}
        </style>
    </defs>
    <g id="Group_6551" data-name="Group 6551" transform="translate(5242.494 5835.26)">
        <path id="Subtraction_38" fill="#4c55a8" stroke="rgba(0,0,0,0)" stroke-miterlimit="10" d="M-9118.713 1775.789a43.029 43.029 0 0 1-16.951-3.441 43.15 43.15 0 0 1-13.787-9.36 43.145 43.145 0 0 1-9.248-13.854 42.747 42.747 0 0 1-3.295-16.878 43.083 43.083 0 0 1 3.355-16.478 43.077 43.077 0 0 1 8.585-13.056 42.155 42.155 0 0 1 25.68-12.983c.781 2.55 2.748 3.9 5.688 3.9h.03c3.051-.011 4.843-1.237 5.641-3.856a37.354 37.354 0 0 1 12.015 3.227 43.9 43.9 0 0 1 11.562 7.6 42.851 42.851 0 0 1 9.119 11.752 43.017 43.017 0 0 1 4.692 15.683 43.24 43.24 0 0 1-1.777 17.67 42.734 42.734 0 0 1-8.192 14.765 43.675 43.675 0 0 1-6.182 5.97 43.565 43.565 0 0 1-7.268 4.654 42.974 42.974 0 0 1-16.986 4.606c-.891.052-1.792.079-2.681.079zm.025-79.884c-.249 0-.5 0-.732.007a36.516 36.516 0 0 0-14.226 3.143 36.351 36.351 0 0 0-11.425 8.01 36.563 36.563 0 0 0-7.584 11.628 36.273 36.273 0 0 0-2.7 14 36.492 36.492 0 0 0 2.938 14.186 36.719 36.719 0 0 0 7.847 11.594 36.5 36.5 0 0 0 11.576 7.822 35.934 35.934 0 0 0 14.128 2.87h.188a37 37 0 0 0 14.355-2.939 36.454 36.454 0 0 0 11.652-7.889 36.338 36.338 0 0 0 7.811-11.684 36.7 36.7 0 0 0 2.827-14.325 36.079 36.079 0 0 0-2.849-13.983 36.632 36.632 0 0 0-7.761-11.6 36.359 36.359 0 0 0-11.619-7.912 36.526 36.526 0 0 0-14.425-2.928z" data-name="Subtraction 38" transform="translate(3920.006 -7510.732)"/>
        <path id="Path_20477" d="M14909.932 4596.952h-7.295a2.5 2.5 0 0 1-2.744-2.643q-.028-1.1-.012-2.2a2.493 2.493 0 0 1 2.635-2.682q7.411-.023 14.823.013a2.461 2.461 0 0 1 2.639 2.666c.008.757.012 1.516-.013 2.274a2.429 2.429 0 0 1-2.582 2.551c-2.484.023-4.968.006-7.451.006z" class="cls-2" data-name="Path 20477" transform="translate(-20108.617 -10424.682)"/>
        <path id="Path_20478" d="M14928.1 4622.3c.889 0 1.777.016 2.666-.006.519-.014.763.145.753.711-.023 1.384.02 2.77 0 4.154a2.219 2.219 0 0 1-1.868 2.453 9.575 9.575 0 0 1-3.387-.083 2.08 2.08 0 0 1-1.642-2.212c-.016-1.463.008-2.927-.008-4.389-.006-.491.222-.639.668-.634.938.012 1.882 0 2.821 0z" class="cls-2" data-name="Path 20478" transform="translate(-20126.754 -10448.783)"/>
        <path id="Path_20479" fill="#60d4ff" d="M14955.6 4720.706a3.826 3.826 0 0 0 .395 1.341 22.117 22.117 0 0 0 1.638 2.883c.931 1.474 1.889 2.931 2.814 4.411a18.056 18.056 0 0 1 1.6 3.136 9.015 9.015 0 0 1 .668 3.574 6.679 6.679 0 0 1-1.955 4.6 7.088 7.088 0 0 1-3.035 1.848 7.633 7.633 0 0 1-2.462.293 7.006 7.006 0 0 1-6.8-5.989 7.863 7.863 0 0 1 .377-3.639 15.082 15.082 0 0 1 1.537-3.248c1.08-1.718 2.182-3.424 3.26-5.145a18.814 18.814 0 0 0 1.7-3.3c.093-.235.163-.481.263-.765z" data-name="Path 20479" transform="translate(-20144.189 -10520.942)"/>
        <path id="Path_20480" fill="#3e97ff" d="M14889.731 4707.142a8.111 8.111 0 0 0 .846 2.883 47.538 47.538 0 0 0 3.521 6.2c2 3.167 4.062 6.3 6.047 9.481a38.66 38.66 0 0 1 3.443 6.742 19.35 19.35 0 0 1 1.431 7.682 14.326 14.326 0 0 1-4.2 9.9 15.223 15.223 0 0 1-6.521 3.97 16.451 16.451 0 0 1-5.3.631 15.06 15.06 0 0 1-14.611-12.873 16.9 16.9 0 0 1 .813-7.822 32.264 32.264 0 0 1 3.3-6.981c2.326-3.694 4.69-7.365 7.012-11.061a40.743 40.743 0 0 0 3.658-7.1c.201-.512.357-1.041.561-1.652z" data-name="Path 20480" transform="translate(-20089.82 -10510.996)"/>
        <g id="Group_6347" data-name="Group 6347" transform="translate(-5235.281 -5814.819)">
            <g id="Group_6343" data-name="Group 6343" transform="translate(35.925)">
                <g id="Group_6341" data-name="Group 6341">
                    <path id="Rectangle_1624" d="M0 0H1.334V2.477H0z" class="cls-5" data-name="Rectangle 1624"/>
                </g>
                <g id="Group_6342" data-name="Group 6342" transform="translate(0 70.707)">
                    <path id="Rectangle_1625" d="M0 0H1.334V2.477H0z" class="cls-5" data-name="Rectangle 1625"/>
                </g>
            </g>
            <g id="Group_6346" data-name="Group 6346" transform="translate(0 35.925)">
                <g id="Group_6344" data-name="Group 6344" transform="translate(70.707)">
                    <path id="Rectangle_1626" d="M0 0H2.477V1.334H0z" class="cls-5" data-name="Rectangle 1626"/>
                </g>
                <g id="Group_6345" data-name="Group 6345">
                    <path id="Rectangle_1627" d="M0 0H2.477V1.334H0z" class="cls-5" data-name="Rectangle 1627"/>
                </g>
            </g>
        </g>
        <g id="Group_6354" data-name="Group 6354" transform="translate(-5225.035 -5804.574)">
            <g id="Group_6350" data-name="Group 6350">
                <g id="Group_6348" data-name="Group 6348" transform="translate(49.997)">
                    <path id="Rectangle_1628" d="M0 0H2.477V1.334H0z" class="cls-5" data-name="Rectangle 1628" transform="rotate(-45 2.114 .875)"/>
                </g>
                <g id="Group_6349" data-name="Group 6349" transform="translate(0 49.997)">
                    <path id="Rectangle_1629" d="M0 0H2.477V1.334H0z" class="cls-5" data-name="Rectangle 1629" transform="rotate(-45 2.114 .875)"/>
                </g>
            </g>
            <g id="Group_6353" data-name="Group 6353">
                <g id="Group_6351" data-name="Group 6351" transform="translate(49.997 49.997)">
                    <path id="Rectangle_1630" d="M0 0H1.334V2.477H0z" class="cls-5" data-name="Rectangle 1630" transform="rotate(-45 1.138 .471)"/>
                </g>
                <g id="Group_6352" data-name="Group 6352">
                    <path id="Rectangle_1631" d="M0 0H1.334V2.477H0z" class="cls-5" data-name="Rectangle 1631" transform="rotate(-45 1.138 .471)"/>
                </g>
            </g>
        </g>
    </g>
</svg>
