<svg xmlns="http://www.w3.org/2000/svg" width="101.627" height="101.627" viewBox="0 0 101.627 101.627">
    <g id="Group_6552" data-name="Group 6552" transform="translate(4363.182 5835.261)">
        <path id="Path_20421" fill="#4c55a8" d="M14118.318 4936.812a30.063 30.063 0 0 0-9.069-1.554c-3.039 0-6.081.08-9.139.125a2.938 2.938 0 0 1 .1-.336 40.914 40.914 0 0 1 15.708-19.147c1.2-.8 1.23-.807 2.477-.13a28.877 28.877 0 0 1 9.274 7.94c.9 1.176 1.731 2.4 2.614 3.587a.571.571 0 0 0 .465.217 28.861 28.861 0 0 1 8.271-1.056.919.919 0 0 0 .177-.037 38.939 38.939 0 0 0-1.99-6.149 44.241 44.241 0 0 0-5.39-9.228c-.714-.946-.7-1 .482-1.161a40.473 40.473 0 0 1 10.332-.022 41.926 41.926 0 0 1 14.309 4.525.716.716 0 0 1 .463.681 30.087 30.087 0 0 1-2.848 14.615q-.557 1.232-1.15 2.445a.431.431 0 0 0 .09.576 27.846 27.846 0 0 1 4.76 6.161 3.885 3.885 0 0 0 .372.477c4.747-4.13 7.628-9.459 10.193-15.174 1 1.44 1.969 2.73 2.832 4.084a40.167 40.167 0 0 1 5.927 16.572c.155 1.2.215 2.406.334 3.607a1.4 1.4 0 0 1-.759 1.428 27.771 27.771 0 0 1-9.6 3.836c-2.111.417-4.271.6-6.415.844-.444.052-.679.149-.814.619a27.711 27.711 0 0 1-3.132 7.335 2.143 2.143 0 0 0-.107.231c5.952 2 12.038 1.773 18.26 1.259-.462 1.047-.847 1.986-1.28 2.9a41 41 0 0 1-14.588 16.705c-1.269.849-1.294.846-2.647.1a28.868 28.868 0 0 1-9.021-7.7c-.949-1.222-1.818-2.505-2.739-3.748a.59.59 0 0 0-.462-.236 29.3 29.3 0 0 1-8.371 1.057.78.78 0 0 0-.127.045c.339 1.161.643 2.34 1.028 3.493a41.609 41.609 0 0 0 6.3 11.772c.227.3.419.635.715 1.091-.84.11-1.519.214-2.2.285a40.453 40.453 0 0 1-14.473-1.092 44.214 44.214 0 0 1-9.186-3.606.768.768 0 0 1-.332-.538 27.044 27.044 0 0 1 1.164-10.325 35.527 35.527 0 0 1 2.762-6.678.53.53 0 0 0-.091-.747 27.874 27.874 0 0 1-4.643-6c-.373-.668-.439-.664-.993-.133a35.52 35.52 0 0 0-7.11 9.524c-.8 1.575-1.568 3.168-2.354 4.752-.044.089-.1.174-.167.3a1.652 1.652 0 0 1-.19-.175 40.452 40.452 0 0 1-8.512-19.867c-.17-1.246-.257-2.5-.408-3.752a1.79 1.79 0 0 1 .975-1.892 29.865 29.865 0 0 1 9.077-3.673 39.319 39.319 0 0 1 6.922-.909c.243-.014.438-.011.535-.329a27.728 27.728 0 0 1 3.389-7.794zm37.011 12.982c.387-8.882-7.383-17.9-18.044-17.758a17.984 17.984 0 0 0-17.344 17.645c-.116 9.38 8.108 18.1 17.7 17.737 9.37.413 18.021-8.04 17.688-17.624z" data-name="Path 20421" transform="translate(-18450.063 -10734.101)"/>
        <path id="Path_20422" fill="#8192f0" d="M14073.782 4833.84a50.813 50.813 0 1 0 50.812 50.813 50.814 50.814 0 0 0-50.812-50.813zm0 97.636a46.823 46.823 0 1 1 46.82-46.823 46.824 46.824 0 0 1-46.82 46.824z" data-name="Path 20422" transform="translate(-18386.148 -10669.102)"/>
        <path id="Subtraction_41" fill="#39d2a0" stroke="rgba(0,0,0,0)" stroke-miterlimit="10" d="M-7180.937 1464.227a19.126 19.126 0 0 1-7.491-1.512 19.18 19.18 0 0 1-6.117-4.124 19.185 19.185 0 0 1-4.125-6.117 19.127 19.127 0 0 1-1.512-7.491 19.124 19.124 0 0 1 1.512-7.49 19.19 19.19 0 0 1 4.125-6.117 19.193 19.193 0 0 1 6.117-4.125 19.126 19.126 0 0 1 7.491-1.512 19.122 19.122 0 0 1 7.491 1.512 19.186 19.186 0 0 1 6.117 4.125 19.188 19.188 0 0 1 4.125 6.117 19.123 19.123 0 0 1 1.512 7.49 19.126 19.126 0 0 1-1.512 7.491 19.184 19.184 0 0 1-4.125 6.117 19.184 19.184 0 0 1-6.117 4.124 19.124 19.124 0 0 1-7.491 1.512zm-5.886-8.213a.246.246 0 0 1 .185.094c.218.23.479.5.762.744.475.415.982.855 1.505 1.263a.824.824 0 0 0 .51.181.807.807 0 0 0 .668-.358.823.823 0 0 0-.231-1.147 17.234 17.234 0 0 1-1.991-1.76.167.167 0 0 1-.034-.22l.032-.073a5.757 5.757 0 0 0 .266-.683 5.675 5.675 0 0 0-.253-3.8 9.529 9.529 0 0 0-1.679-2.651c-.3-.362-.627-.718-.94-1.063-.288-.318-.585-.646-.869-.979a4.578 4.578 0 0 1-1.1-4.642.732.732 0 0 0-.07-.606.823.823 0 0 0-.552-.393.845.845 0 0 0-.157-.015.974.974 0 0 0-.521.165 3.383 3.383 0 0 0-.97.934 13.606 13.606 0 0 0-2.38 6.128c-.034.234-.057.477-.077.691l-.03.3v1.185c0 .023.008.046.013.069v.011a1.013 1.013 0 0 1 .018.12 8.5 8.5 0 0 0 .909 3.379 6.518 6.518 0 0 0 2.454 2.719 5.03 5.03 0 0 0 2.6.726 6.043 6.043 0 0 0 1.813-.3.4.4 0 0 1 .118-.019zm16.076-15.932a.965.965 0 0 0-.106.006.774.774 0 0 0-.525.287.825.825 0 0 0-.176.614 18.7 18.7 0 0 1 .043 2.656c-.005.141-.062.185-.187.229l-.144.054-.033.012a5.478 5.478 0 0 0-.773.332 5.86 5.86 0 0 0-2.68 3.287 15.848 15.848 0 0 0-.747 3.916l-.034.376a11.478 11.478 0 0 1-.2 1.52 4.347 4.347 0 0 1-2.528 3.193.751.751 0 0 0-.459.7.84.84 0 0 0 .719.858 3.535 3.535 0 0 0 .895.11 5.458 5.458 0 0 0 1.054-.114 13.925 13.925 0 0 0 6.7-3.249 8.581 8.581 0 0 0 2.66-4.053 6.148 6.148 0 0 0 .13-3.361 5.308 5.308 0 0 0-2.625-3.341.229.229 0 0 1-.132-.239c.006-.275.005-.553 0-.822v-.313h.07l-.015-.268-.015-.291v-.022c-.022-.436-.045-.886-.083-1.328a.789.789 0 0 0-.81-.749zm-15.663-2.408a.181.181 0 0 1 .133.075 4.727 4.727 0 0 0 1.671 1.185 6.1 6.1 0 0 0 2.459.5 7.93 7.93 0 0 0 1.726-.2 20.618 20.618 0 0 0 3.311-1.088 7.189 7.189 0 0 1 2.174-.613c.152-.012.3-.018.448-.018a4.125 4.125 0 0 1 2.761.968.768.768 0 0 0 .507.188.906.906 0 0 0 .176-.018.789.789 0 0 0 .515-.34.977.977 0 0 0 .106-.744 4.644 4.644 0 0 0-.919-1.8 14.381 14.381 0 0 0-3.847-3.48 10.885 10.885 0 0 0-4.012-1.572c-.2-.034-.407-.059-.605-.083h-.013l-.285-.035h-1.018l-.028.007-.084.02c-.145.024-.3.046-.423.063-.3.042-.6.086-.894.157a5.815 5.815 0 0 0-2.548 1.279 5.332 5.332 0 0 0-1.8 3.816.225.225 0 0 1-.163.233 6.224 6.224 0 0 0-.667.295l-.273.145-.116.062c-.562.3-1.144.608-1.7.941a.7.7 0 0 0-.324.451.835.835 0 0 0 .125.644.814.814 0 0 0 .675.365.794.794 0 0 0 .431-.128 16.737 16.737 0 0 1 2.4-1.249.241.241 0 0 1 .1-.026zm10.592 18.579h-.053c.017-.028.034-.052.049-.075l.056-.082a6.75 6.75 0 0 0 1.224-3.421l.028-.315v-.007a25.131 25.131 0 0 1 .441-3.319 5.258 5.258 0 0 1 1.221-2.533 5.341 5.341 0 0 1 .653-.563l.036-.028c.08-.062.162-.125.24-.19a.681.681 0 0 1 .13-.073h.009c.032-.016.068-.033.109-.056-.015.1-.027.194-.037.265-.03.217-.06.442-.1.657-.256 1.223-.52 2.436-.743 3.46a.861.861 0 0 0 .157.729.8.8 0 0 0 .634.294h.063a.8.8 0 0 0 .719-.6 38.478 38.478 0 0 0 .893-4.344.911.911 0 0 1 .018-.112c0-.022.009-.045.013-.07a3.493 3.493 0 0 1 .815.828 3.775 3.775 0 0 1 .589 2.83 6.768 6.768 0 0 1-2.309 4.091 12.114 12.114 0 0 1-4.834 2.642zm-12.906-1.544a3.661 3.661 0 0 1-.412-.024 3.812 3.812 0 0 1-2.658-1.643 6.76 6.76 0 0 1-1.33-4.1 11.954 11.954 0 0 1 1.274-5.475c.012-.023.026-.048.042-.074a.05.05 0 0 1 .016-.014l.016-.013.048.19c.036.145.071.288.113.431a7.259 7.259 0 0 0 1.8 2.991 20.629 20.629 0 0 1 2.358 2.857 5.183 5.183 0 0 1 .894 2.627 2.825 2.825 0 0 1-.171 1.147l-.18-.216-.008-.01c-.143-.17-.276-.328-.4-.5-.654-.905-1.325-1.847-2-2.8a.925.925 0 0 0-.736-.43.784.784 0 0 0-.422.127.813.813 0 0 0-.366.512.807.807 0 0 0 .115.614 37.486 37.486 0 0 0 2.611 3.589c.031.038.062.078.1.134a3.109 3.109 0 0 1-.704.079zm6.573-16.9a4.679 4.679 0 0 1-.93-.09 3.88 3.88 0 0 1-1.628-.717l.064-.027a1.187 1.187 0 0 1 .127-.049 37.665 37.665 0 0 1 4.008-1.072.971.971 0 0 0 .643-.417.762.762 0 0 0 .08-.607.8.8 0 0 0-.792-.605 1.04 1.04 0 0 0-.209.023 40.066 40.066 0 0 0-4.315 1.16.2.2 0 0 1-.045.009l-.051.008a3.581 3.581 0 0 1 .917-1.827 4.362 4.362 0 0 1 2.369-1.23 6.17 6.17 0 0 1 1.3-.138 7.479 7.479 0 0 1 2.55.477 11.813 11.813 0 0 1 4.706 3.2.467.467 0 0 1 .036.042v.005l.022.03.008.01-.261-.032c-.1-.013-.206-.026-.312-.037a6.381 6.381 0 0 0-.655-.034 7.215 7.215 0 0 0-2.677.545l-.04.016a26.265 26.265 0 0 1-3.186 1.115 6.922 6.922 0 0 1-1.729.238z" data-name="Subtraction 41" transform="translate(2868.544 -7229.361)"/>
    </g>
</svg>
