<svg xmlns="http://www.w3.org/2000/svg" width="101.627" height="101.627" viewBox="0 0 101.627 101.627">
    <defs>
        <style>
            .cls-4{fill:#051d3f}
        </style>
    </defs>
    <g id="Group_6554" data-name="Group 6554" transform="translate(4805.826 5835.261)">
        <path id="Path_20421" fill="#4c55a8" d="M14118.318 4936.812a30.063 30.063 0 0 0-9.069-1.554c-3.039 0-6.081.08-9.139.125a2.938 2.938 0 0 1 .1-.336 40.914 40.914 0 0 1 15.708-19.147c1.2-.8 1.23-.807 2.477-.13a28.877 28.877 0 0 1 9.274 7.94c.9 1.176 1.731 2.4 2.614 3.587a.571.571 0 0 0 .465.217 28.861 28.861 0 0 1 8.271-1.056.919.919 0 0 0 .177-.037 38.939 38.939 0 0 0-1.99-6.149 44.241 44.241 0 0 0-5.39-9.228c-.714-.946-.7-1 .482-1.161a40.473 40.473 0 0 1 10.332-.022 41.926 41.926 0 0 1 14.309 4.525.716.716 0 0 1 .463.681 30.087 30.087 0 0 1-2.848 14.615q-.557 1.232-1.15 2.445a.431.431 0 0 0 .09.576 27.846 27.846 0 0 1 4.76 6.161 3.885 3.885 0 0 0 .372.477c4.747-4.13 7.628-9.459 10.193-15.174 1 1.44 1.969 2.73 2.832 4.084a40.167 40.167 0 0 1 5.927 16.572c.155 1.2.215 2.406.334 3.607a1.4 1.4 0 0 1-.759 1.428 27.771 27.771 0 0 1-9.6 3.836c-2.111.417-4.271.6-6.415.844-.444.052-.679.149-.814.619a27.711 27.711 0 0 1-3.132 7.335 2.143 2.143 0 0 0-.107.231c5.952 2 12.038 1.773 18.26 1.259-.462 1.047-.847 1.986-1.28 2.9a41 41 0 0 1-14.588 16.705c-1.269.849-1.294.846-2.647.1a28.868 28.868 0 0 1-9.021-7.7c-.949-1.222-1.818-2.505-2.739-3.748a.59.59 0 0 0-.462-.236 29.3 29.3 0 0 1-8.371 1.057.78.78 0 0 0-.127.045c.339 1.161.643 2.34 1.028 3.493a41.609 41.609 0 0 0 6.3 11.772c.227.3.419.635.715 1.091-.84.11-1.519.214-2.2.285a40.453 40.453 0 0 1-14.473-1.092 44.214 44.214 0 0 1-9.186-3.606.768.768 0 0 1-.332-.538 27.044 27.044 0 0 1 1.164-10.325 35.527 35.527 0 0 1 2.762-6.678.53.53 0 0 0-.091-.747 27.874 27.874 0 0 1-4.643-6c-.373-.668-.439-.664-.993-.133a35.52 35.52 0 0 0-7.11 9.524c-.8 1.575-1.568 3.168-2.354 4.752-.044.089-.1.174-.167.3a1.652 1.652 0 0 1-.19-.175 40.452 40.452 0 0 1-8.512-19.867c-.17-1.246-.257-2.5-.408-3.752a1.79 1.79 0 0 1 .975-1.892 29.865 29.865 0 0 1 9.077-3.673 39.319 39.319 0 0 1 6.922-.909c.243-.014.438-.011.535-.329a27.728 27.728 0 0 1 3.389-7.794zm37.011 12.982c.387-8.882-7.383-17.9-18.044-17.758a17.984 17.984 0 0 0-17.344 17.645c-.116 9.38 8.108 18.1 17.7 17.737 9.37.413 18.021-8.04 17.688-17.624z" data-name="Path 20421" transform="translate(-18892.705 -10734.101)"/>
        <path id="Path_20422" fill="#8192f0" d="M14073.782 4833.84a50.813 50.813 0 1 0 50.812 50.813 50.814 50.814 0 0 0-50.812-50.813zm0 97.636a46.823 46.823 0 1 1 46.82-46.823 46.824 46.824 0 0 1-46.82 46.824z" data-name="Path 20422" transform="translate(-18828.793 -10669.102)"/>
        <path id="Path_20425" fill="#c2d5f0" d="M19.115 0A19.115 19.115 0 1 1 0 19.115 19.115 19.115 0 0 1 19.115 0z" data-name="Path 20425" transform="translate(-4774.151 -5803.492)"/>
        <g id="Group_6337" data-name="Group 6337" transform="translate(-4767.421 -5798.293)">
            <path id="Path_20465" d="M14222.37 6123.418c.528.192 1.073.343 1.577.583a5.314 5.314 0 0 1 2.456 2.36c-3.968.633-6.062 2.733-6 5.968a5.833 5.833 0 0 0 5.452 5.775c.052.4.088.812.159 1.218a3.794 3.794 0 0 0 3.9 3.31c1.389.007 2.779-.048 4.163.026a4.126 4.126 0 0 1 1.834.518 1.7 1.7 0 0 1 .688 1.195c.066 1.121.047 2.249.036 3.413a.88.88 0 0 1-.879.872h-3.422a.878.878 0 0 1-.877-.879v-1.174a2.161 2.161 0 0 0-2.425-2.474c-1.388-.03-2.777-.009-4.167-.01a3.893 3.893 0 0 1-4.159-4.128v-.636a11.883 11.883 0 0 1-1.822-.241 4.041 4.041 0 0 1-2.157-6.093.677.677 0 0 0 .063-.835 5.732 5.732 0 0 1 3.833-8.668 1.279 1.279 0 0 0 .23-.1z" class="cls-4" data-name="Path 20465" transform="translate(-14215.94 -6123.418)"/>
            <path id="Path_20466" d="M14321.721 6172.488a5.714 5.714 0 0 0-1.1-5.942 4.243 4.243 0 0 1 4.648 1.579 4.538 4.538 0 0 1 .379 5.009z" class="cls-4" data-name="Path 20466" transform="translate(-14303.328 -6159.255)"/>
            <path id="Path_20470" d="M14268.563 6165.112a10.123 10.123 0 0 0-.357-3c-.071-.2-.15-.4-.24-.585a.777.777 0 0 0-.062-.1l.013-.009a6.475 6.475 0 0 0-5.8-3.622h-2.017l.424-.809a4.628 4.628 0 0 0-2.465-6.741 1.03 1.03 0 0 1-.473-.452 4.7 4.7 0 0 0-5.538-2.161 4.907 4.907 0 0 0-3.276 5.12 4.774 4.774 0 0 0 4.147 4.338 12.427 12.427 0 0 0 1.575.01c-.04.177-.069.319-.1.46-.437 1.809.439 4.3 3.265 4.165 1.406-.066 2.819-.034 4.229.006a3 3 0 0 1 3.153 3.2V6168.133a.551.551 0 0 0 .551.552h2.436a.551.551 0 0 0 .552-.552v-3.023z" class="cls-4" data-name="Path 20470" transform="translate(-14243.329 -6143.443)"/>
        </g>
    </g>
</svg>
