<svg xmlns="http://www.w3.org/2000/svg" width="101.627" height="101.627" viewBox="0 0 101.627 101.627">
    <g id="Group_6555" data-name="Group 6555" transform="translate(5027.9 5835.261)">
        <path id="Path_20421" fill="#4c55a8" d="M14118.318 4936.812a30.063 30.063 0 0 0-9.069-1.554c-3.039 0-6.081.08-9.139.125a2.938 2.938 0 0 1 .1-.336 40.914 40.914 0 0 1 15.708-19.147c1.2-.8 1.23-.807 2.477-.13a28.877 28.877 0 0 1 9.274 7.94c.9 1.176 1.731 2.4 2.614 3.587a.571.571 0 0 0 .465.217 28.861 28.861 0 0 1 8.271-1.056.919.919 0 0 0 .177-.037 38.939 38.939 0 0 0-1.99-6.149 44.241 44.241 0 0 0-5.39-9.228c-.714-.946-.7-1 .482-1.161a40.473 40.473 0 0 1 10.332-.022 41.926 41.926 0 0 1 14.309 4.525.716.716 0 0 1 .463.681 30.087 30.087 0 0 1-2.848 14.615q-.557 1.232-1.15 2.445a.431.431 0 0 0 .09.576 27.846 27.846 0 0 1 4.76 6.161 3.885 3.885 0 0 0 .372.477c4.747-4.13 7.628-9.459 10.193-15.174 1 1.44 1.969 2.73 2.832 4.084a40.167 40.167 0 0 1 5.927 16.572c.155 1.2.215 2.406.334 3.607a1.4 1.4 0 0 1-.759 1.428 27.771 27.771 0 0 1-9.6 3.836c-2.111.417-4.271.6-6.415.844-.444.052-.679.149-.814.619a27.711 27.711 0 0 1-3.132 7.335 2.143 2.143 0 0 0-.107.231c5.952 2 12.038 1.773 18.26 1.259-.462 1.047-.847 1.986-1.28 2.9a41 41 0 0 1-14.588 16.705c-1.269.849-1.294.846-2.647.1a28.868 28.868 0 0 1-9.021-7.7c-.949-1.222-1.818-2.505-2.739-3.748a.59.59 0 0 0-.462-.236 29.3 29.3 0 0 1-8.371 1.057.78.78 0 0 0-.127.045c.339 1.161.643 2.34 1.028 3.493a41.609 41.609 0 0 0 6.3 11.772c.227.3.419.635.715 1.091-.84.11-1.519.214-2.2.285a40.453 40.453 0 0 1-14.473-1.092 44.214 44.214 0 0 1-9.186-3.606.768.768 0 0 1-.332-.538 27.044 27.044 0 0 1 1.164-10.325 35.527 35.527 0 0 1 2.762-6.678.53.53 0 0 0-.091-.747 27.874 27.874 0 0 1-4.643-6c-.373-.668-.439-.664-.993-.133a35.52 35.52 0 0 0-7.11 9.524c-.8 1.575-1.568 3.168-2.354 4.752-.044.089-.1.174-.167.3a1.652 1.652 0 0 1-.19-.175 40.452 40.452 0 0 1-8.512-19.867c-.17-1.246-.257-2.5-.408-3.752a1.79 1.79 0 0 1 .975-1.892 29.865 29.865 0 0 1 9.077-3.673 39.319 39.319 0 0 1 6.922-.909c.243-.014.438-.011.535-.329a27.728 27.728 0 0 1 3.389-7.794zm37.011 12.982c.387-8.882-7.383-17.9-18.044-17.758a17.984 17.984 0 0 0-17.344 17.645c-.116 9.38 8.108 18.1 17.7 17.737 9.37.413 18.021-8.04 17.688-17.624z" data-name="Path 20421" transform="translate(-19114.779 -10734.101)"/>
        <path id="Path_20422" fill="#8192f0" d="M14073.782 4833.84a50.813 50.813 0 1 0 50.812 50.813 50.814 50.814 0 0 0-50.812-50.813zm0 97.636a46.823 46.823 0 1 1 46.82-46.823 46.824 46.824 0 0 1-46.82 46.824z" data-name="Path 20422" transform="translate(-19050.867 -10669.102)"/>
        <path id="Subtraction_39" fill="#051d3f" stroke="rgba(0,0,0,0)" stroke-miterlimit="10" d="M-7307.886 1463.97a19 19 0 0 1-7.44-1.5 19.053 19.053 0 0 1-6.075-4.1 19.056 19.056 0 0 1-4.1-6.076 19 19 0 0 1-1.5-7.441 19 19 0 0 1 1.5-7.44 19.056 19.056 0 0 1 4.1-6.076 19.048 19.048 0 0 1 6.075-4.1 19 19 0 0 1 7.44-1.5 19 19 0 0 1 7.441 1.5 19.051 19.051 0 0 1 6.076 4.1 19.052 19.052 0 0 1 4.1 6.076 19 19 0 0 1 1.5 7.44 19 19 0 0 1-1.5 7.441 19.054 19.054 0 0 1-4.1 6.076 19.045 19.045 0 0 1-6.076 4.1 19 19 0 0 1-7.441 1.5zm-.182-33.916c-.022.005-.04.007-.053.009s-.035 0-.042.013c-.066.059-.127.118-.182.176a12.518 12.518 0 0 0-2.876 4.735 13.173 13.173 0 0 0 .309 8.972c.557 1.469 1.233 2.922 1.887 4.327l.01.021.216.464a13.751 13.751 0 0 1 1.171 8.7c-.089.463-.164.918-.243 1.4-.044.267-.088.539-.135.81l.048-.024a.249.249 0 0 0 .063-.037 10.7 10.7 0 0 0 3.123-6.715 13.931 13.931 0 0 0-.886-6.074c-.387-1.033-.836-2.091-1.232-3.025-.237-.559-.506-1.192-.757-1.811a15.994 15.994 0 0 1-1.225-4.7 19.441 19.441 0 0 1 .427-5.231c.106-.581.214-1.149.328-1.75v-.01l.047-.249zm-6.33 6.909l-.069.048a.479.479 0 0 0-.062.047 9.267 9.267 0 0 0-1.918 2.841 9.7 9.7 0 0 0-.142 7.194c.369 1.059.844 2.1 1.3 3.11l.005.011.007.015c.123.27.25.548.373.823a10.049 10.049 0 0 1 .938 5.772c-.073.467-.149.931-.223 1.379l-.033.2c-.037.224-.075.451-.111.68l.055-.035a.43.43 0 0 0 .066-.046 7.746 7.746 0 0 0 2.223-4.56 10.608 10.608 0 0 0-.614-4.864c-.319-.893-.687-1.787-1.042-2.651l-.02-.05c-.187-.454-.38-.924-.563-1.387a10.971 10.971 0 0 1-.592-6.232c.1-.5.187-.991.281-1.512l.014-.076.018-.1.107-.607zm13.107-3.185c-.021.028-.039.056-.058.084v.008a1.142 1.142 0 0 1-.1.14 9.339 9.339 0 0 0-2.018 9.624 29.088 29.088 0 0 0 1.549 3.723l.045.1a10.711 10.711 0 0 1 1.008 6.912c-.064.309-.116.619-.171.948v.045c-.031.183-.062.371-.1.568l.035-.029.051-.039a.51.51 0 0 0 .083-.074q.093-.107.188-.212l.008-.009c.186-.208.377-.424.545-.652a8.116 8.116 0 0 0 1.37-6.4 19.045 19.045 0 0 0-1.477-4.5 18.127 18.127 0 0 1-1.359-4.108 12.455 12.455 0 0 1 .208-4.535c.07-.357.137-.715.205-1.074l.021-.107.066-.352-.09-.055z" data-name="Subtraction 39" transform="translate(2330.775 -7229.23)"/>
    </g>
</svg>
